<svg width="343" height="141" viewBox="0 0 343 141" fill="none" xmlns="http://www.w3.org/2000/svg">
<path d="M160.137 130.588C139.467 135.501 133.443 127.283 133.443 127.283C136.326 137.917 142.473 144.527 142.473 144.527C148.238 146.79 161.601 141.291 161.601 141.291C169.677 136.616 169.695 140.132 169.695 140.132C170.606 141.666 162.531 146.342 162.531 146.342C154.922 149.822 146.832 150.598 146.832 150.598C149.681 153.816 157.786 158.025 157.786 158.025C171.157 168.05 183.605 155.97 183.605 155.97C189.592 152.267 188.561 147.614 188.561 147.614C183.492 137.425 187.588 134.123 187.588 134.123C190.121 133.708 190.726 136.433 190.726 136.433C193.382 142.013 196.097 143.642 196.097 143.642C201.133 147.501 210.149 144.556 210.149 144.556C212.026 142.428 212.248 139.72 213.484 137.607C215.003 134.968 218.312 131.783 219.059 129.36C220.021 126.08 219.398 123.639 219.464 121.095C219.529 116.379 218.611 113.982 218.611 113.982C215.834 118.858 211.231 123.22 211.231 123.22C197.336 134.087 194.479 127.833 194.479 127.833C194.957 126.033 197.693 125.366 197.693 125.366C215.105 119.911 217.226 105.72 217.226 105.72C214.923 97.776 208.997 89.0009 208.997 89.0009C208.997 89.0009 209.027 89.1976 209.019 89.4199C209.14 100.684 195.609 115.097 195.609 115.097C190.635 120.479 189.111 118.07 189.111 118.07C187.675 115.709 192.238 112.841 192.238 112.841C201.603 103.57 203.564 86.6686 203.564 86.6686C197.037 77.4999 188.976 73.586 188.976 73.586C192.482 80.1455 186.947 96.1289 186.947 96.1289C186.207 105.932 180.926 108.705 180.926 108.705C177.195 107.408 179.272 101.61 179.272 101.61C186.276 87.802 181.36 71.8587 181.36 71.8587C176.408 71.6875 172.312 71.1882 168.93 70.6234C171.284 74.2967 173.846 79.5079 173.897 84.4676C173.897 84.4676 173.849 93.2427 170.449 92.9622C170.449 92.9622 167.301 91.2567 167.975 77.4817C167.975 77.4817 168.642 74.2457 167.417 70.3246C155.541 67.9413 153.387 63.8562 153.387 63.8562C154.987 68.5462 143.439 81.6798 143.439 81.6798C147.979 88.7094 157.491 93.4541 157.491 93.4541C165.395 96.446 163.354 100.046 163.354 100.046C161.933 103.213 157.527 101.573 157.527 101.573C143.337 93.4797 139.033 81.126 139.033 81.126C133.293 88.673 133.224 95.4002 133.224 95.4002C142.761 110.498 153.311 111.529 153.311 111.529C157.145 111.343 163.482 112.717 163.482 112.717C168.285 113.373 168.168 117.473 168.168 117.473C164.801 120.807 156.35 118.198 156.35 118.198C141.234 113.902 130.622 101.457 130.622 101.457C127.969 110.155 130.834 119.444 130.834 119.444C137.189 128.679 146.584 127.749 146.584 127.749C159.415 127.075 165.617 129.032 165.617 129.032C168.387 130.351 160.137 130.588 160.137 130.588Z" fill="#EAF6F6"/>
<path d="M172.697 109.36C175.248 113.004 177.518 116.79 179.617 120.642C181.705 124.556 183.622 128.535 185.258 132.657C186.931 136.753 188.359 140.966 189.42 145.273C189.963 147.445 190.371 149.657 190.717 151.858C191.027 154.085 191.238 156.326 191.315 158.607L187.601 158.654C187.59 156.544 187.518 154.424 187.284 152.306C187.051 150.189 186.756 148.061 186.326 145.973C185.502 141.771 184.285 137.628 182.835 133.539C181.41 129.486 179.69 125.478 177.824 121.571C175.922 117.69 173.823 113.838 171.53 110.176L172.697 109.36Z" fill="#EAF6F6"/>
<path d="M260.469 115.981C262.861 116.978 265.227 117.936 267.622 118.766C270.041 119.635 272.436 120.465 274.884 121.206C277.289 121.938 279.713 122.585 282.155 123.147C284.606 123.722 287.111 124.208 289.554 124.513C294.53 125.177 299.555 125.315 304.469 124.592C306.922 124.197 309.324 123.578 311.675 122.735C314.039 121.885 316.307 120.712 318.539 119.397C316.694 121.232 314.611 122.781 312.29 124.043C309.969 125.305 307.488 126.23 304.911 126.833C299.743 128.102 294.343 128.148 289.175 127.443C287.87 127.288 286.593 127.006 285.302 126.788L283.387 126.365C282.748 126.224 282.124 126.019 281.485 125.878C278.986 125.17 276.527 124.326 274.11 123.346C271.683 122.408 269.324 121.318 267.031 120.075C264.76 118.837 262.567 117.549 260.469 115.981Z" fill="#EAF6F6"/>
<path d="M316.119 119.128C316.153 118.064 316.29 116.989 316.491 115.929C316.692 114.868 316.981 113.861 317.31 112.829C317.927 110.789 318.737 108.791 319.699 106.861C320.205 105.935 320.685 104.97 321.255 104.058C321.559 103.589 321.8 103.107 322.129 102.677L323.028 101.336C323.285 100.879 323.593 100.445 323.952 100.033L324.876 98.7303C325.205 98.3008 325.559 97.9103 325.913 97.5197L326.911 96.3341L327.017 96.1566C327.095 96.1069 327.11 96.043 327.11 96.043L327.333 95.791L327.729 95.2089C328.036 94.8302 328.326 94.4256 328.6 93.995C329.18 93.1858 329.736 92.3375 330.291 91.4893C331.427 89.8318 332.411 88.1071 333.433 86.3576C334.456 84.6081 335.326 82.7914 336.234 80.9498C337.079 79.0941 337.797 77.2103 338.581 75.1738C338.65 76.2269 338.744 77.3189 338.671 78.4076C338.661 78.9076 338.637 79.4715 338.588 79.9964L338.363 81.6207C338.001 83.7169 337.432 85.8346 336.687 87.8461C335.966 89.8967 335.068 91.8411 334.018 93.7183C333.494 94.674 332.954 95.6038 332.397 96.5076C332.098 96.9548 331.785 97.4103 331.459 97.874L331.01 98.5448L330.84 98.7082L330.695 98.9105C330.603 99.0241 330.564 99.049 330.55 99.1128L330.419 99.2513C329.749 100.007 329.041 100.789 328.397 101.584C327.753 102.379 327.084 103.135 326.478 103.905C325.19 105.496 324.004 107.075 322.765 108.743C321.578 110.379 320.429 112.044 319.318 113.741C318.231 115.476 317.131 117.275 316.119 119.128Z" fill="#EAF6F6"/>
<path d="M256.031 112.121C261.401 112.972 266.625 114.025 271.85 115.078C277.074 116.132 282.274 117.146 287.463 118.057C292.627 118.93 297.805 119.739 302.969 120.008C305.582 120.15 308.16 120.15 310.706 119.842C313.227 119.495 315.729 118.775 317.904 117.113C317.214 118.266 316.18 119.31 315.036 120.095C313.853 120.905 312.584 121.495 311.265 122.008C308.579 122.955 305.799 123.412 303.037 123.639C302.335 123.685 301.646 123.723 300.97 123.752C300.278 123.755 299.585 123.759 298.892 123.762C297.52 123.76 296.162 123.695 294.779 123.59C293.422 123.469 292.056 123.335 290.683 123.188C289.344 122.981 288.006 122.775 286.668 122.569C281.287 121.615 276.03 120.253 270.922 118.523C268.36 117.689 265.827 116.728 263.347 115.678C262.101 115.158 260.864 114.594 259.636 113.988C258.425 113.408 257.223 112.786 256.031 112.121Z" fill="#EAF6F6"/>
<path d="M260.443 99.2697C260.878 99.7231 261.332 100.147 261.803 100.541C262.274 100.935 262.749 101.308 263.23 101.66C264.233 102.372 265.25 103.021 266.282 103.606C268.361 104.802 270.522 105.781 272.775 106.647C274.964 107.498 277.245 108.236 279.515 108.872C281.849 109.521 284.148 110.029 286.524 110.486C291.238 111.427 296.008 112.112 300.846 112.644C302.062 112.746 303.289 112.95 304.506 113.051L306.336 113.254C306.951 113.301 307.561 113.368 308.166 113.457C309.382 113.559 310.624 113.699 311.865 113.839C313.111 113.958 314.36 114.111 315.614 114.299C314.385 114.607 313.152 114.882 311.916 115.123C310.693 115.355 309.42 115.509 308.211 115.677C306.963 115.87 305.705 115.961 304.446 116.051C303.829 116.116 303.187 116.141 302.585 116.142C301.951 116.181 301.318 116.219 300.684 116.258C295.667 116.389 290.634 115.981 285.626 115.009L284.668 114.797L283.75 114.561C283.136 114.459 282.537 114.293 281.898 114.152L280.075 113.615C279.45 113.411 278.826 113.206 278.241 112.976C275.807 112.171 273.455 111.149 271.223 109.886C268.991 108.623 266.84 107.144 264.951 105.388C264.006 104.509 263.14 103.582 262.327 102.565C261.577 101.562 260.856 100.432 260.443 99.2697Z" fill="#EAF6F6"/>
<path d="M253.368 90.6767C253.794 91.1726 254.26 91.6436 254.764 92.0897L255.559 92.734C255.786 92.9181 256.077 93.1163 256.304 93.3004L257.113 93.8809L257.962 94.4365C258.494 94.7549 259.051 95.1123 259.647 95.4448L261.386 96.3644L263.139 97.2202C264.282 97.8073 265.555 98.256 266.737 98.8182L267.627 99.1823C267.971 99.2917 268.252 99.3871 268.557 99.5214L270.416 100.2L271.345 100.539C271.634 100.647 271.935 100.747 272.25 100.839L274.162 101.429C276.62 102.273 279.185 102.94 281.736 103.67L282.207 103.808L282.693 103.882L283.637 104.157L285.577 104.619L287.517 105.081L288.436 105.317L289.433 105.504C290.71 105.786 291.987 106.068 293.327 106.364C294.604 106.646 295.906 106.967 297.197 107.185C298.5 107.451 299.803 107.716 301.106 107.981C302.397 108.199 303.699 108.52 305.015 108.777C307.622 109.253 310.229 109.728 312.871 110.345C310.176 110.419 307.524 110.302 304.832 110.21C303.474 110.145 302.169 109.99 300.825 109.861C299.484 109.766 298.14 109.636 296.793 109.473C296.14 109.396 295.487 109.319 294.835 109.241L292.827 108.932C291.497 108.739 290.181 108.482 288.827 108.249C288.503 108.2 288.179 108.151 287.855 108.102L286.872 107.851L284.893 107.414L282.914 106.977L281.956 106.766L281.484 106.628L280.974 106.515L277.11 105.361C275.784 105.001 274.549 104.527 273.275 104.079L271.353 103.386C271.022 103.269 270.703 103.143 270.398 103.008L269.483 102.605L267.627 101.76C267.322 101.626 266.978 101.516 266.712 101.357L265.81 100.89L263.983 99.9176C263.373 99.6489 262.791 99.2525 262.233 98.8951L260.498 97.8088L258.855 96.609C258.564 96.4108 258.297 96.2515 258.021 95.9895L257.264 95.3203L256.508 94.6511C256.248 94.4151 256 94.1708 255.766 93.9181C254.836 92.9761 253.973 91.8816 253.368 90.6767Z" fill="#EAF6F6"/>
<path d="M252.506 82.4506C257.341 84.3554 262.018 86.5264 266.616 88.7471C271.254 90.943 275.838 93.2276 280.373 95.4342C284.933 97.6799 289.531 99.9006 294.122 101.852C296.411 102.859 298.752 103.778 301.136 104.506C302.36 104.876 303.534 105.169 304.761 105.373C306.003 105.513 307.233 105.551 308.523 105.166C308.027 105.592 307.393 105.887 306.734 106.143C306.105 106.362 305.457 106.52 304.788 106.618C303.437 106.822 302.065 106.82 300.746 106.729C298.082 106.51 295.489 105.97 292.964 105.279C287.888 103.857 283.041 101.849 278.393 99.5502C273.705 97.2764 269.216 94.7116 264.887 91.8806C262.722 90.465 260.571 88.9857 258.537 87.4317C256.439 85.8636 254.419 84.2458 252.506 82.4506Z" fill="#EAF6F6"/>
<path d="M252.396 74.4588L265.292 82.4626C267.429 83.8049 269.583 85.1176 271.755 86.4007C273.909 87.7134 276.077 88.9622 278.285 90.1862C282.635 92.62 287.078 94.9402 291.669 96.8915C293.996 97.8742 296.313 98.754 298.711 99.4175C301.095 100.145 303.56 100.656 306.11 100.783C303.586 101.297 300.972 101.156 298.426 100.861C295.83 100.489 293.329 99.836 290.856 99.0556C285.95 97.47 281.313 95.2742 276.848 92.7483C275.715 92.1186 274.608 91.4724 273.527 90.8095C272.437 90.1337 271.348 89.4579 270.258 88.782C268.131 87.3972 266.044 85.932 263.997 84.3863C261.967 82.8666 259.972 81.2877 258.012 79.6497C256.109 77.9573 254.168 76.2897 252.396 74.4588Z" fill="#EAF6F6"/>
<path d="M250.722 66.4201C251.379 67.5362 252.27 68.5031 253.162 69.4699C253.38 69.6966 253.597 69.9232 253.815 70.1499L254.167 70.5288C254.302 70.6256 254.423 70.7306 254.532 70.8439L255.956 72.1292L257.458 73.3648C257.71 73.5878 257.962 73.8109 258.189 73.995L258.998 74.5754L260.514 75.7472C261.032 76.1294 261.589 76.4868 262.147 76.8442L263.715 77.9272C264.272 78.2846 264.805 78.603 265.401 78.9356L267.023 79.9298C267.314 80.128 267.58 80.2872 267.846 80.4464L268.708 80.9382L272.083 82.7882L275.55 84.5247C276.16 84.7934 276.717 85.1508 277.328 85.4194L279.095 86.2114L282.614 87.8591L289.813 90.8884C291.027 91.3572 292.248 91.839 293.478 92.3338L295.259 93.0619C295.869 93.3306 296.48 93.5993 297.104 93.8041C299.548 94.7122 302.018 95.6592 304.434 96.695C301.813 96.2836 299.259 95.7196 296.666 95.1806C296.028 95.0396 295.364 94.8596 294.765 94.6937L292.839 94.168C291.555 93.8174 290.284 93.4586 289.025 93.0915C287.738 92.7067 286.503 92.2332 285.268 91.7597C284.02 91.35 282.767 90.9061 281.511 90.4279L277.875 88.8548L276.044 88.0487C275.434 87.78 274.862 87.4865 274.266 87.154L270.711 85.3644C269.57 84.6662 268.425 83.9893 267.276 83.3336L266.427 82.778C266.161 82.6188 265.87 82.4206 265.579 82.2224L263.922 81.0864L263.112 80.5059C262.846 80.3467 262.555 80.1485 262.303 79.9255L260.738 78.6758L259.967 78.0705C259.715 77.8474 259.424 77.6493 259.211 77.4013L257.738 76.0381L256.982 75.3689C256.747 75.1163 256.521 74.8766 256.303 74.65L254.922 73.1731L253.697 71.5968C253.571 71.4575 253.467 71.3229 253.384 71.193L253.071 70.7892C252.889 70.5034 252.715 70.2306 252.549 69.9707C252.424 69.8314 252.319 69.6968 252.236 69.5669L252.002 69.1133L251.494 68.2311L251.049 67.3629C250.914 67.0652 250.818 66.7427 250.722 66.4201Z" fill="#EAF6F6"/>
<path d="M253.728 62.9671C254.086 63.4702 254.448 63.952 254.815 64.4124C255.199 64.8989 255.609 65.3688 256.044 65.8221C256.847 66.7359 257.649 67.6497 258.505 68.4748C260.266 70.2028 262.055 71.8032 263.923 73.3539C267.632 76.4162 271.657 79.1129 275.816 81.5044L277.388 82.4207L278.974 83.2732C279.507 83.5916 280.053 83.8462 280.561 84.1257L282.186 84.9533C283.279 85.4624 284.357 86.0354 285.489 86.5197L287.128 87.2835L288.782 87.9834C293.245 89.9064 297.829 91.5882 302.476 93.2841C297.561 92.8013 292.723 91.6659 287.969 90.1475L286.224 89.5612L284.492 88.911C283.283 88.4765 282.19 87.9673 280.994 87.4689C278.745 86.4365 276.509 85.3402 274.341 84.0914C270.004 81.5937 265.947 78.5886 262.375 75.0545C260.589 73.2874 258.92 71.4457 257.46 69.4158C256.711 68.4133 256 67.3859 255.368 66.3088C254.735 65.2317 254.141 64.1297 253.728 62.9671Z" fill="#EAF6F6"/>
<path d="M250.875 58.7549C254.634 61.8952 258.436 64.8439 262.329 67.6791C266.205 70.5438 270.175 73.2393 274.237 75.7658C275.277 76.3636 276.277 76.9864 277.317 77.5843C278.318 78.207 279.397 78.78 280.436 79.3779C282.516 80.5737 284.61 81.7056 286.781 82.7878C291.061 84.938 295.46 86.847 299.962 88.7452C297.558 88.4151 295.132 87.8793 292.798 87.23C291.599 86.8983 290.439 86.5417 289.254 86.1461C288.693 85.9554 288.108 85.7256 287.547 85.5349C286.962 85.3052 286.401 85.1145 285.816 84.8848L284.124 84.2097C283.577 83.9552 282.967 83.6865 282.421 83.4319C281.289 82.9476 280.21 82.3746 279.117 81.8654C278.038 81.2924 276.921 80.7443 275.856 80.1074C274.777 79.5344 273.752 78.8727 272.687 78.2358C268.506 75.6386 264.563 72.7256 260.857 69.4966C259.042 67.8572 257.267 66.193 255.584 64.4151C253.94 62.6124 252.271 60.7707 250.875 58.7549Z" fill="#EAF6F6"/>
<path d="M249.837 46.4729C251.334 48.589 252.926 50.6258 254.614 52.5833C256.25 54.574 257.948 56.4889 259.707 58.3281C261.504 60.198 263.314 62.004 265.217 63.6964C266.137 64.5356 267.081 65.4138 268.079 66.2032L268.81 66.8334L269.516 67.4246C270.021 67.8707 270.5 68.2779 271.018 68.6602L272.509 69.7929C273.027 70.1752 273.545 70.5574 274.064 70.9397C274.561 71.3173 275.07 71.6866 275.593 72.0476C276.151 72.405 276.669 72.7873 277.162 73.1306C279.288 74.5709 281.481 75.8587 283.674 77.1466C288.178 79.6476 292.829 81.7796 297.651 83.7483C292.497 82.9786 287.425 81.3896 282.62 79.1904C281.439 78.6282 280.257 78.066 279.09 77.4399C278.557 77.1215 277.947 76.8528 277.39 76.4954L275.704 75.487C273.437 74.0823 271.261 72.564 269.202 70.971C268.659 70.5498 268.155 70.1036 267.676 69.6965L266.905 69.0912L266.149 68.422C265.183 67.5391 264.222 66.635 263.266 65.7096C261.396 63.8682 259.64 61.9179 257.996 59.8587C256.345 57.7865 254.835 55.6786 253.417 53.4572C252.077 51.186 250.801 48.9289 249.837 46.4729Z" fill="#EAF6F6"/>
<path d="M256.632 46.6353C257.112 47.6452 257.709 48.5806 258.345 49.4911C258.981 50.4015 259.694 51.2622 260.408 52.123C261.136 52.9198 261.85 53.7806 262.617 54.5526L263.722 55.7674L264.943 56.9075L266.125 58.0726L267.347 59.2128C268.192 59.935 268.959 60.707 269.842 61.4044C270.662 62.0877 271.507 62.8099 272.352 63.5322L274.979 65.5854C275.824 66.3076 276.722 66.9411 277.606 67.6385L280.247 69.6278C282.067 70.9339 283.849 72.2648 285.67 73.5708C286.581 74.1961 287.487 74.8426 288.389 75.5104L289.78 76.4872C290.218 76.8294 290.661 77.1503 291.108 77.45C292.968 78.7311 294.788 80.0372 296.595 81.4071C294.495 80.6085 292.462 79.6573 290.365 78.6921C289.361 78.236 288.385 77.6522 287.395 77.1322C286.396 76.5993 285.398 76.0664 284.4 75.5334C283.385 74.9745 282.487 74.341 281.511 73.7572C280.535 73.1734 279.573 72.5258 278.636 71.9171C277.699 71.3085 276.776 70.636 275.854 69.9635C274.931 69.291 274.008 68.6185 273.124 67.9211L270.486 65.7651C269.617 65.0039 268.786 64.2178 267.98 63.4706C267.11 62.7094 266.357 61.8736 265.541 61.0236L264.372 59.7947L263.257 58.4771C262.881 58.0592 262.509 57.62 262.142 57.1595L261.105 55.7921C260.43 54.9065 259.847 53.9073 259.225 52.933C258.927 52.4654 258.681 51.909 258.383 51.4413C258.123 50.9488 257.878 50.3924 257.657 49.8749C257.398 49.3824 257.216 48.8401 257.035 48.2978C256.853 47.7555 256.71 47.1884 256.632 46.6353Z" fill="#EAF6F6"/>
<path d="M252.69 37.796C256.949 40.3434 260.878 43.3204 264.691 46.3719C268.536 49.4754 272.238 52.7257 275.796 56.1227C277.557 57.8508 279.318 59.5789 281.001 61.3567C281.843 62.2457 282.723 63.1097 283.526 64.0235C284.371 64.9467 285.208 65.8569 286.036 66.7541C287.642 68.5817 289.233 70.4731 290.785 72.3894C292.337 74.3057 293.811 76.2718 295.207 78.2876C293.315 76.698 291.54 75.0337 289.726 73.3943C287.912 71.755 286.151 70.0269 284.337 68.3875L279.025 63.331L273.752 58.2495L263.168 48.1115C259.671 44.6943 256.174 41.2771 252.69 37.796Z" fill="#EAF6F6"/>
<path d="M267.979 28.1465C269.311 32.1233 270.759 36.0255 272.363 39.8282C273.968 43.6309 275.689 47.359 277.644 50.9378C279.599 54.5166 281.735 58.0349 284.119 61.3401C286.488 64.7092 289.184 67.8154 292.007 70.9499C291.159 70.3943 290.208 69.8495 289.374 69.23C288.944 68.9008 288.515 68.5716 288.11 68.2814L286.861 67.2689L286.243 66.7307L285.689 66.2067L284.493 65.1055L283.399 63.9935C283.039 63.6015 282.679 63.2096 282.319 62.8177C279.51 59.6194 277.08 56.0696 275.025 52.3348C273.035 48.6142 271.395 44.6697 270.18 40.6183C269.579 38.5884 269.073 36.5348 268.661 34.4574C268.318 32.3728 268.014 30.2634 267.979 28.1465Z" fill="#EAF6F6"/>
<path d="M267.689 20.8202C267.708 21.7953 267.855 22.7986 267.977 23.7629C268.12 24.732 268.31 25.6891 268.548 26.6344C268.997 28.5416 269.55 30.4379 270.219 32.2597C270.849 34.1063 271.621 35.9172 272.431 37.7033C272.602 38.1428 272.807 38.5787 273.047 39.011C273.256 39.4256 273.452 39.904 273.662 40.3186L274.341 41.6404L275.034 42.8983C275.273 43.3306 275.513 43.7628 275.752 44.1951C276.001 44.5849 276.235 45.0384 276.484 45.4282C276.992 46.3104 277.476 47.1537 278.037 47.9473L278.808 49.1554L279.604 50.4026C280.127 51.221 280.727 51.9897 281.288 52.7832C281.81 53.6016 282.411 54.3703 282.972 55.1639L284.773 57.4699L286.613 59.751L288.492 62.0073L286.036 63.5744C285.976 63.3936 285.926 63.3157 285.89 63.1739L285.794 62.8513C285.714 62.6103 285.641 62.3823 285.577 62.1672C285.449 61.7372 285.321 61.3071 285.192 60.877C284.962 60.0003 284.787 59.1247 284.668 58.2501C284.318 56.4989 284.149 54.6871 284.068 52.9284C283.988 51.1697 284.01 49.4003 284.136 47.62C284.256 45.861 284.454 44.1079 284.728 42.3605C285.298 38.8705 286.212 35.49 287.406 32.2048C288.6 28.9197 290.035 25.7547 291.737 22.749C290.582 26.0093 289.491 29.2837 288.694 32.5896C288.258 34.2568 287.9 35.9298 287.619 37.6086C287.499 38.4527 287.316 39.2827 287.197 40.1268C287.077 40.9709 286.997 41.7902 286.902 42.6732C286.566 46.014 286.486 49.4111 286.752 52.7511C286.899 54.4128 287.135 56.072 287.461 57.7287C287.616 58.5441 287.797 59.3429 288.003 60.1251C288.115 60.5292 288.227 60.9333 288.338 61.3374C288.412 61.5098 288.472 61.6906 288.52 61.8796L288.655 62.1773L288.74 62.3971L291.765 70.2296L286.26 63.9251C283.678 60.9109 281.164 57.7442 278.946 54.4423C276.704 51.1014 274.618 47.6611 272.883 43.9968C271.134 40.3965 269.76 36.6112 268.748 32.7049C268.265 30.7458 267.92 28.7723 267.711 26.7845C267.482 24.7919 267.419 22.8027 267.689 20.8202Z" fill="#EAF6F6"/>
<path d="M274.124 22.9082C275.1 26.0699 275.948 29.2034 276.835 32.3121C277.722 35.4207 278.609 38.5293 279.613 41.5634C280.618 44.5974 281.685 47.6455 282.948 50.5693C283.56 52.0436 284.211 53.493 284.925 54.9565C285.679 56.3952 286.472 57.809 287.328 59.2369C285.976 58.2352 284.808 57.0063 283.742 55.7666C282.652 54.488 281.732 53.046 280.875 51.6181C279.162 48.7623 277.839 45.6578 276.799 42.482C275.784 39.3451 275.067 36.0732 274.581 32.8186C274.34 31.1807 274.18 29.5273 274.102 27.8584C273.994 26.2274 273.963 24.5467 274.124 22.9082Z" fill="#EAF6F6"/>
<path d="M286.736 58.7375C285.759 57.5509 284.938 56.2648 284.235 54.904C283.492 53.5682 282.905 52.1329 282.357 50.6727C281.285 47.7912 280.615 44.7638 280.291 41.6793C280.23 40.8957 280.194 40.1511 280.132 39.3675C280.135 38.598 280.137 37.8285 280.14 37.059C280.181 36.2647 280.184 35.4952 280.289 34.715C280.335 34.3568 280.356 33.9596 280.44 33.5765L280.591 32.438C280.866 30.8916 281.229 29.3983 281.72 27.9331C282.211 26.468 282.815 25.0949 283.548 23.75C283.243 26.7964 282.967 29.7151 282.882 32.6761C282.853 34.1206 282.867 35.5744 282.924 37.0376C282.96 37.7822 282.972 38.4879 283.047 39.2076C283.083 39.9522 283.159 40.6719 283.234 41.3917C283.51 44.2872 283.957 47.1647 284.576 50.0243C285.172 52.9348 285.909 55.8096 286.736 58.7375Z" fill="#EAF6F6"/>
<path d="M289.103 65.4553C288.569 63.9312 288.216 62.3466 287.902 60.7372C287.626 59.1584 287.431 57.5641 287.317 55.9544C287.061 52.7173 287.114 49.4478 287.524 46.224C287.63 45.4437 287.774 44.6386 287.893 43.7945C288.063 43.0283 288.207 42.2232 288.415 41.4322C288.768 39.836 289.209 38.2929 289.753 36.7391C290.891 33.7093 292.411 30.7641 294.45 28.2012C293.529 31.3122 292.661 34.3346 291.984 37.3992C291.815 38.1653 291.685 38.9066 291.515 39.6728C291.41 40.453 291.241 41.2192 291.111 41.9605C290.858 43.5116 290.639 45.0591 290.454 46.603C290.071 49.6992 289.792 52.7846 289.601 55.923C289.41 59.0615 289.283 62.214 289.103 65.4553Z" fill="#EAF6F6"/>
<path d="M293.117 73.8071C293.152 73.346 293.109 72.9348 293.041 72.4845L292.952 71.8286L292.823 71.1976C292.673 70.361 292.459 69.5102 292.245 68.6595C291.803 67.0218 291.298 65.3701 290.792 63.7183C290.514 62.8535 290.208 62.1163 289.984 61.1627C289.762 60.2434 289.589 59.3123 289.462 58.3692C289.229 56.5433 289.241 54.671 289.38 52.8269C289.723 49.1528 290.64 45.6056 291.976 42.2848C293.351 38.9391 295.12 35.7809 297.304 33.0156C296.643 34.6441 296.046 36.2867 295.474 37.9683C294.941 39.6249 294.407 41.2816 293.977 42.9275C293.102 46.2832 292.482 49.6952 292.313 53.0393C292.177 54.7168 292.208 56.3975 292.38 58.0426C292.466 58.8652 292.591 59.6628 292.78 60.4746L293.076 61.7118L293.358 63.0128C293.733 64.803 293.966 66.6289 294.007 68.4124C294.04 69.3237 294.035 70.2599 293.901 71.1678C293.824 71.6194 293.733 72.0793 293.63 72.5475C293.583 72.7604 293.515 72.9685 293.425 73.1719C293.344 73.3883 293.262 73.6047 293.117 73.8071Z" fill="#EAF6F6"/>
<path d="M295.323 78.9817C295.106 77.8402 294.958 76.6915 294.879 75.5356C294.756 74.3703 294.664 73.2227 294.601 72.0928C294.51 69.7739 294.497 67.4607 294.56 65.1534C294.567 62.8449 294.742 60.5398 294.955 58.2098C295.042 57.0573 295.193 55.9188 295.344 54.7803C295.512 53.6123 295.689 52.4573 295.875 51.3152C296.089 50.1909 296.304 49.0665 296.558 47.9173C296.812 46.768 297.066 45.6188 297.344 44.5085C297.979 42.2382 298.703 40.021 299.555 37.832C300.471 35.6571 301.475 33.5353 302.784 31.5478L303.775 30.0926C304.127 29.6123 304.495 29.1579 304.88 28.7295C305.287 28.2503 305.705 27.8738 306.137 27.4336C306.581 27.0405 307.02 26.6688 307.454 26.3184C306.184 28.281 305.272 30.2892 304.498 32.4285C303.699 34.5288 303.068 36.6324 302.485 38.8139C302.207 39.9242 301.967 41.0096 301.702 42.056C301.488 43.1803 301.184 44.2516 301.008 45.3511C300.546 47.5479 300.134 49.767 299.773 52.0086C299.357 54.1935 298.991 56.4563 298.664 58.6942L297.581 65.4188C296.889 69.9196 296.196 74.4204 295.323 78.9817Z" fill="#EAF6F6"/>
<path d="M297.298 84.1398C296.905 79.3994 296.987 74.6299 297.261 69.9028C297.574 65.1508 298.053 60.402 298.891 55.699C299.69 51.0208 300.758 46.3351 302.401 41.7763C303.227 39.5483 304.196 37.2847 305.456 35.2193C306.054 34.1795 306.779 33.1679 307.579 32.2733C308.355 31.3397 309.332 30.5511 310.395 29.9824C309.963 30.4226 309.545 30.7991 309.202 31.2924C309.018 31.5196 308.859 31.7858 308.714 31.9881C308.546 32.2413 308.392 32.4861 308.25 32.7227C307.649 33.7282 307.149 34.7785 306.751 35.8736C305.874 38.0236 305.189 40.2159 304.618 42.5003C303.425 46.9911 302.577 51.5913 301.792 56.2057C300.969 60.8449 300.248 65.4734 299.552 70.1408C298.856 74.8083 298.16 79.4757 297.298 84.1398Z" fill="#EAF6F6"/>
<path d="M300.787 90.4669C300.423 88.1766 300.264 85.8649 300.168 83.5672C300.068 81.2908 300.05 78.999 300.113 76.6916C300.213 72.0936 300.578 67.5093 301.208 62.9389C301.384 61.8394 301.574 60.6761 301.764 59.5127C301.966 58.3966 302.181 57.2723 302.408 56.1396C302.941 53.8801 303.473 51.6206 304.197 49.4034C304.921 47.1862 305.734 45.0221 306.802 42.9144C306.961 42.6482 307.081 42.4069 307.202 42.1656L307.64 41.392C307.799 41.1259 307.959 40.8597 308.079 40.6184L308.606 39.8979C308.911 39.4294 309.318 38.9502 309.686 38.4958C309.778 38.3822 309.87 38.2686 309.962 38.155L310.263 37.8532C310.506 37.6614 310.728 37.4649 310.929 37.2637C309.836 39.3324 309.165 41.4609 308.622 43.6176C308.04 45.7991 307.599 47.945 307.209 50.1689C306.788 52.3751 306.411 54.5906 306.076 56.8156C305.925 57.954 305.749 59.0535 305.573 60.153C305.397 61.2525 305.246 62.391 305.095 63.5294C304.481 67.9804 303.827 72.4563 303.174 76.9322C302.481 81.433 301.75 85.9586 300.787 90.4669Z" fill="#EAF6F6"/>
<path d="M303.338 96.3545C303.201 91.6705 303.525 87.0213 303.99 82.3364C304.441 77.7154 305.123 73.1118 306.01 68.4867C306.238 67.354 306.479 66.2131 306.733 65.0639C306.986 63.9146 307.24 62.7654 307.519 61.6551C308.115 59.4097 308.75 57.1395 309.513 54.8974C310.276 52.6553 311.128 50.4663 312.196 48.3586C312.769 47.2798 313.303 46.2259 314.015 45.2782C314.637 44.2774 315.438 43.3828 316.376 42.6191C316.033 43.1125 315.665 43.5669 315.449 44.0884C315.29 44.3546 315.17 44.5958 315.074 44.8761L314.699 45.6638C314.268 46.7069 313.875 47.7807 313.519 48.8851C312.834 51.0775 312.277 53.298 311.745 55.5575C311.226 57.7531 310.758 60.0267 310.264 62.2614C310.037 63.394 309.809 64.5267 309.581 65.6593C309.327 66.8086 309.112 67.9329 308.898 69.0573L306.253 82.7022C305.379 87.2635 304.442 91.8107 303.338 96.3545Z" fill="#EAF6F6"/>
<path d="M305.756 101.174C306.153 98.6167 306.59 96.0346 306.948 93.5023C307.32 90.9062 307.679 88.3739 307.934 85.8523C308.088 84.5472 308.165 83.2918 308.319 81.9867C308.395 80.7313 308.511 79.4511 308.523 78.1816C308.6 76.9262 308.573 75.6816 308.586 74.4121L308.494 72.5506C308.462 72.2422 308.43 71.9337 308.397 71.6252L308.261 70.7247L308.165 69.7994C308.121 69.3881 308.089 69.0796 308.071 68.7073C308.025 68.0053 308 67.3079 307.997 66.6153C308.102 65.2322 308.231 63.8881 308.527 62.5474C309.016 59.8766 309.914 57.3294 311.052 54.9024C313.443 50.1405 316.76 45.8845 320.663 42.4609C317.655 46.6847 315.065 51.1348 313.188 55.8428C312.333 58.1985 311.606 60.5823 311.262 63.0508C311.135 63.6254 311.097 64.2531 311.034 64.8418C310.963 65.161 310.996 65.4695 310.964 65.7639C310.932 66.0582 310.926 66.3916 310.933 66.661C310.929 67.2851 310.951 67.8926 311 68.4836C311.007 68.7531 311.039 69.0615 311.086 69.3061L311.193 70.3343C311.397 71.6851 311.435 73.0325 311.472 74.3799C311.445 75.7132 311.419 77.0466 311.328 78.3658C311.238 79.685 311.045 81.015 310.865 82.2812C310.672 83.6112 310.493 84.8773 310.236 86.1932C309.715 88.7565 309.087 91.2962 308.353 93.8125C307.572 96.2851 306.792 98.7577 305.756 101.174Z" fill="#EAF6F6"/>
<path d="M309.047 106.587C308.997 103.931 309.178 101.292 309.359 98.6538C309.573 96.0673 309.847 93.4606 310.182 90.8338C310.926 85.6415 311.838 80.4525 313.03 75.3589C314.26 70.2404 315.683 65.1642 317.577 60.2257C318.499 57.7174 319.535 55.3012 320.762 52.9273C321.388 51.7599 322.078 50.6065 322.793 49.4921C323.15 48.9349 323.571 48.3918 323.954 47.8736C324.152 47.5826 324.375 47.3305 324.598 47.0785C324.808 46.8347 325.031 46.5826 325.267 46.3223C324.129 48.7492 323.323 51.1829 322.568 53.6944C321.826 56.1421 321.174 58.6429 320.521 61.1437C319.216 66.1453 318.063 71.214 316.885 76.2438C315.669 81.2984 314.477 86.392 313.235 91.4077C311.916 96.4731 310.66 101.553 309.047 106.587Z" fill="#EAF6F6"/>
<path d="M310.891 109.907C312.158 105.533 313.514 101.213 314.87 96.8919C316.221 92.5923 317.538 88.2964 318.821 84.0041C320.074 79.694 321.263 75.3699 322.389 71.0317C323.489 66.6545 324.487 62.288 325.41 57.8047C325.678 62.3503 325.33 66.9605 324.662 71.5003C323.945 75.9621 322.919 80.4562 321.652 84.83C320.308 89.1981 318.769 93.4896 317.034 97.7046C316.108 99.7767 315.182 101.849 314.192 103.907C313.177 105.926 312.123 107.97 310.891 109.907Z" fill="#EAF6F6"/>
<path d="M313.483 114.396C313.639 111.718 314.153 109.087 314.77 106.444C315.451 103.816 316.22 101.24 317.245 98.7211C317.489 98.0719 317.758 97.4616 318.027 96.8514C318.279 96.2151 318.56 95.5966 318.872 94.9957L319.717 93.14L320.714 91.3515C320.848 91.0464 321.008 90.7802 321.181 90.4502L321.712 89.563L322.759 87.8524L323.909 86.1311L324.529 85.297C324.727 85.0059 324.911 84.7788 325.07 84.5126C325.835 83.4762 326.511 82.3866 327.161 81.2581C327.85 80.1603 328.501 79.0318 329.114 77.8727C329.701 76.7301 330.264 75.5485 330.826 74.367C331.337 73.163 331.827 71.9544 332.296 70.741C334.151 65.8274 335.318 60.6948 335.655 55.3789C336.563 60.6683 336.003 66.2362 334.513 71.465C333.769 74.0794 332.769 76.6374 331.616 79.1282C330.438 81.58 329.044 83.9506 327.473 86.215C327.275 86.506 327.077 86.7971 326.854 87.0491L326.312 87.8335L325.19 89.4272L324.157 91.0739L323.601 91.9221L323.085 92.7455L322.076 94.4311L321.157 96.1699C320.838 96.7022 320.57 97.3125 320.237 97.9087C319.944 98.4799 319.65 99.0512 319.356 99.6225C318.193 102.011 317.157 104.427 316.146 106.882C315.157 109.342 314.269 111.846 313.483 114.396Z" fill="#EAF6F6"/>
<path d="M317.923 120.666C318.085 119.631 318.502 118.651 318.944 117.711C319.361 116.732 319.892 115.845 320.423 114.957C321.484 113.183 322.698 111.476 323.987 109.885C324.277 109.481 324.606 109.051 324.96 108.661L325.958 107.475C326.653 106.758 327.336 105.938 328.03 105.221C328.788 104.517 329.457 103.761 330.215 103.058C330.973 102.355 331.731 101.652 332.489 100.949L332.528 100.924L332.581 100.835L332.814 100.686L333.023 100.498C333.163 100.372 333.315 100.239 333.48 100.096C333.806 99.8336 334.068 99.5567 334.369 99.2549C334.996 98.6902 335.598 98.0866 336.136 97.4689C337.315 96.2227 338.431 94.9624 339.432 93.61L339.815 93.0918L340.197 92.5736C340.448 92.1938 340.71 91.9169 340.962 91.5371C341.2 91.1657 341.433 90.8155 341.662 90.4866C341.914 90.1068 342.126 89.752 342.377 89.3722C343.304 87.9029 344.118 86.3416 345.034 84.7695C344.87 86.5747 344.578 88.3516 344.055 90.1111C343.533 91.8706 342.794 93.5488 341.927 95.1988C341.1 96.824 340.056 98.3679 338.898 99.8198C338.337 100.544 337.732 101.259 337.086 101.964C336.746 102.291 336.469 102.631 336.129 102.958C335.938 103.117 335.747 103.275 335.556 103.434L335.333 103.686C335.216 103.761 335.099 103.835 335.007 103.949L335.099 103.835C334.367 104.522 333.635 105.208 332.903 105.895L330.707 107.955L326.33 112.01C324.866 113.383 323.419 114.782 321.988 116.207C320.575 117.602 319.123 119.023 317.923 120.666Z" fill="#EAF6F6"/>
<path d="M290.858 68.1191C293.821 75.1681 297.082 82.082 300.538 88.8715C303.994 95.661 307.683 102.301 311.787 108.732C313.788 111.952 315.945 115.073 318.193 118.081C319.335 119.583 320.507 121.047 321.71 122.473C322.929 123.926 324.175 125.306 325.449 126.614C326.77 127.91 328.13 129.181 329.557 130.299C330.984 131.418 332.503 132.423 334.039 133.198C335.615 133.947 337.207 134.466 338.768 134.677C340.342 134.824 341.899 134.598 343.295 134.036L344.929 138.314C342.784 139.079 340.395 139.288 338.196 138.937C335.997 138.585 333.974 137.737 332.161 136.7C330.333 135.727 328.704 134.464 327.217 133.164C325.665 131.851 324.27 130.438 322.952 128.975C321.664 127.53 320.433 126.03 319.258 124.476C318.058 122.939 316.922 121.36 315.852 119.74C313.67 116.58 311.659 113.257 309.789 109.897C305.972 103.229 302.608 96.3259 299.489 89.3764C296.345 82.3879 293.421 75.314 290.819 68.144L290.858 68.1191Z" fill="#EAF6F6"/>
<path d="M41.6965 143.767C41.4005 143.42 41.015 143.084 40.6548 142.768C40.4777 142.632 40.2946 142.451 40.0728 142.321C39.8484 142.23 39.5962 142.157 39.3162 142.103C39.0491 142.032 38.771 141.993 38.482 141.986C38.1631 141.982 37.8696 141.998 37.6149 141.964C37.0025 141.976 36.5571 141.876 36.1447 141.68C35.7769 141.479 35.4479 141.227 35.1907 140.828C34.8946 140.481 34.6702 139.987 34.3683 139.595C34.2215 139.402 34.0663 139.203 33.9026 138.997C33.7449 138.836 33.5813 138.63 33.4176 138.424C33.0903 138.013 32.7437 137.627 32.4046 137.126C33.4986 136.799 34.6339 136.786 35.7423 136.912C36.3158 136.95 36.9147 137.007 37.4748 137.115C38.0155 137.249 38.5039 137.503 38.8952 137.883C39.306 138.238 39.581 138.77 39.7472 139.34C39.8332 139.647 39.8999 139.979 39.9859 140.286C40.0551 140.58 40.1307 140.866 40.2128 141.143C40.2736 141.431 40.3984 141.687 40.4979 141.924C40.6168 142.136 40.7999 142.316 40.9382 142.503C41.2208 142.92 41.4781 143.318 41.7607 143.736L41.6965 143.767Z" fill="#EAF6F6"/>
<path d="M63.6793 125.622C63.0821 125.405 62.4866 125.029 61.9223 124.717C61.6246 124.529 61.3327 124.386 61.0991 124.166C60.8401 123.928 60.62 123.638 60.4192 123.324C60.0371 122.669 59.7967 121.882 59.5428 121.165C59.3336 120.442 59.078 119.885 58.7254 119.454C58.3788 119.068 58.0127 118.706 57.5884 118.421C57.1641 118.136 56.6563 117.908 56.1621 117.609C55.6484 117.336 55.2317 116.936 54.7644 116.497C54.2777 116.084 53.7792 115.581 53.0141 114.955C52.3115 115.662 52.0154 116.519 51.9235 117.373C51.851 118.201 51.9632 119.051 52.1007 119.919C52.2829 120.782 52.5545 121.633 52.9931 122.372C53.4317 123.11 54.0315 123.69 54.6835 124.15C55.3608 124.629 56.1427 124.867 57.0545 124.883C57.9216 124.904 58.8411 124.806 59.6129 124.795C60.0017 124.812 60.3906 124.829 60.7153 124.877C61.0847 124.919 61.4019 125.082 61.7326 125.174C62.3744 125.385 63.0298 125.526 63.6658 125.692L63.6793 125.622Z" fill="#EAF6F6"/>
<path d="M53.1746 134.765C52.6997 134.441 52.2771 133.997 51.8351 133.578C51.6268 133.378 51.399 133.203 51.2295 132.953C51.058 132.687 50.9292 132.401 50.8432 132.094C50.6458 131.46 50.5901 130.694 50.5716 130.037C50.5277 129.361 50.4121 128.83 50.1743 128.407C49.9811 127.978 49.7491 127.599 49.4083 127.257C49.1123 126.91 48.7327 126.619 48.3666 126.258C47.9811 125.922 47.6733 125.485 47.3848 125.023C47.071 124.541 46.7066 124.021 46.2039 123.314C45.4625 124.071 45.158 124.521 45.0036 125.246C44.8029 126.137 44.84 126.246 44.7809 127.004C44.7472 127.782 44.8088 128.593 45.018 129.315C45.2525 130.058 45.6287 130.668 46.1331 131.215C46.5928 131.768 47.233 132.139 48.009 132.332C48.7463 132.575 49.1495 133.045 49.8302 133.206C50.1802 133.273 50.5109 133.366 50.7774 133.49C51.0886 133.608 51.297 133.808 51.5441 133.957C52.0831 134.25 52.6221 134.542 53.1358 134.816L53.1746 134.765Z" fill="#EAF6F6"/>
<path d="M127.81 59.4786C127.131 59.1589 126.399 58.9598 125.629 58.8114C124.904 58.657 124.126 58.6233 123.374 58.609C121.869 58.5803 120.355 58.8258 118.884 59.2248C115.942 60.0227 113.228 61.5183 110.774 63.2525C108.28 65.0374 106.052 67.1056 103.956 69.3156L103.182 70.1684C102.923 70.4527 102.665 70.7369 102.452 71.0153C101.961 71.6032 101.445 72.1717 100.954 72.7596C100.023 73.9743 99.0602 75.1248 98.1797 76.3782C94.6008 81.3085 91.4968 86.5626 88.6652 91.9855L86.5878 96.0578C85.929 97.4412 85.2897 98.7992 84.6309 100.183C84.474 100.544 84.3112 100.862 84.1349 101.249C83.9333 101.616 83.7453 101.914 83.5437 102.282C83.154 102.948 82.739 103.594 82.324 104.24L81.079 106.178L79.7581 108.058C76.2164 113.097 72.2444 117.807 68.0135 122.277C67.0064 123.434 65.8981 124.512 64.7897 125.591C63.7261 126.664 62.6684 127.782 61.5094 128.822L58.122 131.93C57.5552 132.46 56.9378 132.951 56.365 133.436L54.608 134.941C45.2192 142.891 34.9928 149.836 24.2223 155.762L22.9393 153.452C33.7006 147.801 43.9118 141.085 53.336 133.404L55.0989 131.943C55.697 131.477 56.295 131.012 56.8424 130.507L60.261 127.463C61.4259 126.468 62.4642 125.375 63.5785 124.341C64.6674 123.288 65.7816 122.254 66.8141 121.117C71.0627 116.78 75.0718 112.18 78.6312 107.275L79.9774 105.414L81.2536 103.54C81.6686 102.894 82.0895 102.292 82.4792 101.627C82.6673 101.329 82.8942 100.98 83.057 100.663C83.2197 100.346 83.4019 100.004 83.5588 99.6419C84.2429 98.2779 84.9269 96.914 85.611 95.5501L87.7585 91.4912C90.6853 86.1012 93.9294 80.8741 97.6036 75.9767C98.5289 74.7174 99.5107 73.5415 100.467 72.3463C100.958 71.7584 101.474 71.1899 101.99 70.6214C102.249 70.3371 102.481 70.0334 102.765 69.7686L103.564 68.9352C105.686 66.7446 108.004 64.6646 110.528 62.9438C113.072 61.1978 115.836 59.741 118.829 58.9818C120.306 58.6276 121.845 58.4015 123.375 58.4495C124.153 58.4833 124.911 58.5423 125.682 58.6908C126.432 58.8645 127.164 59.0636 127.848 59.4279L127.81 59.4786Z" fill="#EAF6F6"/>
<path d="M92.5751 110.571C91.859 110.142 91.1429 109.714 90.4191 109.4C89.7342 109.035 89.0164 108.766 88.2733 108.478C87.5361 108.234 86.7331 108.181 85.8196 108.324C85.3557 108.37 84.8678 108.465 84.3561 108.609C83.8703 108.718 83.3591 108.809 82.848 108.899C82.3427 109.034 81.845 109.054 81.3474 109.074C80.8627 109.078 80.3999 109.017 79.959 108.894C79.5519 108.796 79.1706 108.664 78.8152 108.499L78.6465 108.771C78.9412 109.051 79.2443 109.337 79.5558 109.629C80.1868 110.274 80.7325 111.134 81.2901 112.084C81.5785 112.546 81.8476 113.034 82.1614 113.515C82.4369 113.994 82.7533 114.438 83.1104 114.845C83.829 115.637 84.6329 116.214 85.5607 116.523C86.4886 116.833 87.4434 117.002 88.4117 117.102C89.3994 117.176 90.3813 117.205 91.3842 117.05C91.8953 116.96 92.3871 116.895 92.8923 116.76C93.3872 116.604 93.8865 116.424 94.3904 116.221C94.6021 116.102 94.8644 116.022 95.0955 115.878C95.3266 115.733 95.5831 115.609 95.8336 115.439C96.2958 115.151 96.7482 114.788 97.1907 114.35C95.4751 112.553 94.0251 111.562 92.5751 110.571Z" fill="#EAF6F6"/>
<path d="M127.629 58.4538C127.59 58.5044 127.536 58.5569 127.468 58.6115C127.412 58.6492 127.356 58.6869 127.301 58.7245C127.232 58.7791 127.16 58.8038 127.083 58.7988C127.024 58.8066 126.97 58.8061 126.924 58.7971C126.864 58.8049 126.811 58.8044 126.764 58.7954C126.734 58.7993 126.69 58.8052 126.63 58.8131C126.587 58.8339 126.545 58.8547 126.502 58.8755C126.472 58.8795 126.444 58.8983 126.418 58.932L126.393 58.9126C126.419 58.8789 126.445 58.8452 126.471 58.8114C126.506 58.731 126.539 58.6357 126.569 58.5255C126.578 58.4788 126.596 58.4386 126.622 58.4048C126.644 58.3413 126.659 58.2862 126.668 58.2395C126.733 58.1552 126.799 58.0857 126.868 58.0312C126.954 57.9896 127.041 57.9629 127.13 57.951C127.216 57.9094 127.303 57.8827 127.393 57.8709C127.452 57.863 127.505 57.8636 127.552 57.8726C127.599 57.8816 127.645 57.8906 127.692 57.8996C127.722 57.8957 127.745 57.9002 127.762 57.9131C127.792 57.9092 127.824 57.9201 127.857 57.946C127.904 57.955 127.953 57.9789 128.003 58.0177C127.893 58.2142 127.771 58.3213 127.629 58.4538Z" fill="#EAF6F6"/>
<path d="M128.213 60.4729C128.175 60.4172 128.131 60.3699 128.08 60.3311C128.026 60.2625 127.98 60.2004 127.942 60.1447C127.904 60.0891 127.881 60.0314 127.874 59.9718C127.853 59.9291 127.847 59.8844 127.856 59.8377C127.848 59.7781 127.842 59.7334 127.838 59.7036C127.83 59.644 127.824 59.5993 127.82 59.5695C127.8 59.5267 127.779 59.484 127.758 59.4413C127.741 59.4283 127.722 59.4005 127.701 59.3578L127.721 59.3324C127.755 59.3583 127.788 59.3842 127.822 59.4101C127.886 59.432 127.964 59.4519 128.057 59.4699C128.121 59.4919 128.176 59.5073 128.223 59.5163C128.269 59.5253 128.31 59.5428 128.343 59.5686C128.424 59.6035 128.491 59.6552 128.546 59.7238C128.6 59.7924 128.64 59.863 128.665 59.9355C128.706 60.021 128.733 60.1085 128.745 60.1979C128.736 60.2445 128.742 60.2892 128.763 60.332C128.754 60.3786 128.745 60.4253 128.736 60.472C128.739 60.5018 128.735 60.5251 128.722 60.542C128.726 60.5718 128.722 60.5952 128.709 60.612C128.7 60.6587 128.691 60.7054 128.682 60.752C128.466 60.6669 128.339 60.5699 128.213 60.4729Z" fill="#EAF6F6"/>
<path d="M85.8976 96.6945C86.3098 96.7158 86.7219 96.7372 87.1341 96.7585C87.663 96.8024 88.3985 97.2056 88.7536 96.7948C92.454 92.4398 94.7086 92.1193 96.0658 92.2356C97.0282 92.2905 98.4403 92.6498 99.4187 92.9981C100.411 93.2765 101.438 93.823 102.481 94.1402C103.002 94.2988 103.543 94.432 104.083 94.5653C104.618 94.6538 105.159 94.7871 105.699 94.9204C106.831 95.2257 107.971 95.4163 109.235 95.8634C107.689 97.9325 105.879 100.241 103.723 101.481C102.682 102.21 101.188 102.953 99.9232 103.188C98.345 103.465 97.9132 103.295 96.7289 103.11C95.5371 103.04 94.3503 102.492 93.2621 101.657C92.686 101.256 92.1428 100.759 91.6308 100.326C91.0935 99.8744 90.5815 99.4417 90.0754 99.0537C89.5499 98.691 89.0497 98.3477 88.5613 98.0938C88.0282 97.8458 87.5188 97.7766 86.9975 97.6181C86.5696 97.4775 86.1332 97.3304 85.6884 97.1769L85.8976 96.6945Z" fill="#EAF6F6"/>
<path d="M74.4987 81.3274C75.456 81.8605 76.4328 82.3683 77.2426 82.9891C78.1358 83.5534 78.9009 84.1801 79.6912 84.8262C80.4622 85.4976 81.0974 86.3461 81.525 87.5177C81.7488 88.0643 81.9572 88.666 82.1501 89.3228C82.3475 89.9563 82.5701 90.6091 82.7928 91.262C83.0349 91.8895 83.2964 92.4918 83.5967 93.0434C83.9268 93.5911 84.2957 94.0882 84.7034 94.5347C85.1369 94.9475 85.6048 95.3329 86.107 95.6911L85.8235 95.956C85.2854 95.7845 84.7323 95.6149 84.1644 95.4474C83.013 95.1673 81.6617 95.0957 80.2076 95.1058C79.5252 95.105 78.7534 95.1159 78.0457 95.0957C77.3147 95.071 76.5991 94.9911 75.899 94.8562C74.5435 94.5804 73.3567 94.0321 72.4027 93.1802C71.4293 92.3536 70.617 91.3692 69.8241 90.3596C69.1088 89.2487 68.3995 88.1826 67.96 86.9215C67.6985 86.3193 67.4564 85.6917 67.2784 85.033C67.1451 84.3683 67.0313 83.6783 66.9174 82.9884C66.8955 82.6501 66.8288 82.3178 66.8263 81.9542C66.8237 81.5907 66.8212 81.2271 66.8634 80.8577C66.8881 80.1267 66.9918 79.3625 67.1746 78.5651C70.3681 79.3259 72.4363 80.349 74.4987 81.3274Z" fill="#EAF6F6"/>
<path d="M125.224 56.6115C125.152 56.7574 125.125 56.8974 125.073 57.0181C125.046 57.1581 124.974 57.304 124.922 57.4246C124.861 57.5388 124.769 57.642 124.645 57.7342C124.576 57.7887 124.499 57.8368 124.414 57.8784C124.328 57.92 124.251 57.9681 124.182 58.0227C124.114 58.0772 124.039 58.1402 123.957 58.2116C123.889 58.2662 123.843 58.3252 123.821 58.3887C123.77 58.4562 123.726 58.5302 123.692 58.6106L123.666 58.5912C123.671 58.5147 123.668 58.4318 123.656 58.3423C123.658 58.1829 123.634 58.0041 123.585 57.8059C123.56 57.7334 123.534 57.6459 123.505 57.5436C123.476 57.4412 123.463 57.3369 123.464 57.2306C123.47 57.0479 123.508 56.8761 123.578 56.7153C123.649 56.5693 123.766 56.4175 123.863 56.291C123.985 56.1839 124.101 56.032 124.249 55.9443C124.318 55.8898 124.395 55.8417 124.48 55.8001C124.566 55.7584 124.651 55.7168 124.737 55.6752C124.779 55.6544 124.822 55.6336 124.865 55.6128C124.924 55.6049 124.976 55.5906 125.018 55.5698C125.108 55.558 125.214 55.5591 125.337 55.5732C125.326 56.0067 125.253 56.3121 125.224 56.6115Z" fill="#EAF6F6"/>
<path d="M64.4891 93.7017C64.9969 93.9303 65.5494 94.153 66.0125 94.3875C66.5203 94.616 67.0281 94.8446 67.5299 95.0285C68.559 95.4156 69.7239 95.6256 70.6576 95.9799C71.6555 96.303 72.3893 96.8656 73.0515 97.5741C73.7136 98.2826 74.2012 99.2189 74.5453 100.447C74.7562 101.01 74.9148 101.695 75.1316 102.303C75.3334 102.913 75.5696 103.496 75.8401 104.051C76.1235 104.59 76.4522 105.07 76.8262 105.49C77.2175 105.871 77.6865 106.15 78.1108 106.435C78.5604 106.739 78.9847 107.024 79.4537 107.304L79.1374 107.664C78.6861 107.519 78.1901 107.38 77.7329 107.19C77.231 107.006 76.7427 106.752 76.1826 106.644C75.6419 106.511 75.0236 106.479 74.3859 106.472C73.7483 106.465 73.0912 106.484 72.3953 106.553C71.7129 106.552 70.9977 106.647 70.3094 106.601C68.8999 106.605 67.6532 106.292 66.6393 105.676C65.606 105.085 64.7609 104.196 64.1409 103.118C63.5597 101.989 63.1261 100.773 62.7179 99.5758C61.779 97.2891 61.0772 94.9029 61.0983 92.3074C62.3821 92.7292 63.4095 93.2757 64.4891 93.7017Z" fill="#EAF6F6"/>
<path d="M71.1523 135.374C70.8798 135.205 70.5821 135.017 70.3349 134.868C70.0521 134.678 69.7732 134.518 69.4982 134.387C68.9339 134.075 68.292 133.864 67.753 133.571C67.1946 133.304 66.8285 132.943 66.4953 132.487C66.1622 132.03 65.9454 131.422 65.8256 130.688C65.759 130.355 65.7058 129.953 65.6333 129.576C65.5691 129.205 65.4772 128.854 65.3574 128.521C65.2377 128.188 65.0836 127.882 64.8952 127.604C64.7003 127.334 64.4279 127.165 64.2195 126.965C63.9794 126.754 63.7478 126.55 63.5245 126.352L63.705 126.169C63.9631 126.287 64.2297 126.41 64.5046 126.541C64.7771 126.71 65.0495 126.878 65.3355 126.977C65.6467 127.095 65.9968 127.163 66.3662 127.205C66.761 127.266 67.1304 127.309 67.564 127.319C67.9334 127.362 68.367 127.373 68.7617 127.434C69.5513 127.557 70.2691 127.826 70.8064 128.278C71.3825 128.68 71.7781 129.265 72.0708 129.931C72.3247 130.648 72.4892 131.377 72.6284 132.086C72.9961 133.493 73.2298 134.918 73.0223 136.446C72.2927 136.088 71.7419 135.705 71.1523 135.374Z" fill="#EAF6F6"/>
<path d="M93.4426 82.8703C93.5866 82.9271 93.7305 82.9839 93.8745 83.0407C94.2363 83.1976 94.5535 83.3604 94.9542 83.4667C95.3489 83.5282 95.7572 83.5198 96.1848 83.4861C97.0595 83.3933 97.9494 83.071 98.7752 82.78C99.6009 82.489 100.31 82.3498 100.909 82.4072C101.527 82.4392 102.107 82.5219 102.659 82.7446C103.231 82.9419 103.796 83.254 104.399 83.5155C105.047 83.7711 105.677 83.8925 106.402 84.0469C107.147 84.1759 107.917 84.3244 109.043 84.585C108.507 85.8612 108.13 86.4567 107.34 87.0159C106.383 87.6882 106.229 87.7312 105.312 88.1935C104.39 88.611 103.41 88.945 102.421 89.0302C101.457 89.1349 100.502 88.9653 99.6246 88.6946C98.7221 88.4044 97.9629 87.8224 97.3337 87.0186C96.685 86.24 95.9225 85.9769 95.3498 85.2565C95.0984 84.9031 94.8217 84.5303 94.5375 84.2722C94.2473 83.9694 93.9049 83.7872 93.5818 83.5797C93.4131 83.4504 93.2444 83.321 93.0757 83.1917L93.4426 82.8703Z" fill="#EAF6F6"/>
<path d="M108.329 64.5551C108.292 64.4995 108.245 64.4373 108.191 64.3687C108.078 64.2017 107.971 64.0794 107.877 63.8871C107.794 63.7162 107.739 63.5264 107.711 63.3178C107.658 62.9154 107.708 62.4312 107.719 61.9977C107.774 61.5582 107.752 61.22 107.666 60.913C107.584 60.6357 107.459 60.3793 107.292 60.1437C107.122 59.8932 106.908 59.6486 106.713 59.3787C106.518 59.1087 106.368 58.8329 106.212 58.5124C106.075 58.1666 105.913 57.8013 105.644 57.3138C105.104 57.7035 104.866 57.9624 104.701 58.439C104.498 58.9662 104.485 59.0362 104.39 59.5263C104.296 60.0164 104.246 60.5005 104.311 60.9923C104.376 61.484 104.569 61.9134 104.801 62.2921C105.058 62.6902 105.438 62.9812 105.875 63.1963C106.358 63.4055 106.539 63.7454 106.971 63.9158C107.179 63.9945 107.373 64.0901 107.555 64.2026C107.707 64.319 107.839 64.4607 107.991 64.5771C108.058 64.6288 108.134 64.687 108.219 64.7517L108.329 64.5551Z" fill="#EAF6F6"/>
<path d="M103.502 69.3304C103.43 69.2489 103.351 69.1609 103.262 69.0664C103.099 68.8606 102.89 68.6607 102.74 68.3849C102.628 68.1116 102.544 67.8194 102.488 67.5085C102.361 66.8885 102.4 66.1555 102.407 65.5178C102.458 64.8742 102.387 64.3378 102.239 63.9026C102.071 63.4926 101.884 63.108 101.607 62.7352C101.356 62.3817 100.996 62.0654 100.694 61.6732C100.372 61.3063 100.154 60.8576 99.8848 60.37C99.641 59.9019 99.366 59.3696 98.9274 58.6316C98.1489 59.2802 97.8132 59.6657 97.5635 60.3582C97.3063 61.1655 97.324 61.2996 97.1949 62.0444C97.0853 62.7639 97.0516 63.5416 97.1907 64.251C97.3299 64.9603 97.642 65.6014 98.0376 66.1859C98.4332 66.7705 99.0093 67.172 99.7078 67.4663C100.406 67.7607 100.765 68.2364 101.387 68.4726C101.698 68.5907 102.01 68.7088 102.257 68.8581C102.549 69.0015 102.757 69.2014 102.985 69.376C103.103 69.4665 103.221 69.557 103.339 69.6475L103.502 69.3304Z" fill="#EAF6F6"/>
<path d="M117.862 59.2436C117.854 59.184 117.854 59.1308 117.863 59.0841C117.846 58.95 117.828 58.8159 117.81 58.6818C117.837 58.5418 117.879 58.3998 117.936 58.2558C118.041 58.0146 118.254 57.7363 118.403 57.4891C118.584 57.2529 118.699 57.0331 118.748 56.8295C118.797 56.6259 118.808 56.4198 118.78 56.2112C118.776 56.0071 118.747 55.7836 118.717 55.56C118.688 55.3365 118.703 55.1071 118.737 54.8523C118.772 54.5976 118.781 54.3235 118.798 53.9346C118.326 53.9743 118.108 54.0485 117.838 54.2434C117.51 54.5141 117.516 54.5588 117.277 54.8178C117.038 55.0767 116.825 55.3551 116.707 55.6663C116.57 56.0029 116.521 56.3276 116.563 56.6406C116.559 56.9594 116.671 57.2858 116.866 57.5558C117.086 57.8451 117.076 58.1192 117.271 58.3891C117.376 58.4965 117.46 58.6143 117.523 58.7425C117.585 58.8707 117.603 59.0049 117.665 59.1331C117.673 59.1927 117.696 59.2503 117.734 59.306L117.862 59.2436Z" fill="#EAF6F6"/>
<path d="M120.924 58.66C120.933 58.6133 120.928 58.5686 120.907 58.5258C120.895 58.4364 120.883 58.347 120.891 58.2323C120.909 58.139 120.94 58.0287 120.983 57.9016C121.049 57.711 121.205 57.5086 121.34 57.3314C121.483 57.1459 121.565 56.9682 121.588 56.7984C121.628 56.6415 121.647 56.495 121.644 56.3589C121.646 56.1995 121.577 56.0266 121.579 55.8671C121.555 55.6883 121.576 55.5036 121.598 55.3189C121.619 55.1341 121.634 54.9047 121.643 54.6306C121.305 54.6525 121.107 54.7014 120.901 54.8651C120.676 55.054 120.656 55.0793 120.456 55.2877C120.301 55.4901 120.146 55.6926 120.041 55.9338C119.937 56.175 119.902 56.4298 119.912 56.6786C119.922 56.9274 120.022 57.1644 120.186 57.3703C120.33 57.6014 120.334 57.8055 120.472 57.9919C120.544 58.0734 120.609 58.1634 120.667 58.2618C120.704 58.3706 120.741 58.4794 120.753 58.5689C120.774 58.6116 120.795 58.6543 120.816 58.6971L120.924 58.66Z" fill="#EAF6F6"/>
<path d="M112.022 62.1994C112.077 62.268 112.117 62.3385 112.141 62.4111C112.229 62.5587 112.342 62.7257 112.494 62.8421C112.616 62.9624 112.774 63.0704 112.969 63.166C113.337 63.3676 113.782 63.468 114.183 63.5742C114.583 63.6805 114.894 63.7986 115.122 63.9732C115.358 64.1543 115.567 64.3542 115.747 64.5729C115.936 64.7981 116.061 65.0545 116.236 65.3498C116.406 65.6003 116.64 65.8196 116.899 66.0583C117.158 66.297 117.422 66.5804 117.794 66.9861C117.274 67.3505 116.973 67.4813 116.475 67.5015C115.933 67.5277 115.882 67.4889 115.398 67.4391C114.889 67.3699 114.418 67.2502 114.025 67.0292C113.587 66.8141 113.252 66.5172 112.976 66.1444C112.705 65.8163 112.531 65.3616 112.491 64.8893C112.452 64.4169 112.206 64.1082 112.173 63.6805C112.158 63.455 112.13 63.2464 112.09 63.0547C112.041 62.8564 111.953 62.7088 111.885 62.5359C111.856 62.4336 111.83 62.3461 111.805 62.2736L112.022 62.1994Z" fill="#EAF6F6"/>
<path d="M117.635 59.5934C117.656 59.6361 117.685 59.6853 117.723 59.741C117.76 59.8498 117.797 59.9586 117.879 60.0615C117.954 60.1728 118.058 60.2653 118.189 60.339C118.416 60.5136 118.708 60.657 118.969 60.7363C119.227 60.8538 119.425 60.9792 119.564 61.1125C119.72 61.2587 119.84 61.4172 119.923 61.5882C120.036 61.7552 120.085 61.9534 120.178 62.1457C120.272 62.338 120.41 62.5245 120.549 62.7109C120.712 62.9167 120.876 63.1225 121.077 63.4371C120.673 63.6497 120.449 63.6792 120.105 63.6564C119.736 63.6143 119.71 63.5949 119.38 63.5021C119.049 63.4093 118.757 63.2659 118.504 63.0719C118.232 62.9032 118.037 62.6333 117.867 62.3828C117.717 62.107 117.676 61.794 117.679 61.4752C117.702 61.131 117.558 60.8999 117.586 60.6005C117.613 60.4605 117.617 60.3159 117.597 60.1669C117.605 60.0522 117.542 59.924 117.525 59.7899C117.517 59.7303 117.509 59.6707 117.501 59.6111L117.635 59.5934Z" fill="#EAF6F6"/>
<path d="M112.815 54.6149C112.872 54.8196 112.921 55.0178 112.962 55.2096C113.002 55.4013 113.043 55.5931 113.083 55.7849C113.2 56.156 113.362 56.5212 113.454 56.873C113.571 57.2441 113.593 57.5823 113.526 57.9324C113.503 58.2765 113.391 58.6325 113.17 59.0255C113.079 59.1968 112.949 59.4186 112.864 59.6345C112.768 59.8291 112.681 60.0301 112.602 60.2376C112.537 60.4283 112.488 60.6318 112.456 60.8483C112.434 61.0331 112.483 61.2313 112.488 61.4354C112.507 61.5844 112.521 61.7419 112.527 61.9078L112.368 61.9061C112.335 61.7739 112.294 61.6353 112.245 61.4902C112.196 61.292 112.172 61.1132 112.079 60.9209C111.995 60.7499 111.895 60.5661 111.778 60.3692C111.665 60.2022 111.535 60.0223 111.389 59.8294C111.25 59.643 111.112 59.4566 110.993 59.2449C110.716 58.872 110.568 58.4368 110.534 58.0092C110.456 57.5874 110.511 57.148 110.637 56.722C110.782 56.2707 110.958 55.8836 111.154 55.4711C111.507 54.6968 111.929 53.9359 112.509 53.3362C112.639 53.7967 112.717 54.2185 112.815 54.6149Z" fill="#EAF6F6"/>
<path d="M124.418 61.1792C124.423 61.1028 124.413 61.0282 124.389 60.9557C124.394 60.8792 124.39 60.7963 124.379 60.7069C124.361 60.5728 124.382 60.388 124.364 60.2539C124.391 60.1139 124.329 59.9857 124.266 59.8575C124.221 59.7422 124.137 59.6244 124.015 59.5041C123.961 59.4355 123.9 59.3753 123.832 59.3236C123.761 59.242 123.706 59.1734 123.668 59.1177C123.614 59.0491 123.559 58.9805 123.505 58.9119C123.493 58.8225 123.462 58.7584 123.475 58.6884C123.45 58.6159 123.428 58.5582 123.407 58.5155L123.362 58.5214C123.353 58.5681 123.353 58.6212 123.361 58.6808C123.372 58.7702 123.359 58.8402 123.371 58.9296C123.366 59.0061 123.346 59.0846 123.311 59.165C123.306 59.2415 123.286 59.3199 123.251 59.4003C123.233 59.4937 123.2 59.589 123.152 59.6863C123.116 59.873 123.116 60.0473 123.153 60.2092C123.19 60.3712 123.256 60.5292 123.352 60.6833C123.461 60.8205 123.577 60.9492 123.699 61.0696C123.913 61.3142 124.172 61.5529 124.464 61.6963C124.44 61.5175 124.442 61.3581 124.418 61.1792Z" fill="#EAF6F6"/>
<path d="M126.63 60.7047C126.622 60.6451 126.614 60.5855 126.606 60.5259C126.615 60.4792 126.616 60.4261 126.608 60.3665C126.596 60.2771 126.604 60.1624 126.611 60.0476C126.612 59.9414 126.592 59.8455 126.551 59.76C126.509 59.6745 126.438 59.593 126.336 59.5154C126.299 59.4597 126.255 59.4125 126.204 59.3737C126.153 59.3349 126.118 59.2941 126.097 59.2514C126.059 59.1957 126.021 59.14 125.984 59.0844C125.976 59.0248 125.962 58.9736 125.941 58.9309C125.95 58.8842 125.944 58.8395 125.923 58.7967L125.878 58.8026C125.869 58.8493 125.875 58.894 125.896 58.9368C125.887 58.9834 125.886 59.0366 125.894 59.0962C125.885 59.1429 125.87 59.198 125.848 59.2615C125.826 59.3251 125.804 59.3886 125.782 59.4521C125.773 59.4988 125.766 59.5604 125.761 59.6369C125.717 59.7639 125.703 59.8871 125.719 60.0063C125.752 60.1385 125.804 60.2453 125.875 60.3268C125.95 60.4382 126.032 60.5411 126.12 60.6355C126.278 60.7967 126.461 60.9772 126.677 61.0624C126.659 60.9282 126.622 60.8194 126.63 60.7047Z" fill="#EAF6F6"/>
<path d="M112.479 73.7595C112.207 73.5908 111.94 73.4668 111.693 73.3175C111.431 73.1702 111.177 73.0293 110.932 72.8949C110.438 72.5964 109.996 72.1771 109.527 71.8979C109.077 71.5934 108.601 71.429 108.085 71.3151C107.576 71.2459 107.008 71.2527 106.369 71.4054C106.081 71.4661 105.749 71.5328 105.417 71.5994C105.089 71.6427 104.767 71.6776 104.453 71.704C104.121 71.7175 103.806 71.6908 103.51 71.6239C103.229 71.5699 102.963 71.4459 102.702 71.3666C102.478 71.275 102.262 71.1898 102.055 71.1111L101.944 71.3076C102.113 71.4369 102.296 71.5643 102.495 71.6897C102.742 71.839 103.008 71.963 103.236 72.1376C103.445 72.3375 103.678 72.5568 103.867 72.782C104.081 73.0266 104.291 73.2945 104.496 73.5858C104.691 73.8557 104.911 74.1451 105.126 74.3897C105.56 74.9236 106.117 75.3504 106.695 75.5925C107.298 75.8539 107.928 75.9754 108.585 75.9568C109.242 75.9383 109.913 75.8497 110.558 75.7417C111.81 75.5764 113.049 75.3216 114.133 74.7464C113.557 74.3449 112.999 74.0775 112.479 73.7595Z" fill="#EAF6F6"/>
<path d="M121.923 60.7119C121.917 60.6672 121.8 60.296 121.808 60.1813C121.792 60.0621 121.755 59.9533 121.696 59.8549C121.651 59.7396 121.577 59.6432 121.476 59.5656C121.438 59.5099 121.386 59.4562 121.318 59.4045C121.268 59.3657 121.215 59.312 121.161 59.2434C121.123 59.1877 121.092 59.1236 121.067 59.051C121.046 59.0083 121.032 58.9571 121.024 58.8975C121.016 58.8379 121.002 58.7868 120.981 58.744L120.936 58.7499C120.927 58.7966 120.927 58.8497 120.934 58.9093C120.94 58.954 120.927 59.024 120.958 59.0882C120.936 59.1517 120.914 59.2152 120.892 59.2788C120.887 59.3553 120.874 59.4253 120.852 59.4888C120.817 59.5692 120.797 59.6477 120.792 59.7241C120.735 59.8681 120.723 60.0062 120.756 60.1383C120.805 60.2834 120.868 60.4116 120.943 60.5229C121.035 60.6472 121.134 60.7631 121.239 60.8705C121.422 61.051 121.63 61.2509 121.872 61.3555C121.854 61.2213 121.941 60.846 121.923 60.7119Z" fill="#EAF6F6"/>
<path d="M72.6091 116.44C72.7817 116.599 72.9395 116.76 73.0823 116.923C73.3412 117.162 73.5555 117.407 73.8727 117.569C74.1451 117.738 74.5011 117.85 74.857 117.963C75.5883 118.162 76.4301 118.164 77.1825 118.178C77.9543 118.167 78.5591 118.27 79.0416 118.479C79.5241 118.688 79.9677 118.948 80.3532 119.283C80.7581 119.594 81.1107 120.025 81.5721 120.419C81.9888 120.819 82.483 121.117 83.0026 121.435C83.5475 121.772 84.1624 122.123 84.9857 122.674C84.5302 123.53 83.804 124.058 83.0094 124.413C82.2283 124.699 81.3849 124.855 80.5102 124.948C79.6355 125.041 78.7236 125.025 77.897 124.793C77.0763 124.606 76.3602 124.177 75.7022 123.673C75.0696 123.188 74.6116 122.475 74.3206 121.649C74.049 120.798 73.8862 119.91 73.6517 119.168C73.5538 118.771 73.4172 118.426 73.2864 118.125C73.1304 117.804 72.8908 117.54 72.7154 117.245C72.5855 117.065 72.462 116.876 72.3451 116.68L72.6091 116.44Z" fill="#EAF6F6"/>
<path d="M52.9664 135.088C53.0457 135.229 53.1315 135.362 53.2237 135.486C53.3427 135.698 53.4616 135.909 53.664 136.065C53.8367 136.224 54.0371 136.364 54.2654 136.486C54.7538 136.739 55.3198 136.892 55.8352 137.006C56.3506 137.12 56.763 137.316 57.0861 137.523C57.3898 137.756 57.6487 137.995 57.8689 138.284C58.089 138.573 58.251 138.938 58.477 139.272C58.7284 139.626 59.0127 139.884 59.3281 140.206C59.663 140.503 60.0291 140.864 60.5276 141.367C60.0502 141.885 59.4479 142.146 58.8474 142.248C58.2662 142.325 57.6479 142.293 57.049 142.236C56.4442 142.134 55.8082 141.967 55.2946 141.694C54.7362 141.427 54.3195 141.027 53.9416 140.577C53.589 140.145 53.3781 139.582 53.3149 138.931C53.2575 138.324 53.2895 137.706 53.2381 137.144C53.2454 136.855 53.2184 136.594 53.1571 136.359C53.1023 136.116 52.9833 135.904 52.8838 135.667C52.8343 135.522 52.7913 135.369 52.7547 135.207L52.9664 135.088Z" fill="#EAF6F6"/>
<path d="M60.3736 107.658C60.7801 107.809 61.1614 107.941 61.5486 108.117C61.9467 108.261 62.3429 108.391 62.7371 108.506C63.5249 108.788 64.4038 108.9 65.1157 109.124C65.8723 109.343 66.5125 109.713 67.0751 110.184C67.6572 110.63 68.1734 111.267 68.5985 112.075C68.8111 112.479 69.0489 112.903 69.2868 113.326C69.5376 113.733 69.8014 114.123 70.078 114.495C70.3676 114.851 70.6747 115.167 70.9991 115.443C71.3281 115.695 71.7153 115.871 72.083 116.073C72.214 116.146 72.36 116.218 72.5208 116.288L72.1598 116.654C72.0794 116.619 71.9925 116.593 71.8991 116.575C71.5179 116.443 71.156 116.286 70.736 116.205C70.3159 116.124 69.8824 116.113 69.4294 116.128C68.9511 116.122 68.4982 116.137 67.9811 116.182C67.5282 116.197 67.0111 116.242 66.5075 116.218C65.5122 116.258 64.5768 116.063 63.7459 115.627C62.921 115.236 62.1619 114.654 61.5697 113.959C60.9911 113.194 60.4765 112.398 60.0067 111.596C58.9641 110.073 58.0945 108.482 57.7301 106.756C58.6967 107.015 59.5157 107.362 60.3736 107.658Z" fill="#EAF6F6"/>
<path d="M86.2195 68.8173C86.5797 69.1336 86.8952 69.4558 87.23 69.7527C87.5455 70.0749 87.8739 70.3803 88.2152 70.6687C88.9044 71.2372 89.6964 71.7239 90.3156 72.2789C90.9988 72.8027 91.445 73.4261 91.833 74.1253C92.1763 74.8305 92.4226 75.6622 92.5078 76.6516C92.5922 77.118 92.6377 77.6351 92.6833 78.1521C92.7502 78.6588 92.8534 79.1531 92.9929 79.635C93.1155 80.104 93.2873 80.5437 93.5083 80.9542C93.6837 81.2494 93.8532 81.4999 94.0675 81.7445L93.6036 82.1925C93.3952 81.9925 93.1616 81.7732 92.9144 81.6239C92.5155 81.3582 92.103 81.1626 91.6458 80.9728C91.1886 80.783 90.7121 80.6185 90.2102 80.4346C89.7336 80.2702 89.2064 80.0669 88.724 79.8577C87.7396 79.4647 86.891 78.8945 86.2424 78.1159C85.5802 77.4074 85.0986 76.5158 84.7899 75.556C84.5199 74.5455 84.3647 73.5425 84.2348 72.559C83.8662 70.6291 83.657 68.7009 84.002 66.8359C84.8623 67.4955 85.4992 68.1847 86.2195 68.8173Z" fill="#EAF6F6"/>
<path fill-rule="evenodd" clip-rule="evenodd" d="M17.6932 87.4272C17.1789 87.1553 16.7017 86.8804 16.3014 86.5624C13.5707 84.3679 12.4463 79.6288 12.4463 79.6288C10.7036 73.2806 14.3739 66.7352 14.3739 66.7352C10.8438 66.1352 9.03152 61.2304 9.03152 61.2304C6.15339 54.7894 10.1797 49.9113 10.1797 49.9113C12.7024 46.6846 16.4185 44.7625 20.0971 43.5993C20.59 46.1588 20.181 49.4546 20.181 49.4546C19.6542 53.3499 19.4151 55.3417 20.4081 56.3676C21.7299 57.6804 23.0522 55.4907 23.1295 54.6917C23.291 52.5035 22.5341 51.2741 22.1477 49.0195C21.7757 46.8189 21.6948 44.6687 21.6786 43.1399C27.1447 41.7219 32.0339 41.8805 32.0339 41.8805C33.617 41.9002 35.2008 42.1596 36.7709 42.6043C35.9649 44.7893 34.8245 46.7616 34.8245 46.7616C32.685 50.2893 31.6097 52.1273 32.0193 53.569C32.547 55.4067 35.4849 54.5429 36.2327 52.8972C37.3998 50.3144 36.7034 49.2646 37.3577 46.8891C37.7582 45.4557 38.7162 44.4567 39.8007 43.7425C42.3884 44.8794 44.8718 46.4303 47.0732 48.0593C46.8833 48.136 46.6933 48.2128 46.5034 48.2896C45.3667 48.7131 42.748 49.4958 42.4134 51.0344C42.2982 51.5968 42.3535 52.8458 43.7902 52.6009C44.9277 52.4169 45.8537 52.1026 47.6661 49.7627C47.6661 49.7627 47.9104 49.448 48.3311 48.9901C49.532 49.944 50.6588 50.9038 51.6428 51.8014C50.8822 52.1209 50.0194 52.5776 49.859 53.2542C49.7945 53.6281 49.8257 54.4551 50.7778 54.2861C51.4306 54.1781 51.9777 54.0049 52.8842 52.9548C55.0211 54.9576 56.295 56.4218 56.295 56.4218C55.9437 57.1875 54.9707 58.8882 53.7534 60.9036C53.117 60.789 52.3776 60.5721 51.7315 60.0897C51.154 59.6754 49.9414 58.6303 49.0189 59.1472C48.6716 59.3595 48.0004 59.9667 48.5587 60.6406C48.9996 61.1581 49.4514 61.5272 51.265 61.4177C51.265 61.4177 52.3545 61.3851 53.3733 61.561C50.3513 66.5609 46.1594 73.1851 46.1594 73.1851C46.0176 73.4424 45.8501 73.714 45.6571 73.9999C44.7589 73.1875 43.88 72.1155 43.2995 70.7429C42.7019 69.3533 41.582 66.0517 39.4491 66.2422C38.6707 66.305 36.9299 66.9247 37.2867 68.8316C37.5452 70.3223 37.9938 71.4843 41.2701 73.0266C41.2701 73.0266 43.1184 73.9466 44.754 75.2526C42.8819 77.6526 39.9617 80.5243 36.4757 83.0729C35.1295 83.0894 33.7962 82.6808 32.8685 81.5205C31.2849 79.5099 31.6222 77.9342 29.44 76.0457C28.0358 74.8501 24.6339 76.0094 24.778 78.3021C24.9062 80.0614 26.7181 81.2241 30.2589 83.427C30.2589 83.427 31.525 84.2466 32.9093 85.4622C32.5373 85.6765 32.1719 85.8842 31.8132 86.0852C27.9694 88.2387 24.3717 88.8055 21.4671 88.4684C20.2296 86.7617 19.106 85.0089 18.9333 83.6034C18.4909 79.8601 20.6891 77.784 19.8952 76.5576C18.8665 75.0184 17.2098 76.9955 17.0212 77.8034C16.4747 79.9674 16.9982 81.3631 16.9713 83.7248C16.9696 84.9969 17.2816 86.2622 17.6932 87.4272ZM34.9083 57.1149C34.7513 57.994 34.9533 58.7519 35.4696 58.7471C35.9659 58.7624 36.2329 58.3906 36.3871 57.5486C36.5242 56.6896 36.4896 55.6601 35.9932 55.6448C35.4969 55.6296 35.0625 56.2729 34.9083 57.1149ZM29.719 54.0311C30.1611 54.0323 30.4054 53.7176 30.5342 52.9699C30.6459 52.205 30.6203 51.3038 30.1782 51.3026C29.756 51.2814 29.3642 51.8476 29.2353 52.5953C29.1064 53.3431 29.2769 54.0299 29.719 54.0311ZM25.1364 57.9586C25.0394 59.773 25.6459 61.291 26.7237 61.1672C27.7987 61.0804 28.301 60.2657 28.398 58.4513C28.5121 56.6539 28.226 54.5386 27.1311 54.6454C26.056 54.7321 25.2704 56.1412 25.1364 57.9586ZM21.5712 59.8316C21.7787 60.5154 21.9753 61.3475 22.4139 61.1462C22.8326 60.9649 23.1811 60.2363 22.9908 59.5696C22.7833 58.8858 22.3589 58.1458 21.9401 58.3271C21.4844 58.5113 21.3637 59.1478 21.5712 59.8316ZM16.6525 64.8186C17.0513 64.6573 17.1302 64.3376 16.957 63.6879C16.801 63.0553 16.4452 62.3835 16.0663 62.5247C15.6675 62.6859 15.5153 63.2512 15.6884 63.9009C15.8444 64.5335 16.2537 64.9798 16.6525 64.8186ZM45.4786 56.1884C45.7791 55.6111 45.945 54.8603 45.5311 54.7278C45.137 54.5753 44.6702 54.9079 44.3869 55.5022C44.1234 56.0765 43.7604 56.751 44.1545 56.9035C44.5685 57.036 45.2151 56.7627 45.4786 56.1884ZM31.7224 65.3356C30.7123 64.2926 29.351 64.0153 28.6173 64.7197C27.9035 65.404 28.2807 66.5349 29.2538 67.5809C30.2639 68.6239 31.475 69.1898 32.2087 68.4854C32.9224 67.8011 32.6955 66.3815 31.7224 65.3356ZM39.3617 62.9311C40.2688 63.8718 41.3914 64.3896 42.0454 63.7653C42.7194 63.1211 42.5014 61.8298 41.6142 60.8691C40.7071 59.9284 39.4371 59.6622 38.7631 60.3064C38.109 60.9307 38.4574 61.9533 39.3617 62.9311ZM21.3127 68.3322C21.6057 68.1058 21.5898 67.5725 21.2746 67.1002C20.9566 66.665 20.4712 66.5014 20.1781 66.7278C19.8851 66.9542 19.8811 67.5076 20.1991 67.9428C20.4971 68.398 20.9997 68.5787 21.3127 68.3322ZM25.1648 74.3075C26.3159 73.9381 26.8764 72.5841 26.554 70.7114C26.2288 68.8757 25.1738 67.1911 24.0227 67.5605C22.8716 67.9299 22.3462 69.5577 22.6515 71.4133C22.9938 73.266 24.0336 74.6568 25.1648 74.3075Z" fill="#EAF6F6"/>
<path d="M18.674 65.3932C16.7947 66.3928 14.8748 67.1929 12.9377 67.976C11.0206 68.739 9.07184 69.4308 7.10865 70.0685C5.14456 70.7185 3.17839 71.3134 1.21014 71.8532C0.212747 72.1364 -0.77917 72.3455 -1.75666 72.6087L-4.73789 73.3101L-4.82002 71.6761L-1.8868 71.126C-0.894884 70.917 0.0970346 70.7079 1.07179 70.4818C3.02129 70.0295 4.96872 69.5222 6.91408 68.9597C8.87179 68.3962 10.8151 67.7785 12.7439 67.1068C14.6556 66.4179 16.5899 65.672 18.4412 64.8037L18.674 65.3932Z" fill="#EAF6F6"/>
</svg>
