<svg width="21" height="30" viewBox="0 0 21 30" fill="none" xmlns="http://www.w3.org/2000/svg">
<g id="Capa_1" clip-path="url(#clip0_326_5554)">
<path id="Union" fill-rule="evenodd" clip-rule="evenodd" d="M20.554 10.7129C20.554 7.99803 19.4708 5.39439 17.5428 3.47471C15.6148 1.55503 12.9999 0.476562 10.2733 0.476562C7.54665 0.476562 4.93171 1.55503 3.00371 3.47471C1.0757 5.39439 -0.00744629 7.99803 -0.00744629 10.7129C0.245714 13.3046 1.34055 15.7435 3.11112 17.6599L3.8247 18.5809C3.99974 18.8475 4.15012 19.1293 4.27398 19.4229C4.40723 19.7198 4.51337 20.0281 4.59113 20.3439V20.6597C4.6791 20.9672 4.81272 21.2599 4.98755 21.5281C5.12262 21.7237 5.27284 21.9084 5.43684 22.0807C5.51483 22.0807 5.5744 22.1723 5.6373 22.2691C5.68098 22.3363 5.72626 22.406 5.78041 22.4491C6.4311 22.995 7.25522 23.2934 8.10613 23.2912H12.414C13.2197 23.2696 13.9952 22.9809 14.6175 22.4709C15.2399 21.9609 15.6735 21.2587 15.8497 20.4755C15.9896 19.8444 16.2498 19.2459 16.6161 18.7125L17.3297 17.7914C19.1686 15.8569 20.3037 13.3648 20.554 10.7129ZM8.18541 21.7123C7.7036 21.7089 7.23739 21.5418 6.86398 21.2386C6.48562 20.9201 6.22513 20.4848 6.12398 20.0019C6.04419 19.5832 5.91096 19.1764 5.72755 18.7914C5.53071 18.3841 5.28199 18.0038 4.98755 17.6599L4.30041 16.7126C2.7859 15.0449 1.83397 12.9468 1.57827 10.7129C1.57827 9.57596 1.80317 8.45018 2.24014 7.39981C2.6771 6.34944 3.31757 5.39505 4.12497 4.59113C4.93238 3.78722 5.89091 3.14951 6.94584 2.71444C8.00076 2.27936 9.13142 2.05543 10.2733 2.05543C11.4151 2.05543 12.5458 2.27936 13.6007 2.71444C14.6556 3.14951 15.6142 3.78722 16.4216 4.59113C17.229 5.39505 17.8694 6.34944 18.3064 7.39981C18.7434 8.45018 18.9683 9.57596 18.9683 10.7129C18.6829 12.9591 17.6934 15.0586 16.1404 16.7126L15.4533 17.6862C15.1918 18.0238 14.9783 18.3957 14.819 18.7914C14.724 19.0137 14.6445 19.2423 14.5811 19.4756C14.5162 19.6472 14.4632 19.823 14.4226 20.0019C14.2961 20.4746 14.0399 20.9029 13.6826 21.2386C13.3092 21.5418 12.8429 21.7089 12.3611 21.7123H8.18541ZM7.44506 25.8176H13.1008C13.3111 25.8176 13.5127 25.7344 13.6614 25.5864C13.8101 25.4384 13.8936 25.2376 13.8936 25.0282C13.8973 24.9235 13.8793 24.8192 13.8408 24.7218C13.8023 24.6243 13.744 24.5358 13.6696 24.4618C13.5953 24.3877 13.5064 24.3297 13.4085 24.2914C13.3106 24.253 13.2059 24.2351 13.1008 24.2388H7.44506C7.33995 24.2351 7.2352 24.253 7.13734 24.2914C7.03947 24.3297 6.95059 24.3877 6.87622 24.4618C6.80184 24.5358 6.74357 24.6243 6.70504 24.7218C6.6665 24.8192 6.64851 24.9235 6.65221 25.0282C6.65221 25.2376 6.73574 25.4384 6.88443 25.5864C7.03312 25.7344 7.23478 25.8176 7.44506 25.8176ZM7.33955 26.633H13.2067C13.417 26.633 13.6186 26.7161 13.7673 26.8642C13.916 27.0122 13.9995 27.213 13.9995 27.4224C14.0032 27.5271 13.9853 27.6314 13.9467 27.7288C13.9082 27.8262 13.8499 27.9147 13.7755 27.9888C13.7012 28.0628 13.6123 28.1209 13.5144 28.1592C13.4166 28.1976 13.3118 28.2155 13.2067 28.2118H7.33955C7.23443 28.2155 7.12968 28.1976 7.03182 28.1592C6.93396 28.1209 6.84507 28.0628 6.7707 27.9888C6.69633 27.9147 6.63806 27.8262 6.59952 27.7288C6.56098 27.6314 6.543 27.5271 6.54669 27.4224C6.54669 27.3187 6.5672 27.2161 6.60704 27.1203C6.64689 27.0245 6.70529 26.9375 6.77891 26.8642C6.85254 26.7909 6.93994 26.7327 7.03613 26.6931C7.13233 26.6534 7.23543 26.633 7.33955 26.633ZM12.2026 28.8965H8.37049C8.16022 28.8965 7.95855 28.9797 7.80986 29.1277C7.66117 29.2758 7.57764 29.4765 7.57764 29.6859C7.57764 29.8953 7.66117 30.0961 7.80986 30.2441C7.95855 30.3922 8.16022 30.4753 8.37049 30.4753H12.2026C12.4129 30.4753 12.6146 30.3922 12.7633 30.2441C12.912 30.0961 12.9955 29.8953 12.9955 29.6859C12.9955 29.4765 12.912 29.2758 12.7633 29.1277C12.6146 28.9797 12.4129 28.8965 12.2026 28.8965ZM13.7351 10.4769V12.3189C13.6596 13.1778 13.2635 13.9773 12.625 14.5597C11.9866 15.1422 11.1521 15.4652 10.2862 15.4652C9.42031 15.4652 8.58584 15.1422 7.94739 14.5597C7.30894 13.9773 6.91286 13.1778 6.83728 12.3189V10.4769C6.83728 10.2676 6.92081 10.0668 7.0695 9.91872C7.21819 9.77067 7.41986 9.6875 7.63014 9.6875C7.84042 9.6875 8.04208 9.77067 8.19077 9.91872C8.33946 10.0668 8.423 10.2676 8.423 10.4769V12.3189C8.46337 12.7753 8.68323 13.1974 9.03469 13.4931C9.38615 13.7888 9.84073 13.9343 10.2994 13.8978C10.5252 13.9158 10.7522 13.8891 10.9676 13.8194C11.1829 13.7496 11.3823 13.6382 11.5542 13.4915C11.7261 13.3447 11.8672 13.1656 11.9694 12.9644C12.0715 12.7631 12.1327 12.5438 12.1494 12.3189V10.4769C12.156 10.2697 12.2417 10.0727 12.389 9.92601C12.5363 9.77937 12.7341 9.69409 12.9423 9.6875C13.1526 9.6875 13.3542 9.77067 13.5029 9.91872C13.6516 10.0668 13.7351 10.2676 13.7351 10.4769Z" fill="#227667"/>
</g>
<defs>
<clipPath id="clip0_326_5554">
<rect width="20" height="30" fill="white" transform="translate(0.333374)"/>
</clipPath>
</defs>
</svg>
