<svg width="31" height="30" viewBox="0 0 31 30" fill="none" xmlns="http://www.w3.org/2000/svg">
<g id="Layer_1" clip-path="url(#clip0_326_5568)">
<g id="Group">
<g id="Vector">
<path d="M28.5968 3.35186C28.4962 3.25127 28.3621 3.1842 28.228 3.1842H23.1311V0.836964C23.1311 0.568708 22.8964 0.333984 22.6281 0.333984H8.30995C8.04169 0.333984 7.80697 0.568708 7.80697 0.836964V3.1842H2.57598C2.44185 3.1842 2.30772 3.25127 2.20713 3.35186C2.10653 3.45246 2.073 3.58659 2.073 3.72072C2.073 3.82131 2.17359 5.96736 2.94483 8.44873C4.01785 11.7684 5.82858 14.1156 8.24289 15.1887C9.04765 17.8712 10.8919 19.9837 13.2056 20.822V20.9226C13.2056 23.7058 11.0931 25.9189 8.37702 25.9189C8.10876 25.9189 7.87403 26.1536 7.87403 26.4219V29.2721C7.87403 29.5404 8.10876 29.7751 8.37702 29.7751H22.6281C22.8964 29.7751 23.1311 29.5404 23.1311 29.2721V26.4219C23.1311 26.1536 22.8964 25.9189 22.6281 25.9189C19.8785 25.9189 17.6318 23.6723 17.6318 20.9226V20.8556C20.0462 20.0173 21.9239 17.8712 22.7287 15.1216C25.0424 14.015 26.8196 11.7013 27.8591 8.44873C28.6639 5.96736 28.7309 3.78778 28.7309 3.72072C28.7645 3.58659 28.6974 3.45246 28.5968 3.35186ZM3.11249 4.19016H7.80697V12.2378C7.80697 12.8079 7.8405 13.3444 7.9411 13.8809C4.11845 11.6007 3.28015 5.93383 3.11249 4.19016ZM22.1251 26.8913V28.7356H8.87999V26.8913C11.8308 26.6566 14.111 24.2088 14.1781 21.0903C14.5804 21.1574 15.0164 21.2244 15.4523 21.2244C15.8547 21.2244 16.257 21.1909 16.6259 21.1238C16.76 24.1752 19.1408 26.6566 22.1251 26.8913ZM16.7935 20.0843C16.3576 20.1849 15.9217 20.252 15.4858 20.252C14.9828 20.252 14.4798 20.1849 14.0104 20.0508C13.9098 20.0173 13.7421 19.9502 13.6751 19.9502C10.8919 19.0113 8.81293 15.9264 8.81293 12.2714V1.37348H22.1251V3.3854V4.0225V12.2714C22.1251 15.9264 20.0462 19.0113 17.2295 19.9502M23.0305 13.8138C23.0976 13.3109 23.1646 12.7744 23.1646 12.2378V4.19016H27.725C27.5573 5.93383 26.7526 11.4331 23.0305 13.8138Z" fill="#227667"/>
<path d="M16.7935 20.0843C16.3576 20.1849 15.9217 20.252 15.4858 20.252C14.9828 20.252 14.4798 20.1849 14.0104 20.0508C13.9098 20.0173 13.7421 19.9502 13.6751 19.9502C10.8919 19.0113 8.81293 15.9264 8.81293 12.2714V1.37348H22.1251V3.3854V4.0225V12.2714C22.1251 15.9264 20.0462 19.0113 17.2295 19.9502M28.5968 3.35186C28.4962 3.25127 28.3621 3.1842 28.228 3.1842H23.1311V0.836964C23.1311 0.568708 22.8964 0.333984 22.6281 0.333984H8.30995C8.04169 0.333984 7.80697 0.568708 7.80697 0.836964V3.1842H2.57598C2.44185 3.1842 2.30772 3.25127 2.20713 3.35186C2.10653 3.45246 2.073 3.58659 2.073 3.72072C2.073 3.82131 2.17359 5.96736 2.94483 8.44873C4.01785 11.7684 5.82858 14.1156 8.24289 15.1887C9.04765 17.8712 10.8919 19.9837 13.2056 20.822V20.9226C13.2056 23.7058 11.0931 25.9189 8.37701 25.9189C8.10876 25.9189 7.87403 26.1536 7.87403 26.4219V29.2721C7.87403 29.5404 8.10876 29.7751 8.37701 29.7751H22.6281C22.8964 29.7751 23.1311 29.5404 23.1311 29.2721V26.4219C23.1311 26.1536 22.8964 25.9189 22.6281 25.9189C19.8785 25.9189 17.6318 23.6723 17.6318 20.9226V20.8556C20.0462 20.0173 21.9239 17.8712 22.7287 15.1216C25.0424 14.015 26.8196 11.7013 27.8591 8.44873C28.6639 5.96736 28.7309 3.78778 28.7309 3.72072C28.7645 3.58659 28.6974 3.45246 28.5968 3.35186ZM3.11249 4.19016H7.80697V12.2378C7.80697 12.8079 7.8405 13.3444 7.9411 13.8809C4.11845 11.6007 3.28015 5.93383 3.11249 4.19016ZM22.1251 26.8913V28.7356H8.87999V26.8913C11.8308 26.6566 14.111 24.2088 14.1781 21.0903C14.5804 21.1574 15.0164 21.2244 15.4523 21.2244C15.8547 21.2244 16.257 21.1909 16.6259 21.1238C16.76 24.1752 19.1408 26.6566 22.1251 26.8913ZM23.0305 13.8138C23.0976 13.3109 23.1646 12.7744 23.1646 12.2378V4.19016H27.725C27.5573 5.93383 26.7526 11.4331 23.0305 13.8138Z" stroke="#227667" stroke-width="0.5"/>
</g>
<path id="Vector_2" d="M20.3146 7.37501L17.565 6.97263L16.3243 4.45773C16.1902 4.18947 15.8884 3.98828 15.5866 3.98828C15.2848 3.98828 14.983 4.15594 14.8489 4.45773L13.6082 6.97263L10.8586 7.37501C10.5568 7.40855 10.2886 7.64327 10.188 7.94506C10.0874 8.24685 10.1544 8.58217 10.3892 8.78336L12.4011 10.7282L11.9316 13.4778C11.8646 13.7796 11.9987 14.0814 12.267 14.2826C12.4011 14.3832 12.5687 14.4503 12.7699 14.4503C12.9041 14.4503 13.0382 14.4167 13.1388 14.3497L15.6872 13.0755L18.1015 14.3497C18.3698 14.4838 18.7051 14.4838 18.9734 14.2826C19.2416 14.0814 19.3422 13.7796 19.3087 13.4778L18.8392 10.7282L20.8511 8.78336C21.0859 8.54863 21.1529 8.24685 21.0523 7.94506C20.8847 7.64327 20.65 7.40855 20.3146 7.37501ZM17.9003 10.1917C17.7662 10.2923 17.7327 10.46 17.7662 10.6276L18.2357 13.2766L15.9219 12.0695C15.7878 12.0024 15.6202 12.0024 15.4525 12.0695L12.9711 13.3102L13.4406 10.6276C13.4741 10.46 13.407 10.2923 13.3064 10.1917L11.3951 8.31391L14.0441 7.91153C14.2118 7.87799 14.3459 7.7774 14.413 7.64327L15.5866 5.22897L16.7602 7.64327C16.8273 7.7774 16.9614 7.91153 17.1291 7.91153L19.7781 8.31391L17.9003 10.1917Z" fill="#227667" stroke="#227667" stroke-width="0.5"/>
</g>
</g>
<defs>
<clipPath id="clip0_326_5568">
<rect width="30" height="30" fill="white" transform="translate(0.666748)"/>
</clipPath>
</defs>
</svg>
