<svg width="32" height="30" viewBox="0 0 32 30" fill="none" xmlns="http://www.w3.org/2000/svg">
<g id="Frame 484">
<g id="Group">
<path id="Vector" fill-rule="evenodd" clip-rule="evenodd" d="M6.66658 10C7.60958 10 8.51395 9.57857 9.18074 8.82843C9.84754 8.07828 10.2221 7.06087 10.2221 6C10.2221 4.93913 9.84754 3.92172 9.18074 3.17157C8.51395 2.42143 7.60958 2 6.66658 2C5.72359 2 4.81922 2.42143 4.15243 3.17157C3.48563 3.92172 3.11103 4.93913 3.11103 6C3.11103 7.06087 3.48563 8.07828 4.15243 8.82843C4.81922 9.57857 5.72359 10 6.66658 10ZM6.66658 12C7.36697 12 8.06049 11.8448 8.70756 11.5433C9.35463 11.2417 9.94258 10.7998 10.4378 10.2426C10.9331 9.68549 11.3259 9.02405 11.5939 8.2961C11.862 7.56815 11.9999 6.78793 11.9999 6C11.9999 5.21207 11.862 4.43185 11.5939 3.7039C11.3259 2.97595 10.9331 2.31451 10.4378 1.75736C9.94258 1.20021 9.35463 0.758251 8.70756 0.456723C8.06049 0.155195 7.36697 -1.17411e-08 6.66658 0C5.2521 2.37122e-08 3.89554 0.632141 2.89535 1.75736C1.89516 2.88258 1.33325 4.4087 1.33325 6C1.33325 7.5913 1.89516 9.11742 2.89535 10.2426C3.89554 11.3679 5.2521 12 6.66658 12Z" fill="#227667"/>
<path id="Vector_2" fill-rule="evenodd" clip-rule="evenodd" d="M4.56533 10.1831C4.65564 10.2716 4.72728 10.3767 4.77617 10.4924C4.82506 10.6081 4.85022 10.7321 4.85022 10.8573C4.85022 10.9826 4.82506 11.1066 4.77617 11.2223C4.72728 11.338 4.65564 11.4431 4.56533 11.5315L3.90982 12.1733C2.64831 13.4125 1.93956 15.0929 1.93939 16.845V20.3798C1.93939 20.6323 1.83723 20.8745 1.65538 21.0531C1.47352 21.2317 1.22688 21.332 0.969697 21.332C0.712517 21.332 0.465871 21.2317 0.284018 21.0531C0.102164 20.8745 0 20.6323 0 20.3798V16.845C0.000274927 14.5878 0.913427 12.4231 2.53867 10.8269L3.19224 10.1831C3.28232 10.0945 3.38933 10.0241 3.50713 9.9761C3.62494 9.92809 3.75124 9.90338 3.87879 9.90338C4.00634 9.90338 4.13263 9.92809 4.25044 9.9761C4.36825 10.0241 4.47526 10.0945 4.56533 10.1831ZM27.4347 9.61179C27.3444 9.70024 27.2727 9.80533 27.2238 9.92102C27.1749 10.0367 27.1498 10.1607 27.1498 10.286C27.1498 10.4112 27.1749 10.5353 27.2238 10.6509C27.2727 10.7666 27.3444 10.8717 27.4347 10.9602L28.0902 11.602C28.7149 12.2155 29.2105 12.9438 29.5485 13.7454C29.8866 14.547 30.0606 15.4061 30.0606 16.2737V20.3798C30.0606 20.6323 30.1628 20.8745 30.3446 21.0531C30.5265 21.2317 30.7731 21.332 31.0303 21.332C31.2875 21.332 31.5341 21.2317 31.716 21.0531C31.8978 20.8745 32 20.6323 32 20.3798V16.2737C31.9997 14.0165 31.0866 11.8517 29.4613 10.2555L28.8078 9.61179C28.7177 9.52311 28.6107 9.45275 28.4929 9.40475C28.3751 9.35674 28.2488 9.33203 28.1212 9.33203C27.9937 9.33203 27.8674 9.35674 27.7496 9.40475C27.6318 9.45275 27.5247 9.52311 27.4347 9.61179Z" fill="#227667"/>
<path id="Vector_3" fill-rule="evenodd" clip-rule="evenodd" d="M23.8787 9.8401C22.9143 9.8401 21.9894 9.42541 21.3074 8.68726C20.6255 7.94911 20.2423 6.94796 20.2423 5.90406C20.2423 4.86016 20.6255 3.85901 21.3074 3.12086C21.9894 2.38271 22.9143 1.96802 23.8787 1.96802C24.8431 1.96802 25.7681 2.38271 26.45 3.12086C27.132 3.85901 27.5151 4.86016 27.5151 5.90406C27.5151 6.94796 27.132 7.94911 26.45 8.68726C25.7681 9.42541 24.8431 9.8401 23.8787 9.8401ZM23.8787 11.8081C23.1624 11.8081 22.4531 11.6554 21.7913 11.3587C21.1296 11.062 20.5283 10.6271 20.0218 10.0789C19.5153 9.53062 19.1135 8.87976 18.8394 8.16345C18.5652 7.44713 18.4242 6.67939 18.4242 5.90406C18.4242 5.12873 18.5652 4.36099 18.8394 3.64467C19.1135 2.92836 19.5153 2.2775 20.0218 1.72926C20.5283 1.18102 21.1296 0.746127 21.7913 0.44942C22.4531 0.152713 23.1624 -1.15533e-08 23.8787 0C25.3253 2.3333e-08 26.7127 0.622033 27.7357 1.72926C28.7586 2.83649 29.3333 4.33821 29.3333 5.90406C29.3333 7.46991 28.7586 8.97163 27.7357 10.0789C26.7127 11.1861 25.3253 11.8081 23.8787 11.8081ZM15.6969 18.2042C14.4914 18.2042 13.3352 18.7225 12.4828 19.6452C11.6303 20.5679 11.1514 21.8194 11.1514 23.1242V25.6827C11.1514 25.9436 11.0557 26.1939 10.8852 26.3785C10.7147 26.563 10.4834 26.6667 10.2423 26.6667C10.0012 26.6667 9.77001 26.563 9.59952 26.3785C9.42903 26.1939 9.33325 25.9436 9.33325 25.6827V23.1242C9.33325 21.2974 10.0037 19.5454 11.1971 18.2536C12.3905 16.9619 14.0091 16.2362 15.6969 16.2362C17.3846 16.2362 19.0032 16.9619 20.1967 18.2536C21.3901 19.5454 22.0605 21.2974 22.0605 23.1242V25.6827C22.0605 25.9436 21.9647 26.1939 21.7943 26.3785C21.6238 26.563 21.3925 26.6667 21.1514 26.6667C20.9103 26.6667 20.6791 26.563 20.5086 26.3785C20.3381 26.1939 20.2423 25.9436 20.2423 25.6827V23.1242C20.2423 22.4781 20.1248 21.8383 19.8963 21.2414C19.6679 20.6445 19.3331 20.1021 18.911 19.6452C18.4889 19.1884 17.9878 18.826 17.4364 18.5787C16.8849 18.3314 16.2938 18.2042 15.6969 18.2042Z" fill="#227667"/>
<path id="Vector_4" fill-rule="evenodd" clip-rule="evenodd" d="M15.3333 15.332C16.3941 15.332 17.4115 14.9106 18.1617 14.1605C18.9118 13.4103 19.3333 12.3929 19.3333 11.332C19.3333 10.2712 18.9118 9.25375 18.1617 8.5036C17.4115 7.75346 16.3941 7.33203 15.3333 7.33203C14.2724 7.33203 13.255 7.75346 12.5048 8.5036C11.7547 9.25375 11.3333 10.2712 11.3333 11.332C11.3333 12.3929 11.7547 13.4103 12.5048 14.1605C13.255 14.9106 14.2724 15.332 15.3333 15.332ZM15.3333 17.332C16.9246 17.332 18.4507 16.6999 19.5759 15.5747C20.7011 14.4495 21.3333 12.9233 21.3333 11.332C21.3333 9.74073 20.7011 8.21461 19.5759 7.08939C18.4507 5.96417 16.9246 5.33203 15.3333 5.33203C13.742 5.33203 12.2158 5.96417 11.0906 7.08939C9.96539 8.21461 9.33325 9.74073 9.33325 11.332C9.33325 12.9233 9.96539 14.4495 11.0906 15.5747C12.2158 16.6999 13.742 17.332 15.3333 17.332Z" fill="#227667"/>
</g>
</g>
</svg>
