<svg
  xmlns="http://www.w3.org/2000/svg"
  width="11"
  height="11"
  viewBox="0 0 11 11"
  fill="none"
>
  <g clipPath="url(#clip0_81_4100)">
    <path
      d="M6.50851 2.16406C6.50851 1.78379 6.18931 1.47656 5.79422 1.47656C5.39914 1.47656 5.07994 1.78379 5.07994 2.16406V5.25781H1.86565C1.47056 5.25781 1.15137 5.56504 1.15137 5.94531C1.15137 6.32559 1.47056 6.63281 1.86565 6.63281H5.07994V9.72656C5.07994 10.1068 5.39914 10.4141 5.79422 10.4141C6.18931 10.4141 6.50851 10.1068 6.50851 9.72656V6.63281H9.7228C10.1179 6.63281 10.4371 6.32559 10.4371 5.94531C10.4371 5.56504 10.1179 5.25781 9.7228 5.25781H6.50851V2.16406Z"
      fill="#227667"
    />
  </g>
  <defs>
    <clipPath id="clip0_81_4100">
      <rect
        width="10"
        height="10"
        fill="white"
        transform="translate(0.777832 0.722656)"
      />
    </clipPath>
  </defs>
</svg>
