<svg width="29" height="25" viewBox="0 0 29 25" fill="none" xmlns="http://www.w3.org/2000/svg">
<g id="Frame" clip-path="url(#clip0_385_4013)">
<path id="Vector" d="M18.75 7.8125C17.8857 7.8125 17.1875 7.11426 17.1875 6.25C17.1875 5.38574 17.8857 4.6875 18.75 4.6875H26.5625C27.4268 4.6875 28.125 5.38574 28.125 6.25V14.0625C28.125 14.9268 27.4268 15.625 26.5625 15.625C25.6982 15.625 25 14.9268 25 14.0625V10.0244L16.7285 18.291C16.1182 18.9014 15.127 18.9014 14.5166 18.291L9.375 13.1494L2.66602 19.8535C2.05566 20.4639 1.06445 20.4639 0.454102 19.8535C-0.15625 19.2432 -0.15625 18.252 0.454102 17.6416L8.2666 9.8291C8.87695 9.21875 9.86816 9.21875 10.4785 9.8291L15.625 14.9756L22.7881 7.8125H18.75Z" fill="#06C167"/>
</g>
<defs>
<clipPath id="clip0_385_4013">
<rect width="28.125" height="25" fill="white"/>
</clipPath>
</defs>
</svg>
