<svg width="27" height="19" viewBox="0 0 27 19" fill="none" xmlns="http://www.w3.org/2000/svg">
<g id="Frame" clip-path="url(#clip0_326_5846)">
<path id="Vector" d="M27 11.875C27 15.8116 23.7636 19 19.7679 19H19.2857C18.219 19 17.3571 18.1509 17.3571 17.1C17.3571 16.0491 18.219 15.2 19.2857 15.2H19.7679C21.6301 15.2 23.1429 13.7097 23.1429 11.875V11.4H19.2857C17.1583 11.4 15.4286 9.69594 15.4286 7.6V3.8C15.4286 1.70406 17.1583 0 19.2857 0H23.1429C25.2703 0 27 1.70406 27 3.8V5.7V7.6V11.875ZM11.5714 11.875C11.5714 15.8116 8.33504 19 4.33929 19H3.85714C2.7904 19 1.92857 18.1509 1.92857 17.1C1.92857 16.0491 2.7904 15.2 3.85714 15.2H4.33929C6.20156 15.2 7.71429 13.7097 7.71429 11.875V11.4H3.85714C1.72969 11.4 0 9.69594 0 7.6V3.8C0 1.70406 1.72969 0 3.85714 0H7.71429C9.84174 0 11.5714 1.70406 11.5714 3.8V5.7V7.6V11.875Z" fill="#227667"/>
</g>
<defs>
<clipPath id="clip0_326_5846">
<rect width="27" height="19" fill="white"/>
</clipPath>
</defs>
</svg>
