<svg width="287" height="213" viewBox="0 0 287 213" fill="none" xmlns="http://www.w3.org/2000/svg">
<path d="M33.2505 7.2986C34.9328 6.76918 36.5957 6.26455 38.2693 5.8477C39.9623 5.40605 41.6358 4.9892 43.3394 4.63534C45.0136 4.28527 46.6949 3.99373 48.3833 3.76071C50.0781 3.51942 51.803 3.34112 53.475 3.28109C56.8825 3.13053 60.2885 3.3368 63.5625 4.11732C65.1949 4.53048 66.7779 5.09117 68.3116 5.79939C69.8536 6.51398 71.3093 7.4403 72.7315 8.46011C71.6054 7.11229 70.2995 5.94372 68.8138 4.9544C67.3281 3.96508 65.712 3.19321 64.0096 2.63308C60.5996 1.46894 56.9519 1.1156 53.4121 1.28324C52.5196 1.30941 51.6378 1.42336 50.7507 1.49341L49.4279 1.66433C48.987 1.7213 48.5514 1.82216 48.1105 1.87914C46.374 2.20754 44.6563 2.63008 42.9575 3.14677C41.2552 3.6342 39.5882 4.22851 37.9566 4.9297C36.3396 5.62898 34.7721 6.36646 33.2505 7.2986Z" fill="#27323D"/>
<path d="M33.2505 7.2986C34.9328 6.76918 36.5957 6.26455 38.2693 5.8477C39.9623 5.40605 41.6358 4.9892 43.3394 4.63534C45.0136 4.28527 46.6949 3.99373 48.3833 3.76071C50.0781 3.51942 51.803 3.34112 53.475 3.28109C56.8825 3.13053 60.2885 3.3368 63.5625 4.11732C65.1949 4.53048 66.7779 5.09117 68.3116 5.79939C69.8536 6.51398 71.3093 7.4403 72.7315 8.46011C71.6054 7.11229 70.2995 5.94372 68.8138 4.9544C67.3281 3.96508 65.712 3.19321 64.0096 2.63308C60.5996 1.46894 56.9519 1.1156 53.4121 1.28324C52.5196 1.30941 51.6378 1.42336 50.7507 1.49341L49.4279 1.66433C48.987 1.7213 48.5514 1.82216 48.1105 1.87914C46.374 2.20754 44.6563 2.63008 42.9575 3.14677C41.2552 3.6342 39.5882 4.22851 37.9566 4.9297C36.3396 5.62898 34.7721 6.36646 33.2505 7.2986Z" fill="#27323D"/>
<path d="M71.0772 8.49632C71.03 9.21565 71.0516 9.94839 71.1173 10.6754C71.183 11.4025 71.3122 12.099 71.4661 12.8146C71.7492 14.2268 72.1645 15.6219 72.6874 16.9808C72.9682 17.6355 73.2297 18.3149 73.5546 18.9639C73.7294 19.2979 73.8602 19.6376 74.0544 19.9469L74.5735 20.9051C74.7171 21.2283 74.8967 21.5394 75.112 21.8385L75.6505 22.7719C75.8447 23.0811 76.0583 23.3655 76.2719 23.65L76.8686 24.509L76.9286 24.635C76.9781 24.6732 76.9834 24.7171 76.9834 24.7171L77.1175 24.9003L77.3471 25.3164C77.5295 25.59 77.699 25.8802 77.8556 26.1868C78.1946 26.7671 78.5142 27.3722 78.8338 27.9773C79.4924 29.1626 80.0434 30.3842 80.6192 31.6248C81.1949 32.8654 81.6631 34.1422 82.156 35.4381C82.6048 36.7398 82.9654 38.0528 83.3613 39.4727C83.4773 38.7667 83.6127 38.036 83.6352 37.2976C83.6614 36.9598 83.6823 36.5782 83.6839 36.2214L83.6391 35.1128C83.5324 33.6778 83.2881 32.216 82.9169 30.8152C82.565 29.3897 82.0862 28.0251 81.4998 26.6967C81.209 26.021 80.9052 25.3619 80.5885 24.7193C80.4155 24.3999 80.2342 24.0741 80.0447 23.742L79.7851 23.2629L79.681 23.1426L79.5962 22.9975C79.5415 22.9155 79.5168 22.8964 79.5115 22.8525L79.4321 22.7513C79.0296 22.2015 78.6024 21.6326 78.2193 21.058C77.8362 20.4835 77.4338 19.9337 77.0754 19.3782C76.3092 18.229 75.6118 17.0933 74.8844 15.8945C74.1899 14.7212 73.5231 13.5295 72.8839 12.3194C72.264 11.0845 71.6389 9.80564 71.0772 8.49632Z" fill="#27323D"/>
<path d="M71.0772 8.49632C71.03 9.21565 71.0516 9.94839 71.1173 10.6754C71.183 11.4025 71.3122 12.099 71.4661 12.8146C71.7492 14.2268 72.1645 15.6219 72.6874 16.9808C72.9682 17.6355 73.2297 18.3149 73.5546 18.9639C73.7294 19.2979 73.8602 19.6376 74.0544 19.9469L74.5735 20.9051C74.7171 21.2283 74.8967 21.5394 75.112 21.8385L75.6505 22.7719C75.8447 23.0811 76.0583 23.3655 76.2719 23.65L76.8686 24.509L76.9286 24.635C76.9781 24.6732 76.9834 24.7171 76.9834 24.7171L77.1175 24.9003L77.3471 25.3164C77.5295 25.59 77.699 25.8802 77.8556 26.1868C78.1946 26.7671 78.5142 27.3722 78.8338 27.9773C79.4924 29.1626 80.0434 30.3842 80.6192 31.6248C81.1949 32.8654 81.6631 34.1422 82.156 35.4381C82.6048 36.7398 82.9654 38.0528 83.3613 39.4727C83.4773 38.7667 83.6127 38.036 83.6352 37.2976C83.6614 36.9598 83.6823 36.5782 83.6839 36.2214L83.6391 35.1128C83.5324 33.6778 83.2881 32.216 82.9169 30.8152C82.565 29.3897 82.0862 28.0251 81.4998 26.6967C81.209 26.021 80.9052 25.3619 80.5885 24.7193C80.4155 24.3999 80.2342 24.0741 80.0447 23.742L79.7851 23.2629L79.681 23.1426L79.5962 22.9975C79.5415 22.9155 79.5168 22.8964 79.5115 22.8525L79.4321 22.7513C79.0296 22.2015 78.6024 21.6326 78.2193 21.058C77.8362 20.4835 77.4338 19.9337 77.0754 19.3782C76.3092 18.229 75.6118 17.0933 74.8844 15.8945C74.1899 14.7212 73.5231 13.5295 72.8839 12.3194C72.264 11.0845 71.6389 9.80564 71.0772 8.49632Z" fill="#27323D"/>
<path d="M29.9954 9.63718C33.6816 9.38376 37.283 8.98527 40.8843 8.58678C44.4857 8.18829 48.0677 7.81459 51.6357 7.50958C55.1842 7.22936 58.7381 6.99303 62.2463 7.11921C64.0224 7.17946 65.7651 7.33318 67.4656 7.69296C69.1468 8.07752 70.791 8.71203 72.1516 9.96269C71.7613 9.14386 71.1312 8.37832 70.4094 7.78063C69.663 7.16385 68.8443 6.69013 67.9869 6.266C66.2332 5.46733 64.3845 4.99298 62.5323 4.6751C62.0607 4.6023 61.5974 4.53586 61.1423 4.47579C60.6743 4.43225 60.2063 4.38872 59.7383 4.34518C58.8105 4.26447 57.888 4.22764 56.9461 4.21561C56.0208 4.21632 55.0889 4.22529 54.1506 4.24252C53.2323 4.30174 52.314 4.36097 51.3957 4.42019C47.6955 4.7423 44.0519 5.34683 40.4843 6.20902C38.6978 6.61816 36.922 7.11509 35.1762 7.67501C34.2992 7.95178 33.4257 8.25782 32.5558 8.59311C31.6988 8.91188 30.8453 9.2599 29.9954 9.63718Z" fill="#27323D"/>
<path d="M29.9954 9.63718C33.6816 9.38376 37.283 8.98527 40.8843 8.58678C44.4857 8.18829 48.0677 7.81459 51.6357 7.50958C55.1842 7.22936 58.7381 6.99303 62.2463 7.11921C64.0224 7.17946 65.7651 7.33318 67.4656 7.69296C69.1468 8.07752 70.791 8.71203 72.1516 9.96269C71.7613 9.14386 71.1312 8.37832 70.4094 7.78063C69.663 7.16385 68.8443 6.69013 67.9869 6.266C66.2332 5.46733 64.3845 4.99298 62.5323 4.6751C62.0607 4.6023 61.5974 4.53586 61.1423 4.47579C60.6743 4.43225 60.2063 4.38872 59.7383 4.34518C58.8105 4.26447 57.888 4.22764 56.9461 4.21561C56.0208 4.21632 55.0889 4.22529 54.1506 4.24252C53.2323 4.30174 52.314 4.36097 51.3957 4.42019C47.6955 4.7423 44.0519 5.34683 40.4843 6.20902C38.6978 6.61816 36.922 7.11509 35.1762 7.67501C34.2992 7.95178 33.4257 8.25782 32.5558 8.59311C31.6988 8.91188 30.8453 9.2599 29.9954 9.63718Z" fill="#27323D"/>
<path d="M32.1303 18.5684C32.4546 18.2887 32.789 18.0301 33.1334 17.7924C33.4778 17.5547 33.8239 17.3317 34.1718 17.1233C34.8971 16.7027 35.6276 16.326 36.3635 15.9931C37.8482 15.3109 39.3735 14.7795 40.9536 14.3302C42.4896 13.8865 44.0803 13.525 45.6569 13.2321C47.2777 12.9335 48.8649 12.7284 50.5016 12.5615C53.7503 12.2086 57.0202 12.0312 60.3255 11.9608C61.1545 11.9651 61.9975 11.9007 62.8265 11.905L64.077 11.8772C64.4956 11.8825 64.9124 11.8733 65.3275 11.8493C66.1565 11.8537 67.0048 11.8332 67.8532 11.8127C68.7033 11.8069 69.5581 11.7782 70.4177 11.7265C69.6073 11.4449 68.7923 11.1862 67.9726 10.9503C67.1611 10.7209 66.3109 10.541 65.5047 10.3554C64.6738 10.1507 63.8289 10.0147 62.984 9.87872C62.5712 9.79832 62.1391 9.74272 61.7316 9.70622C61.3059 9.64235 60.8802 9.57849 60.4545 9.51462C57.0714 9.1271 53.6426 9.1021 50.1928 9.4587L49.5315 9.54416L48.8948 9.64871C48.4733 9.68089 48.0571 9.75696 47.6162 9.81393L46.3482 10.0669C45.9126 10.1678 45.477 10.2687 45.0661 10.3886C43.3678 10.7864 41.7102 11.3349 40.118 12.0533C38.5257 12.7717 36.9741 13.6408 35.5814 14.7123C34.885 15.2481 34.2381 15.822 33.6211 16.4589C33.0483 17.0902 32.4861 17.8092 32.1303 18.5684Z" fill="#27323D"/>
<path d="M32.1303 18.5684C32.4546 18.2887 32.789 18.0301 33.1334 17.7924C33.4778 17.5547 33.8239 17.3317 34.1718 17.1233C34.8971 16.7027 35.6276 16.326 36.3635 15.9931C37.8482 15.3109 39.3735 14.7795 40.9536 14.3302C42.4896 13.8865 44.0803 13.525 45.6569 13.2321C47.2777 12.9335 48.8649 12.7284 50.5016 12.5615C53.7503 12.2086 57.0202 12.0312 60.3255 11.9608C61.1545 11.9651 61.9975 11.9007 62.8265 11.905L64.077 11.8772C64.4956 11.8825 64.9124 11.8733 65.3275 11.8493C66.1565 11.8537 67.0048 11.8332 67.8532 11.8127C68.7033 11.8069 69.5581 11.7782 70.4177 11.7265C69.6073 11.4449 68.7923 11.1862 67.9726 10.9503C67.1611 10.7209 66.3109 10.541 65.5047 10.3554C64.6738 10.1507 63.8289 10.0147 62.984 9.87872C62.5712 9.79832 62.1391 9.74272 61.7316 9.70622C61.3059 9.64235 60.8802 9.57849 60.4545 9.51462C57.0714 9.1271 53.6426 9.1021 50.1928 9.4587L49.5315 9.54416L48.8948 9.64871C48.4733 9.68089 48.0571 9.75696 47.6162 9.81393L46.3482 10.0669C45.9126 10.1678 45.477 10.2687 45.0661 10.3886C43.3678 10.7864 41.7102 11.3349 40.118 12.0533C38.5257 12.7717 36.9741 13.6408 35.5814 14.7123C34.885 15.2481 34.2381 15.822 33.6211 16.4589C33.0483 17.0902 32.4861 17.8092 32.1303 18.5684Z" fill="#27323D"/>
<path d="M26.7797 23.9406C27.1006 23.6317 27.4461 23.3419 27.8163 23.0711L28.3964 22.6842C28.5621 22.5736 28.7719 22.4573 28.9376 22.3467L29.523 22.0036L30.1331 21.6796C30.5139 21.4967 30.9142 21.289 31.3391 21.1003L32.5752 20.584L33.8166 20.1115C34.6278 19.7838 35.5183 19.5573 36.3542 19.2487L36.9802 19.0564C37.2201 19.0031 37.4158 18.9555 37.6309 18.8831L38.9324 18.5367L39.5831 18.3634C39.7853 18.3076 39.9958 18.2581 40.2145 18.215L41.5459 17.9315C43.2636 17.5089 45.0413 17.2124 46.8137 16.8719L47.1417 16.8072L47.4751 16.7864L48.1311 16.6571L49.4732 16.4614L50.8153 16.2657L51.452 16.1611L52.1381 16.0947C53.0199 15.9808 53.9017 15.8669 54.8276 15.7472C55.7094 15.6333 56.6106 15.4945 57.4978 15.4245C58.3961 15.3233 59.2943 15.222 60.1926 15.1208C61.0798 15.0508 61.981 14.912 62.8875 14.8172C64.6812 14.6523 66.4748 14.4874 68.3019 14.229C66.4851 14.018 64.6842 13.9387 62.8587 13.8402C61.9362 13.8034 61.0437 13.8296 60.1266 13.8366C59.2141 13.8208 58.297 13.8279 57.3751 13.8578C56.9289 13.8709 56.4827 13.884 56.0364 13.8971L54.659 13.9859C53.7471 14.0369 52.8406 14.1317 51.9094 14.2075C51.6872 14.2213 51.4649 14.2352 51.2427 14.249L50.562 14.3593L49.1951 14.5359L47.8283 14.7125L47.167 14.798L46.8389 14.8627L46.4862 14.9082L43.7985 15.4561C42.878 15.6197 42.0121 15.8653 41.1215 16.0918L39.776 16.444C39.5444 16.5036 39.321 16.5696 39.1059 16.642L38.4605 16.8591L37.1502 17.3182C36.9351 17.3906 36.6953 17.4438 36.5048 17.5353L35.8647 17.7963L34.5652 18.3432C34.1349 18.4879 33.7153 18.7204 33.315 18.9282L32.0702 19.5571L30.8801 20.2681C30.6702 20.3844 30.4798 20.4758 30.2753 20.636L29.72 21.0421L29.1646 21.4482C28.973 21.5918 28.7897 21.7418 28.6146 21.8981C27.9235 22.4778 27.2678 23.1643 26.7797 23.9406Z" fill="#27323D"/>
<path d="M26.7797 23.9406C27.1006 23.6317 27.4461 23.3419 27.8163 23.0711L28.3964 22.6842C28.5621 22.5736 28.7719 22.4573 28.9376 22.3467L29.523 22.0036L30.1331 21.6796C30.5139 21.4967 30.9142 21.289 31.3391 21.1003L32.5752 20.584L33.8166 20.1115C34.6278 19.7838 35.5183 19.5573 36.3542 19.2487L36.9802 19.0564C37.2201 19.0031 37.4158 18.9555 37.6309 18.8831L38.9324 18.5367L39.5831 18.3634C39.7853 18.3076 39.9958 18.2581 40.2145 18.215L41.5459 17.9315C43.2636 17.5089 45.0413 17.2124 46.8137 16.8719L47.1417 16.8072L47.4751 16.7864L48.1311 16.6571L49.4732 16.4614L50.8153 16.2657L51.452 16.1611L52.1381 16.0947C53.0199 15.9808 53.9017 15.8669 54.8276 15.7472C55.7094 15.6333 56.6106 15.4945 57.4978 15.4245C58.3961 15.3233 59.2943 15.222 60.1926 15.1208C61.0798 15.0508 61.981 14.912 62.8875 14.8172C64.6812 14.6523 66.4748 14.4874 68.3019 14.229C66.4851 14.018 64.6842 13.9387 62.8587 13.8402C61.9362 13.8034 61.0437 13.8296 60.1266 13.8366C59.2141 13.8208 58.297 13.8279 57.3751 13.8578C56.9289 13.8709 56.4827 13.884 56.0364 13.8971L54.659 13.9859C53.7471 14.0369 52.8406 14.1317 51.9094 14.2075C51.6872 14.2213 51.4649 14.2352 51.2427 14.249L50.562 14.3593L49.1951 14.5359L47.8283 14.7125L47.167 14.798L46.8389 14.8627L46.4862 14.9082L43.7985 15.4561C42.878 15.6197 42.0121 15.8653 41.1215 16.0918L39.776 16.444C39.5444 16.5036 39.321 16.5696 39.1059 16.642L38.4605 16.8591L37.1502 17.3182C36.9351 17.3906 36.6953 17.4438 36.5048 17.5353L35.8647 17.7963L34.5652 18.3432C34.1349 18.4879 33.7153 18.7204 33.315 18.9282L32.0702 19.5571L30.8801 20.2681C30.6702 20.3844 30.4798 20.4758 30.2753 20.636L29.72 21.0421L29.1646 21.4482C28.973 21.5918 28.7897 21.7418 28.6146 21.8981C27.9235 22.4778 27.2678 23.1643 26.7797 23.9406Z" fill="#27323D"/>
<path d="M25.6552 29.4327C29.0498 28.4369 32.3544 27.252 35.6096 26.029C38.8895 24.8251 42.1394 23.5582 45.3505 22.3409C48.5809 21.0988 51.8361 19.8758 55.0685 18.834C56.682 18.2912 58.3256 17.8114 59.9851 17.4632C60.8369 17.2863 61.6499 17.1589 62.4929 17.0946C63.3413 17.0741 64.1756 17.1223 65.0224 17.4587C64.7153 17.1417 64.306 16.9049 63.8772 16.6928C63.4668 16.5081 63.0387 16.3628 62.593 16.257C61.6933 16.0389 60.7655 15.9582 59.8677 15.9405C58.0528 15.9298 56.2645 16.1386 54.5115 16.4543C50.9861 17.1104 47.5773 18.1749 44.2834 19.4475C40.9647 20.701 37.7608 22.1626 34.647 23.8131C33.0901 24.6384 31.5385 25.5075 30.061 26.4339C28.5395 27.3661 27.0673 28.3364 25.6552 29.4327Z" fill="#27323D"/>
<path d="M25.6552 29.4327C29.0498 28.4369 32.3544 27.252 35.6096 26.029C38.8895 24.8251 42.1394 23.5582 45.3505 22.3409C48.5809 21.0988 51.8361 19.8758 55.0685 18.834C56.682 18.2912 58.3256 17.8114 59.9851 17.4632C60.8369 17.2863 61.6499 17.1589 62.4929 17.0946C63.3413 17.0741 64.1756 17.1223 65.0224 17.4587C64.7153 17.1417 64.306 16.9049 63.8772 16.6928C63.4668 16.5081 63.0387 16.3628 62.593 16.257C61.6933 16.0389 60.7655 15.9582 59.8677 15.9405C58.0528 15.9298 56.2645 16.1386 54.5115 16.4543C50.9861 17.1104 47.5773 18.1749 44.2834 19.4475C40.9647 20.701 37.7608 22.1626 34.647 23.8131C33.0901 24.6384 31.5385 25.5075 30.061 26.4339C28.5395 27.3661 27.0673 28.3364 25.6552 29.4327Z" fill="#27323D"/>
<path d="M25.0536 34.8161L34.3 30.1889C35.8328 29.4113 37.3757 28.6547 38.9285 27.9192C40.4714 27.1626 42.0195 26.4499 43.5924 25.7563C46.6941 24.3748 49.8504 23.0754 53.0828 22.0337C54.721 21.51 56.3452 21.0549 58.01 20.7506C59.6695 20.4025 61.3697 20.2051 63.1017 20.271C61.4294 19.7739 59.6532 19.7136 57.9124 19.7603C56.1328 19.8565 54.3992 20.1474 52.6762 20.526C49.2549 21.3024 45.9751 22.5063 42.7906 23.9431C41.983 24.3001 41.1918 24.6697 40.4172 25.0522C39.6361 25.4428 38.855 25.8335 38.0739 26.2242C36.5446 27.031 35.0371 27.8945 33.5513 28.8146C32.0785 29.7181 30.6258 30.6636 29.193 31.6512C27.795 32.6788 26.3722 33.6873 25.0536 34.8161Z" fill="#27323D"/>
<path d="M25.0536 34.8161L34.3 30.1889C35.8328 29.4113 37.3757 28.6547 38.9285 27.9192C40.4714 27.1626 42.0195 26.4499 43.5924 25.7563C46.6941 24.3748 49.8504 23.0754 53.0828 22.0337C54.721 21.51 56.3452 21.0549 58.01 20.7506C59.6695 20.4025 61.3697 20.2051 63.1017 20.271C61.4294 19.7739 59.6532 19.7136 57.9124 19.7603C56.1328 19.8565 54.3992 20.1474 52.6762 20.526C49.2549 21.3024 45.9751 22.5063 42.7906 23.9431C41.983 24.3001 41.1918 24.6697 40.4172 25.0522C39.6361 25.4428 38.855 25.8335 38.0739 26.2242C36.5446 27.031 35.0371 27.8945 33.5513 28.8146C32.0785 29.7181 30.6258 30.6636 29.193 31.6512C27.795 32.6788 26.3722 33.6873 25.0536 34.8161Z" fill="#27323D"/>
<path d="M23.3912 40.134C23.9093 39.4207 24.5756 38.8219 25.242 38.2232C25.4042 38.0834 25.5663 37.9435 25.7285 37.8037L25.9912 37.5692C26.0887 37.512 26.1781 37.4484 26.2592 37.3785L27.3064 36.5968L28.403 35.8533C28.5881 35.718 28.7732 35.5826 28.9389 35.4721L29.5243 35.1289L30.6262 34.4293C31.0018 34.2025 31.402 33.9948 31.8023 33.787L32.9342 33.1504C33.3345 32.9427 33.7154 32.7597 34.1403 32.5711L35.3023 31.9975C35.5121 31.8812 35.7025 31.7897 35.893 31.6982L36.5084 31.4181L38.9117 30.3721L41.3699 29.4081C41.8001 29.2633 42.2004 29.0556 42.6307 28.9108L43.8774 28.4823L46.3655 27.5812L51.4319 25.9682C52.283 25.7245 53.1407 25.4725 54.0048 25.2122L55.2568 24.8276C55.6871 24.6828 56.1174 24.5381 56.5529 24.4372C58.2653 23.9708 59.997 23.4795 61.6987 22.9253C59.8997 23.0463 58.1361 23.2742 56.3478 23.483C55.9069 23.54 55.4466 23.6218 55.0304 23.6978L53.6936 23.9374C52.8024 24.0972 51.9194 24.2633 51.0447 24.4357C50.1488 24.6184 49.2829 24.864 48.4171 25.1096C47.5459 25.3113 46.67 25.5359 45.7894 25.7834L43.2272 26.6272L41.9364 27.0614C41.5061 27.2062 41.1005 27.37 40.6756 27.5587L38.154 28.5531C37.337 28.9559 36.5183 29.344 35.6977 29.7175L35.0877 30.0415C34.8972 30.133 34.6874 30.2492 34.4776 30.3655L33.2822 31.0326L32.6968 31.3757C32.5064 31.4672 32.2966 31.5835 32.1114 31.7188L30.9707 32.468L30.4101 32.8302C30.225 32.9656 30.0151 33.0818 29.8547 33.2363L28.7688 34.0676L28.2134 34.4737C28.0383 34.63 27.8697 34.7781 27.7075 34.9179L26.6762 35.8313L25.7438 36.821C25.6498 36.9075 25.5705 36.992 25.5058 37.0747L25.2679 37.3283C25.1257 37.5101 24.99 37.6837 24.8608 37.849C24.7668 37.9354 24.6874 38.02 24.6228 38.1026L24.4343 38.3944L24.0325 38.959L23.6748 39.5178C23.5638 39.7105 23.4775 39.9222 23.3912 40.134Z" fill="#27323D"/>
<path d="M23.3912 40.134C23.9093 39.4207 24.5756 38.8219 25.242 38.2232C25.4042 38.0834 25.5663 37.9435 25.7285 37.8037L25.9912 37.5692C26.0887 37.512 26.1781 37.4484 26.2592 37.3785L27.3064 36.5968L28.403 35.8533C28.5881 35.718 28.7732 35.5826 28.9389 35.4721L29.5243 35.1289L30.6262 34.4293C31.0018 34.2025 31.402 33.9948 31.8023 33.787L32.9342 33.1504C33.3345 32.9427 33.7154 32.7597 34.1403 32.5711L35.3023 31.9975C35.5121 31.8812 35.7025 31.7897 35.893 31.6982L36.5084 31.4181L38.9117 30.3721L41.3699 29.4081C41.8001 29.2633 42.2004 29.0556 42.6307 28.9108L43.8774 28.4823L46.3655 27.5812L51.4319 25.9682C52.283 25.7245 53.1407 25.4725 54.0048 25.2122L55.2568 24.8276C55.6871 24.6828 56.1174 24.5381 56.5529 24.4372C58.2653 23.9708 59.997 23.4795 61.6987 22.9253C59.8997 23.0463 58.1361 23.2742 56.3478 23.483C55.9069 23.54 55.4466 23.6218 55.0304 23.6978L53.6936 23.9374C52.8024 24.0972 51.9194 24.2633 51.0447 24.4357C50.1488 24.6184 49.2829 24.864 48.4171 25.1096C47.5459 25.3113 46.67 25.5359 45.7894 25.7834L43.2272 26.6272L41.9364 27.0614C41.5061 27.2062 41.1005 27.37 40.6756 27.5587L38.154 28.5531C37.337 28.9559 36.5183 29.344 35.6977 29.7175L35.0877 30.0415C34.8972 30.133 34.6874 30.2492 34.4776 30.3655L33.2822 31.0326L32.6968 31.3757C32.5064 31.4672 32.2966 31.5835 32.1114 31.7188L30.9707 32.468L30.4101 32.8302C30.225 32.9656 30.0151 33.0818 29.8547 33.2363L28.7688 34.0676L28.2134 34.4737C28.0383 34.63 27.8697 34.7781 27.7075 34.9179L26.6762 35.8313L25.7438 36.821C25.6498 36.9075 25.5705 36.992 25.5058 37.0747L25.2679 37.3283C25.1257 37.5101 24.99 37.6837 24.8608 37.849C24.7668 37.9354 24.6874 38.02 24.6228 38.1026L24.4343 38.3944L24.0325 38.959L23.6748 39.5178C23.5638 39.7105 23.4775 39.9222 23.3912 40.134Z" fill="#27323D"/>
<path d="M25.1949 42.6432C25.4699 42.3254 25.7466 42.0222 26.0251 41.7336C26.3165 41.4285 26.6244 41.1361 26.9488 40.8564C27.5517 40.2882 28.1545 39.7199 28.7874 39.2147C30.092 38.1545 31.4072 37.1822 32.7718 36.2481C35.4816 34.4046 38.3802 32.8264 41.3496 31.4621L42.4728 30.938L43.6013 30.4579C43.9822 30.2749 44.3684 30.1359 44.7299 29.9777L45.8831 29.5167C46.6555 29.2385 47.4225 28.9165 48.2196 28.6575L49.3781 28.2404L50.542 27.8671C53.6862 26.8367 56.8957 25.9762 60.1494 25.11C56.7947 25.1423 53.4491 25.6192 50.1354 26.3594L48.9168 26.6506L47.7035 26.9857C46.8571 27.2065 46.0847 27.4846 45.2435 27.7493C43.6547 28.3113 42.0712 28.9171 40.523 29.6298C37.4267 31.0551 34.4858 32.8393 31.838 35.0091C30.514 36.094 29.2642 37.2362 28.1432 38.5178C27.5704 39.149 27.0222 39.7994 26.5235 40.4879C26.0248 41.1764 25.5508 41.884 25.1949 42.6432Z" fill="#27323D"/>
<path d="M25.1949 42.6432C25.4699 42.3254 25.7466 42.0222 26.0251 41.7336C26.3165 41.4285 26.6244 41.1361 26.9488 40.8564C27.5517 40.2882 28.1545 39.7199 28.7874 39.2147C30.092 38.1545 31.4072 37.1822 32.7718 36.2481C35.4816 34.4046 38.3802 32.8264 41.3496 31.4621L42.4728 30.938L43.6013 30.4579C43.9822 30.2749 44.3684 30.1359 44.7299 29.9777L45.8831 29.5167C46.6555 29.2385 47.4225 28.9165 48.2196 28.6575L49.3781 28.2404L50.542 27.8671C53.6862 26.8367 56.8957 25.9762 60.1494 25.11C56.7947 25.1423 53.4491 25.6192 50.1354 26.3594L48.9168 26.6506L47.7035 26.9857C46.8571 27.2065 46.0847 27.4846 45.2435 27.7493C43.6547 28.3113 42.0712 28.9171 40.523 29.6298C37.4267 31.0551 34.4858 32.8393 31.838 35.0091C30.514 36.094 29.2642 37.2362 28.1432 38.5178C27.5704 39.149 27.0222 39.7994 26.5235 40.4879C26.0248 41.1764 25.5508 41.884 25.1949 42.6432Z" fill="#27323D"/>
<path d="M22.9894 45.3117C25.738 43.4186 28.5025 41.6572 31.3218 39.9779C34.131 38.2775 36.9921 36.6968 39.9049 35.2357C40.6473 34.8946 41.3649 34.5344 42.1072 34.1934C42.8249 33.8332 43.5919 33.5112 44.3343 33.1701C45.819 32.4879 47.309 31.8496 48.8484 31.2495C51.8831 30.0549 54.9832 29.0303 58.1521 28.019C56.5048 28.0981 54.8293 28.3146 53.2086 28.6132C52.3762 28.7653 51.5685 28.9366 50.7414 29.1326C50.3499 29.2278 49.939 29.3477 49.5475 29.4429C49.1366 29.5629 48.7451 29.658 48.3342 29.778L47.1456 30.1322C46.7595 30.2712 46.3292 30.416 45.943 30.555C45.1459 30.814 44.3789 31.136 43.6065 31.4141C42.8395 31.7361 42.0477 32.039 41.286 32.4049C40.519 32.7269 39.7819 33.1119 39.0202 33.4778C36.0227 34.9796 33.1647 36.7085 30.4461 38.6645C29.1115 39.6617 27.8017 40.6779 26.5465 41.7762C25.3161 42.8936 24.0663 44.0358 22.9894 45.3117Z" fill="#27323D"/>
<path d="M22.9894 45.3117C25.738 43.4186 28.5025 41.6572 31.3218 39.9779C34.131 38.2775 36.9921 36.6968 39.9049 35.2357C40.6473 34.8946 41.3649 34.5344 42.1072 34.1934C42.8249 33.8332 43.5919 33.5112 44.3343 33.1701C45.819 32.4879 47.309 31.8496 48.8484 31.2495C51.8831 30.0549 54.9832 29.0303 58.1521 28.019C56.5048 28.0981 54.8293 28.3146 53.2086 28.6132C52.3762 28.7653 51.5685 28.9366 50.7414 29.1326C50.3499 29.2278 49.939 29.3477 49.5475 29.4429C49.1366 29.5629 48.7451 29.658 48.3342 29.778L47.1456 30.1322C46.7595 30.2712 46.3292 30.416 45.943 30.555C45.1459 30.814 44.3789 31.136 43.6065 31.4141C42.8395 31.7361 42.0477 32.039 41.286 32.4049C40.519 32.7269 39.7819 33.1119 39.0202 33.4778C36.0227 34.9796 33.1647 36.7085 30.4461 38.6645C29.1115 39.6617 27.8017 40.6779 26.5465 41.7762C25.3161 42.8936 24.0663 44.0358 22.9894 45.3117Z" fill="#27323D"/>
<path d="M21.4763 53.5323C22.6278 52.1948 23.8388 50.9164 25.1091 49.6973C26.3465 48.4527 27.6204 47.2628 28.9308 46.1276C30.2688 44.974 31.6122 43.8643 33.0102 42.8367C33.6872 42.3258 34.3835 41.79 35.1099 41.3172L35.6459 40.936L36.1625 40.5795C36.5327 40.3087 36.8835 40.0628 37.2591 39.836L38.3416 39.1611C38.7172 38.9343 39.0927 38.7075 39.4683 38.4806C39.8291 38.2557 40.1982 38.0371 40.5755 37.8249C40.9758 37.6172 41.3513 37.3904 41.7075 37.1883C43.2397 36.344 44.8072 35.6065 46.3748 34.869C49.584 33.4513 52.8692 32.2913 56.2585 31.2516C52.7241 31.4631 49.1899 32.2318 45.7971 33.428C44.9613 33.7366 44.1255 34.0452 43.2949 34.3977C42.9141 34.5807 42.4838 34.7254 42.0835 34.9331L40.8775 35.5125C39.2518 36.3243 37.6808 37.2183 36.1839 38.1695C35.789 38.4211 35.4188 38.6919 35.0679 38.9378L34.5073 39.3L33.9519 39.7061C33.2409 40.2437 32.5316 40.796 31.824 41.3629C30.4384 42.493 29.1222 43.7032 27.8754 44.9936C26.6221 46.2922 25.4624 47.6234 24.3574 49.0366C23.3017 50.488 22.2902 51.9338 21.4763 53.5323Z" fill="#27323D"/>
<path d="M21.4763 53.5323C22.6278 52.1948 23.8388 50.9164 25.1091 49.6973C26.3465 48.4527 27.6204 47.2628 28.9308 46.1276C30.2688 44.974 31.6122 43.8643 33.0102 42.8367C33.6872 42.3258 34.3835 41.79 35.1099 41.3172L35.6459 40.936L36.1625 40.5795C36.5327 40.3087 36.8835 40.0628 37.2591 39.836L38.3416 39.1611C38.7172 38.9343 39.0927 38.7075 39.4683 38.4806C39.8291 38.2557 40.1982 38.0371 40.5755 37.8249C40.9758 37.6172 41.3513 37.3904 41.7075 37.1883C43.2397 36.344 44.8072 35.6065 46.3748 34.869C49.584 33.4513 52.8692 32.2913 56.2585 31.2516C52.7241 31.4631 49.1899 32.2318 45.7971 33.428C44.9613 33.7366 44.1255 34.0452 43.2949 34.3977C42.9141 34.5807 42.4838 34.7254 42.0835 34.9331L40.8775 35.5125C39.2518 36.3243 37.6808 37.2183 36.1839 38.1695C35.789 38.4211 35.4188 38.6919 35.0679 38.9378L34.5073 39.3L33.9519 39.7061C33.2409 40.2437 32.5316 40.796 31.824 41.3629C30.4384 42.493 29.1222 43.7032 27.8754 44.9936C26.6221 46.2922 25.4624 47.6234 24.3574 49.0366C23.3017 50.488 22.2902 51.9338 21.4763 53.5323Z" fill="#27323D"/>
<path d="M26.0807 53.8304C26.4719 53.178 26.9372 52.583 27.4271 52.007C27.9171 51.4311 28.4565 50.8933 28.9959 50.3556C29.5406 49.8617 30.08 49.3239 30.6494 48.8492L31.4761 48.096L32.377 47.4L33.2532 46.685L34.154 45.9891C34.7729 45.5526 35.3423 45.0778 35.9858 44.6603C36.5852 44.2485 37.2041 43.8119 37.8229 43.3754L39.7341 42.1477C40.3529 41.7111 41.0017 41.3375 41.6452 40.92L43.5617 39.7363C44.8788 38.9643 46.1712 38.1732 47.4882 37.4013C48.1453 37.034 48.8006 36.6522 49.4542 36.2557L50.4592 35.68C50.7777 35.4754 51.098 35.2855 51.4201 35.1101C52.7619 34.3572 54.0789 33.5853 55.3907 32.7694C53.9182 33.1825 52.481 33.7026 50.9998 34.2283C50.2909 34.4759 49.5926 34.8113 48.8891 35.1028C48.179 35.4026 47.469 35.7024 46.759 36.0022C46.036 36.3185 45.3872 36.6921 44.6889 37.0274C43.9907 37.3628 43.2977 37.7421 42.6242 38.0966C41.9506 38.4511 41.2824 38.8495 40.6142 39.2479C39.9459 39.6463 39.2777 40.0447 38.6342 40.4622L36.7089 41.7585C36.0707 42.2199 35.4572 42.7003 34.8631 43.156C34.2249 43.6174 33.6608 44.136 33.0526 44.6604L32.1818 45.4193L31.341 46.2412C31.0589 46.5005 30.7787 46.7745 30.5002 47.0631L29.7087 47.9231C29.1941 48.48 28.7341 49.1189 28.2494 49.7388C28.0168 50.0363 27.8142 50.3968 27.5815 50.6943C27.3736 51.0109 27.171 51.3715 26.9878 51.7072C26.7798 52.0238 26.6213 52.3786 26.4628 52.7334C26.3043 53.0882 26.1704 53.4621 26.0807 53.8304Z" fill="#27323D"/>
<path d="M26.0807 53.8304C26.4719 53.178 26.9372 52.583 27.4271 52.007C27.9171 51.4311 28.4565 50.8933 28.9959 50.3556C29.5406 49.8617 30.08 49.3239 30.6494 48.8492L31.4761 48.096L32.377 47.4L33.2532 46.685L34.154 45.9891C34.7729 45.5526 35.3423 45.0778 35.9858 44.6603C36.5852 44.2485 37.2041 43.8119 37.8229 43.3754L39.7341 42.1477C40.3529 41.7111 41.0017 41.3375 41.6452 40.92L43.5617 39.7363C44.8788 38.9643 46.1712 38.1732 47.4882 37.4013C48.1453 37.034 48.8006 36.6522 49.4542 36.2557L50.4592 35.68C50.7777 35.4754 51.098 35.2855 51.4201 35.1101C52.7619 34.3572 54.0789 33.5853 55.3907 32.7694C53.9182 33.1825 52.481 33.7026 50.9998 34.2283C50.2909 34.4759 49.5926 34.8113 48.8891 35.1028C48.179 35.4026 47.469 35.7024 46.759 36.0022C46.036 36.3185 45.3872 36.6921 44.6889 37.0274C43.9907 37.3628 43.2977 37.7421 42.6242 38.0966C41.9506 38.4511 41.2824 38.8495 40.6142 39.2479C39.9459 39.6463 39.2777 40.0447 38.6342 40.4622L36.7089 41.7585C36.0707 42.2199 35.4572 42.7003 34.8631 43.156C34.2249 43.6174 33.6608 44.136 33.0526 44.6604L32.1818 45.4193L31.341 46.2412C31.0589 46.5005 30.7787 46.7745 30.5002 47.0631L29.7087 47.9231C29.1941 48.48 28.7341 49.1189 28.2494 49.7388C28.0168 50.0363 27.8142 50.3968 27.5815 50.6943C27.3736 51.0109 27.171 51.3715 26.9878 51.7072C26.7798 52.0238 26.6213 52.3786 26.4628 52.7334C26.3043 53.0882 26.1704 53.4621 26.0807 53.8304Z" fill="#27323D"/>
<path d="M22.8341 59.5541C25.881 58.0905 28.7337 56.3177 31.5123 54.4876C34.3167 52.6245 37.0335 50.6538 39.6626 48.5756C40.9672 47.5155 42.2717 46.4553 43.5269 45.357C44.1545 44.8079 44.8067 44.2778 45.4096 43.7096C46.0419 43.1375 46.6676 42.5738 47.287 42.0182C48.4927 40.8817 49.6931 39.7013 50.8688 38.5019C52.0445 37.3024 53.1708 36.0647 54.2477 34.7888C52.8638 35.7478 51.5539 36.764 50.2193 37.7611C48.8847 38.7582 47.5802 39.8184 46.2456 40.8155L42.3213 43.908L38.4218 47.0197L30.5979 53.2239C28.0082 55.3193 25.4185 57.4148 22.8341 59.5541Z" fill="#27323D"/>
<path d="M22.8341 59.5541C25.881 58.0905 28.7337 56.3177 31.5123 54.4876C34.3167 52.6245 37.0335 50.6538 39.6626 48.5756C40.9672 47.5155 42.2717 46.4553 43.5269 45.357C44.1545 44.8079 44.8067 44.2778 45.4096 43.7096C46.0419 43.1375 46.6676 42.5738 47.287 42.0182C48.4927 40.8817 49.6931 39.7013 50.8688 38.5019C52.0445 37.3024 53.1708 36.0647 54.2477 34.7888C52.8638 35.7478 51.5539 36.764 50.2193 37.7611C48.8847 38.7582 47.5802 39.8184 46.2456 40.8155L42.3213 43.908L38.4218 47.0197L30.5979 53.2239C28.0082 55.3193 25.4185 57.4148 22.8341 59.5541Z" fill="#27323D"/>
<path d="M32.5322 66.9707C33.6947 64.3687 34.9314 61.8241 36.2668 59.3558C37.6022 56.8875 39.0118 54.4765 40.5696 52.1801C42.1274 49.8837 43.8033 47.6389 45.6329 45.5525C47.4571 43.4222 49.4843 41.4887 51.5996 39.5437C50.9895 39.8677 50.3107 40.1783 49.7059 40.5462C49.3938 40.7425 49.0818 40.9389 48.7891 41.1104L47.8776 41.7186L47.4245 42.0446L47.0155 42.3649L46.134 43.036L45.3213 43.7205C45.0522 43.9633 44.7831 44.2061 44.514 44.4489C42.4039 46.4378 40.5269 48.6863 38.8916 51.0819C37.3003 53.4718 35.9314 56.0335 34.843 58.6928C34.303 60.0256 33.8252 61.3801 33.4098 62.7562C33.0402 64.1413 32.6954 65.5454 32.5322 66.9707Z" fill="#27323D"/>
<path d="M32.5322 66.9707C33.6947 64.3687 34.9314 61.8241 36.2668 59.3558C37.6022 56.8875 39.0118 54.4765 40.5696 52.1801C42.1274 49.8837 43.8033 47.6389 45.6329 45.5525C47.4571 43.4222 49.4843 41.4887 51.5996 39.5437C50.9895 39.8677 50.3107 40.1783 49.7059 40.5462C49.3938 40.7425 49.0818 40.9389 48.7891 41.1104L47.8776 41.7186L47.4245 42.0446L47.0155 42.3649L46.134 43.036L45.3213 43.7205C45.0522 43.9633 44.7831 44.2061 44.514 44.4489C42.4039 46.4378 40.5269 48.6863 38.8916 51.0819C37.3003 53.4718 35.9314 56.0335 34.843 58.6928C34.303 60.0256 33.8252 61.3801 33.4098 62.7562C33.0402 64.1413 32.6954 65.5454 32.5322 66.9707Z" fill="#27323D"/>
<path d="M31.8523 71.8957C31.9295 71.2394 32.0949 70.5717 32.2409 69.9287C32.4016 69.2839 32.5935 68.6499 32.8165 68.0267C33.2461 66.7676 33.7445 65.5219 34.317 64.3335C34.8648 63.126 35.5061 61.951 36.1721 60.7951C36.3166 60.5089 36.484 60.2273 36.6743 59.9501C36.8435 59.683 37.0073 59.3721 37.1765 59.1051L37.7227 58.2544L38.2743 57.4476C38.4646 57.1704 38.6549 56.8932 38.8452 56.616C39.0391 56.3681 39.2276 56.0763 39.4215 55.8283C39.8233 55.2638 40.2057 54.724 40.6375 54.2224L41.2385 53.4538L41.8589 52.6604C42.266 52.1398 42.7225 51.6573 43.1544 51.1557C43.5615 50.6351 44.018 50.1526 44.4498 49.651L45.8194 48.2036L47.2137 46.7753L48.6326 45.366L47.0763 44.163C47.0234 44.2812 46.9847 44.3308 46.9512 44.4243L46.8649 44.636C46.7944 44.7937 46.7304 44.9432 46.6729 45.0843C46.5579 45.3667 46.4428 45.649 46.3277 45.9313C46.1141 46.5087 45.9381 47.0887 45.7997 47.6712C45.4476 48.8311 45.2138 50.0426 45.0434 51.2237C44.873 52.4047 44.7715 53.5991 44.7387 54.8069C44.7041 56.0001 44.7219 57.194 44.792 58.3885C44.9469 60.7757 45.3416 63.1095 45.9321 65.3958C46.5226 67.6821 47.2842 69.9017 48.2361 72.0299C47.6703 69.7627 47.1486 67.4898 46.828 65.2132C46.6439 64.0631 46.5121 62.9137 46.4326 61.765C46.4076 61.1887 46.3384 60.6181 46.3134 60.0419C46.2883 59.4656 46.288 58.9084 46.2823 58.3074C46.2757 56.0348 46.4454 53.7394 46.8461 51.5034C47.0548 50.3917 47.324 49.2871 47.6537 48.1895C47.8121 47.6489 47.987 47.1211 48.1783 46.606C48.2805 46.3402 48.3826 46.0744 48.4848 45.8086C48.5458 45.6967 48.5987 45.5785 48.6433 45.4538L48.7543 45.2612L48.8265 45.1181L51.3879 40.0174L47.2507 43.9398C45.3064 45.8181 43.3975 47.8033 41.6808 49.8974C39.9448 52.0162 38.3076 54.2115 36.8927 56.5786C35.4725 58.9018 34.2941 61.3721 33.352 63.9455C32.8966 65.2377 32.5328 66.5477 32.2609 67.8756C31.9742 69.2054 31.8004 70.5429 31.8523 71.8957Z" fill="#27323D"/>
<path d="M31.8523 71.8957C31.9295 71.2394 32.0949 70.5717 32.2409 69.9287C32.4016 69.2839 32.5935 68.6499 32.8165 68.0267C33.2461 66.7676 33.7445 65.5219 34.317 64.3335C34.8648 63.126 35.5061 61.951 36.1721 60.7951C36.3166 60.5089 36.484 60.2273 36.6743 59.9501C36.8435 59.683 37.0073 59.3721 37.1765 59.1051L37.7227 58.2544L38.2743 57.4476C38.4646 57.1704 38.6549 56.8932 38.8452 56.616C39.0391 56.3681 39.2276 56.0763 39.4215 55.8283C39.8233 55.2638 40.2057 54.724 40.6375 54.2224L41.2385 53.4538L41.8589 52.6604C42.266 52.1398 42.7225 51.6573 43.1544 51.1557C43.5615 50.6351 44.018 50.1526 44.4498 49.651L45.8194 48.2036L47.2137 46.7753L48.6326 45.366L47.0763 44.163C47.0234 44.2812 46.9847 44.3308 46.9512 44.4243L46.8649 44.636C46.7944 44.7937 46.7304 44.9432 46.6729 45.0843C46.5579 45.3667 46.4428 45.649 46.3277 45.9313C46.1141 46.5087 45.9381 47.0887 45.7997 47.6712C45.4476 48.8311 45.2138 50.0426 45.0434 51.2237C44.873 52.4047 44.7715 53.5991 44.7387 54.8069C44.7041 56.0001 44.7219 57.194 44.792 58.3885C44.9469 60.7757 45.3416 63.1095 45.9321 65.3958C46.5226 67.6821 47.2842 69.9017 48.2361 72.0299C47.6703 69.7627 47.1486 67.4898 46.828 65.2132C46.6439 64.0631 46.5121 62.9137 46.4326 61.765C46.4076 61.1887 46.3384 60.6181 46.3134 60.0419C46.2883 59.4656 46.288 58.9084 46.2823 58.3074C46.2757 56.0348 46.4454 53.7394 46.8461 51.5034C47.0548 50.3917 47.324 49.2871 47.6537 48.1895C47.8121 47.6489 47.987 47.1211 48.1783 46.606C48.2805 46.3402 48.3826 46.0744 48.4848 45.8086C48.5458 45.6967 48.5987 45.5785 48.6433 45.4538L48.7543 45.2612L48.8265 45.1181L51.3879 40.0174L47.2507 43.9398C45.3064 45.8181 43.3975 47.8033 41.6808 49.8974C39.9448 52.0162 38.3076 54.2115 36.8927 56.5786C35.4725 58.9018 34.2941 61.3721 33.352 63.9455C32.8966 65.2377 32.5328 66.5477 32.2609 67.8756C31.9742 69.2054 31.8004 70.5429 31.8523 71.8957Z" fill="#27323D"/>
<path d="M36.3398 70.8711C37.2081 68.7975 37.9882 66.7353 38.793 64.6922C39.5978 62.6491 40.4026 60.606 41.2815 58.6202C42.1605 56.6344 43.0835 54.6429 44.13 52.7468C44.6409 51.7893 45.1765 50.8508 45.7562 49.9067C46.3607 48.9816 46.9898 48.0756 47.663 47.164C46.6827 47.7587 45.8118 48.5176 45.0098 49.2899C44.1884 50.087 43.4711 51.0043 42.7978 51.916C41.4514 53.7393 40.3521 55.7536 39.4397 57.8329C38.5467 59.8874 37.846 62.0508 37.3023 64.2162C37.0314 65.3062 36.8145 66.4115 36.6518 67.5321C36.4708 68.6253 36.3392 69.7568 36.3398 70.8711Z" fill="#27323D"/>
<path d="M36.3398 70.8711C37.2081 68.7975 37.9882 66.7353 38.793 64.6922C39.5978 62.6491 40.4026 60.606 41.2815 58.6202C42.1605 56.6344 43.0835 54.6429 44.13 52.7468C44.6409 51.7893 45.1765 50.8508 45.7562 49.9067C46.3607 48.9816 46.9898 48.0756 47.663 47.164C46.6827 47.7587 45.8118 48.5176 45.0098 49.2899C44.1884 50.087 43.4711 51.0043 42.7978 51.916C41.4514 53.7393 40.3521 55.7536 39.4397 57.8329C38.5467 59.8874 37.846 62.0508 37.3023 64.2162C37.0314 65.3062 36.8145 66.4115 36.6518 67.5321C36.4708 68.6253 36.3392 69.7568 36.3398 70.8711Z" fill="#27323D"/>
<path d="M47.2287 47.4629C46.4901 48.2048 45.8503 49.0229 45.2847 49.8984C44.6943 50.7548 44.2028 51.6876 43.736 52.6394C42.8217 54.5184 42.1686 56.5196 41.7465 58.5801C41.6534 59.1048 41.5796 59.6047 41.4864 60.1293C41.4374 60.6483 41.3883 61.1673 41.3392 61.6863C41.3149 62.2243 41.2658 62.7433 41.2855 63.2757C41.2927 63.5199 41.2805 63.789 41.3124 64.0523L41.3394 64.8289C41.4229 65.888 41.5699 66.9166 41.8051 67.9337C42.0403 68.9509 42.3584 69.9128 42.7646 70.8633C42.7599 68.7911 42.7657 66.8066 42.9038 64.8051C42.9797 63.8294 43.0849 62.85 43.2195 61.8668C43.2933 61.3669 43.3477 60.8918 43.4462 60.411C43.5199 59.9111 43.6184 59.4304 43.7169 58.9496C44.0943 57.0137 44.5865 55.1002 45.1932 53.209C45.7882 51.2821 46.4767 49.3878 47.2287 47.4629Z" fill="#27323D"/>
<path d="M47.2287 47.4629C46.4901 48.2048 45.8503 49.0229 45.2847 49.8984C44.6943 50.7548 44.2028 51.6876 43.736 52.6394C42.8217 54.5184 42.1686 56.5196 41.7465 58.5801C41.6534 59.1048 41.5796 59.6047 41.4864 60.1293C41.4374 60.6483 41.3883 61.1673 41.3392 61.6863C41.3149 62.2243 41.2658 62.7433 41.2855 63.2757C41.2927 63.5199 41.2805 63.789 41.3124 64.0523L41.3394 64.8289C41.4229 65.888 41.5699 66.9166 41.8051 67.9337C42.0403 68.9509 42.3584 69.9128 42.7646 70.8633C42.7599 68.7911 42.7657 66.8066 42.9038 64.8051C42.9797 63.8294 43.0849 62.85 43.2195 61.8668C43.2933 61.3669 43.3477 60.8918 43.4462 60.411C43.5199 59.9111 43.6184 59.4304 43.7169 58.9496C44.0943 57.0137 44.5865 55.1002 45.1932 53.209C45.7882 51.2821 46.4767 49.3878 47.2287 47.4629Z" fill="#27323D"/>
<path d="M49.2736 43.0758C48.8121 44.0716 48.4688 45.1189 48.1502 46.1854C47.8592 47.2334 47.6223 48.2967 47.4395 49.3753C47.0528 51.5427 46.8725 53.7503 46.9373 55.9485C46.957 56.4808 47.0015 57.0323 47.0265 57.6086C47.0903 58.1353 47.1348 58.6867 47.2233 59.2325C47.3562 60.3298 47.5527 61.3965 47.8179 62.4767C48.3871 64.5874 49.2209 66.664 50.4302 68.5137C50.0126 66.3611 49.6251 64.2714 49.3698 62.1647C49.306 61.638 49.2669 61.1304 49.2031 60.6038C49.1833 60.0714 49.1195 59.5447 49.0804 59.0371C49.0116 57.9762 48.9657 56.9197 48.9427 55.8676C48.8885 53.7572 48.9031 51.6602 48.9812 49.5327C49.0592 47.4052 49.1814 45.272 49.2736 43.0758Z" fill="#27323D"/>
<path d="M49.2736 43.0758C48.8121 44.0716 48.4688 45.1189 48.1502 46.1854C47.8592 47.2334 47.6223 48.2967 47.4395 49.3753C47.0528 51.5427 46.8725 53.7503 46.9373 55.9485C46.957 56.4808 47.0015 57.0323 47.0265 57.6086C47.0903 58.1353 47.1348 58.6867 47.2233 59.2325C47.3562 60.3298 47.5527 61.3965 47.8179 62.4767C48.3871 64.5874 49.2209 66.664 50.4302 68.5137C50.0126 66.3611 49.6251 64.2714 49.3698 62.1647C49.306 61.638 49.2669 61.1304 49.2031 60.6038C49.1833 60.0714 49.1195 59.5447 49.0804 59.0371C49.0116 57.9762 48.9657 56.9197 48.9427 55.8676C48.8885 53.7572 48.9031 51.6602 48.9812 49.5327C49.0592 47.4052 49.1814 45.272 49.2736 43.0758Z" fill="#27323D"/>
<path d="M52.5387 37.6819C52.5318 37.9948 52.4755 38.2695 52.3999 38.5691L52.2961 39.0059L52.1676 39.4238C52.0109 39.9789 51.8102 40.5398 51.6095 41.1006C51.2027 42.1785 50.7518 43.262 50.301 44.3456C50.0561 44.9121 49.8007 45.3909 49.5859 46.0204C49.3758 46.6271 49.1968 47.2446 49.0491 47.8729C48.7711 49.0901 48.6555 50.3532 48.628 51.6049C48.6172 54.1026 49.0032 56.5491 49.6872 58.8679C50.3959 61.2058 51.3832 63.4408 52.6772 65.4355C52.3379 64.2981 52.0427 63.155 51.7668 61.987C51.5156 60.8382 51.2645 59.6893 51.0821 58.5539C50.7121 56.2391 50.5184 53.9015 50.6246 51.6367C50.6434 50.4975 50.7749 49.3661 51 48.2672C51.1126 47.7177 51.2498 47.1873 51.4312 46.6513L51.7129 45.8348L51.9893 44.9744C52.3607 43.7896 52.6387 42.5724 52.7843 41.3723C52.8669 40.7599 52.9247 40.1283 52.8943 39.5082C52.8718 39.199 52.841 38.8835 52.802 38.5617C52.7843 38.4154 52.7519 38.271 52.7047 38.1285C52.6641 37.9777 52.6234 37.8269 52.5387 37.6819Z" fill="#27323D"/>
<path d="M52.5387 37.6819C52.5318 37.9948 52.4755 38.2695 52.3999 38.5691L52.2961 39.0059L52.1676 39.4238C52.0109 39.9789 51.8102 40.5398 51.6095 41.1006C51.2027 42.1785 50.7518 43.262 50.301 44.3456C50.0561 44.9121 49.8007 45.3909 49.5859 46.0204C49.3758 46.6271 49.1968 47.2446 49.0491 47.8729C48.7711 49.0901 48.6555 50.3532 48.628 51.6049C48.6172 54.1026 49.0032 56.5491 49.6872 58.8679C50.3959 61.2058 51.3832 63.4408 52.6772 65.4355C52.3379 64.2981 52.0427 63.155 51.7668 61.987C51.5156 60.8382 51.2645 59.6893 51.0821 58.5539C50.7121 56.2391 50.5184 53.9015 50.6246 51.6367C50.6434 50.4975 50.7749 49.3661 51 48.2672C51.1126 47.7177 51.2498 47.1873 51.4312 46.6513L51.7129 45.8348L51.9893 44.9744C52.3607 43.7896 52.6387 42.5724 52.7843 41.3723C52.8669 40.7599 52.9247 40.1283 52.8943 39.5082C52.8718 39.199 52.841 38.8835 52.802 38.5617C52.7843 38.4154 52.7519 38.271 52.7047 38.1285C52.6641 37.9777 52.6234 37.8269 52.5387 37.6819Z" fill="#27323D"/>
<path d="M54.3707 34.3262C54.1489 35.083 53.973 35.8487 53.8429 36.6233C53.6835 37.4017 53.5452 38.1699 53.4281 38.928C53.2139 40.4862 53.0519 42.045 52.9424 43.6045C52.7951 45.1615 52.7608 46.7261 52.7512 48.3098C52.734 49.0922 52.761 49.8688 52.7879 50.6454C52.8248 51.443 52.8682 52.2324 52.9181 53.0135C52.9891 53.7844 53.0601 54.5553 53.1559 55.3453C53.2516 56.1353 53.3473 56.9254 53.4624 57.6906C53.742 59.2592 54.0852 60.7974 54.5164 62.3242C54.9918 63.8452 55.5307 65.3358 56.2847 66.754L56.8585 67.7943C57.0645 68.1391 57.2834 68.4675 57.5153 68.7793C57.7589 69.1267 58.0165 69.4054 58.2795 69.7281C58.5537 70.0195 58.8261 70.2964 59.0967 70.5586C58.3674 69.1595 57.8833 67.751 57.5014 66.2624C57.1001 64.7987 56.8117 63.3426 56.5621 61.8369C56.447 61.0717 56.3566 60.3256 56.2468 59.6042C56.1758 58.8333 56.0413 58.0929 55.995 57.3411C55.8271 55.8323 55.6951 54.3114 55.5989 52.7785C55.4622 51.2805 55.3642 49.733 55.291 48.2045L55.0025 43.6058C54.8313 40.5298 54.6601 37.4538 54.3707 34.3262Z" fill="#27323D"/>
<path d="M54.3707 34.3262C54.1489 35.083 53.973 35.8487 53.8429 36.6233C53.6835 37.4017 53.5452 38.1699 53.4281 38.928C53.2139 40.4862 53.0519 42.045 52.9424 43.6045C52.7951 45.1615 52.7608 46.7261 52.7512 48.3098C52.734 49.0922 52.761 49.8688 52.7879 50.6454C52.8248 51.443 52.8682 52.2324 52.9181 53.0135C52.9891 53.7844 53.0601 54.5553 53.1559 55.3453C53.2516 56.1353 53.3473 56.9254 53.4624 57.6906C53.742 59.2592 54.0852 60.7974 54.5164 62.3242C54.9918 63.8452 55.5307 65.3358 56.2847 66.754L56.8585 67.7943C57.0645 68.1391 57.2834 68.4675 57.5153 68.7793C57.7589 69.1267 58.0165 69.4054 58.2795 69.7281C58.5537 70.0195 58.8261 70.2964 59.0967 70.5586C58.3674 69.1595 57.8833 67.751 57.5014 66.2624C57.1001 64.7987 56.8117 63.3426 56.5621 61.8369C56.447 61.0717 56.3566 60.3256 56.2468 59.6042C56.1758 58.8333 56.0413 58.0929 55.995 57.3411C55.8271 55.8323 55.6951 54.3114 55.5989 52.7785C55.4622 51.2805 55.3642 49.733 55.291 48.2045L55.0025 43.6058C54.8313 40.5298 54.6601 37.4538 54.3707 34.3262Z" fill="#27323D"/>
<path d="M56.0461 30.967C55.4677 34.1398 55.2087 37.3606 55.0819 40.5642C54.9798 43.787 54.9905 47.0174 55.2465 50.2385C55.4777 53.4405 55.8906 56.6635 56.7004 59.8353C57.1123 61.3869 57.6177 62.9709 58.3329 64.4387C58.6685 65.1754 59.0922 65.9008 59.5741 66.5518C60.0366 67.2275 60.6455 67.8175 61.3266 68.2644C61.0636 67.9418 60.8059 67.663 60.6064 67.3099C60.4969 67.1458 60.4069 66.9568 60.3221 66.8117C60.2256 66.631 60.1373 66.4567 60.0572 66.2887C59.717 65.5749 59.4484 64.8369 59.2516 64.0748C58.8009 62.5729 58.4825 61.0538 58.247 59.4795C57.7371 56.3804 57.4671 53.228 57.2412 50.0699C56.9906 46.8927 56.8087 43.729 56.6463 40.5404C56.4839 37.3518 56.3214 34.1633 56.0461 30.967Z" fill="#27323D"/>
<path d="M56.0461 30.967C55.4677 34.1398 55.2087 37.3606 55.0819 40.5642C54.9798 43.787 54.9905 47.0174 55.2465 50.2385C55.4777 53.4405 55.8906 56.6635 56.7004 59.8353C57.1123 61.3869 57.6177 62.9709 58.3329 64.4387C58.6685 65.1754 59.0922 65.9008 59.5741 66.5518C60.0366 67.2275 60.6455 67.8175 61.3266 68.2644C61.0636 67.9418 60.8059 67.663 60.6064 67.3099C60.4969 67.1458 60.4069 66.9568 60.3221 66.8117C60.2256 66.631 60.1373 66.4567 60.0572 66.2887C59.717 65.5749 59.4484 64.8369 59.2516 64.0748C58.8009 62.5729 58.4825 61.0538 58.247 59.4795C57.7371 56.3804 57.4671 53.228 57.2412 50.0699C56.9906 46.8927 56.8087 43.729 56.6463 40.5404C56.4839 37.3518 56.3214 34.1633 56.0461 30.967Z" fill="#27323D"/>
<path d="M58.8238 26.9071C58.4261 28.4295 58.166 29.9788 57.95 31.5223C57.7323 33.0512 57.5686 34.5954 57.459 36.1549C57.2234 39.2612 57.1676 42.3739 57.2918 45.4931C57.3381 46.245 57.3898 47.0407 57.4414 47.8364C57.5042 48.601 57.5752 49.3719 57.6545 50.1492C57.8653 51.7044 58.0761 53.2597 58.4192 54.7978C58.7623 56.336 59.1689 57.8437 59.7519 59.3285C59.8419 59.5175 59.9073 59.6873 59.9727 59.8572L60.2182 60.405C60.3082 60.594 60.3983 60.7829 60.4637 60.9528L60.7726 61.4701C60.9475 61.8041 61.1911 62.1515 61.41 62.4799C61.4647 62.5619 61.5194 62.644 61.5742 62.7261L61.7577 62.9476C61.9095 63.0914 62.0466 63.2371 62.1689 63.3848C61.5666 61.9247 61.2535 60.4495 61.0286 58.963C60.779 57.4573 60.6229 55.9841 60.5056 54.4614C60.3671 52.9488 60.258 51.4324 60.1783 49.9122C60.1513 49.1356 60.105 48.3838 60.0587 47.6319C60.0124 46.8801 59.9855 46.1035 59.9585 45.3269C59.8368 42.2891 59.6903 39.2322 59.5438 36.1753C59.3726 33.0993 59.1767 30.0042 58.8238 26.9071Z" fill="#27323D"/>
<path d="M58.8238 26.9071C58.4261 28.4295 58.166 29.9788 57.95 31.5223C57.7323 33.0512 57.5686 34.5954 57.459 36.1549C57.2234 39.2612 57.1676 42.3739 57.2918 45.4931C57.3381 46.245 57.3898 47.0407 57.4414 47.8364C57.5042 48.601 57.5752 49.3719 57.6545 50.1492C57.8653 51.7044 58.0761 53.2597 58.4192 54.7978C58.7623 56.336 59.1689 57.8437 59.7519 59.3285C59.8419 59.5175 59.9073 59.6873 59.9727 59.8572L60.2182 60.405C60.3082 60.594 60.3983 60.7829 60.4637 60.9528L60.7726 61.4701C60.9475 61.8041 61.1911 62.1515 61.41 62.4799C61.4647 62.5619 61.5194 62.644 61.5742 62.7261L61.7577 62.9476C61.9095 63.0914 62.0466 63.2371 62.1689 63.3848C61.5666 61.9247 61.2535 60.4495 61.0286 58.963C60.779 57.4573 60.6229 55.9841 60.5056 54.4614C60.3671 52.9488 60.258 51.4324 60.1783 49.9122C60.1513 49.1356 60.105 48.3838 60.0587 47.6319C60.0124 46.8801 59.9855 46.1035 59.9585 45.3269C59.8368 42.2891 59.6903 39.2322 59.5438 36.1753C59.3726 33.0993 59.1767 30.0042 58.8238 26.9071Z" fill="#27323D"/>
<path d="M60.9342 23.0903C60.5322 26.2404 60.4442 29.3944 60.4496 32.581C60.4498 35.7237 60.6069 38.8683 60.9016 42.0398C60.9809 42.8171 61.0684 43.6008 61.1641 44.3908C61.2598 45.1808 61.3555 45.9708 61.4706 46.7361C61.7256 48.2856 62.0052 49.8542 62.373 51.4115C62.7408 52.9687 63.1721 54.4955 63.755 55.9804C64.0712 56.7419 64.3627 57.4844 64.7811 58.1658C65.1361 58.8778 65.618 59.5287 66.2021 60.0996C66.0026 59.7465 65.7837 59.4182 65.6724 59.0536C65.5823 58.8647 65.5169 58.6948 65.471 58.5002L65.2696 57.9467C65.0469 57.2176 64.8518 56.4702 64.6844 55.7043C64.366 54.1852 64.1358 52.6548 63.9249 51.0995C63.7194 49.5882 63.5527 48.0272 63.3665 46.4911C63.2873 45.7138 63.208 44.9365 63.1288 44.1592C63.0331 43.3692 62.962 42.5983 62.891 41.8273L62.0034 32.4694C61.714 29.3418 61.3806 26.2199 60.9342 23.0903Z" fill="#27323D"/>
<path d="M60.9342 23.0903C60.5322 26.2404 60.4442 29.3944 60.4496 32.581C60.4498 35.7237 60.6069 38.8683 60.9016 42.0398C60.9809 42.8171 61.0684 43.6008 61.1641 44.3908C61.2598 45.1808 61.3555 45.9708 61.4706 46.7361C61.7256 48.2856 62.0052 49.8542 62.373 51.4115C62.7408 52.9687 63.1721 54.4955 63.755 55.9804C64.0712 56.7419 64.3627 57.4844 64.7811 58.1658C65.1361 58.8778 65.618 59.5287 66.2021 60.0996C66.0026 59.7465 65.7837 59.4182 65.6724 59.0536C65.5823 58.8647 65.5169 58.6948 65.471 58.5002L65.2696 57.9467C65.0469 57.2176 64.8518 56.4702 64.6844 55.7043C64.366 54.1852 64.1358 52.6548 63.9249 51.0995C63.7194 49.5882 63.5527 48.0272 63.3665 46.4911C63.2873 45.7138 63.208 44.9365 63.1288 44.1592C63.0331 43.3692 62.962 42.5983 62.891 41.8273L62.0034 32.4694C61.714 29.3418 61.3806 26.2199 60.9342 23.0903Z" fill="#27323D"/>
<path d="M62.8897 19.986C62.9895 21.7339 63.114 23.5009 63.1892 25.2297C63.2696 27.0023 63.3447 28.7311 63.3511 30.4465C63.3693 31.3357 63.338 32.1867 63.3562 33.0759C63.325 33.9269 63.3184 34.797 63.2431 35.6537C63.2119 36.5047 63.1119 37.3423 63.0366 38.199L62.8521 39.4487C62.8099 39.6548 62.7677 39.8609 62.7255 40.0669L62.5742 40.666L62.4476 41.2841C62.3913 41.5588 62.3491 41.7649 62.3122 42.0148C62.2349 42.4855 62.1723 42.9542 62.1243 43.421C62.1037 44.3598 62.1025 45.2738 62.2142 46.1955C62.3688 48.0255 62.8073 49.7965 63.4168 51.5008C64.7187 54.8541 66.6801 57.9217 69.0928 60.4629C67.3377 57.4355 65.8807 54.2805 64.9227 50.9941C64.5002 49.3548 64.1659 47.7041 64.096 46.0192C64.0482 45.6242 64.0638 45.1987 64.06 44.798C64.0334 44.5785 64.0756 44.3724 64.0738 44.1721C64.0719 43.9717 64.0894 43.7466 64.1122 43.5653C64.1507 43.1443 64.2058 42.736 64.2772 42.3404C64.3001 42.1592 64.3423 41.9531 64.3898 41.791L64.5305 41.1041C64.7575 40.2055 64.8715 39.2993 64.9856 38.393C65.0556 37.4924 65.1256 36.5918 65.1516 35.6969C65.1775 34.802 65.1346 33.8937 65.097 33.0293C65.0541 32.121 65.0166 31.2566 64.9296 30.354C64.7463 28.5946 64.4895 26.8447 64.1592 25.1043C63.7948 23.3906 63.4304 21.6769 62.8897 19.986Z" fill="#27323D"/>
<path d="M62.8897 19.986C62.9895 21.7339 63.114 23.5009 63.1892 25.2297C63.2696 27.0023 63.3447 28.7311 63.3511 30.4465C63.3693 31.3357 63.338 32.1867 63.3562 33.0759C63.325 33.9269 63.3184 34.797 63.2431 35.6537C63.2119 36.5047 63.1119 37.3423 63.0366 38.199L62.8521 39.4487C62.8099 39.6548 62.7677 39.8609 62.7255 40.0669L62.5742 40.666L62.4476 41.2841C62.3913 41.5588 62.3491 41.7649 62.3122 42.0148C62.2349 42.4855 62.1723 42.9542 62.1243 43.421C62.1037 44.3598 62.1025 45.2738 62.2142 46.1955C62.3688 48.0255 62.8073 49.7965 63.4168 51.5008C64.7187 54.8541 66.6801 57.9217 69.0928 60.4629C67.3377 57.4355 65.8807 54.2805 64.9227 50.9941C64.5002 49.3548 64.1659 47.7041 64.096 46.0192C64.0482 45.6242 64.0638 45.1987 64.06 44.798C64.0334 44.5785 64.0756 44.3724 64.0738 44.1721C64.0719 43.9717 64.0894 43.7466 64.1122 43.5653C64.1507 43.1443 64.2058 42.736 64.2772 42.3404C64.3001 42.1592 64.3423 41.9531 64.3898 41.791L64.5305 41.1041C64.7575 40.2055 64.8715 39.2993 64.9856 38.393C65.0556 37.4924 65.1256 36.5918 65.1516 35.6969C65.1775 34.802 65.1346 33.8937 65.097 33.0293C65.0541 32.121 65.0166 31.2566 64.9296 30.354C64.7463 28.5946 64.4895 26.8447 64.1592 25.1043C63.7948 23.3906 63.4304 21.6769 62.8897 19.986Z" fill="#27323D"/>
<path d="M65.4703 16.5315C65.2615 18.3193 65.2097 20.1091 65.1579 21.8989C65.1319 23.6556 65.1453 25.4295 65.1981 27.2206C65.359 30.766 65.6328 34.3191 66.1023 37.8246C66.5966 41.3492 67.2231 44.8567 68.1776 48.2995C68.6355 50.0458 69.1762 51.7367 69.8493 53.4105C70.1955 54.235 70.5858 55.0539 70.9954 55.8479C71.2003 56.2449 71.4492 56.6362 71.6734 57.0084C71.7882 57.2165 71.9224 57.3998 72.0565 57.583C72.1824 57.7599 72.3166 57.9432 72.459 58.1328C71.8494 56.4285 71.4657 54.7396 71.1207 53.0011C70.781 51.3064 70.5048 49.5813 70.2286 47.8562C69.6762 44.406 69.2314 40.9196 68.7672 37.458C68.2783 33.9773 67.8087 30.4718 67.3004 27.0158C66.7427 23.5217 66.2291 20.0219 65.4703 16.5315Z" fill="#27323D"/>
<path d="M65.4703 16.5315C65.2615 18.3193 65.2097 20.1091 65.1579 21.8989C65.1319 23.6556 65.1453 25.4295 65.1981 27.2206C65.359 30.766 65.6328 34.3191 66.1023 37.8246C66.5966 41.3492 67.2231 44.8567 68.1776 48.2995C68.6355 50.0458 69.1762 51.7367 69.8493 53.4105C70.1955 54.235 70.5858 55.0539 70.9954 55.8479C71.2003 56.2449 71.4492 56.6362 71.6734 57.0084C71.7882 57.2165 71.9224 57.3998 72.0565 57.583C72.1824 57.7599 72.3166 57.9432 72.459 58.1328C71.8494 56.4285 71.4657 54.7396 71.1207 53.0011C70.781 51.3064 70.5048 49.5813 70.2286 47.8562C69.6762 44.406 69.2314 40.9196 68.7672 37.458C68.2783 33.9773 67.8087 30.4718 67.3004 27.0158C66.7427 23.5217 66.2291 20.0219 65.4703 16.5315Z" fill="#27323D"/>
<path d="M66.9367 14.4017C67.5047 17.4264 68.1362 20.4206 68.7677 23.4148C69.3974 26.3944 70.0042 29.3696 70.5881 32.3402C71.1507 35.3211 71.6693 38.3076 72.1439 41.2998C72.599 44.3168 72.9853 47.3204 73.3135 50.3984C73.7949 47.3496 73.8635 44.2203 73.7117 41.1195C73.5212 38.0683 73.1242 34.9769 72.5562 31.9522C71.9359 28.9268 71.1786 25.9414 70.2843 22.996C69.7948 21.5436 69.3054 20.0912 68.7719 18.6445C68.2189 17.2227 67.6413 15.7817 66.9367 14.4017Z" fill="#27323D"/>
<path d="M66.9367 14.4017C67.5047 17.4264 68.1362 20.4206 68.7677 23.4148C69.3974 26.3944 70.0042 29.3696 70.5881 32.3402C71.1507 35.3211 71.6693 38.3076 72.1439 41.2998C72.599 44.3168 72.9853 47.3204 73.3135 50.3984C73.7949 47.3496 73.8635 44.2203 73.7117 41.1195C73.5212 38.0683 73.1242 34.9769 72.5562 31.9522C71.9359 28.9268 71.1786 25.9414 70.2843 22.996C69.7948 21.5436 69.3054 20.0912 68.7719 18.6445C68.2189 17.2227 67.6413 15.7817 66.9367 14.4017Z" fill="#27323D"/>
<path d="M68.9847 11.5311C68.9135 13.3457 69.0874 15.1509 69.3301 16.9695C69.617 18.7824 69.9673 20.5648 70.494 22.3244C70.6159 22.7767 70.7573 23.2042 70.8987 23.6317C71.0271 24.0757 71.1767 24.5096 71.3474 24.9333L71.7962 26.2349L72.3526 27.5004C72.4233 27.7141 72.5133 27.9031 72.6087 28.1359L72.909 28.7658L73.5041 29.9816L74.168 31.2109L74.5317 31.8102C74.6465 32.0183 74.7559 32.1824 74.846 32.3714C75.2945 33.1158 75.6794 33.8908 76.045 34.6905C76.4382 35.4718 76.8038 36.2715 77.1418 37.0897C77.4633 37.8951 77.7654 38.7253 78.0675 39.5556C78.3338 40.3978 78.5853 41.242 78.8222 42.0881C79.752 45.5118 80.2021 49.0421 80.0791 52.6465C81.0418 49.1342 81.0306 45.3466 80.3688 41.7322C80.0379 39.925 79.5306 38.1406 78.9157 36.3924C78.2815 34.669 77.4956 32.9875 76.5827 31.3669C76.4679 31.1588 76.3532 30.9508 76.219 30.7675L75.9047 30.2063L75.2514 29.0649L74.6616 27.8929L74.342 27.2879L74.0471 26.7019L73.4767 25.5052L72.9697 24.2779C72.7896 23.9 72.6482 23.4725 72.4628 23.0507C72.302 22.648 72.1413 22.2453 71.9805 21.8426C71.3516 20.163 70.8109 18.4721 70.2895 16.7564C69.7828 15.0388 69.3479 13.297 68.9847 11.5311Z" fill="#27323D"/>
<path d="M68.9847 11.5311C68.9135 13.3457 69.0874 15.1509 69.3301 16.9695C69.617 18.7824 69.9673 20.5648 70.494 22.3244C70.6159 22.7767 70.7573 23.2042 70.8987 23.6317C71.0271 24.0757 71.1767 24.5096 71.3474 24.9333L71.7962 26.2349L72.3526 27.5004C72.4233 27.7141 72.5133 27.9031 72.6087 28.1359L72.909 28.7658L73.5041 29.9816L74.168 31.2109L74.5317 31.8102C74.6465 32.0183 74.7559 32.1824 74.846 32.3714C75.2945 33.1158 75.6794 33.8908 76.045 34.6905C76.4382 35.4718 76.8038 36.2715 77.1418 37.0897C77.4633 37.8951 77.7654 38.7253 78.0675 39.5556C78.3338 40.3978 78.5853 41.242 78.8222 42.0881C79.752 45.5118 80.2021 49.0421 80.0791 52.6465C81.0418 49.1342 81.0306 45.3466 80.3688 41.7322C80.0379 39.925 79.5306 38.1406 78.9157 36.3924C78.2815 34.669 77.4956 32.9875 76.5827 31.3669C76.4679 31.1588 76.3532 30.9508 76.219 30.7675L75.9047 30.2063L75.2514 29.0649L74.6616 27.8929L74.342 27.2879L74.0471 26.7019L73.4767 25.5052L72.9697 24.2779C72.7896 23.9 72.6482 23.4725 72.4628 23.0507C72.302 22.648 72.1413 22.2453 71.9805 21.8426C71.3516 20.163 70.8109 18.4721 70.2895 16.7564C69.7828 15.0388 69.3479 13.297 68.9847 11.5311Z" fill="#27323D"/>
<path d="M72.3995 7.56773C72.4405 8.27567 72.6578 8.96081 72.8946 9.62117C73.1119 10.3063 73.4121 10.9362 73.7124 11.566C74.3128 12.8258 75.0208 14.0493 75.787 15.1985C75.9565 15.4886 76.1507 15.7978 76.3643 16.0823L76.961 16.9413C77.3828 17.4663 77.7906 18.06 78.2125 18.585C78.6785 19.1043 79.0809 19.654 79.5469 20.1733C80.0128 20.6926 80.4788 21.2119 80.9447 21.7312L80.9694 21.7503L80.9995 21.8133L81.1477 21.9279L81.2765 22.0673C81.3624 22.1602 81.4565 22.2595 81.5589 22.3651C81.7619 22.5618 81.9207 22.7641 82.1043 22.9856C82.4908 23.4037 82.858 23.8466 83.181 24.2952C83.8959 25.2058 84.5667 26.1221 85.1546 27.0937L85.3788 27.4659L85.603 27.8382C85.7478 28.1092 85.9067 28.3116 86.0515 28.5826C86.1881 28.8473 86.3228 29.0973 86.4559 29.3327C86.6007 29.6038 86.7207 29.8557 86.8655 30.1268C87.3953 31.1727 87.8422 32.274 88.3579 33.3887C88.366 32.1618 88.2859 30.9462 88.0488 29.7287C87.8117 28.5112 87.423 27.3355 86.946 26.1713C86.4938 25.0262 85.8899 23.9229 85.2032 22.8749C84.8713 22.3531 84.51 21.8352 84.1193 21.321C83.911 21.0805 83.7468 20.8342 83.5386 20.5937C83.4197 20.4753 83.3009 20.3569 83.1821 20.2385L83.0479 20.0553C82.9738 19.998 82.8997 19.9407 82.8449 19.8586L82.8997 19.9407C82.4502 19.4341 82.0007 18.9276 81.5512 18.421L80.2028 16.9013L77.5112 13.9058C76.6122 12.8927 75.7262 11.863 74.8531 10.8169C73.99 9.79167 73.1022 8.74738 72.3995 7.56773Z" fill="#27323D"/>
<path d="M72.3995 7.56773C72.4405 8.27567 72.6578 8.96081 72.8946 9.62117C73.1119 10.3063 73.4121 10.9362 73.7124 11.566C74.3128 12.8258 75.0208 14.0493 75.787 15.1985C75.9565 15.4886 76.1507 15.7978 76.3643 16.0823L76.961 16.9413C77.3828 17.4663 77.7906 18.06 78.2125 18.585C78.6785 19.1043 79.0809 19.654 79.5469 20.1733C80.0128 20.6926 80.4788 21.2119 80.9447 21.7312L80.9694 21.7503L80.9995 21.8133L81.1477 21.9279L81.2765 22.0673C81.3624 22.1602 81.4565 22.2595 81.5589 22.3651C81.7619 22.5618 81.9207 22.7641 82.1043 22.9856C82.4908 23.4037 82.858 23.8466 83.181 24.2952C83.8959 25.2058 84.5667 26.1221 85.1546 27.0937L85.3788 27.4659L85.603 27.8382C85.7478 28.1092 85.9067 28.3116 86.0515 28.5826C86.1881 28.8473 86.3228 29.0973 86.4559 29.3327C86.6007 29.6038 86.7207 29.8557 86.8655 30.1268C87.3953 31.1727 87.8422 32.274 88.3579 33.3887C88.366 32.1618 88.2859 30.9462 88.0488 29.7287C87.8117 28.5112 87.423 27.3355 86.946 26.1713C86.4938 25.0262 85.8899 23.9229 85.2032 22.8749C84.8713 22.3531 84.51 21.8352 84.1193 21.321C83.911 21.0805 83.7468 20.8342 83.5386 20.5937C83.4197 20.4753 83.3009 20.3569 83.1821 20.2385L83.0479 20.0553C82.9738 19.998 82.8997 19.9407 82.8449 19.8586L82.8997 19.9407C82.4502 19.4341 82.0007 18.9276 81.5512 18.421L80.2028 16.9013L77.5112 13.9058C76.6122 12.8927 75.7262 11.863 74.8531 10.8169C73.99 9.79167 73.1022 8.74738 72.3995 7.56773Z" fill="#27323D"/>
<path d="M50.6355 41.3849C53.1038 36.8089 55.7644 32.3417 58.5485 27.97C61.3326 23.5983 64.2649 19.3412 67.4637 15.2502C69.0287 13.1981 70.6925 11.2223 72.411 9.32856C73.2818 8.38394 74.1707 7.46668 75.0779 6.57678C75.9981 5.67035 76.9318 4.81418 77.879 4.00827C78.8574 3.21319 79.8605 2.43719 80.899 1.76808C81.9375 1.09897 83.0306 0.511946 84.1204 0.0813808C85.2349 -0.330088 86.3459 -0.585092 87.4147 -0.634046C88.4888 -0.639111 89.5261 -0.394234 90.4329 0.0680881L91.8193 -2.71882C90.4203 -3.36271 88.8186 -3.64611 87.3089 -3.54018C85.7991 -3.43425 84.376 -2.9829 83.0818 -2.39218C81.7822 -1.84535 80.5974 -1.09046 79.5061 -0.303079C78.3707 0.490001 77.3342 1.35947 76.347 2.26712C75.381 3.16462 74.4497 4.1022 73.5531 5.07988C72.6401 6.04483 71.7682 7.0416 70.9375 8.0702C69.2543 10.0708 67.6753 12.1916 66.1897 14.345C63.1692 18.6135 60.4398 23.0673 57.8727 27.567C55.2863 32.0914 52.8427 36.6866 50.6108 41.3658L50.6355 41.3849Z" fill="#27323D"/>
<path d="M50.6355 41.3849C53.1038 36.8089 55.7644 32.3417 58.5485 27.97C61.3326 23.5983 64.2649 19.3412 67.4637 15.2502C69.0287 13.1981 70.6925 11.2223 72.411 9.32856C73.2818 8.38394 74.1707 7.46668 75.0779 6.57678C75.9981 5.67035 76.9318 4.81418 77.879 4.00827C78.8574 3.21319 79.8605 2.43719 80.899 1.76808C81.9375 1.09897 83.0306 0.511946 84.1204 0.0813808C85.2349 -0.330088 86.3459 -0.585092 87.4147 -0.634046C88.4888 -0.639111 89.5261 -0.394234 90.4329 0.0680881L91.8193 -2.71882C90.4203 -3.36271 88.8186 -3.64611 87.3089 -3.54018C85.7991 -3.43425 84.376 -2.9829 83.0818 -2.39218C81.7822 -1.84535 80.5974 -1.09046 79.5061 -0.303079C78.3707 0.490001 77.3342 1.35947 76.347 2.26712C75.381 3.16462 74.4497 4.1022 73.5531 5.07988C72.6401 6.04483 71.7682 7.0416 70.9375 8.0702C69.2543 10.0708 67.6753 12.1916 66.1897 14.345C63.1692 18.6135 60.4398 23.0673 57.8727 27.567C55.2863 32.0914 52.8427 36.6866 50.6108 41.3658L50.6355 41.3849Z" fill="#27323D"/>
<path d="M227.349 30.8481C223.627 28.8896 219.94 26.9977 216.189 25.3081C212.403 23.552 208.651 21.8624 204.801 20.3086C201.019 18.7762 197.194 17.3787 193.326 16.1161C189.446 14.8313 185.468 13.6823 181.561 12.8343C173.612 11.0396 165.508 10.0864 157.458 10.5423C153.434 10.8262 149.461 11.4786 145.537 12.4995C141.591 13.5319 137.754 15.0998 133.955 16.9021C137.204 14.2017 140.796 11.9996 144.732 10.296C148.668 8.59237 152.813 7.45626 157.067 6.85563C165.608 5.55318 174.346 6.26187 182.599 8.15273C184.687 8.59151 186.71 9.23267 188.766 9.77263L191.802 10.7344C192.814 11.0549 193.793 11.4767 194.805 11.7973C198.744 13.305 202.597 15.0265 206.363 16.962C210.15 18.8301 213.807 20.935 217.333 23.2769C220.826 25.6081 224.185 28.0085 227.349 30.8481Z" fill="#27323D"/>
<path d="M137.828 17.6839C137.618 19.399 137.241 21.1166 136.763 22.8022C136.285 24.4878 135.67 26.0747 134.99 27.6961C133.695 30.9045 132.097 34.0167 130.261 36.9981C129.309 38.4222 128.391 39.9129 127.338 41.305C126.778 42.0183 126.319 42.7636 125.725 43.4103L124.077 45.449C123.595 46.15 123.034 46.8073 122.394 47.4211L120.711 49.3933C120.117 50.0399 119.488 50.62 118.859 51.2001L117.072 52.9723L116.875 53.2438C116.742 53.3129 116.71 53.4141 116.71 53.4141L116.313 53.7893L115.587 54.6729C115.036 55.2406 114.508 55.8527 114.003 56.5093C112.947 57.7335 111.926 59.0244 110.905 60.3152C108.827 62.8303 106.987 65.4762 105.08 68.1565C103.173 70.8369 101.503 73.6481 99.7666 76.4938C98.1312 79.3715 96.6981 82.3134 95.1343 85.4922C95.1758 83.7796 95.1828 82.0003 95.4588 80.2506C95.5475 79.4437 95.6682 78.5355 95.8234 77.694L96.4225 75.1003C97.3126 71.7637 98.5383 68.4221 100.036 65.2779C101.498 62.067 103.232 59.0535 105.203 56.1707C106.188 54.7014 107.197 53.2764 108.228 51.8959C108.777 51.2163 109.349 50.5252 109.942 49.8226L110.766 48.8033L111.065 48.5638L111.329 48.2578C111.494 48.0875 111.561 48.0529 111.593 47.9517L111.825 47.7468C113.016 46.6213 114.275 45.4611 115.432 44.269C116.589 43.0768 117.781 41.9512 118.871 40.7936C121.185 38.4092 123.332 36.0274 125.577 33.5098C127.733 31.0383 129.832 28.5117 131.875 25.93C133.883 23.2816 135.923 20.5321 137.828 17.6839Z" fill="#27323D"/>
<path d="M233.965 37.7299C225.406 35.5751 217.112 33.1142 208.817 30.6533C200.523 28.1924 192.263 25.7981 184.005 23.5716C175.782 21.4118 167.527 19.3531 159.218 18.168C155.013 17.5595 150.845 17.1853 146.684 17.3146C142.558 17.5105 138.407 18.311 134.65 20.6833C135.932 18.9186 137.756 17.3808 139.72 16.2773C141.751 15.1392 143.887 14.3688 146.093 13.7316C150.575 12.5905 155.135 12.2538 159.634 12.2873C160.775 12.315 161.895 12.3543 162.992 12.405C164.113 12.5002 165.233 12.5953 166.353 12.6905C168.572 12.8924 170.758 13.1954 172.979 13.565C175.156 13.9577 177.344 14.3726 179.544 14.8097C181.678 15.3373 183.812 15.8649 185.945 16.3926C194.507 18.7152 202.809 21.6795 210.817 25.2189C214.838 26.938 218.794 28.8594 222.651 30.9166C224.591 31.9395 226.51 33.0298 228.407 34.1875C230.281 35.3009 232.134 36.4817 233.965 37.7299Z" fill="#27323D"/>
<path d="M224.967 57.8734C224.328 57.0773 223.657 56.3264 222.953 55.6208C222.248 54.9152 221.534 54.2433 220.808 53.6052C219.289 52.3075 217.738 51.111 216.155 50.0157C212.967 47.7807 209.615 45.8837 206.098 44.1571C202.682 42.4626 199.101 40.9383 195.523 39.5819C191.843 38.1934 188.2 37.0393 184.424 35.9544C176.939 33.75 169.326 31.9503 161.582 30.3875C159.63 30.0474 157.675 29.5395 155.723 29.1994L152.794 28.6053C151.807 28.441 150.83 28.243 149.865 28.0113C147.912 27.6712 145.926 27.2645 143.939 26.8577C141.942 26.4847 139.944 26.0558 137.945 25.5709C139.976 25.2497 142.009 24.9843 144.042 24.7749C146.054 24.577 148.134 24.5124 150.113 24.4157C152.159 24.2845 154.207 24.321 156.255 24.3576C157.262 24.3425 158.303 24.3941 159.278 24.4802C160.308 24.5096 161.338 24.539 162.368 24.5684C170.499 25.0847 178.576 26.4747 186.533 28.7728L188.051 29.2537L189.502 29.7691C190.479 30.0231 191.424 30.3782 192.436 30.6988L195.306 31.8308C196.286 32.2526 197.266 32.6743 198.179 33.1306C201.997 34.7856 205.652 36.7787 209.078 39.1445C212.504 41.5103 215.767 44.2141 218.566 47.3278C219.965 48.8846 221.232 50.5105 222.399 52.2722C223.466 54.0019 224.468 55.9339 224.967 57.8734Z" fill="#27323D"/>
<path d="M235.16 72.7925C234.543 71.929 233.859 71.1 233.109 70.3055L231.916 69.1484C231.576 68.8178 231.134 68.4552 230.793 68.1246L229.569 67.0687L228.278 66.0473C227.464 65.4552 226.615 64.7966 225.699 64.1724L223.021 62.4333L220.311 60.7953C218.549 59.6803 216.555 58.7702 214.726 57.6897L213.339 56.9719C212.798 56.745 212.359 56.5502 211.885 56.2887L208.978 54.9222L207.524 54.239C207.074 54.022 206.601 53.8164 206.105 53.6224L203.099 52.3917C199.247 50.6701 195.197 49.22 191.179 47.6687L190.436 47.3777L189.661 47.1879L188.176 46.6058L185.105 45.5775L182.035 44.5491L180.584 44.0337L179 43.5874C176.976 42.9463 174.952 42.3051 172.828 41.6319C170.804 40.9908 168.746 40.283 166.69 39.743C164.622 39.1249 162.554 38.5068 160.486 37.8887C158.43 37.3487 156.372 36.641 154.281 36.0344C150.135 34.8878 145.989 33.7413 141.806 32.3603C146.174 32.6308 150.446 33.2048 154.784 33.7442C156.971 34.0473 159.058 34.486 161.213 34.8902C163.366 35.2385 165.521 35.6428 167.676 36.1029C168.72 36.3223 169.764 36.5417 170.808 36.7611L174.009 37.5525C176.131 38.0579 178.221 38.6645 180.378 39.2365C180.895 39.363 181.412 39.4896 181.928 39.6162L183.48 40.1636L186.617 41.1574L189.754 42.1512L191.272 42.6321L192.015 42.9231L192.824 43.1795L198.903 45.6064C200.995 46.3808 202.923 47.3255 204.917 48.2356L207.926 49.6341C208.444 49.8726 208.94 50.1225 209.414 50.384L210.835 51.1684L213.713 52.8039C214.187 53.0653 214.727 53.2922 215.135 53.5883L216.524 54.4739L219.338 56.3117C220.286 56.8346 221.169 57.5599 222.018 58.2186L224.667 60.2268L227.15 62.4052C227.591 62.7678 227.999 63.0639 228.408 63.5277L229.534 64.7194L230.66 65.9111C231.046 66.3305 231.411 66.7614 231.753 67.2039C233.121 68.8619 234.357 70.7568 235.16 72.7925Z" fill="#27323D"/>
<path d="M235.36 86.2163C227.818 82.435 220.572 78.2464 213.459 73.9887C206.279 69.7656 199.198 65.4067 192.186 61.1811C185.14 56.8889 178.027 52.6312 170.887 48.8103C167.333 46.8493 163.68 45.024 159.932 43.5023C158.007 42.7254 156.151 42.0817 154.196 41.5738C152.21 41.1671 150.225 40.9282 148.084 41.363C148.947 40.7458 150.016 40.3606 151.119 40.0421C152.166 39.7802 153.238 39.6188 154.334 39.5576C156.547 39.4239 158.766 39.6257 160.886 39.9633C165.16 40.7051 169.274 41.9528 173.257 43.4375C181.258 46.4735 188.803 50.4226 195.985 54.8135C203.234 59.1699 210.12 63.968 216.71 69.1734C220.005 71.7761 223.268 74.48 226.331 77.2876C229.496 80.1272 232.527 83.036 235.36 86.2163Z" fill="#27323D"/>
<path d="M234.378 99.1548L214.687 84.343C211.428 81.8628 208.135 79.4279 204.81 77.0383C201.517 74.6034 198.193 72.2697 194.802 69.9705C188.12 65.4043 181.274 61.0084 174.134 57.1875C170.513 55.261 166.895 53.5023 163.114 52.0818C159.365 50.56 155.454 49.3764 151.35 48.7999C155.505 48.335 159.711 48.9436 163.785 49.7891C167.928 50.7678 171.877 52.1859 175.762 53.8063C183.464 57.0817 190.644 61.3048 197.495 66.0363C199.236 67.2188 200.933 68.4243 202.585 69.6529C204.248 70.9036 205.912 72.1544 207.575 73.4052C210.814 75.9528 213.975 78.6246 217.061 81.4207C220.123 84.1723 223.119 87.0144 226.05 89.9471C228.881 92.9595 231.779 95.9374 234.378 99.1548Z" fill="#27323D"/>
<path d="M235.919 112.389C235.018 110.489 233.717 108.797 232.416 107.104C232.097 106.706 231.778 106.308 231.459 105.91L230.945 105.246C230.741 105.07 230.559 104.883 230.4 104.684L228.284 102.399L226.036 100.184C225.66 99.7864 225.285 99.3892 224.945 99.0586L223.72 98.0026L221.44 95.8883C220.657 95.1951 219.808 94.5364 218.959 93.8777L216.58 91.8991C215.731 91.2404 214.916 90.6483 214.001 90.0242L211.523 88.1814C211.081 87.8187 210.674 87.5227 210.266 87.2266L208.943 86.3065L203.755 82.8257L198.402 79.5152C197.454 78.9923 196.605 78.3336 195.658 77.8107L192.916 76.2739L187.464 73.0992L176.264 67.157C174.37 66.223 172.465 65.2667 170.548 64.2883L167.774 62.8527C166.826 62.3298 165.878 61.8068 164.899 61.3851C161.078 59.5623 157.223 57.6729 153.467 55.6477C157.645 56.6931 161.692 57.9754 165.806 59.2231C166.818 59.5437 167.864 59.9309 168.81 60.286L171.848 61.4156C173.873 62.1686 175.876 62.9331 177.857 63.7092C179.883 64.5181 181.811 65.4628 183.738 66.4075C185.698 67.251 187.658 68.1505 189.62 69.1059L195.271 72.1769L198.115 73.7457C199.062 74.2687 199.943 74.8262 200.859 75.4503L206.348 78.8595C208.091 80.1538 209.844 81.4144 211.608 82.6413L212.899 83.6627C213.306 83.9587 213.748 84.3214 214.189 84.684L216.705 86.7613L217.929 87.8172C218.336 88.1132 218.778 88.4759 219.153 88.8731L221.503 91.1206L222.66 92.2111C223.036 92.6083 223.477 92.971 223.786 93.4028L225.97 95.8207L227.096 97.0123C227.438 97.4548 227.769 97.875 228.088 98.2731L230.108 100.861L231.86 103.588C232.043 103.831 232.192 104.064 232.307 104.286L232.754 104.984C233.007 105.473 233.249 105.939 233.48 106.383C233.662 106.627 233.811 106.86 233.927 107.082L234.24 107.849L234.934 109.349L235.527 110.817C235.702 111.318 235.811 111.854 235.919 112.389Z" fill="#27323D"/>
<path d="M230.557 117.538C230.052 116.673 229.536 115.842 229.01 115.044C228.46 114.202 227.866 113.383 227.227 112.586C226.062 110.993 224.897 109.399 223.633 107.94C221.036 104.891 218.376 102.044 215.582 99.2658C210.028 93.7764 203.912 88.8324 197.534 84.3623L195.125 82.6527L192.684 81.0443C191.87 80.4523 191.023 79.9614 190.243 79.4359L187.736 77.8621C186.043 76.8803 184.382 75.7974 182.622 74.8502L180.082 73.3775L177.51 72.006C170.573 68.2493 163.406 64.8652 156.137 61.449C164.015 62.9427 171.673 65.4802 179.138 68.6249L181.875 69.826L184.58 71.1284C186.473 72.0065 188.166 72.9882 190.027 73.9675C193.515 75.9631 196.97 78.0599 200.295 80.3936C206.944 85.061 213.067 90.5084 218.33 96.7407C220.961 99.8568 223.393 103.077 225.459 106.57C226.526 108.3 227.525 110.064 228.392 111.898C229.259 113.731 230.059 115.599 230.557 117.538Z" fill="#27323D"/>
<path d="M234.56 124.763C228.937 119.14 223.218 113.821 217.334 108.672C211.483 103.478 205.456 98.5443 199.255 93.8702C197.66 92.7527 196.132 91.6006 194.538 90.4831C193.01 89.331 191.349 88.248 189.755 87.1305C186.566 84.8955 183.345 82.7616 179.991 80.6969C173.384 76.5995 166.547 72.8748 159.543 69.1526C163.383 70.0351 167.228 71.2533 170.908 72.6418C172.798 73.3521 174.622 74.0969 176.48 74.9084C177.359 75.2981 178.272 75.7544 179.151 76.1441C180.064 76.6004 180.943 76.9901 181.856 77.4465L184.494 78.7834C185.341 79.2743 186.288 79.7972 187.135 80.2881C188.895 81.2353 190.556 82.3183 192.249 83.3C193.91 84.383 195.637 85.4314 197.266 86.6155C198.927 87.6985 200.49 88.9172 202.119 90.1013C208.501 94.907 214.455 100.189 219.979 105.947C222.674 108.861 225.303 111.81 227.767 114.928C230.164 118.081 232.595 121.301 234.56 124.763Z" fill="#27323D"/>
<path d="M234.456 144.773C232.343 141.135 230.064 137.61 227.618 134.201C225.262 130.745 222.795 127.402 220.218 124.173C217.584 120.889 214.918 117.707 212.087 114.694C210.722 113.204 209.322 111.647 207.824 110.226L206.733 109.101L205.677 108.043C204.926 107.248 204.21 106.52 203.428 105.827L201.182 103.78C200.399 103.086 199.617 102.393 198.835 101.7C198.086 101.017 197.315 100.346 196.522 99.6866C195.673 99.0279 194.89 98.3346 194.143 97.708C190.914 95.0707 187.555 92.6704 184.196 90.2701C177.278 85.5731 170.066 81.4512 162.556 77.5687C170.776 79.5607 178.748 82.8657 186.196 87.1183C188.025 88.1988 189.854 89.2792 191.651 90.4609C192.465 91.0529 193.413 91.5759 194.262 92.2346L196.841 94.1095C200.304 96.7097 203.602 99.4802 206.699 102.354C207.516 103.114 208.267 103.909 208.983 104.636L210.14 105.727L211.266 106.919C212.699 108.486 214.122 110.087 215.534 111.722C218.29 114.971 220.847 118.379 223.206 121.947C225.575 125.537 227.711 129.164 229.681 132.961C231.518 136.828 233.254 140.662 234.456 144.773Z" fill="#27323D"/>
<path d="M223.494 143.528C222.864 141.825 222.035 140.226 221.139 138.662C220.242 137.098 219.213 135.603 218.184 134.107C217.122 132.713 216.093 131.218 214.965 129.859L213.355 127.734L211.546 125.714L209.803 123.658L207.994 121.638C206.733 120.347 205.605 118.988 204.277 117.732C203.05 116.509 201.789 115.218 200.527 113.928L196.578 110.227C195.317 108.937 193.957 107.782 192.629 106.526L188.648 102.927C185.893 100.551 183.205 98.1408 180.451 95.765C179.068 94.6219 177.697 93.4451 176.336 92.2346L174.228 90.4534C173.57 89.8366 172.901 89.2535 172.222 88.7042C169.4 86.363 166.646 83.9872 163.923 81.5102C167.203 83.1061 170.353 84.9389 173.603 86.8037C175.16 87.6868 176.654 88.7723 178.179 89.7566C179.716 90.763 181.253 91.7695 182.789 92.776C184.349 93.8269 185.709 94.9815 187.202 96.067C188.696 97.1524 190.157 98.3391 191.583 99.4591C193.01 100.579 194.405 101.8 195.799 103.022C197.194 104.243 198.588 105.464 199.916 106.72L203.868 110.588C205.164 111.945 206.393 113.337 207.588 114.662C208.884 116.019 209.98 117.479 211.177 118.972L212.887 121.128L214.499 123.42C215.047 124.151 215.585 124.915 216.111 125.713L217.59 128.074C218.553 129.604 219.35 131.304 220.214 132.969C220.629 133.769 220.945 134.704 221.36 135.503C221.708 136.337 222.024 137.273 222.306 138.141C222.654 138.975 222.869 139.878 223.084 140.781C223.298 141.685 223.447 142.622 223.494 143.528Z" fill="#27323D"/>
<path d="M228.583 158.391C222.067 153.655 216.146 148.271 210.425 142.784C204.657 137.209 199.144 131.416 193.884 125.408C191.288 122.358 188.691 119.309 186.227 116.19C184.996 114.631 183.697 113.106 182.532 111.512C181.299 109.897 180.078 108.304 178.869 106.733C176.539 103.545 174.24 100.256 172.009 96.9328C169.777 93.6093 167.679 90.2166 165.714 86.7549C168.542 89.5995 171.171 92.5479 173.867 95.4616C176.562 98.3754 179.159 101.425 181.854 104.339L189.709 113.285L197.496 122.266L213.139 140.193C218.297 146.225 223.456 152.258 228.583 158.391Z" fill="#27323D"/>
<path d="M202.465 171.77C200.889 165.146 199.113 158.627 197.071 152.246C195.029 145.865 192.786 139.588 190.145 133.518C187.503 127.448 184.56 121.449 181.185 115.759C177.842 109.968 173.935 104.555 169.825 99.0776C171.116 100.099 172.574 101.118 173.833 102.24C174.48 102.835 175.126 103.429 175.739 103.957L177.612 105.776L178.533 106.735L179.352 107.663L181.127 109.617L182.734 111.574C183.259 112.26 183.784 112.946 184.309 113.631C188.387 119.21 191.801 125.302 194.581 131.639C197.26 137.943 199.339 144.559 200.715 151.285C201.392 154.654 201.913 158.048 202.277 161.467C202.53 164.887 202.716 168.342 202.465 171.77Z" fill="#27323D"/>
<path d="M201.871 183.661C201.981 182.081 201.89 180.438 201.832 178.861C201.742 177.273 201.573 175.698 201.325 174.135C200.876 170.987 200.258 167.84 199.44 164.798C198.69 161.721 197.704 158.681 196.652 155.675C196.44 154.94 196.172 154.205 195.847 153.472C195.568 152.771 195.321 151.969 195.042 151.268L194.136 149.033L193.198 146.898C192.874 146.165 192.549 145.431 192.225 144.697C191.879 144.031 191.566 143.264 191.22 142.598C190.527 141.097 189.867 139.664 189.075 138.299L188.003 136.234L186.897 134.102C186.171 132.703 185.312 131.373 184.52 130.009C183.794 128.61 182.935 127.28 182.143 125.915L179.565 121.926L176.922 117.97L174.211 114.05L178.408 111.872C178.48 112.173 178.549 112.307 178.586 112.541L178.695 113.076C178.79 113.478 178.874 113.857 178.947 114.214C179.092 114.928 179.237 115.642 179.381 116.356C179.627 117.807 179.783 119.248 179.849 120.679C180.16 123.561 180.171 126.515 180.046 129.371C179.921 132.226 179.628 135.083 179.167 137.944C178.717 140.77 178.143 143.576 177.446 146.361C176.019 151.922 174.051 157.255 171.643 162.393C169.236 167.532 166.456 172.441 163.269 177.053C165.609 171.95 167.849 166.814 169.617 161.584C170.563 158.952 171.384 156.299 172.083 153.625C172.399 152.278 172.815 150.962 173.131 149.615C173.446 148.268 173.695 146.955 173.976 145.541C175.004 140.188 175.627 134.707 175.68 129.268C175.685 126.56 175.543 123.843 175.257 121.117C175.125 119.776 174.948 118.459 174.728 117.164C174.606 116.494 174.484 115.825 174.362 115.155C174.268 114.866 174.196 114.565 174.147 114.252L173.972 113.751L173.865 113.384L170.111 100.281L178.097 111.273C181.834 116.521 185.441 122.006 188.547 127.666C191.687 133.393 194.561 139.258 196.835 145.434C199.141 151.509 200.813 157.829 201.883 164.291C202.379 167.529 202.652 170.77 202.7 174.014C202.782 177.269 202.595 180.494 201.871 183.661Z" fill="#27323D"/>
<path d="M191.769 179.35C190.65 174.096 189.733 168.907 188.75 163.752C187.767 158.597 186.783 153.442 185.6 148.391C184.417 143.34 183.132 138.256 181.515 133.346C180.74 130.873 179.897 128.436 178.954 125.966C177.944 123.53 176.868 121.129 175.69 118.696C177.731 120.512 179.442 122.669 180.985 124.828C182.562 127.053 183.841 129.518 185.019 131.951C187.374 136.817 189.063 142.028 190.284 147.314C191.469 152.533 192.154 157.927 192.469 163.26C192.621 165.943 192.639 168.639 192.522 171.349C192.461 174.002 192.267 176.724 191.769 179.35Z" fill="#27323D"/>
<path d="M176.576 119.587C177.983 121.648 179.123 123.846 180.064 126.148C181.071 128.416 181.812 130.822 182.486 133.262C183.8 138.076 184.446 143.069 184.521 148.103C184.506 149.378 184.457 150.588 184.443 151.864C184.327 153.107 184.211 154.351 184.096 155.595C183.913 156.873 183.798 158.117 183.514 159.363C183.388 159.936 183.297 160.575 183.105 161.182L182.696 163.001C182.027 165.461 181.224 167.823 180.217 170.121C179.211 172.418 178.034 174.551 176.655 176.619C177.589 171.738 178.459 167.059 179.026 162.284C179.282 159.952 179.471 157.6 179.592 155.226C179.641 154.016 179.725 152.874 179.707 151.699C179.756 150.49 179.739 149.315 179.721 148.141C179.695 143.419 179.39 138.702 178.805 133.989C178.263 129.196 177.487 124.441 176.576 119.587Z" fill="#27323D"/>
<path d="M173.723 108.387C174.365 110.929 174.706 113.542 174.981 116.19C175.198 118.783 175.282 121.389 175.232 124.008C175.176 129.279 174.617 134.557 173.486 139.71C173.202 140.957 172.852 142.237 172.537 143.585C172.152 144.799 171.802 146.08 171.35 147.329C170.549 149.858 169.612 152.289 168.507 154.723C166.228 159.456 163.341 163.998 159.673 167.846C161.614 162.949 163.456 158.189 164.995 153.332C165.38 152.118 165.698 150.938 166.082 149.724C166.366 148.477 166.751 147.263 167.069 146.084C167.703 143.612 168.282 141.142 168.804 138.673C169.872 133.722 170.771 128.774 171.535 123.727C172.299 118.681 172.962 113.602 173.723 108.387Z" fill="#27323D"/>
<path d="M168.443 94.3004C168.32 95.0408 168.33 95.712 168.375 96.4499L168.424 97.5233L168.541 98.5622C168.662 99.9367 168.884 101.343 169.107 102.75C169.583 105.462 170.162 108.206 170.74 110.95C171.063 112.388 171.451 113.625 171.676 115.199C171.9 116.717 172.046 118.248 172.114 119.791C172.225 122.777 171.935 125.803 171.442 128.764C170.355 134.655 168.358 140.257 165.716 145.433C163.007 150.643 159.689 155.492 155.757 159.646C157.062 157.109 158.265 154.54 159.434 151.904C160.537 149.303 161.639 146.702 162.574 144.103C164.476 138.804 165.972 133.378 166.731 127.995C167.194 125.303 167.389 122.581 167.349 119.896C167.329 118.554 167.242 117.246 167.054 115.906L166.755 113.863L166.488 111.718C166.142 108.769 166.03 105.783 166.222 102.894C166.3 101.415 166.446 99.9027 166.793 98.454C166.984 97.735 167.197 97.0045 167.432 96.2625C167.539 95.9253 167.679 95.5986 167.854 95.2827C168.017 94.9446 168.179 94.6065 168.443 94.3004Z" fill="#27323D"/>
<path d="M165.629 85.6135C165.814 87.4905 165.887 89.3693 165.848 91.2497C165.876 93.1515 165.859 95.0204 165.797 96.8564C165.607 100.619 165.294 104.361 164.857 108.082C164.51 111.814 163.894 115.515 163.211 119.252C162.903 121.103 162.494 122.921 162.085 124.74C161.643 126.604 161.189 128.446 160.724 130.266C160.213 132.053 159.703 133.839 159.126 135.661C158.549 137.482 157.972 139.303 157.36 141.058C156.004 144.636 154.512 148.116 152.817 151.532C151.021 154.916 149.09 158.201 146.685 161.224L144.871 163.433C144.233 164.159 143.572 164.84 142.888 165.477C142.16 166.193 141.43 166.741 140.667 167.39C139.892 167.961 139.128 168.498 138.375 169.002C140.714 166.013 142.48 162.898 144.041 159.552C145.637 156.272 146.964 152.962 148.222 149.519C148.833 147.765 149.378 146.045 149.958 144.391C150.468 142.604 151.114 140.916 151.558 139.164C152.625 135.679 153.613 132.151 154.522 128.579C155.511 125.107 156.43 121.501 157.283 117.93L160.01 107.215C161.783 100.038 163.556 92.8617 165.629 85.6135Z" fill="#27323D"/>
<path d="M163.184 76.9873C163.132 84.7088 162.307 92.4083 161.178 100.012C159.983 107.65 158.519 115.258 156.482 122.741C154.512 130.189 152.106 137.61 148.788 144.742C147.128 148.225 145.234 151.744 142.897 154.901C141.78 156.495 140.46 158.025 139.036 159.356C137.647 160.753 135.952 161.886 134.151 162.651C134.914 162.002 135.644 161.454 136.27 160.706C136.601 160.366 136.897 159.959 137.161 159.652C137.469 159.267 137.754 158.894 138.017 158.532C139.135 156.993 140.096 155.368 140.898 153.655C142.627 150.306 144.053 146.861 145.308 143.25C147.888 136.162 149.927 128.847 151.865 121.5C153.87 114.119 155.706 106.74 157.509 99.2944C159.311 91.8489 161.113 84.4033 163.184 76.9873Z" fill="#27323D"/>
<path d="M158.458 66.2488C158.716 70.0046 158.638 73.7654 158.458 77.4942C158.29 81.1893 157.987 84.8975 157.55 88.619C156.721 96.0388 155.466 103.398 153.785 110.696C153.341 112.448 152.865 114.302 152.389 116.155C151.901 117.93 151.391 119.717 150.858 121.515C149.669 125.091 148.481 128.667 146.989 132.147C145.496 135.627 143.868 139.008 141.836 142.261C141.54 142.668 141.31 143.041 141.081 143.414L140.259 144.601C139.963 145.008 139.667 145.415 139.438 145.788L138.481 146.877C137.921 147.59 137.193 148.306 136.532 148.987C136.366 149.157 136.201 149.328 136.036 149.498L135.505 149.942C135.084 150.217 134.697 150.503 134.343 150.799C136.41 147.613 137.804 144.268 138.995 140.86C140.253 137.417 141.276 134.012 142.23 130.473C143.23 126.967 144.162 123.439 145.026 119.89C145.436 118.072 145.879 116.319 146.323 114.567C146.767 112.815 147.176 110.996 147.585 109.177C149.225 102.07 150.931 94.928 152.637 87.786C154.41 80.6094 156.249 73.3983 158.458 66.2488Z" fill="#27323D"/>
<path d="M155.189 56.3611C154.731 63.9545 153.534 71.4246 152.102 78.9317C150.702 86.3377 148.932 93.6821 146.826 101.032C146.293 102.83 145.738 104.64 145.161 106.461C144.584 108.282 144.007 110.104 143.396 111.858C142.106 115.402 140.75 118.981 139.191 122.495C137.632 126.01 135.937 129.425 133.905 132.678C132.822 134.339 131.805 135.966 130.518 137.395C129.366 138.923 127.942 140.253 126.313 141.352C126.94 140.604 127.601 139.922 128.026 139.11C128.322 138.703 128.551 138.331 128.746 137.891L129.466 136.672C130.315 135.048 131.106 133.369 131.841 131.635C133.267 128.19 134.49 124.68 135.679 121.104C136.835 117.629 137.923 114.021 139.045 110.48C139.577 108.681 140.11 106.883 140.643 105.085C141.22 103.264 141.73 101.477 142.241 99.6901L148.496 78.0121C150.57 70.7639 152.745 63.5477 155.189 56.3611Z" fill="#27323D"/>
<path d="M151.979 48.2192C150.966 52.2961 149.886 56.4076 148.939 60.45C147.961 64.5935 147.014 68.6359 146.235 72.6758C145.796 74.7636 145.491 76.7822 145.052 78.87C144.746 80.8887 144.374 82.942 144.17 84.9927C143.864 87.0114 143.727 89.0275 143.522 91.0783L143.4 94.1013C143.407 94.6047 143.415 95.1081 143.422 95.6115L143.511 97.0872L143.534 98.5975C143.544 99.2687 143.551 99.7721 143.527 100.377C143.499 101.518 143.438 102.649 143.343 103.77C142.973 105.991 142.569 108.145 141.896 110.27C140.717 114.517 138.897 118.506 136.704 122.265C132.148 129.617 126.167 136.017 119.36 140.986C124.837 134.594 129.669 127.774 133.387 120.434C135.111 116.75 136.633 113.001 137.547 109.06C137.836 108.149 137.988 107.14 138.176 106.197C138.336 105.691 138.329 105.187 138.422 104.716C138.516 104.245 138.575 103.707 138.602 103.27C138.699 102.262 138.751 101.276 138.759 100.314C138.786 99.8768 138.779 99.3734 138.739 98.9712L138.714 97.2931C138.58 95.0796 138.716 92.8956 138.851 90.7117C139.087 88.5597 139.324 86.4078 139.661 84.288C139.999 82.1681 140.504 80.0457 140.978 78.0245C141.483 75.9022 141.956 73.881 142.563 71.7907C143.778 67.7219 145.161 63.7066 146.713 59.7447C148.334 55.8601 149.954 51.9756 151.979 48.2192Z" fill="#27323D"/>
<path d="M147.443 38.9874C147.138 43.2887 146.463 47.5284 145.788 51.7682C145.067 55.9191 144.245 60.0938 143.323 64.2925C141.366 72.5796 139.139 80.8371 136.473 88.8998C133.741 96.9971 130.705 104.998 126.926 112.708C125.071 116.63 123.046 120.386 120.717 124.046C119.536 125.843 118.253 127.608 116.936 129.306C116.277 130.155 115.517 130.972 114.824 131.755C114.461 132.196 114.064 132.572 113.667 132.947C113.292 133.31 112.895 133.686 112.475 134.072C114.668 130.313 116.323 126.495 117.909 122.544C119.463 118.694 120.881 114.746 122.299 110.797C125.135 102.899 127.734 94.8713 130.368 86.9098C133.068 78.9137 135.734 70.851 138.469 62.9215C141.337 54.923 144.104 46.8923 147.443 38.9874Z" fill="#27323D"/>
<path d="M144.943 33.3525C142.26 40.2406 139.441 47.03 136.622 53.8193C133.814 60.575 131.061 67.3298 128.365 74.0838C125.713 80.8707 123.163 87.6896 120.714 94.5406C118.3 101.458 116.053 108.373 113.911 115.488C114.136 108.1 115.368 100.696 117.106 93.4532C118.913 86.3432 121.224 79.2257 123.907 72.3377C126.714 65.4701 129.825 58.7547 133.241 52.1914C135.039 48.9755 136.837 45.7597 138.737 42.5759C140.671 39.4587 142.671 36.3069 144.943 33.3525Z" fill="#27323D"/>
<path d="M141.404 25.7211C140.763 30.0274 139.55 34.208 138.169 38.3911C136.687 42.5422 135.069 46.5946 133.047 50.5188C132.558 51.5331 132.035 52.4809 131.512 53.4286C131.012 54.4207 130.467 55.38 129.877 56.3063L128.241 59.1841L126.369 61.9311C126.108 62.405 125.812 62.8122 125.483 63.3206L124.497 64.6781L122.555 67.2919L120.446 69.9082L119.323 71.167C118.961 71.6088 118.63 71.9494 118.334 72.3566C116.948 73.9215 115.697 75.585 114.481 77.3152C113.208 78.9903 111.991 80.7204 110.832 82.5057C109.717 84.2679 108.637 86.0967 107.556 87.9256C106.555 89.798 105.587 91.6811 104.653 93.5749C100.941 101.25 98.3095 109.38 96.9937 117.926C96.2933 109.242 98.0063 100.321 101.173 92.0827C102.756 87.9637 104.744 83.9729 106.969 80.1129C109.229 76.3194 111.827 72.6888 114.696 69.2555C115.059 68.8137 115.421 68.3719 115.818 67.9967L116.808 66.8071L118.853 64.3932L120.762 61.8806L121.784 60.5897L122.738 59.3334L124.613 56.7542L126.352 54.0763C126.945 53.2618 127.467 52.3141 128.092 51.3984C128.649 50.5173 129.207 49.6362 129.764 48.7551C131.992 45.0628 134.017 41.3065 136.007 37.4835C137.964 33.6499 139.763 29.729 141.404 25.7211Z" fill="#27323D"/>
<path d="M135.134 14.9365C134.722 16.5876 133.906 18.1103 133.055 19.5665C132.238 21.0893 131.252 22.4468 130.265 23.8042C128.291 26.5192 126.081 29.1034 123.766 31.4878C123.239 32.0999 122.644 32.7466 122.015 33.3266L120.229 35.0989C119.002 36.1578 117.779 37.3846 116.552 38.4435C115.225 39.4704 114.033 40.5959 112.706 41.6228C111.379 42.6497 110.051 43.6766 108.724 44.7035L108.657 44.738L108.558 44.8738L108.159 45.0811L107.794 45.3551C107.55 45.5378 107.284 45.732 106.997 45.9377C106.432 46.3154 105.968 46.7252 105.437 47.1695C104.342 47.9915 103.281 48.8801 102.321 49.8008C100.234 51.6447 98.2477 53.5206 96.432 55.5618L95.7387 56.3443L95.0455 57.1267C94.5841 57.7042 94.1203 58.114 93.6589 58.6916C93.2198 59.2576 92.7914 59.7899 92.3736 60.2885C91.9123 60.866 91.5176 61.409 91.0562 61.9866C89.3441 64.2277 87.8024 66.6341 86.0928 69.043C86.6202 66.1482 87.35 63.3175 88.45 60.5485C89.55 57.7794 90.9881 55.1732 92.6285 52.631C94.2024 50.1235 96.1143 47.7787 98.1966 45.5992C99.2097 44.5099 100.29 43.4419 101.438 42.3953C102.036 41.9164 102.531 41.4055 103.129 40.9266C103.461 40.6979 103.793 40.4691 104.125 40.2404L104.523 39.8652C104.722 39.7615 104.922 39.6578 105.088 39.4875L104.922 39.6578C106.205 38.654 107.488 37.6501 108.771 36.6463L112.62 33.6348L120.286 27.7129C122.852 25.7053 125.395 23.6532 127.915 21.5567C130.402 19.5054 132.956 17.4196 135.134 14.9365Z" fill="#27323D"/>
<path d="M171.272 103.823C167.503 91.996 163.234 80.3443 158.631 68.8655C154.029 57.3866 149.027 46.1152 143.324 35.1227C140.556 29.6252 137.522 24.266 134.322 19.0771C132.695 16.483 131.012 13.9458 129.274 11.4653C127.513 8.94037 125.698 6.52817 123.829 4.22867C121.881 1.94152 119.867 -0.311054 117.722 -2.3267C115.577 -4.34235 113.267 -6.18768 110.895 -7.66285C108.457 -9.10345 105.957 -10.1739 103.464 -10.7409C100.939 -11.2067 98.3903 -11.0679 96.0511 -10.3616L94.0308 -17.5151C97.6088 -18.4413 101.503 -18.4324 105.007 -17.5448C108.512 -16.6572 111.658 -14.9922 114.44 -13.0532C117.254 -11.2154 119.705 -8.93575 121.921 -6.61905C124.239 -4.2703 126.29 -1.78329 128.208 0.77284C130.081 3.29608 131.854 5.89914 133.528 8.582C135.246 11.2418 136.853 13.9592 138.349 16.7343C141.418 22.1601 144.188 27.8254 146.724 33.5278C151.928 44.8633 156.365 56.5125 160.4 68.2012C164.47 79.9566 168.172 91.8181 171.338 103.788L171.272 103.823Z" fill="#27323D"/>
</svg>
