<svg width="149" height="120" viewBox="0 0 149 120" fill="none" xmlns="http://www.w3.org/2000/svg">
<path d="M99.7692 9.87969C102.139 12.0053 104.453 14.1263 106.651 16.3572C108.902 18.5929 111.1 20.8239 113.234 23.1696C115.335 25.4723 117.357 27.8484 119.301 30.2979C121.264 32.7489 123.163 35.3147 124.84 37.9214C128.299 43.2038 131.238 48.862 133.216 54.9181C134.167 57.963 134.857 61.0855 135.286 64.2856C135.713 67.5056 135.751 70.8123 135.62 74.1646C136.509 70.9375 136.966 67.6133 136.992 64.192C137.018 60.7706 136.603 57.3715 135.799 54.059C134.249 47.379 131.294 41.1789 127.685 35.7033C126.798 34.3057 125.794 33.0182 124.849 31.6756L123.343 29.7443C122.84 29.1005 122.28 28.5117 121.778 27.868C119.649 25.4427 117.401 23.1473 115.035 20.9819C112.708 18.7798 110.259 16.7474 107.688 14.8848C105.134 13.0436 102.571 11.3218 99.7692 9.87969Z" fill="#27323D"/>
<path d="M133.997 71.5649C132.906 72.252 131.861 73.0631 130.867 73.9387C129.872 74.8142 128.982 75.7588 128.088 76.763C126.304 78.7119 124.671 80.8539 123.193 83.1293C122.508 84.2717 121.769 85.4094 121.134 86.6162C120.815 87.2494 120.445 87.8183 120.18 88.4562L119.281 90.3009C118.948 90.8729 118.666 91.4893 118.436 92.1503L117.591 93.9996C117.326 94.6376 117.115 95.2801 116.905 95.9227L116.224 97.7862L116.097 98.0156C116.089 98.135 116.03 98.19 116.03 98.19L115.891 98.5985L115.505 99.4061C115.28 99.9875 115.02 100.566 114.723 101.141C114.201 102.297 113.626 103.449 113.05 104.601C111.953 106.909 110.701 109.084 109.445 111.318C108.188 113.553 106.777 115.654 105.362 117.814C103.896 119.911 102.33 121.878 100.642 124.016C101.779 123.453 102.97 122.894 104.065 122.148C104.581 121.832 105.156 121.46 105.676 121.085L107.245 119.838C109.23 118.147 111.123 116.207 112.806 114.13C114.544 112.057 116.073 109.846 117.447 107.501C118.152 106.321 118.822 105.137 119.455 103.95C119.755 103.335 120.056 102.7 120.359 102.046L120.808 101.123L120.884 100.829L121.014 100.54C121.082 100.366 121.086 100.306 121.145 100.251L121.216 100.017C121.633 98.7917 122.054 97.5065 122.525 96.2856C122.996 95.0648 123.413 93.8393 123.879 92.6782C124.822 90.2366 125.81 87.919 126.861 85.4867C127.906 83.134 129.005 80.8059 130.156 78.5024C131.362 76.2036 132.627 73.8497 133.997 71.5649Z" fill="#27323D"/>
<path d="M93.276 7.15946C97.1493 12.7779 101.153 18.1071 105.157 23.4364C109.16 28.7657 113.109 34.0903 116.945 39.4652C120.727 44.8355 124.45 50.2607 127.602 55.9973C129.203 58.8978 130.637 61.844 131.73 64.9411C132.77 68.0335 133.411 71.332 132.886 74.8306C133.705 73.3394 134.219 71.5216 134.402 69.7355C134.589 67.8896 134.499 66.08 134.301 64.2611C133.794 60.6138 132.726 57.1585 131.427 53.8636C131.085 53.0333 130.741 52.2229 130.395 51.4324C130.013 50.6388 129.632 49.8452 129.25 49.0516C128.485 47.4843 127.662 45.9721 126.784 44.4551C125.903 42.9779 125.004 41.4992 124.086 40.0189C123.127 38.6151 122.168 37.2113 121.209 35.8075C117.222 30.2394 112.879 25.0611 108.233 20.2773C105.94 17.8579 103.529 15.5485 101.055 13.3538C99.8184 12.2465 98.5429 11.1758 97.2283 10.1419C95.95 9.11108 94.6326 8.11693 93.276 7.15946Z" fill="#27323D"/>
<path d="M82.3235 20.034C83.0385 20.2556 83.7325 20.5155 84.4055 20.8136C85.0784 21.1117 85.7318 21.4281 86.3656 21.7629C87.6667 22.4753 88.9091 23.2428 90.0926 24.0652C92.4961 25.7133 94.7191 27.5861 96.8747 29.6333C98.9802 31.6161 101.018 33.7734 102.943 35.9809C104.918 38.2529 106.726 40.5705 108.525 43.0074C112.127 47.8217 115.494 52.856 118.739 58.0601C119.521 59.3886 120.416 60.6668 121.198 61.9953L122.427 63.9629C122.818 64.6371 123.227 65.2929 123.657 65.9305C124.439 67.259 125.275 68.5922 126.112 69.9254C126.928 71.2769 127.783 72.6117 128.675 73.9297C128.314 72.337 127.915 70.7611 127.479 69.202C127.041 67.6628 126.494 66.1143 125.997 64.6301C125.505 63.0862 124.899 61.5926 124.294 60.0991C124.018 59.3547 123.688 58.6055 123.354 57.9161C123.042 57.1686 122.73 56.421 122.418 55.6734C119.764 49.8596 116.541 44.3571 112.742 39.2256L111.989 38.26L111.232 37.354C110.784 36.7149 110.278 36.1308 109.776 35.487L108.202 33.7301C107.641 33.1414 107.08 32.5526 106.515 32.0235C104.322 29.7329 101.949 27.6669 99.3904 25.8854C96.832 24.1039 94.0931 22.5471 91.2111 21.4586C89.77 20.9143 88.3205 20.4894 86.8079 20.1792C85.3455 19.9334 83.7656 19.7976 82.3235 20.034Z" fill="#27323D"/>
<path d="M69.4279 17.1823C70.1821 17.3672 70.932 17.6118 71.6776 17.9162L72.7917 18.4324C73.11 18.5798 73.4786 18.7917 73.7969 18.9392L74.8523 19.5104L75.9034 20.1413C76.5315 20.5557 77.2141 20.9747 77.8924 21.4534L79.8184 22.8803L81.6856 24.3621C82.9333 25.3103 84.1094 26.4925 85.3528 27.5003L86.2277 28.2962C86.5332 28.6228 86.7885 28.885 87.0983 29.1518L88.8395 30.8631L89.7101 31.7187C89.9835 31.9825 90.2556 32.2661 90.5262 32.5697L92.2043 34.3957C94.4518 36.691 96.5733 39.2158 98.7535 41.6856L99.1595 42.1409L99.5066 42.6512L100.318 43.5619L101.879 45.4979L103.44 47.4339L104.197 48.3398L104.946 49.3652C105.95 50.6528 106.954 51.9403 108.009 53.2922C109.013 54.5798 110.071 55.872 111.017 57.2146C112.018 58.5419 113.019 59.8693 114.02 61.1966C114.966 62.5392 116.024 63.8314 117.024 65.1786C118.969 67.8684 120.915 70.5582 123.028 73.2024C121.607 70.0772 120.01 67.117 118.417 64.0971C117.594 62.5848 116.707 61.1873 115.825 59.73C114.98 58.2559 114.098 56.7987 113.178 55.3582C112.734 54.6594 112.291 53.9606 111.848 53.2618L110.409 51.1561C109.468 49.7538 108.468 48.4066 107.472 46.9997C107.241 46.6594 107.009 46.3192 106.778 45.979L105.97 45.0086L104.414 43.0129L102.858 41.0172L102.105 40.0516L101.699 39.5962L101.297 39.0812L97.9449 35.3696C96.8319 34.0727 95.6515 32.9502 94.4754 31.7679L92.684 29.9923C92.3771 29.6856 92.0687 29.3988 91.7589 29.132L90.8296 28.3314L88.9164 26.7254C88.6066 26.4585 88.3011 26.132 87.9871 25.9248L86.999 25.1792L84.9683 23.6833C84.3487 23.1495 83.6117 22.7258 82.9291 22.3068L80.8311 20.9853L78.6658 19.8382C78.2973 19.6263 77.9832 19.4191 77.556 19.2623L76.4375 18.8058L75.3191 18.3493C74.9281 18.1955 74.5358 18.0617 74.1419 17.9478C72.6422 17.4585 71.0206 17.139 69.4279 17.1823Z" fill="#27323D"/>
<path d="M60.3689 21.2073C65.0444 25.5733 69.9091 29.5951 74.7822 33.4976C79.6512 37.4597 84.5831 41.3072 89.4061 45.1453C94.2835 48.988 99.1567 52.8905 103.745 56.9486C106.068 58.9502 108.328 61.0664 110.412 63.3477C111.48 64.5206 112.438 65.684 113.333 66.9622C114.169 68.2954 114.893 69.679 115.209 71.3879C115.378 70.5615 115.333 69.6567 115.233 68.7472C115.112 67.8959 114.916 67.0582 114.646 66.2342C114.107 64.5662 113.343 62.9989 112.515 61.5464C110.805 58.6365 108.801 56.0017 106.675 53.5366C102.369 48.6018 97.5801 44.2862 92.5979 40.3743C87.6201 36.4028 82.4489 32.8351 77.0886 29.6116C74.4084 27.9998 71.6695 26.443 68.9178 25.0653C66.1159 23.6232 63.3054 22.3006 60.3689 21.2073Z" fill="#27323D"/>
<path d="M51.9718 25.9541L67.4908 35.8168C70.0788 37.4407 72.6457 39.1028 75.1916 40.8031C77.7585 42.4653 80.2667 44.1824 82.7706 45.9592C87.7281 49.4485 92.6184 53.1122 97.2064 57.1703C99.5255 59.2315 101.731 61.3431 103.757 63.6795C105.841 65.9608 107.744 68.4668 109.295 71.3029C108.428 68.1051 106.827 65.2046 105.104 62.4738C103.272 59.7337 101.2 57.2733 99.0117 54.923C94.6299 50.2819 89.761 46.3198 84.6442 42.7568C83.3574 41.8453 82.0677 40.9737 80.7752 40.1419C79.4645 39.3085 78.1538 38.4751 76.8431 37.6417C74.216 36.0545 71.5273 34.5621 68.777 33.1645C66.063 31.77 63.307 30.452 60.509 29.2105C57.6857 28.0669 54.8667 26.8636 51.9718 25.9541Z" fill="#27323D"/>
<path d="M42.6595 28.9345C44.1892 29.0059 45.6933 29.4355 47.1973 29.865C47.5548 29.9758 47.9123 30.0867 48.2698 30.1975L48.8605 30.3684C49.0364 30.4636 49.2138 30.5389 49.3925 30.5943L51.5247 31.4382L53.6483 32.4015C54.0211 32.5537 54.3939 32.7059 54.7122 32.8534L55.7676 33.4246L57.8325 34.4429C58.5193 34.8023 59.2019 35.2213 59.8845 35.6403L61.8863 36.7734C62.5689 37.1924 63.197 37.6068 63.8754 38.0855L65.8142 39.3333C66.1827 39.5451 66.4968 39.7523 66.8108 39.9595L67.8032 40.6454L71.6092 43.375L75.348 46.2791C75.9675 46.8128 76.6501 47.2318 77.2697 47.7656L79.0782 49.3025L82.7539 52.3212L89.9162 58.7028C91.0799 59.8038 92.2617 60.9064 93.4616 62.0106L95.2114 63.6025C95.8309 64.1362 96.4505 64.67 97.0113 65.2587C99.3176 67.4991 101.678 69.7441 104.102 71.8744C102.216 69.1296 100.207 66.5545 98.2035 63.9197C97.7014 63.2759 97.1449 62.6275 96.6385 62.0434L95.0191 60.1624C93.9395 58.9084 92.8585 57.6743 91.776 56.4601C90.6587 55.2229 89.4783 54.1004 88.2979 52.9779C87.1763 51.8003 86.0169 50.6396 84.8198 49.4956L81.1569 46.2978L79.2982 44.6966C78.6787 44.1628 78.0548 43.6888 77.3765 43.21L73.5331 40.237C72.1708 39.3591 70.828 38.4629 69.5049 37.5483L68.4537 36.9174C68.1397 36.7102 67.7711 36.4984 67.4026 36.2865L65.2961 35.0844L64.2407 34.5132C63.9266 34.306 63.5581 34.0941 63.1853 33.942L61.0115 32.9143L59.9518 32.4028C59.579 32.2506 59.2105 32.0387 58.8334 31.9463L56.5923 31.093L55.4739 30.6365C55.0801 30.5225 54.7044 30.4102 54.3469 30.2993L52.0385 29.6204L49.713 29.1803C49.4979 29.1218 49.2996 29.0847 49.118 29.0691L48.523 28.9579C48.1235 28.9236 47.7421 28.8908 47.3789 28.8596C47.1639 28.8011 46.9655 28.764 46.7839 28.7484L46.1804 28.7566L44.9776 28.7133L43.825 28.7343C43.4393 28.7612 43.0494 28.8479 42.6595 28.9345Z" fill="#27323D"/>
<path d="M40.7287 34.4761C41.4522 34.5783 42.1562 34.6989 42.8405 34.8378C43.5612 34.9798 44.2791 35.1616 44.9941 35.3832C46.3934 35.7438 47.7928 36.1043 49.1291 36.5795C51.9108 37.5393 54.5749 38.6092 57.2305 39.7984C62.4872 42.1722 67.5377 45.1289 72.3446 48.4251L74.1745 49.6635L75.9456 50.9569C76.5737 51.3712 77.1431 51.8406 77.7167 52.2503L79.4835 53.6034C80.6222 54.5421 81.8197 55.4258 82.9541 56.4243L84.6622 57.8324L86.3115 59.2955C90.7991 63.2249 95.1018 67.4387 99.4548 71.7169C96.2181 66.3935 92.3437 61.5558 88.1168 57.0482L86.5348 55.4107L84.894 53.8281C83.7681 52.7103 82.6294 51.7716 81.4448 50.7088C79.1171 48.7669 76.7307 46.88 74.2226 45.1629C69.2063 41.7287 63.816 38.9229 58.1438 36.9939C55.3077 36.0294 52.4588 35.244 49.5297 34.8121C48.0673 34.5663 46.6007 34.3801 45.1255 34.3134C43.6503 34.2467 42.1708 34.2397 40.7287 34.4761Z" fill="#27323D"/>
<path d="M34.7477 33.7815C40.1134 36.1646 45.3028 38.7128 50.4249 41.4354C55.5679 44.1198 60.5864 47.0137 65.4803 50.1171C66.682 50.9411 67.888 51.7055 69.0898 52.5295C70.2958 53.2938 71.4932 54.1776 72.695 55.0016C75.0985 56.6497 77.4432 58.3528 79.7794 60.1752C84.4015 63.7558 88.8389 67.6208 93.3222 71.6099C91.6408 69.0629 89.733 66.6165 87.7579 64.3446C86.7452 63.1764 85.7283 62.068 84.6568 60.9548C84.1462 60.4304 83.5811 59.9014 83.0705 59.377C82.5055 58.8479 81.9949 58.3235 81.4298 57.7945L79.7847 56.2716C79.2154 55.8023 78.5958 55.2685 78.0265 54.7991C76.892 53.8007 75.6945 52.917 74.5558 51.9782C73.3584 51.0945 72.1652 50.1511 70.9089 49.3224C69.7115 48.4386 68.451 47.6696 67.1948 46.8409C62.1613 43.6454 56.9303 40.9134 51.5016 38.645C48.783 37.5705 46.0601 36.5556 43.27 35.7152C40.4755 34.9345 37.6266 34.149 34.7477 33.7815Z" fill="#27323D"/>
<path d="M21.3607 40.0801C24.4001 40.5015 27.41 41.0805 30.3903 41.8172C33.3763 42.4742 36.3175 43.2476 39.2138 44.1372C42.1631 45.0513 45.0537 46.0205 47.877 47.1641C49.2636 47.7037 50.7046 48.248 52.0826 48.907L53.1465 49.3588L54.156 49.806C54.9016 50.1103 55.5927 50.41 56.2796 50.7693L58.29 51.783C58.9768 52.1423 59.6637 52.5017 60.3506 52.861C61.0207 53.1989 61.6894 53.5567 62.3567 53.9344C63.0392 54.3534 63.7261 54.7127 64.3585 55.0674C67.0429 56.6195 69.6056 58.3413 72.1682 60.0631C77.2807 63.6858 82.0908 67.703 86.8251 72.014C83.1569 66.5934 78.679 61.7639 73.7139 57.6133C72.4705 56.6055 71.2271 55.5977 69.925 54.6449C69.2969 54.2305 68.6773 53.6968 67.9947 53.2777L66.0057 51.9656C63.2796 50.2298 60.4862 48.6683 57.68 47.2859C56.9387 46.9219 56.1931 46.6176 55.5019 46.3179L54.4423 45.8064L53.3239 45.3499C51.8661 44.7842 50.3888 44.2367 48.8918 43.7077C45.9315 42.6924 42.9205 41.8731 39.859 41.2496C36.7793 40.6245 33.7413 40.1832 30.636 39.9163C27.5222 39.7688 24.4585 39.6857 21.3607 40.0801Z" fill="#27323D"/>
<path d="M25.3071 47.7467C26.6274 47.68 27.9349 47.7924 29.2382 47.9644C30.5414 48.1365 31.8361 48.428 33.1307 48.7194C34.3667 49.0659 35.6614 49.3574 36.893 49.7635L38.7741 50.2856L40.6424 50.9867L42.515 51.6282L44.3833 52.3293C45.6064 52.8549 46.8381 53.261 48.0569 53.8463C49.2256 54.3672 50.4487 54.8927 51.6718 55.4183L55.2738 57.1694C56.4969 57.6949 57.657 58.3352 58.8758 58.9204L62.4191 60.7265C64.7937 62.0118 67.1726 63.2373 69.5473 64.5225C70.7059 65.1827 71.8842 65.8245 73.082 66.448L74.8745 67.4429C75.4748 67.7348 76.0555 68.0449 76.6167 68.3735C78.9871 69.7184 81.3617 71.0036 83.7951 72.2338C81.7944 70.32 79.6718 68.576 77.4991 66.7676C76.4651 65.8979 75.3135 65.1382 74.2207 64.3235C73.1098 63.5073 71.9988 62.6911 70.8879 61.8749C69.7406 61.0555 68.5806 60.4152 67.429 59.6556C66.2775 58.8959 65.0672 58.1913 63.9114 57.4913C62.7556 56.7913 61.541 56.1464 60.3265 55.5014C59.1119 54.8565 57.8973 54.2115 56.6785 53.6263L52.9633 51.9255C51.6857 51.3953 50.4038 50.9247 49.1764 50.4589C47.8989 49.9286 46.6085 49.5775 45.2678 49.162L43.3365 48.5755L41.3421 48.1038C40.6969 47.9282 40.0322 47.771 39.3478 47.6321L37.3449 47.2797C36.0459 47.048 34.6797 46.9906 33.3177 46.8736C32.664 46.8174 31.9472 46.8759 31.2934 46.8197C30.6354 46.8232 29.9186 46.8817 29.2563 46.9449C28.5983 46.9484 27.9317 47.0713 27.2652 47.1942C26.5986 47.3171 25.9278 47.4997 25.3071 47.7467Z" fill="#27323D"/>
<path d="M13.8972 48.6281C18.9221 51.9429 24.2119 54.6199 29.5145 57.1178C34.8897 59.6219 40.338 61.872 45.8593 63.8681C48.6409 64.8279 51.4225 65.7878 54.2127 66.6282C55.6078 67.0484 56.9986 67.5283 58.398 67.8889C59.8308 68.2923 61.2455 68.6942 62.642 69.0945C65.4407 69.8155 68.2982 70.4816 71.16 71.0879C74.0217 71.6942 76.892 72.1812 79.7708 72.5487C77.0608 71.3548 74.3379 70.34 71.6193 69.2654C68.9007 68.1909 66.119 67.2311 63.4004 66.1566L55.173 63.1671L46.9414 60.2373L30.4823 54.318C24.9735 52.403 19.4647 50.488 13.8972 48.6281Z" fill="#27323D"/>
<path d="M12.3352 71.9785C17.2234 71.0773 22.0987 70.3551 26.957 69.8717C31.8152 69.3883 36.6607 69.0841 41.4805 69.1379C46.3003 69.1918 51.1574 69.4892 55.9302 70.1997C60.7618 70.8552 65.5004 72.0433 70.3394 73.3601C69.2883 72.7292 68.1912 71.9742 67.0814 71.3983C66.4992 71.108 65.917 70.8178 65.3893 70.5322L63.6385 69.721L62.7337 69.3429L61.8792 69.0292L60.0653 68.3328L58.2974 67.7604C57.6885 67.5879 57.0797 67.4155 56.4708 67.243C51.573 65.9812 46.5193 65.3666 41.4816 65.294C36.4941 65.2858 31.4681 65.8148 26.5671 66.8952C24.1159 67.4453 21.6925 68.1179 19.2968 68.913C16.9318 69.7909 14.5624 70.7284 12.3352 71.9785Z" fill="#27323D"/>
<path d="M4.53083 76.1122C5.55846 75.5398 6.6865 75.0962 7.76006 74.6479C8.85036 74.2211 9.95454 73.8555 11.0726 73.5512C13.3116 72.9027 15.5965 72.3784 17.8686 72.0331C20.145 71.6281 22.463 71.4069 24.7768 71.2454C25.3301 71.1728 25.8988 71.1416 26.4827 71.1518C27.0318 71.1389 27.6396 71.071 28.1887 71.0581L29.9448 71.0289L31.6422 71.0546C32.2262 71.0648 32.8101 71.0749 33.3941 71.0851C33.9389 71.1319 34.5424 71.1237 35.0872 71.1705C36.29 71.2139 37.4384 71.2525 38.5782 71.4105L40.267 71.5557L42.0103 71.7055C43.1544 71.8038 44.2899 72.0216 45.4297 72.1796C46.5738 72.2779 47.7093 72.4956 48.8491 72.6537L52.2556 73.3068L55.6579 74.0197L59.0559 74.7922L59.3251 71.0314C59.1029 71.0724 58.9939 71.063 58.8262 71.1087L58.4363 71.1953C58.1401 71.2499 57.862 71.3061 57.6021 71.3638C57.0822 71.4793 56.5623 71.5948 56.0425 71.7103C54.9999 71.9811 53.9893 72.3146 53.0108 72.711C50.9898 73.3782 49.0061 74.2888 47.1271 75.2685C45.2481 76.2482 43.415 77.352 41.6279 78.5798C39.8603 79.7893 38.1416 81.0831 36.4716 82.4611C33.1483 85.2387 30.1306 88.3428 27.3682 91.7091C24.6057 95.0754 22.1029 98.6443 19.9141 102.42C22.6722 99.1136 25.4806 95.8714 28.4855 92.9463C29.9825 91.4333 31.5282 90.0045 33.1227 88.66C33.9367 88.0093 34.7004 87.2941 35.5144 86.6433C36.3284 85.9925 37.1381 85.4014 38.0066 84.7553C41.3042 82.3359 44.8026 80.1741 48.4346 78.4441C50.2491 77.599 52.111 76.8581 54.0203 76.2214C54.9568 75.9014 55.8904 75.6213 56.8212 75.381C57.3047 75.2624 57.7883 75.1438 58.2718 75.0251C58.4926 75.0041 58.7148 74.9631 58.9384 74.9022L59.324 74.8753L59.6007 74.839L69.4518 73.5235L59.8154 71.0736C55.236 69.9592 50.5347 69.0146 45.8581 68.4925C41.1269 67.9658 36.3787 67.6778 31.592 67.9271C26.8641 68.1214 22.1522 68.8576 17.5151 70.0807C15.2034 70.7229 12.953 71.5305 10.7639 72.5036C8.55803 73.4552 6.44829 74.5952 4.53083 76.1122Z" fill="#27323D"/>
<path d="M10.2881 82.1914C14.1283 81.3803 17.8682 80.4404 21.6037 79.5602C25.3393 78.68 29.0749 77.7999 32.7976 77.0988C36.5203 76.3977 40.2933 75.7609 44.0449 75.4227C45.9228 75.2237 47.7965 75.0844 49.7203 75.0095C51.6399 74.9943 53.5552 75.0388 55.5207 75.1477C53.724 74.2125 51.7927 73.626 49.9073 73.1637C47.9674 72.6966 45.9517 72.5234 43.9861 72.4145C40.0551 72.1968 36.0813 72.576 32.1909 73.3227C28.3549 74.0742 24.5435 75.2481 20.8784 76.675C19.0361 77.3975 17.223 78.2227 15.439 79.1505C13.6776 80.0202 11.9075 81.0092 10.2881 82.1914Z" fill="#27323D"/>
<path d="M54.67 74.7762C52.8893 74.3829 51.0915 74.2284 49.2808 74.253C47.4745 74.2178 45.651 74.4215 43.8233 74.6848C40.2224 75.2162 36.6919 76.2942 33.2949 77.8041C32.4436 78.2115 31.6467 78.6235 30.7953 79.0308C29.9941 79.5025 29.193 79.9742 28.3918 80.4459C27.5864 80.9773 26.7852 81.449 26.03 82.0448C25.6817 82.3152 25.279 82.5809 24.9265 82.9109L23.823 83.7771C22.3628 85.033 21.0072 86.358 19.752 87.8118C18.4969 89.2655 17.4009 90.793 16.4053 92.4492C19.4134 90.2452 22.304 88.1512 25.3452 86.2504C26.8357 85.3374 28.3597 84.4673 29.9172 83.6402C30.7141 83.2282 31.4565 82.8115 32.2491 82.4592C33.046 82.0472 33.8386 81.6949 34.6313 81.3425C37.8046 79.8935 41.0545 78.6512 44.3809 77.6158C47.7479 76.5237 51.1566 75.6154 54.67 74.7762Z" fill="#27323D"/>
<path d="M62.992 73.3901C61.1056 73.7085 59.2565 74.2703 57.4031 74.8918C55.6028 75.5379 53.8317 76.2867 52.0898 77.138C48.5711 78.8176 45.1902 80.8695 42.056 83.3029C41.3008 83.8987 40.5412 84.5541 39.7273 85.2049C39.0222 85.8651 38.2627 86.5206 37.5534 87.2404C36.0846 88.6157 34.7205 90.0601 33.4023 91.6285C30.8749 94.7748 28.6487 98.3073 27.1094 102.199C29.8419 99.2508 32.5114 96.417 35.3315 93.7764C36.0365 93.1163 36.7373 92.5158 37.4423 91.8557C38.1975 91.2599 38.9026 90.5997 39.6033 89.9993C41.0803 88.7648 42.5726 87.5717 44.0802 86.4199C47.0969 84.0965 50.1595 81.8972 53.3268 79.7669C56.4941 77.6366 59.7115 75.5708 62.992 73.3901Z" fill="#27323D"/>
<path d="M73.9363 72.8896C73.4748 73.2103 73.0219 73.4116 72.5145 73.6083L71.7806 73.9056L71.051 74.1432C70.0949 74.4814 69.0887 74.7553 68.0824 75.0292C66.1286 75.522 64.1247 75.9503 62.1207 76.3787C61.0642 76.5882 60.1252 76.6877 59.0057 77.012C57.924 77.3194 56.8561 77.6881 55.8022 78.118C53.7683 78.9643 51.822 80.1184 49.9761 81.4012C46.3345 84.0313 43.1448 87.2408 40.424 90.7909C37.699 94.4006 35.3884 98.3464 33.7188 102.527C35.0498 100.78 36.431 99.0966 37.8667 97.4182C39.2981 95.7994 40.7295 94.1806 42.2069 92.6859C45.2203 89.6415 48.4346 86.8545 51.8284 84.6236C53.5023 83.4461 55.2723 82.4571 57.084 81.6518C57.9898 81.2491 58.8914 80.9062 59.8432 80.6276L61.2981 80.2121L62.8118 79.7416C64.8874 79.0791 66.9212 78.2328 68.8045 77.1935C69.7734 76.6761 70.7465 76.099 71.6193 75.3932C72.0473 75.0296 72.4767 74.6461 72.9075 74.2427C73.1034 74.0593 73.2825 73.8545 73.4449 73.6282C73.6254 73.4034 73.8059 73.1787 73.9363 72.8896Z" fill="#27323D"/>
<path d="M80.5597 72.2562C79.2486 72.7041 77.9682 73.2347 76.7183 73.848C75.4351 74.4184 74.1867 75.0119 72.9732 75.6283C70.5041 76.9377 68.0839 78.3313 65.7125 79.8093C63.309 81.2244 61.0016 82.8279 58.69 84.4912C57.5363 85.293 56.4328 86.1591 55.3293 87.0253C54.2049 87.9297 53.0985 88.8356 52.0104 89.7431C50.9571 90.6737 49.9038 91.6042 48.8463 92.5944C47.7888 93.5847 46.7312 94.5749 45.7282 95.5698C43.7135 97.679 41.8035 99.8573 39.9939 102.164C38.2346 104.536 36.5799 106.976 35.235 109.684L34.2682 111.703C33.9627 112.397 33.6935 113.095 33.4606 113.795C33.1872 114.553 33.0269 115.26 32.8079 116.022C32.6449 116.768 32.5014 117.497 32.3774 118.207C33.7181 115.559 35.3055 113.293 37.1065 111.106C38.853 108.913 40.6957 106.909 42.6474 104.915C43.6504 103.92 44.6492 102.985 45.5935 102.045C46.6468 101.114 47.5954 100.115 48.6444 99.244C50.6783 97.3767 52.7638 95.5539 54.9009 93.7755C56.9487 91.9694 59.1055 90.1728 61.2579 88.4358L67.6694 83.1007C71.9786 79.567 76.2878 76.0333 80.5597 72.2562Z" fill="#27323D"/>
<path d="M87.0364 71.3715C81.8737 73.8108 76.945 76.8107 72.1668 80.0038C67.3844 83.2566 62.6981 86.6978 58.2585 90.5206C53.8233 94.2837 49.5301 98.3593 45.6887 103.014C43.8247 105.317 42.0023 107.803 40.5484 110.501C39.7964 111.818 39.1448 113.263 38.6566 114.723C38.1139 116.178 37.8351 117.775 37.833 119.337C38.052 118.575 38.2122 117.868 38.5359 117.175C38.6705 116.826 38.8596 116.482 38.9899 116.193C39.1608 115.847 39.3303 115.521 39.4984 115.216C40.2126 113.915 41.0302 112.704 41.951 111.582C43.7061 109.271 45.6118 107.152 47.6767 105.107C51.6975 101.008 56.0238 97.2357 60.4003 93.5276C64.7811 89.7598 69.2078 86.1161 73.689 82.4771C78.1702 78.838 82.6514 75.199 87.0364 71.3715Z" fill="#27323D"/>
<path d="M95.5772 71.5043C92.9857 72.4828 90.486 73.7095 88.0366 75.0005C85.6068 76.2732 83.2061 77.6485 80.8347 79.1264C76.0946 82.0425 71.5162 85.2527 67.0995 88.7571C66.0505 89.628 64.9427 90.5538 63.835 91.4797C62.7831 92.3903 61.7299 93.3208 60.6752 94.2713C58.6146 96.2564 56.554 98.2416 54.644 100.42C52.734 102.598 50.9287 104.845 49.3242 107.35C49.1351 107.694 48.9503 107.979 48.7655 108.263L48.2026 109.236C48.0135 109.58 47.8244 109.924 47.6396 110.209L47.1813 111.25C46.8619 111.884 46.5885 112.641 46.3193 113.339C46.252 113.513 46.1847 113.687 46.1174 113.862L45.97 114.39C45.9052 114.784 45.8236 115.158 45.7253 115.51C47.2753 113 49.1223 110.937 51.0697 109.002C53.0213 107.007 55.0146 105.197 57.1169 103.395C59.1842 101.571 61.2851 99.7894 63.4194 98.0508C64.5229 97.1847 65.5719 96.3138 66.6209 95.443C67.6699 94.5722 68.7733 93.706 69.8768 92.8398C74.1775 89.4255 78.4824 85.9515 82.7873 82.4776C87.0965 78.9439 91.41 75.3505 95.5772 71.5043Z" fill="#27323D"/>
<path d="M103.134 70.8328C98.1725 73.5296 93.5033 76.732 88.8757 80.1182C84.3069 83.4494 79.8845 87.0334 75.5539 90.8656C74.4992 91.816 73.4431 92.7863 72.3856 93.7766C71.328 94.7668 70.2705 95.757 69.2674 96.7519C67.257 98.8015 65.2424 100.911 63.3281 103.149C61.4138 105.387 59.6043 107.694 57.9998 110.198C57.1933 111.511 56.391 112.763 55.7982 114.154C55.1006 115.475 54.6124 116.935 54.3379 118.473C54.6616 117.78 54.9307 117.082 55.3548 116.518C55.5439 116.174 55.7287 115.889 55.968 115.61L56.5812 114.701C57.4293 113.573 58.3306 112.469 59.2848 111.39C61.1905 109.271 63.1967 107.282 65.2573 105.296C67.2591 103.366 69.3699 101.446 71.4263 99.5202C72.481 98.5697 73.5356 97.6193 74.5903 96.6689C75.6479 95.6786 76.7012 94.7481 77.7544 93.8176L90.5154 82.4814C94.7872 78.7043 99.0089 74.8628 103.134 70.8328Z" fill="#27323D"/>
<path d="M109.506 70.66C107.06 72.6721 104.609 74.7438 102.167 76.6962C99.6666 78.7036 97.2247 80.6559 94.7368 82.4842C93.4613 83.4557 92.1944 84.3078 90.919 85.2793C89.6521 86.1314 88.3809 87.0432 87.0637 87.831C85.7968 88.6831 84.484 89.4111 83.1669 90.1989L81.1746 91.2289C80.835 91.3799 80.4952 91.5309 80.1556 91.6819L79.1408 92.0751L78.1217 92.5281C77.6687 92.7294 77.3291 92.8804 76.9306 93.0864C76.1729 93.4618 75.4319 93.8585 74.7076 94.2768C73.3232 95.2389 71.9933 96.2058 70.7595 97.361C68.246 99.5475 66.0881 102.125 64.1899 104.905C60.5526 110.538 57.9578 116.922 56.5574 123.469C59.2899 117.457 62.4914 111.786 66.3584 106.773C68.3399 104.361 70.4219 102.077 72.8051 100.18C73.3339 99.6845 73.9673 99.2584 74.5463 98.8277C74.8401 98.5526 75.1798 98.4016 75.4693 98.1862C75.7587 97.9709 76.1027 97.7602 76.3879 97.6045C77.0367 97.2198 77.6826 96.8749 78.3257 96.5698C78.6109 96.4141 78.9506 96.2632 79.2315 96.1672L80.3638 95.6639C81.8861 95.074 83.3121 94.2956 84.7382 93.5172C86.1141 92.6745 87.4899 91.8317 88.8156 90.9246C90.1413 90.0175 91.421 88.9863 92.642 88.0101C93.9217 86.9789 95.1427 86.0027 96.3722 84.9072C98.7558 82.7496 101.056 80.4847 103.272 78.1125C105.417 75.7142 107.562 73.3159 109.506 70.66Z" fill="#27323D"/>
<path d="M116.982 71.1219C114.184 72.6833 111.533 74.4976 108.882 76.3118C106.303 78.1323 103.737 80.0339 101.183 82.0167C96.1817 86.0315 91.2764 90.2347 86.6264 94.7001C81.9722 99.2252 77.4686 103.943 73.3708 109.117C71.2675 111.699 69.3233 114.355 67.5298 117.204C66.6602 118.631 65.8409 120.122 65.0761 121.618C64.6936 122.366 64.3614 123.178 64.0335 123.931C63.8401 124.334 63.7012 124.743 63.5624 125.151C63.4249 125.54 63.286 125.949 63.1458 126.377C65.044 123.597 67.1345 121.194 69.334 118.8C71.4747 116.462 73.7201 114.192 75.9655 111.923C80.4563 107.383 85.102 102.978 89.6933 98.5674C94.2888 94.0973 98.9387 89.6319 103.48 85.1572C108.029 80.563 112.629 76.0333 116.982 71.1219Z" fill="#27323D"/>
<path d="M121.471 71.2055C117.613 75.3186 113.861 79.5007 110.108 83.6828C106.375 87.8466 102.626 91.9691 98.8627 96.0502C95.0641 100.108 91.2153 104.102 87.3162 108.031C83.3627 111.956 79.3633 115.756 75.2004 119.543C80.0908 117.08 84.7055 113.873 89.0692 110.344C93.3239 106.806 97.4408 102.895 101.298 98.7821C105.107 94.5848 108.727 90.2111 112.159 85.661C113.805 83.3399 115.451 81.0188 117.047 78.6334C118.588 76.2433 120.134 73.7934 121.471 71.2055Z" fill="#27323D"/>
<path d="M127.593 71.4353C124.887 73.2448 122.428 75.436 120.015 77.7512C117.652 80.1308 115.394 82.5794 113.336 85.2856C112.795 85.9598 112.308 86.6387 111.821 87.3176C111.297 87.9933 110.809 88.6921 110.355 89.4139L108.889 91.5102L107.579 93.74C107.335 94.0795 107.146 94.4236 106.898 94.8227L106.268 95.9698L105.066 98.2089L103.91 100.572L103.385 101.788C103.191 102.192 103.057 102.541 102.868 102.885C102.212 104.39 101.451 105.826 100.636 107.258C99.8742 108.714 99.0592 110.146 98.191 111.552C97.3258 112.92 96.406 114.282 95.4863 115.645C94.5149 116.962 93.5268 118.259 92.522 119.534C88.4285 124.648 83.7241 129.109 78.3669 132.732C84.3885 130.547 89.8845 126.515 94.5099 121.627C96.8226 119.183 98.9345 116.481 100.891 113.647C102.794 110.807 104.491 107.77 105.979 104.594C106.173 104.19 106.366 103.786 106.505 103.378L107.022 102.281L108.06 100.028L109.203 97.8438L109.779 96.692L110.351 95.5999L111.548 93.4205L112.85 91.3101C113.228 90.6219 113.716 89.943 114.152 89.1997C114.585 88.5162 115.018 87.8326 115.45 87.149C117.294 84.3644 119.238 81.7086 121.237 79.0575C123.252 76.4278 125.371 73.887 127.593 71.4353Z" fill="#27323D"/>
<path d="M136.603 72.6903C135.613 73.5061 134.823 74.5795 134.089 75.6575C133.299 76.7308 132.669 77.8779 132.039 79.025C130.778 81.3192 129.672 83.7467 128.73 86.1884C128.47 86.7666 128.205 87.4045 127.994 88.0471L127.313 89.9105C126.951 91.1407 126.475 92.4212 126.113 93.6514C125.801 94.946 125.385 96.1715 125.073 97.4661C124.761 98.7606 124.449 100.055 124.137 101.35L124.133 101.409L124.07 101.524L124.044 101.882L123.964 102.236C123.91 102.471 123.856 102.727 123.799 103.002C123.706 103.535 123.563 104.003 123.416 104.531C123.175 105.592 122.881 106.647 122.536 107.639C121.891 109.746 121.197 111.788 120.344 113.757L120.016 114.51L119.688 115.262C119.431 115.781 119.288 116.249 119.032 116.767C118.777 117.266 118.541 117.746 118.326 118.208C118.069 118.727 117.817 119.186 117.561 119.704C116.544 121.659 115.368 123.54 114.238 125.545C116.029 124.257 117.72 122.841 119.265 121.172C120.809 119.503 122.149 117.636 123.388 115.64C124.623 113.704 125.653 111.57 126.523 109.363C126.966 108.28 127.376 107.154 127.752 105.985C127.903 105.397 128.105 104.874 128.257 104.287C128.316 103.971 128.375 103.656 128.434 103.341L128.573 102.932C128.586 102.753 128.599 102.574 128.666 102.4L128.599 102.574C128.908 101.319 129.217 100.065 129.526 98.8098L130.453 95.0455L132.249 87.5719C132.867 85.0624 133.522 82.556 134.212 80.0527C134.882 77.5876 135.556 75.0629 136.603 72.6903Z" fill="#27323D"/>
<path d="M66.7476 73.7723C75.7473 72.8641 84.7716 72.3784 93.7746 72.1912C102.778 72.004 111.755 72.1749 120.744 72.9475C125.215 73.2718 129.67 73.8348 134.057 74.5722C136.258 74.9616 138.437 75.4092 140.593 75.9148C142.786 76.4236 144.919 77.0073 146.991 77.6659C149.077 78.3858 151.159 79.1654 153.119 80.1146C155.08 81.0639 156.972 82.1876 158.635 83.4717C160.292 84.8154 161.72 86.3195 162.807 87.9746C163.836 89.6847 164.466 91.6008 164.656 93.5391L170.026 92.7994C169.632 89.8825 168.521 87.0242 166.931 84.7253C165.342 82.4265 163.333 80.6321 161.243 79.1912C159.212 77.6953 156.988 76.6032 154.806 75.6949C152.574 74.7222 150.324 73.9883 148.066 73.3737C145.842 72.7822 143.594 72.2887 141.32 71.893C139.049 71.4576 136.771 71.1216 134.485 70.8852C129.976 70.3175 125.392 70.0435 120.849 69.9534C111.771 69.6537 102.701 70.0153 93.718 70.6847C84.6808 71.3495 75.6768 72.3175 66.7519 73.7126L66.7476 73.7723Z" fill="#27323D"/>
</svg>
