<svg width="96" height="100" viewBox="0 0 96 100" fill="none" xmlns="http://www.w3.org/2000/svg">
<path d="M16.1824 50.5842C16.6355 52.4242 17.0995 54.2339 17.6447 56.0107C18.1791 57.8179 18.7243 59.5947 19.34 61.369C19.9431 63.1138 20.6003 64.8367 21.3118 66.5377C22.0197 68.2488 22.7979 69.9574 23.6495 71.5585C25.3606 74.8353 27.378 77.9364 29.8185 80.633C31.0559 81.9657 32.3936 83.1801 33.8317 84.276C35.2798 85.3766 36.8635 86.2926 38.5096 87.1316C36.7411 86.7312 35.0298 86.0742 33.3757 85.1607C31.7216 84.2472 30.1842 83.1049 28.7824 81.7781C25.9383 79.141 23.6637 75.8845 21.8958 72.475C21.4362 71.6232 21.058 70.7386 20.6391 69.8704L20.0716 68.5435C19.8825 68.1012 19.734 67.6425 19.5449 67.2002C18.8895 65.4074 18.3253 63.5863 17.8524 61.737C17.3524 59.8987 16.9634 58.0413 16.6856 56.1651C16.414 54.3035 16.202 52.4698 16.1824 50.5842Z" fill="#27323D"/>
<path d="M16.1824 50.5842C16.6355 52.4242 17.0995 54.2339 17.6447 56.0107C18.1791 57.8179 18.7243 59.5947 19.34 61.369C19.9431 63.1138 20.6003 64.8367 21.3118 66.5377C22.0197 68.2488 22.7979 69.9574 23.6495 71.5585C25.3606 74.8353 27.378 77.9364 29.8185 80.633C31.0559 81.9657 32.3936 83.1801 33.8317 84.276C35.2798 85.3766 36.8635 86.2926 38.5096 87.1316C36.7411 86.7312 35.0298 86.0742 33.3757 85.1607C31.7216 84.2472 30.1842 83.1049 28.7824 81.7781C25.9383 79.141 23.6637 75.8845 21.8958 72.475C21.4362 71.6232 21.058 70.7386 20.6391 69.8704L20.0716 68.5435C19.8825 68.1012 19.734 67.6425 19.5449 67.2002C18.8895 65.4074 18.3253 63.5863 17.8524 61.737C17.3524 59.8987 16.9634 58.0413 16.6856 56.1651C16.414 54.3035 16.202 52.4698 16.1824 50.5842Z" fill="#27323D"/>
<path d="M37.645 85.5563C38.2387 85.1606 38.8811 84.8231 39.5424 84.5298C40.2037 84.2365 40.873 84.0178 41.5721 83.813C42.9406 83.3894 44.3658 83.0986 45.8179 82.9265C46.5331 82.8708 47.2592 82.7847 47.9933 82.7733C48.3753 82.7745 48.7383 82.7315 49.1094 82.763L50.2146 82.7831C50.5704 82.7603 50.9352 82.7771 51.3089 82.8335L52.4033 82.8839C52.7743 82.9154 53.1346 82.9773 53.4948 83.0392L54.5565 83.1806L54.6974 83.1755C54.7569 83.2033 54.7976 83.1869 54.7976 83.1869L55.0278 83.2235L55.51 83.2361C55.844 83.274 56.1853 83.2916 56.5339 83.289C57.2165 83.3243 57.9099 83.3293 58.6034 83.3343C59.9795 83.3745 61.3286 83.296 62.7075 83.2313C64.0864 83.1667 65.4383 82.9833 66.82 82.8137C68.1828 82.6 69.5078 82.2978 70.9438 81.9766C70.3989 82.4303 69.843 82.9144 69.2195 83.2962C68.943 83.4858 68.6259 83.6919 68.3196 83.8676L67.3411 84.3669C66.0483 84.9674 64.6581 85.4516 63.2519 85.7867C61.8347 86.1521 60.4015 86.3684 58.9413 86.4659C58.2026 86.5225 57.4712 86.5588 56.747 86.5749C56.3786 86.5682 56.0002 86.5569 55.612 86.5409L55.0594 86.5309L54.8996 86.4917L54.7289 86.4829C54.6287 86.4715 54.5989 86.4576 54.5583 86.4741L54.4283 86.4488C53.7377 86.3389 53.0172 86.2152 52.3157 86.1357C51.6142 86.0561 50.9235 85.9463 50.2518 85.8807C48.8488 85.7216 47.4945 85.6207 46.0697 85.5223C44.6846 85.4424 43.2987 85.3975 41.9117 85.3876C40.5139 85.408 39.0754 85.4449 37.645 85.5563Z" fill="#27323D"/>
<path d="M37.645 85.5563C38.2387 85.1606 38.8811 84.8231 39.5424 84.5298C40.2037 84.2365 40.873 84.0178 41.5721 83.813C42.9406 83.3894 44.3658 83.0986 45.8179 82.9265C46.5331 82.8708 47.2592 82.7847 47.9933 82.7733C48.3753 82.7745 48.7383 82.7315 49.1094 82.763L50.2146 82.7831C50.5704 82.7603 50.9352 82.7771 51.3089 82.8335L52.4033 82.8839C52.7743 82.9154 53.1346 82.9773 53.4948 83.0392L54.5565 83.1806L54.6974 83.1755C54.7569 83.2033 54.7976 83.1869 54.7976 83.1869L55.0278 83.2235L55.51 83.2361C55.844 83.274 56.1853 83.2916 56.5339 83.289C57.2165 83.3243 57.9099 83.3293 58.6034 83.3343C59.9795 83.3745 61.3286 83.296 62.7075 83.2313C64.0864 83.1667 65.4383 82.9833 66.82 82.8137C68.1828 82.6 69.5078 82.2978 70.9438 81.9766C70.3989 82.4303 69.843 82.9144 69.2195 83.2962C68.943 83.4858 68.6259 83.6919 68.3196 83.8676L67.3411 84.3669C66.0483 84.9674 64.6581 85.4516 63.2519 85.7867C61.8347 86.1521 60.4015 86.3684 58.9413 86.4659C58.2026 86.5225 57.4712 86.5588 56.747 86.5749C56.3786 86.5682 56.0002 86.5569 55.612 86.5409L55.0594 86.5309L54.8996 86.4917L54.7289 86.4829C54.6287 86.4715 54.5989 86.4576 54.5583 86.4741L54.4283 86.4488C53.7377 86.3389 53.0172 86.2152 52.3157 86.1357C51.6142 86.0561 50.9235 85.9463 50.2518 85.8807C48.8488 85.7216 47.4945 85.6207 46.0697 85.5223C44.6846 85.4424 43.2987 85.3975 41.9117 85.3876C40.5139 85.408 39.0754 85.4449 37.645 85.5563Z" fill="#27323D"/>
<path d="M16.4333 46.3813C18.2064 49.9702 19.8088 53.5503 21.4113 57.1305C23.0137 60.7106 24.627 64.2604 26.2918 67.7634C27.9675 71.2361 29.6839 74.6924 31.6876 77.9287C32.6989 79.569 33.7726 81.1322 35.0009 82.555C36.24 83.9476 37.6744 85.1834 39.4859 85.8517C38.5703 85.8847 37.5709 85.6662 36.6666 85.2796C35.7325 84.8791 34.8825 84.3408 34.0542 83.7419C32.4194 82.4834 31.0125 80.9771 29.7383 79.3912C29.4209 78.9834 29.1135 78.5803 28.8159 78.1819C28.5256 77.7632 28.2353 77.3445 27.945 76.9258C27.3744 76.093 26.8444 75.2438 26.3252 74.3643C25.8259 73.494 25.3303 72.6136 24.8382 71.7231C24.3932 70.8309 23.9481 69.9387 23.503 69.0466C21.7814 65.4108 20.3335 61.6904 19.1485 57.9156C18.5356 56.0364 18.0041 54.1243 17.543 52.2098C17.3075 51.2501 17.099 50.2796 16.9177 49.298C16.7291 48.3367 16.5677 47.3645 16.4333 46.3813Z" fill="#27323D"/>
<path d="M16.4333 46.3813C18.2064 49.9702 19.8088 53.5503 21.4113 57.1305C23.0137 60.7106 24.627 64.2604 26.2918 67.7634C27.9675 71.2361 29.6839 74.6924 31.6876 77.9287C32.6989 79.569 33.7726 81.1322 35.0009 82.555C36.24 83.9476 37.6744 85.1834 39.4859 85.8517C38.5703 85.8847 37.5709 85.6662 36.6666 85.2796C35.7325 84.8791 34.8825 84.3408 34.0542 83.7419C32.4194 82.4834 31.0125 80.9771 29.7383 79.3912C29.4209 78.9834 29.1135 78.5803 28.8159 78.1819C28.5256 77.7632 28.2353 77.3445 27.945 76.9258C27.3744 76.093 26.8444 75.2438 26.3252 74.3643C25.8259 73.494 25.3303 72.6136 24.8382 71.7231C24.3932 70.8309 23.9481 69.9387 23.503 69.0466C21.7814 65.4108 20.3335 61.6904 19.1485 57.9156C18.5356 56.0364 18.0041 54.1243 17.543 52.2098C17.3075 51.2501 17.099 50.2796 16.9177 49.298C16.7291 48.3367 16.5677 47.3645 16.4333 46.3813Z" fill="#27323D"/>
<path d="M25.2732 44.0251C25.2077 44.4666 25.1657 44.9073 25.1472 45.3471C25.1286 45.7869 25.1236 46.2212 25.1322 46.65C25.1619 47.5372 25.2323 48.408 25.3433 49.2623C25.5582 50.9911 25.9247 52.6846 26.3915 54.3894C26.8393 56.05 27.3874 57.7219 27.987 59.3471C28.6055 61.0165 29.2864 62.6088 30.0268 64.2288C31.4779 67.4551 33.0917 70.6157 34.8165 73.7572C35.268 74.5344 35.668 75.3584 36.1196 76.1355L36.7711 77.3247C37.0018 77.7156 37.219 78.112 37.4226 78.5138C37.8742 79.291 38.3148 80.0985 38.7555 80.906C39.2097 81.7081 39.6467 82.5257 40.0666 83.3589C39.3865 82.7347 38.7235 82.0949 38.0777 81.4395C37.4418 80.7887 36.8277 80.0772 36.2325 79.41C35.6074 78.7289 35.034 78.0011 34.4605 77.2732C34.1683 76.9244 33.887 76.5453 33.6355 76.1801C33.3505 75.8111 33.0656 75.4421 32.7807 75.0731C30.6196 72.082 28.7458 68.8709 27.1893 65.4538L26.9056 64.7904L26.6516 64.1408C26.4516 63.7288 26.2923 63.3004 26.1032 62.8581L25.636 61.5426C25.4875 61.0838 25.339 60.6251 25.2203 60.1803C24.6453 58.3895 24.222 56.5634 23.9802 54.7158C23.7384 52.8681 23.6484 50.9851 23.8184 49.1525C23.9033 48.2363 24.0479 47.3478 24.2629 46.4568C24.4968 45.61 24.812 44.7304 25.2732 44.0251Z" fill="#27323D"/>
<path d="M25.2732 44.0251C25.2077 44.4666 25.1657 44.9073 25.1472 45.3471C25.1286 45.7869 25.1236 46.2212 25.1322 46.65C25.1619 47.5372 25.2323 48.408 25.3433 49.2623C25.5582 50.9911 25.9247 52.6846 26.3915 54.3894C26.8393 56.05 27.3874 57.7219 27.987 59.3471C28.6055 61.0165 29.2864 62.6088 30.0268 64.2288C31.4779 67.4551 33.0917 70.6157 34.8165 73.7572C35.268 74.5344 35.668 75.3584 36.1196 76.1355L36.7711 77.3247C37.0018 77.7156 37.219 78.112 37.4226 78.5138C37.8742 79.291 38.3148 80.0985 38.7555 80.906C39.2097 81.7081 39.6467 82.5257 40.0666 83.3589C39.3865 82.7347 38.7235 82.0949 38.0777 81.4395C37.4418 80.7887 36.8277 80.0772 36.2325 79.41C35.6074 78.7289 35.034 78.0011 34.4605 77.2732C34.1683 76.9244 33.887 76.5453 33.6355 76.1801C33.3505 75.8111 33.0656 75.4421 32.7807 75.0731C30.6196 72.082 28.7458 68.8709 27.1893 65.4538L26.9056 64.7904L26.6516 64.1408C26.4516 63.7288 26.2923 63.3004 26.1032 62.8581L25.636 61.5426C25.4875 61.0838 25.339 60.6251 25.2203 60.1803C24.6453 58.3895 24.222 56.5634 23.9802 54.7158C23.7384 52.8681 23.6484 50.9851 23.8184 49.1525C23.9033 48.2363 24.0479 47.3478 24.2629 46.4568C24.4968 45.61 24.812 44.7304 25.2732 44.0251Z" fill="#27323D"/>
<path d="M27.0099 36.3749C26.9173 36.8274 26.8545 37.2937 26.8214 37.774L26.8017 38.5082C26.796 38.718 26.8093 38.9721 26.8036 39.1819L26.8245 39.8997L26.8752 40.6314C26.9235 41.0788 26.9609 41.5565 27.028 42.0481L27.2513 43.4623L27.5153 44.86C27.6714 45.7826 27.9575 46.7304 28.1433 47.6668L28.316 48.3493C28.3997 48.6007 28.4645 48.808 28.5184 49.0456L28.9232 50.4382L29.1256 51.1346C29.1867 51.3519 29.2578 51.5739 29.3388 51.8006L29.8141 53.1907C30.3782 55.0117 31.0833 56.8277 31.7476 58.6601L31.8692 59.0001L32.0313 59.3236L32.2744 60.0035L32.8309 61.3607L33.3875 62.718L33.6414 63.3675L33.9549 64.0449C34.3331 64.9295 34.7114 65.8141 35.1086 66.743C35.4869 67.6276 35.8543 68.5425 36.2732 69.4107C36.6713 70.3046 37.0695 71.1984 37.4676 72.0923C37.8865 72.9605 38.2539 73.8754 38.662 74.7739C39.4889 76.5406 40.3159 78.3073 41.0805 80.1511C39.9175 78.5462 38.8764 76.892 37.8055 75.224C37.2755 74.3747 36.8159 73.523 36.3265 72.6574C35.82 71.8073 35.3306 70.9417 34.8585 70.0605C34.6287 69.6346 34.3989 69.2087 34.1691 68.7829L33.5015 67.4446C33.0528 66.5625 32.6447 65.664 32.2069 64.7516C32.0988 64.5359 31.9906 64.3202 31.8825 64.1046L31.6097 63.4108L31.0234 62.0396L30.437 60.6685L30.1533 60.005L30.0318 59.6651L29.8805 59.3112L28.9002 56.5171C28.5437 55.5718 28.2874 54.6379 28.0013 53.6901L27.5776 52.2532C27.5038 52.0064 27.44 51.7642 27.386 51.5266L27.2243 50.8138L26.9117 49.3579C26.8577 49.1204 26.774 48.8689 26.7499 48.6452L26.6288 47.916L26.3975 46.4273C26.2896 45.9521 26.2631 45.444 26.2257 44.9663L26.0946 43.489L26.0637 42.023C26.0504 41.769 26.0263 41.5453 26.0537 41.2748L26.1032 40.5544L26.1528 39.8341C26.1729 39.5838 26.203 39.3382 26.243 39.0973C26.3686 38.1646 26.6053 37.2129 27.0099 36.3749Z" fill="#27323D"/>
<path d="M27.0099 36.3749C26.9173 36.8274 26.8545 37.2937 26.8214 37.774L26.8017 38.5082C26.796 38.718 26.8093 38.9721 26.8036 39.1819L26.8245 39.8997L26.8752 40.6314C26.9235 41.0788 26.9609 41.5565 27.028 42.0481L27.2513 43.4623L27.5153 44.86C27.6714 45.7826 27.9575 46.7304 28.1433 47.6668L28.316 48.3493C28.3997 48.6007 28.4645 48.808 28.5184 49.0456L28.9232 50.4382L29.1256 51.1346C29.1867 51.3519 29.2578 51.5739 29.3388 51.8006L29.8141 53.1907C30.3782 55.0117 31.0833 56.8277 31.7476 58.6601L31.8692 59.0001L32.0313 59.3236L32.2744 60.0035L32.8309 61.3607L33.3875 62.718L33.6414 63.3675L33.9549 64.0449C34.3331 64.9295 34.7114 65.8141 35.1086 66.743C35.4869 67.6276 35.8543 68.5425 36.2732 69.4107C36.6713 70.3046 37.0695 71.1984 37.4676 72.0923C37.8865 72.9605 38.2539 73.8754 38.662 74.7739C39.4889 76.5406 40.3159 78.3073 41.0805 80.1511C39.9175 78.5462 38.8764 76.892 37.8055 75.224C37.2755 74.3747 36.8159 73.523 36.3265 72.6574C35.82 71.8073 35.3306 70.9417 34.8585 70.0605C34.6287 69.6346 34.3989 69.2087 34.1691 68.7829L33.5015 67.4446C33.0528 66.5625 32.6447 65.664 32.2069 64.7516C32.0988 64.5359 31.9906 64.3202 31.8825 64.1046L31.6097 63.4108L31.0234 62.0396L30.437 60.6685L30.1533 60.005L30.0318 59.6651L29.8805 59.3112L28.9002 56.5171C28.5437 55.5718 28.2874 54.6379 28.0013 53.6901L27.5776 52.2532C27.5038 52.0064 27.44 51.7642 27.386 51.5266L27.2243 50.8138L26.9117 49.3579C26.8577 49.1204 26.774 48.8689 26.7499 48.6452L26.6288 47.916L26.3975 46.4273C26.2896 45.9521 26.2631 45.444 26.2257 44.9663L26.0946 43.489L26.0637 42.023C26.0504 41.769 26.0263 41.5453 26.0537 41.2748L26.1032 40.5544L26.1528 39.8341C26.1729 39.5838 26.203 39.3382 26.243 39.0973C26.3686 38.1646 26.6053 37.2129 27.0099 36.3749Z" fill="#27323D"/>
<path d="M31.1268 32.6375C32.1034 36.3151 32.8687 40.0002 33.5744 43.6575C34.3099 47.3288 34.9749 51.0026 35.6617 54.6157C36.3376 58.2591 37.0434 61.9164 37.8928 65.4638C38.2971 67.2457 38.7719 69.0251 39.3687 70.7552C39.6766 71.6423 40.0061 72.4688 40.4061 73.2927C40.8468 74.1002 41.339 74.861 42.0859 75.4928C41.6472 75.3589 41.2222 75.0897 40.8081 74.7903C40.4274 74.4946 40.0711 74.1631 39.7392 73.7958C39.0655 73.0566 38.4948 72.2238 37.9946 71.3885C37.005 69.6876 36.2187 67.9044 35.5435 66.1024C34.2038 62.4679 33.2788 58.7435 32.5948 55.0255C31.8811 51.2936 31.4084 47.568 31.147 43.8348C31.0163 41.9682 30.9263 40.0851 30.9256 38.2438C30.906 36.3582 30.946 34.5004 31.1268 32.6375Z" fill="#27323D"/>
<path d="M31.1268 32.6375C32.1034 36.3151 32.8687 40.0002 33.5744 43.6575C34.3099 47.3288 34.9749 51.0026 35.6617 54.6157C36.3376 58.2591 37.0434 61.9164 37.8928 65.4638C38.2971 67.2457 38.7719 69.0251 39.3687 70.7552C39.6766 71.6423 40.0061 72.4688 40.4061 73.2927C40.8468 74.1002 41.339 74.861 42.0859 75.4928C41.6472 75.3589 41.2222 75.0897 40.8081 74.7903C40.4274 74.4946 40.0711 74.1631 39.7392 73.7958C39.0655 73.0566 38.4948 72.2238 37.9946 71.3885C37.005 69.6876 36.2187 67.9044 35.5435 66.1024C34.2038 62.4679 33.2788 58.7435 32.5948 55.0255C31.8811 51.2936 31.4084 47.568 31.147 43.8348C31.0163 41.9682 30.9263 40.0851 30.9256 38.2438C30.906 36.3582 30.946 34.5004 31.1268 32.6375Z" fill="#27323D"/>
<path d="M35.4335 29.4378L36.4454 40.3897C36.6041 42.2104 36.7863 44.0303 36.992 45.8493C37.1742 47.6691 37.3971 49.4725 37.6497 51.2898C38.1361 54.8802 38.7227 58.482 39.5721 62.0293C40.0062 63.8251 40.4919 65.5742 41.1293 67.2878C41.7261 69.0179 42.4746 70.7125 43.467 72.3086C42.1357 70.9792 41.1243 69.3389 40.2241 67.6797C39.3456 65.9598 38.6595 64.188 38.0547 62.3834C36.8749 58.788 36.1394 55.1168 35.6558 51.4215C35.5268 50.488 35.4177 49.5638 35.3284 48.6488C35.2427 47.7237 35.1571 46.7986 35.0714 45.8735C34.9398 44.0419 34.8686 42.2031 34.858 40.3571C34.8402 38.5313 34.8693 36.7038 34.9453 34.8747C35.0746 33.0586 35.1742 31.2286 35.4335 29.4378Z" fill="#27323D"/>
<path d="M35.4335 29.4378L36.4454 40.3897C36.6041 42.2104 36.7863 44.0303 36.992 45.8493C37.1742 47.6691 37.3971 49.4725 37.6497 51.2898C38.1361 54.8802 38.7227 58.482 39.5721 62.0293C40.0062 63.8251 40.4919 65.5742 41.1293 67.2878C41.7261 69.0179 42.4746 70.7125 43.467 72.3086C42.1357 70.9792 41.1243 69.3389 40.2241 67.6797C39.3456 65.9598 38.6595 64.188 38.0547 62.3834C36.8749 58.788 36.1394 55.1168 35.6558 51.4215C35.5268 50.488 35.4177 49.5638 35.3284 48.6488C35.2427 47.7237 35.1571 46.7986 35.0714 45.8735C34.9398 44.0419 34.8686 42.2031 34.858 40.3571C34.8402 38.5313 34.8693 36.7038 34.9453 34.8747C35.0746 33.0586 35.1742 31.2286 35.4335 29.4378Z" fill="#27323D"/>
<path d="M39.1147 25.2763C38.7806 26.1117 38.6252 27.0305 38.4698 27.9493C38.437 28.1701 38.4043 28.3908 38.3715 28.6116L38.3116 28.973C38.315 29.0926 38.3086 29.2077 38.2922 29.318L38.1851 30.6842L38.1375 32.0782C38.121 32.3183 38.1045 32.5584 38.0988 32.7682L38.1197 33.4861L38.1128 34.8636C38.1204 35.3274 38.1578 35.8051 38.1952 36.2828L38.2587 37.6578C38.2961 38.1356 38.3443 38.5829 38.4115 39.0745L38.5455 40.447C38.5587 40.701 38.5829 40.9247 38.607 41.1484L38.6983 41.8637L39.0962 44.6339L39.5943 47.4155C39.7021 47.8906 39.7395 48.3683 39.8473 48.8435L40.1519 50.2248L40.7205 53.0038L42.0688 58.5543C42.3188 59.4734 42.5652 60.4027 42.808 61.3421L43.1532 62.707C43.261 63.1821 43.3689 63.6573 43.5174 64.116C44.0409 65.9535 44.5535 67.8214 44.9957 69.6917C44.1281 67.9415 43.3715 66.1723 42.5852 64.3892C42.3961 63.9469 42.2178 63.4742 42.0584 63.0458L41.5426 61.6721C41.1986 60.7563 40.8646 59.8452 40.5406 58.9387C40.2138 58.0073 39.9575 57.0734 39.7012 56.1395C39.4042 55.222 39.1244 54.2889 38.8618 53.3402L38.2039 50.5195L37.8804 49.094C37.7726 48.6188 37.6945 48.1576 37.6274 47.666L37.1212 44.8098C37.0266 43.8451 36.9184 42.8859 36.7966 41.9322L36.7459 41.2005C36.7218 40.9768 36.7085 40.7228 36.6953 40.4687L36.6237 39.0192L36.6028 38.3013C36.5787 38.0776 36.5654 37.8236 36.582 37.5835L36.6106 36.1453L36.6195 35.4414C36.636 35.2012 36.6228 34.9472 36.6691 34.721L36.798 33.2941L36.8475 32.5738C36.8875 32.3328 36.9239 32.1019 36.9566 31.8812L37.1857 30.4657L37.534 29.1058C37.5576 28.9752 37.5875 28.8594 37.6237 28.7583L37.7135 28.4107C37.7932 28.1883 37.8693 27.9759 37.9418 27.7737C37.9654 27.6431 37.9953 27.5273 38.0315 27.4262L38.1809 27.1064L38.4498 26.453L38.7376 25.8438C38.8434 25.6454 38.9791 25.4608 39.1147 25.2763Z" fill="#27323D"/>
<path d="M39.1147 25.2763C38.7806 26.1117 38.6252 27.0305 38.4698 27.9493C38.437 28.1701 38.4043 28.3908 38.3715 28.6116L38.3116 28.973C38.315 29.0926 38.3086 29.2077 38.2922 29.318L38.1851 30.6842L38.1375 32.0782C38.121 32.3183 38.1045 32.5584 38.0988 32.7682L38.1197 33.4861L38.1128 34.8636C38.1204 35.3274 38.1578 35.8051 38.1952 36.2828L38.2587 37.6578C38.2961 38.1356 38.3443 38.5829 38.4115 39.0745L38.5455 40.447C38.5587 40.701 38.5829 40.9247 38.607 41.1484L38.6983 41.8637L39.0962 44.6339L39.5943 47.4155C39.7021 47.8906 39.7395 48.3683 39.8473 48.8435L40.1519 50.2248L40.7205 53.0038L42.0688 58.5543C42.3188 59.4734 42.5652 60.4027 42.808 61.3421L43.1532 62.707C43.261 63.1821 43.3689 63.6573 43.5174 64.116C44.0409 65.9535 44.5535 67.8214 44.9957 69.6917C44.1281 67.9415 43.3715 66.1723 42.5852 64.3892C42.3961 63.9469 42.2178 63.4742 42.0584 63.0458L41.5426 61.6721C41.1986 60.7563 40.8646 59.8452 40.5406 58.9387C40.2138 58.0073 39.9575 57.0734 39.7012 56.1395C39.4042 55.222 39.1244 54.2889 38.8618 53.3402L38.2039 50.5195L37.8804 49.094C37.7726 48.6188 37.6945 48.1576 37.6274 47.666L37.1212 44.8098C37.0266 43.8451 36.9184 42.8859 36.7966 41.9322L36.7459 41.2005C36.7218 40.9768 36.7085 40.7228 36.6953 40.4687L36.6237 39.0192L36.6028 38.3013C36.5787 38.0776 36.5654 37.8236 36.582 37.5835L36.6106 36.1453L36.6195 35.4414C36.636 35.2012 36.6228 34.9472 36.6691 34.721L36.798 33.2941L36.8475 32.5738C36.8875 32.3328 36.9239 32.1019 36.9566 31.8812L37.1857 30.4657L37.534 29.1058C37.5576 28.9752 37.5875 28.8594 37.6237 28.7583L37.7135 28.4107C37.7932 28.1883 37.8693 27.9759 37.9418 27.7737C37.9654 27.6431 37.9953 27.5273 38.0315 27.4262L38.1809 27.1064L38.4498 26.453L38.7376 25.8438C38.8434 25.6454 38.9791 25.4608 39.1147 25.2763Z" fill="#27323D"/>
<path d="M42.2505 25.7539C42.1254 26.1676 42.0139 26.5758 41.9159 26.9785C41.8107 27.4015 41.7254 27.8337 41.6599 28.2752C41.4964 29.1195 41.333 29.9637 41.2399 30.8054C41.0321 32.5495 40.9056 34.2607 40.8387 35.9997C40.7157 39.4473 40.9232 42.943 41.3528 46.4007L41.5085 47.7125L41.7048 49.0079C41.7531 49.4552 41.842 49.8862 41.9012 50.3032L42.1273 51.6125C42.3051 52.4744 42.4423 53.3527 42.6499 54.2285L42.9167 55.5213L43.2241 56.7977C44.0357 60.2566 45.0288 63.694 46.0408 67.1757C44.2564 64.0063 42.8596 60.6283 41.7067 57.1518L41.2991 55.864L40.9321 54.5598C40.6649 53.6563 40.4871 52.7944 40.2606 51.8743C39.886 50.1063 39.552 48.3219 39.3292 46.5185C38.8835 42.9117 38.8306 39.2757 39.2679 35.7269C39.4865 33.9525 39.7945 32.2198 40.2921 30.5401C40.526 29.6934 40.7897 28.8605 41.1129 28.0554C41.4362 27.2503 41.7892 26.4591 42.2505 25.7539Z" fill="#27323D"/>
<path d="M42.2505 25.7539C42.1254 26.1676 42.0139 26.5758 41.9159 26.9785C41.8107 27.4015 41.7254 27.8337 41.6599 28.2752C41.4964 29.1195 41.333 29.9637 41.2399 30.8054C41.0321 32.5495 40.9056 34.2607 40.8387 35.9997C40.7157 39.4473 40.9232 42.943 41.3528 46.4007L41.5085 47.7125L41.7048 49.0079C41.7531 49.4552 41.842 49.8862 41.9012 50.3032L42.1273 51.6125C42.3051 52.4744 42.4423 53.3527 42.6499 54.2285L42.9167 55.5213L43.2241 56.7977C44.0357 60.2566 45.0288 63.694 46.0408 67.1757C44.2564 64.0063 42.8596 60.6283 41.7067 57.1518L41.2991 55.864L40.9321 54.5598C40.6649 53.6563 40.4871 52.7944 40.2606 51.8743C39.886 50.1063 39.552 48.3219 39.3292 46.5185C38.8835 42.9117 38.8306 39.2757 39.2679 35.7269C39.4865 33.9525 39.7945 32.2198 40.2921 30.5401C40.526 29.6934 40.7897 28.8605 41.1129 28.0554C41.4362 27.2503 41.7892 26.4591 42.2505 25.7539Z" fill="#27323D"/>
<path d="M43.3577 22.3708C43.213 25.8791 43.1902 29.3381 43.2677 32.8085C43.3216 36.2797 43.5066 39.7412 43.8224 43.1931C43.9298 44.0575 44.0074 44.908 44.1148 45.7724C44.1925 46.623 44.3297 47.5013 44.4371 48.3657C44.6519 50.0946 44.9073 51.807 45.2224 53.5472C45.8335 56.9834 46.6262 60.398 47.4675 63.8709C46.6458 62.2836 45.9271 60.6029 45.3086 58.9335C44.9898 58.0767 44.7009 57.2337 44.4229 56.3605C44.2933 55.946 44.1746 55.5011 44.045 55.0866C43.9263 54.6418 43.7967 54.2273 43.678 53.7825L43.3409 52.4922C43.2519 52.0612 43.1441 51.586 43.0552 51.1551C42.8476 50.2793 42.7104 49.401 42.5325 48.5391C42.3953 47.6608 42.2284 46.7686 42.1318 45.8738C41.9946 44.9955 41.9279 44.1146 41.8314 43.2199C41.5048 39.6686 41.449 36.1376 41.6642 32.6267C41.8016 30.8852 41.9687 29.1575 42.236 27.4413C42.5332 25.7389 42.8412 24.0062 43.3577 22.3708Z" fill="#27323D"/>
<path d="M43.3577 22.3708C43.213 25.8791 43.1902 29.3381 43.2677 32.8085C43.3216 36.2797 43.5066 39.7412 43.8224 43.1931C43.9298 44.0575 44.0074 44.908 44.1148 45.7724C44.1925 46.623 44.3297 47.5013 44.4371 48.3657C44.6519 50.0946 44.9073 51.807 45.2224 53.5472C45.8335 56.9834 46.6262 60.398 47.4675 63.8709C46.6458 62.2836 45.9271 60.6029 45.3086 58.9335C44.9898 58.0767 44.7009 57.2337 44.4229 56.3605C44.2933 55.946 44.1746 55.5011 44.045 55.0866C43.9263 54.6418 43.7967 54.2273 43.678 53.7825L43.3409 52.4922C43.2519 52.0612 43.1441 51.586 43.0552 51.1551C42.8476 50.2793 42.7104 49.401 42.5325 48.5391C42.3953 47.6608 42.2284 46.7686 42.1318 45.8738C41.9946 44.9955 41.9279 44.1146 41.8314 43.2199C41.5048 39.6686 41.449 36.1376 41.6642 32.6267C41.8016 30.8852 41.9687 29.1575 42.236 27.4413C42.5332 25.7389 42.8412 24.0062 43.3577 22.3708Z" fill="#27323D"/>
<path d="M49.6115 16.9342C49.0823 18.6699 48.6361 20.4326 48.273 22.2221C47.8701 23.9932 47.5341 25.7718 47.2648 27.558C46.9946 29.3792 46.7651 31.1839 46.6358 33C46.5617 33.886 46.4767 34.8022 46.4622 35.716L46.4235 36.406L46.3957 37.0657C46.3626 37.546 46.3405 37.9959 46.3481 38.4597L46.352 39.8069C46.3596 40.2707 46.3673 40.7345 46.3749 41.1983C46.3762 41.6474 46.3874 42.1011 46.4086 42.5594C46.446 43.0372 46.4536 43.501 46.4721 43.9345C46.573 45.7872 46.785 47.6209 46.997 49.4547C47.5103 53.1638 48.2864 56.8186 49.2224 60.5126C47.4952 57.0867 46.2477 53.389 45.4446 49.6154C45.2587 48.6789 45.0728 47.7425 44.9276 46.7896C44.8793 46.3422 44.7715 45.867 44.7341 45.3893L44.5813 43.9726C44.4019 42.0479 44.3227 40.1345 44.3329 38.2628C44.3361 37.7687 44.3692 37.2884 44.3913 36.8385L44.4002 36.1346L44.4498 35.4142C44.5285 34.4832 44.6207 33.5467 44.7265 32.6047C44.9506 30.7503 45.2813 28.9219 45.7185 27.1197C46.1594 25.3074 46.6787 23.567 47.2982 21.8381C47.9773 20.1369 48.6753 18.48 49.6115 16.9342Z" fill="#27323D"/>
<path d="M49.6115 16.9342C49.0823 18.6699 48.6361 20.4326 48.273 22.2221C47.8701 23.9932 47.5341 25.7718 47.2648 27.558C46.9946 29.3792 46.7651 31.1839 46.6358 33C46.5617 33.886 46.4767 34.8022 46.4622 35.716L46.4235 36.406L46.3957 37.0657C46.3626 37.546 46.3405 37.9959 46.3481 38.4597L46.352 39.8069C46.3596 40.2707 46.3673 40.7345 46.3749 41.1983C46.3762 41.6474 46.3874 42.1011 46.4086 42.5594C46.446 43.0372 46.4536 43.501 46.4721 43.9345C46.573 45.7872 46.785 47.6209 46.997 49.4547C47.5103 53.1638 48.2864 56.8186 49.2224 60.5126C47.4952 57.0867 46.2477 53.389 45.4446 49.6154C45.2587 48.6789 45.0728 47.7425 44.9276 46.7896C44.8793 46.3422 44.7715 45.867 44.7341 45.3893L44.5813 43.9726C44.4019 42.0479 44.3227 40.1345 44.3329 38.2628C44.3361 37.7687 44.3692 37.2884 44.3913 36.8385L44.4002 36.1346L44.4498 35.4142C44.5285 34.4832 44.6207 33.5467 44.7265 32.6047C44.9506 30.7503 45.2813 28.9219 45.7185 27.1197C46.1594 25.3074 46.6787 23.567 47.2982 21.8381C47.9773 20.1369 48.6753 18.48 49.6115 16.9342Z" fill="#27323D"/>
<path d="M52.3576 21.1221C52.0074 21.8084 51.7465 22.5364 51.5154 23.2783C51.2844 24.0201 51.1129 24.7898 50.9414 25.5595C50.8105 26.3127 50.639 27.0824 50.5379 27.8495L50.3362 28.9946L50.2239 30.1813L50.0817 31.3541L49.9693 32.5408C49.9278 33.3358 49.8268 34.1029 49.815 34.9118C49.7844 35.6764 49.7429 36.4713 49.7014 37.2662L49.6771 39.6624C49.6356 40.4573 49.6645 41.2497 49.6528 42.0586L49.6691 44.4383C49.7161 46.0534 49.7333 47.6546 49.7803 49.2698C49.8192 50.0668 49.8445 50.8693 49.8562 51.6773L49.9036 52.9032C49.8996 53.3025 49.9091 53.6964 49.9321 54.0848C50.0089 55.7139 50.0559 57.329 50.0622 58.9606C49.6224 57.3745 49.2937 55.7696 48.9461 54.1204C48.7763 53.333 48.6878 52.5128 48.5586 51.7091C48.4331 50.8952 48.3076 50.0813 48.1821 49.2675C48.0638 48.4334 48.0349 47.641 47.9464 46.8208C47.8579 46.0006 47.81 45.164 47.7513 44.3577C47.6926 43.5514 47.6746 42.7286 47.6565 41.9059C47.6384 41.0832 47.6204 40.2604 47.6321 39.4516L47.7079 37.0087C47.7603 36.1834 47.8425 35.372 47.9138 34.591C47.9661 33.7657 48.1079 32.9822 48.2307 32.1544L48.4135 30.9651L48.6667 29.7733C48.7376 29.3815 48.822 28.9842 48.9199 28.5815L49.2327 27.4175C49.434 26.6617 49.7355 25.9173 50.0072 25.159C50.1377 24.795 50.3385 24.4285 50.469 24.0645C50.6292 23.7144 50.83 23.3479 51.02 23.0117C51.1802 22.6616 51.4 22.3393 51.6198 22.017C51.8395 21.6947 52.0891 21.3863 52.3576 21.1221Z" fill="#27323D"/>
<path d="M52.3576 21.1221C52.0074 21.8084 51.7465 22.5364 51.5154 23.2783C51.2844 24.0201 51.1129 24.7898 50.9414 25.5595C50.8105 26.3127 50.639 27.0824 50.5379 27.8495L50.3362 28.9946L50.2239 30.1813L50.0817 31.3541L49.9693 32.5408C49.9278 33.3358 49.8268 34.1029 49.815 34.9118C49.7844 35.6764 49.7429 36.4713 49.7014 37.2662L49.6771 39.6624C49.6356 40.4573 49.6645 41.2497 49.6528 42.0586L49.6691 44.4383C49.7161 46.0534 49.7333 47.6546 49.7803 49.2698C49.8192 50.0668 49.8445 50.8693 49.8562 51.6773L49.9036 52.9032C49.8996 53.3025 49.9091 53.6964 49.9321 54.0848C50.0089 55.7139 50.0559 57.329 50.0622 58.9606C49.6224 57.3745 49.2937 55.7696 48.9461 54.1204C48.7763 53.333 48.6878 52.5128 48.5586 51.7091C48.4331 50.8952 48.3076 50.0813 48.1821 49.2675C48.0638 48.4334 48.0349 47.641 47.9464 46.8208C47.8579 46.0006 47.81 45.164 47.7513 44.3577C47.6926 43.5514 47.6746 42.7286 47.6565 41.9059C47.6384 41.0832 47.6204 40.2604 47.6321 39.4516L47.7079 37.0087C47.7603 36.1834 47.8425 35.372 47.9138 34.591C47.9661 33.7657 48.1079 32.9822 48.2307 32.1544L48.4135 30.9651L48.6667 29.7733C48.7376 29.3815 48.822 28.9842 48.9199 28.5815L49.2327 27.4175C49.434 26.6617 49.7355 25.9173 50.0072 25.159C50.1377 24.795 50.3385 24.4285 50.469 24.0645C50.6292 23.7144 50.83 23.3479 51.02 23.0117C51.1802 22.6616 51.4 22.3393 51.6198 22.017C51.8395 21.6947 52.0891 21.3863 52.3576 21.1221Z" fill="#27323D"/>
<path d="M55.5304 15.2711C55.9165 18.8502 55.9316 22.3977 55.8573 25.9034C55.7685 29.4497 55.5398 32.966 55.1712 36.4525C54.9634 38.1965 54.7556 39.9406 54.4883 41.6569C54.3546 42.515 54.2507 43.3871 54.0872 44.2313C53.9364 45.105 53.7892 45.9686 53.6455 46.8221C53.3186 48.5106 52.9511 50.2155 52.5537 51.9066C52.1563 53.5976 51.6994 55.2608 51.1829 56.8962C51.2607 55.1269 51.4279 53.3993 51.5652 51.6577C51.7026 49.9162 51.9104 48.1721 52.0477 46.4306L52.5898 41.2312L53.1617 36.0458L54.2756 25.661C54.6803 22.2032 55.085 18.7454 55.5304 15.2711Z" fill="#27323D"/>
<path d="M55.5304 15.2711C55.9165 18.8502 55.9316 22.3977 55.8573 25.9034C55.7685 29.4497 55.5398 32.966 55.1712 36.4525C54.9634 38.1965 54.7556 39.9406 54.4883 41.6569C54.3546 42.515 54.2507 43.3871 54.0872 44.2313C53.9364 45.105 53.7892 45.9686 53.6455 46.8221C53.3186 48.5106 52.9511 50.2155 52.5537 51.9066C52.1563 53.5976 51.6994 55.2608 51.1829 56.8962C51.2607 55.1269 51.4279 53.3993 51.5652 51.6577C51.7026 49.9162 51.9104 48.1721 52.0477 46.4306L52.5898 41.2312L53.1617 36.0458L54.2756 25.661C54.6803 22.2032 55.085 18.7454 55.5304 15.2711Z" fill="#27323D"/>
<path d="M67.156 20.7676C65.5443 23.1311 64.022 25.5363 62.6188 27.9971C61.2156 30.4579 59.9018 32.9604 58.7666 35.5463C57.6315 38.1322 56.6046 40.804 55.797 43.5427C54.9488 46.2979 54.3795 49.1479 53.8481 52.0863C53.7974 51.3546 53.6981 50.5647 53.688 49.8165C53.6885 49.4273 53.6889 49.038 53.6785 48.6791L53.7095 47.5252L53.7454 46.9401L53.8002 46.3992L53.9017 45.2428L54.0518 44.1445C54.1155 43.773 54.1791 43.4014 54.2427 43.0298C54.8148 40.075 55.7363 37.2124 56.9149 34.5052C58.1124 31.8422 59.578 29.3043 61.279 26.9825C62.1345 25.8239 63.0423 24.7133 64.0024 23.6507C64.995 22.6269 66.0173 21.617 67.156 20.7676Z" fill="#27323D"/>
<path d="M67.156 20.7676C65.5443 23.1311 64.022 25.5363 62.6188 27.9971C61.2156 30.4579 59.9018 32.9604 58.7666 35.5463C57.6315 38.1322 56.6046 40.804 55.797 43.5427C54.9488 46.2979 54.3795 49.1479 53.8481 52.0863C53.7974 51.3546 53.6981 50.5647 53.688 49.8165C53.6885 49.4273 53.6889 49.038 53.6785 48.6791L53.7095 47.5252L53.7454 46.9401L53.8002 46.3992L53.9017 45.2428L54.0518 44.1445C54.1155 43.773 54.1791 43.4014 54.2427 43.0298C54.8148 40.075 55.7363 37.2124 56.9149 34.5052C58.1124 31.8422 59.578 29.3043 61.279 26.9825C62.1345 25.8239 63.0423 24.7133 64.0024 23.6507C64.995 22.6269 66.0173 21.617 67.156 20.7676Z" fill="#27323D"/>
<path d="M71.0246 17.7204C70.5013 18.1136 70.0159 18.5951 69.5413 19.0464C69.0731 19.5124 68.631 20.0023 68.2151 20.5163C67.3634 21.5351 66.5604 22.6119 65.8467 23.7305C65.1033 24.8352 64.4383 26.0118 63.8031 27.2024C63.6348 27.478 63.4828 27.7729 63.347 28.0871C63.2086 28.3766 63.0294 28.6824 62.891 28.9719L62.4538 29.9008L62.0573 30.8133C61.9215 31.1276 61.7857 31.4419 61.65 31.7562C61.5413 32.0595 61.3919 32.3793 61.2832 32.6826C61.0143 33.336 60.7563 33.9591 60.5579 34.61L60.2209 35.5503L59.8731 36.5209C59.6449 37.1579 59.4762 37.8227 59.2777 38.4736C59.0495 39.1106 58.8808 39.7754 58.6823 40.4262L58.1763 42.4206L57.7 44.4288L57.2536 46.451L55.3773 45.5754C55.4505 45.468 55.4723 45.4073 55.5346 45.3302L55.6703 45.1457C55.768 45.0024 55.862 44.8693 55.9525 44.7463C56.1333 44.5002 56.3142 44.2542 56.495 44.0081C56.8766 43.5253 57.2807 43.0766 57.7074 42.662C58.5156 41.7646 59.4321 40.9531 60.3567 40.2162C61.2812 39.4793 62.2544 38.8005 63.2764 38.1799C64.2847 37.5647 65.322 36.9984 66.388 36.4809C68.5265 35.4607 70.7486 34.692 73.0355 34.1306C75.3224 33.5692 77.6443 33.2011 79.9904 33.0567C77.7332 33.6321 75.495 34.2516 73.3622 35.062C72.2729 35.4505 71.2123 35.888 70.1806 36.3742C69.671 36.6321 69.1426 36.8458 68.633 37.1037C68.1235 37.3615 67.6437 37.6333 67.1233 37.9215C65.1635 39.0251 63.2794 40.3056 61.5712 41.7743C60.7271 42.5133 59.9217 43.3059 59.155 44.1519C58.7753 44.5647 58.4155 44.9869 58.0755 45.4183C57.9019 45.6441 57.7283 45.87 57.5546 46.0958C57.4913 46.2079 57.418 46.3153 57.3349 46.4181L57.229 46.6165L57.1449 46.7543L54.138 51.6532L55.2794 45.8484C55.8459 43.1033 56.5235 40.3393 57.3986 37.7029C58.2846 35.0362 59.2898 32.425 60.563 29.939C61.7955 27.4694 63.2852 25.1551 64.9915 23.0128C65.8577 21.9536 66.7888 20.9719 67.7849 20.0678C68.7746 19.1488 69.832 18.3323 71.0246 17.7204Z" fill="#27323D"/>
<path d="M71.0246 17.7204C70.5013 18.1136 70.0159 18.5951 69.5413 19.0464C69.0731 19.5124 68.631 20.0023 68.2151 20.5163C67.3634 21.5351 66.5604 22.6119 65.8467 23.7305C65.1033 24.8352 64.4383 26.0118 63.8031 27.2024C63.6348 27.478 63.4828 27.7729 63.347 28.0871C63.2086 28.3766 63.0294 28.6824 62.891 28.9719L62.4538 29.9008L62.0573 30.8133C61.9215 31.1276 61.7857 31.4419 61.65 31.7562C61.5413 32.0595 61.3919 32.3793 61.2832 32.6826C61.0143 33.336 60.7563 33.9591 60.5579 34.61L60.2209 35.5503L59.8731 36.5209C59.6449 37.1579 59.4762 37.8227 59.2777 38.4736C59.0495 39.1106 58.8808 39.7754 58.6823 40.4262L58.1763 42.4206L57.7 44.4288L57.2536 46.451L55.3773 45.5754C55.4505 45.468 55.4723 45.4073 55.5346 45.3302L55.6703 45.1457C55.768 45.0024 55.862 44.8693 55.9525 44.7463C56.1333 44.5002 56.3142 44.2542 56.495 44.0081C56.8766 43.5253 57.2807 43.0766 57.7074 42.662C58.5156 41.7646 59.4321 40.9531 60.3567 40.2162C61.2812 39.4793 62.2544 38.8005 63.2764 38.1799C64.2847 37.5647 65.322 36.9984 66.388 36.4809C68.5265 35.4607 70.7486 34.692 73.0355 34.1306C75.3224 33.5692 77.6443 33.2011 79.9904 33.0567C77.7332 33.6321 75.495 34.2516 73.3622 35.062C72.2729 35.4505 71.2123 35.888 70.1806 36.3742C69.671 36.6321 69.1426 36.8458 68.633 37.1037C68.1235 37.3615 67.6437 37.6333 67.1233 37.9215C65.1635 39.0251 63.2794 40.3056 61.5712 41.7743C60.7271 42.5133 59.9217 43.3059 59.155 44.1519C58.7753 44.5647 58.4155 44.9869 58.0755 45.4183C57.9019 45.6441 57.7283 45.87 57.5546 46.0958C57.4913 46.2079 57.418 46.3153 57.3349 46.4181L57.229 46.6165L57.1449 46.7543L54.138 51.6532L55.2794 45.8484C55.8459 43.1033 56.5235 40.3393 57.3986 37.7029C58.2846 35.0362 59.2898 32.425 60.563 29.939C61.7955 27.4694 63.2852 25.1551 64.9915 23.0128C65.8577 21.9536 66.7888 20.9719 67.7849 20.0678C68.7746 19.1488 69.832 18.3323 71.0246 17.7204Z" fill="#27323D"/>
<path d="M72.5674 22.4414C71.2516 24.2703 69.8979 26.0107 68.5741 27.7651C67.2502 29.5194 65.9263 31.2737 64.6918 33.0697C63.4573 34.8658 62.2417 36.706 61.175 38.6158C60.6268 39.5637 60.1083 40.5255 59.6088 41.5315C59.139 42.5515 58.6991 43.5853 58.278 44.6634C58.2604 43.4514 58.4432 42.2622 58.6747 41.131C58.917 39.9696 59.3192 38.8473 59.7402 37.7692C60.5824 35.613 61.7223 33.5959 63.0192 31.7227C64.3052 29.88 65.7889 28.1648 67.3591 26.5962C68.1509 25.8092 68.9852 25.0655 69.8618 24.3653C70.705 23.6612 71.6078 22.985 72.5674 22.4414Z" fill="#27323D"/>
<path d="M72.5674 22.4414C71.2516 24.2703 69.8979 26.0107 68.5741 27.7651C67.2502 29.5194 65.9263 31.2737 64.6918 33.0697C63.4573 34.8658 62.2417 36.706 61.175 38.6158C60.6268 39.5637 60.1083 40.5255 59.6088 41.5315C59.139 42.5515 58.6991 43.5853 58.278 44.6634C58.2604 43.4514 58.4432 42.2622 58.6747 41.131C58.917 39.9696 59.3192 38.8473 59.7402 37.7692C60.5824 35.613 61.7223 33.5959 63.0192 31.7227C64.3052 29.88 65.7889 28.1648 67.3591 26.5962C68.1509 25.8092 68.9852 25.0655 69.8618 24.3653C70.705 23.6612 71.6078 22.985 72.5674 22.4414Z" fill="#27323D"/>
<path d="M58.3044 44.1125C58.5439 43.0559 58.9026 42.0549 59.3506 41.0956C59.7688 40.1224 60.3062 39.2049 60.8734 38.3012C61.9968 36.5241 63.3665 34.9328 64.9121 33.5298C65.3134 33.186 65.7038 32.8725 66.1051 32.5287C66.5253 32.2291 66.9455 31.9295 67.3657 31.63C67.8157 31.3443 68.2359 31.0447 68.7048 30.8033C68.919 30.6908 69.144 30.5479 69.3879 30.4493L70.0709 30.0954C71.0276 29.6567 71.9924 29.2926 72.995 29.017C73.9976 28.7413 74.9973 28.5706 76.0349 28.4883C74.2487 29.4958 72.5437 30.4704 70.8955 31.5777C70.0967 32.1254 69.3104 32.7027 68.5368 33.3094C68.1464 33.6229 67.7669 33.906 67.4062 34.2334C67.0158 34.5469 66.6552 34.8742 66.2945 35.2016C64.8321 36.5018 63.4508 37.8989 62.1508 39.3929C60.8136 40.8932 59.555 42.4656 58.3044 44.1125Z" fill="#27323D"/>
<path d="M58.3044 44.1125C58.5439 43.0559 58.9026 42.0549 59.3506 41.0956C59.7688 40.1224 60.3062 39.2049 60.8734 38.3012C61.9968 36.5241 63.3665 34.9328 64.9121 33.5298C65.3134 33.186 65.7038 32.8725 66.1051 32.5287C66.5253 32.2291 66.9455 31.9295 67.3657 31.63C67.8157 31.3443 68.2359 31.0447 68.7048 30.8033C68.919 30.6908 69.144 30.5479 69.3879 30.4493L70.0709 30.0954C71.0276 29.6567 71.9924 29.2926 72.995 29.017C73.9976 28.7413 74.9973 28.5706 76.0349 28.4883C74.2487 29.4958 72.5437 30.4704 70.8955 31.5777C70.0967 32.1254 69.3104 32.7027 68.5368 33.3094C68.1464 33.6229 67.7669 33.906 67.4062 34.2334C67.0158 34.5469 66.6552 34.8742 66.2945 35.2016C64.8321 36.5018 63.4508 37.8989 62.1508 39.3929C60.8136 40.8932 59.555 42.4656 58.3044 44.1125Z" fill="#27323D"/>
<path d="M55.6296 48.1714C56.2374 47.2513 56.9535 46.4171 57.6993 45.5968C58.4442 44.8114 59.2315 44.0695 60.0612 43.3709C61.7179 41.9489 63.5206 40.7013 65.4478 39.6888C65.9167 39.4473 66.4154 39.2198 66.9249 38.9619C67.4127 38.7647 67.9114 38.5371 68.429 38.3538C69.4453 37.9429 70.4696 37.6066 71.5426 37.3284C73.6669 36.8327 75.9047 36.6024 78.1501 36.8359C76.0717 37.4947 74.0637 38.1508 72.1124 38.9397C71.6246 39.1369 71.1666 39.348 70.6788 39.5453C70.2099 39.7867 69.7221 39.9839 69.264 40.195C68.3136 40.6484 67.3794 41.1212 66.4615 41.6134C64.6157 42.5931 62.8185 43.6309 61.0295 44.7433C59.2404 45.8557 57.4702 47.0123 55.6296 48.1714Z" fill="#27323D"/>
<path d="M55.6296 48.1714C56.2374 47.2513 56.9535 46.4171 57.6993 45.5968C58.4442 44.8114 59.2315 44.0695 60.0612 43.3709C61.7179 41.9489 63.5206 40.7013 65.4478 39.6888C65.9167 39.4473 66.4154 39.2198 66.9249 38.9619C67.4127 38.7647 67.9114 38.5371 68.429 38.3538C69.4453 37.9429 70.4696 37.6066 71.5426 37.3284C73.6669 36.8327 75.9047 36.6024 78.1501 36.8359C76.0717 37.4947 74.0637 38.1508 72.1124 38.9397C71.6246 39.1369 71.1666 39.348 70.6788 39.5453C70.2099 39.7867 69.7221 39.9839 69.264 40.195C68.3136 40.6484 67.3794 41.1212 66.4615 41.6134C64.6157 42.5931 62.8185 43.6309 61.0295 44.7433C59.2404 45.8557 57.4702 47.0123 55.6296 48.1714Z" fill="#27323D"/>
<path d="M52.7516 53.8746C53.0172 53.7154 53.2233 53.5283 53.4403 53.3109L53.7603 53L54.0505 52.6751C54.4437 52.2567 54.8181 51.7941 55.1924 51.3315C55.9004 50.4228 56.5895 49.4698 57.2786 48.5168C57.634 48.01 57.9082 47.536 58.334 47.0266C58.7427 46.5328 59.1775 46.0631 59.6385 45.6173C60.5361 44.7616 61.5609 44.036 62.6234 43.399C64.7675 42.169 67.0818 41.3371 69.4472 40.8477C71.8424 40.3722 74.2995 40.2088 76.7156 40.4512C75.5532 40.6877 74.4097 40.9684 73.2554 41.2794C72.1309 41.6044 71.0063 41.9293 69.9305 42.3124C67.7381 43.095 65.6215 44.0545 63.7293 45.2604C62.7589 45.8343 61.8561 46.5105 61.0318 47.2588C60.6196 47.6329 60.2373 48.021 59.8738 48.4532L59.3232 49.1168L58.7319 49.7968C57.9128 50.7246 57.0152 51.5803 56.0609 52.3033C55.5783 52.68 55.0659 53.0427 54.5157 53.3171C54.2374 53.4468 53.9493 53.572 53.6512 53.6925C53.5157 53.7473 53.3738 53.7874 53.2257 53.8126C53.074 53.8481 52.9223 53.8835 52.7516 53.8746Z" fill="#27323D"/>
<path d="M52.7516 53.8746C53.0172 53.7154 53.2233 53.5283 53.4403 53.3109L53.7603 53L54.0505 52.6751C54.4437 52.2567 54.8181 51.7941 55.1924 51.3315C55.9004 50.4228 56.5895 49.4698 57.2786 48.5168C57.634 48.01 57.9082 47.536 58.334 47.0266C58.7427 46.5328 59.1775 46.0631 59.6385 45.6173C60.5361 44.7616 61.5609 44.036 62.6234 43.399C64.7675 42.169 67.0818 41.3371 69.4472 40.8477C71.8424 40.3722 74.2995 40.2088 76.7156 40.4512C75.5532 40.6877 74.4097 40.9684 73.2554 41.2794C72.1309 41.6044 71.0063 41.9293 69.9305 42.3124C67.7381 43.095 65.6215 44.0545 63.7293 45.2604C62.7589 45.8343 61.8561 46.5105 61.0318 47.2588C60.6196 47.6329 60.2373 48.021 59.8738 48.4532L59.3232 49.1168L58.7319 49.7968C57.9128 50.7246 57.0152 51.5803 56.0609 52.3033C55.5783 52.68 55.0659 53.0427 54.5157 53.3171C54.2374 53.4468 53.9493 53.572 53.6512 53.6925C53.5157 53.7473 53.3738 53.7874 53.2257 53.8126C53.074 53.8481 52.9223 53.8835 52.7516 53.8746Z" fill="#27323D"/>
<path d="M50.8521 57.2419C51.3837 56.6638 51.9478 56.1245 52.5443 55.624C53.1282 55.0939 53.7147 54.5888 54.304 54.1084C55.5295 53.1461 56.7838 52.2326 58.0669 51.368C59.3275 50.4693 60.6558 49.6729 62.0138 48.8905C62.6779 48.4923 63.3609 48.1383 64.044 47.7844C64.7505 47.4296 65.4533 47.0849 66.1526 46.7503C66.8545 46.4406 67.5565 46.1308 68.2882 45.835C69.0199 45.5392 69.7517 45.2434 70.4725 44.9779C71.9738 44.4747 73.4831 44.046 75.0302 43.7059C76.5963 43.4099 78.1704 43.1886 79.7984 43.2048L81.0038 43.2362C81.412 43.2614 81.8128 43.3069 82.2064 43.3726C82.6371 43.4319 83.0162 43.538 83.436 43.6277C83.835 43.7431 84.2204 43.8639 84.5923 43.9902C82.994 43.9879 81.5202 44.2207 80.0326 44.5886C78.5559 44.9262 77.1468 45.3662 75.7159 45.8669C74.9951 46.1324 74.304 46.4118 73.6238 46.6608C72.9219 46.9706 72.2119 47.2057 71.5397 47.5293C70.1503 48.1083 68.7699 48.7269 67.3985 49.3851C66.0353 49.9882 64.6503 50.6518 63.2951 51.3294L59.1809 53.304C56.4407 54.6453 53.7006 55.9865 50.8521 57.2419Z" fill="#27323D"/>
<path d="M50.8521 57.2419C51.3837 56.6638 51.9478 56.1245 52.5443 55.624C53.1282 55.0939 53.7147 54.5888 54.304 54.1084C55.5295 53.1461 56.7838 52.2326 58.0669 51.368C59.3275 50.4693 60.6558 49.6729 62.0138 48.8905C62.6779 48.4923 63.3609 48.1383 64.044 47.7844C64.7505 47.4296 65.4533 47.0849 66.1526 46.7503C66.8545 46.4406 67.5565 46.1308 68.2882 45.835C69.0199 45.5392 69.7517 45.2434 70.4725 44.9779C71.9738 44.4747 73.4831 44.046 75.0302 43.7059C76.5963 43.4099 78.1704 43.1886 79.7984 43.2048L81.0038 43.2362C81.412 43.2614 81.8128 43.3069 82.2064 43.3726C82.6371 43.4319 83.0162 43.538 83.436 43.6277C83.835 43.7431 84.2204 43.8639 84.5923 43.9902C82.994 43.9879 81.5202 44.2207 80.0326 44.5886C78.5559 44.9262 77.1468 45.3662 75.7159 45.8669C74.9951 46.1324 74.304 46.4118 73.6238 46.6608C72.9219 46.9706 72.2119 47.2057 71.5397 47.5293C70.1503 48.1083 68.7699 48.7269 67.3985 49.3851C66.0353 49.9882 64.6503 50.6518 63.2951 51.3294L59.1809 53.304C56.4407 54.6453 53.7006 55.9865 50.8521 57.2419Z" fill="#27323D"/>
<path d="M48.8642 60.4543C51.2828 58.3611 53.9151 56.5447 56.6042 54.8609C59.323 53.1911 62.1095 51.6236 65.0203 50.2912C67.9013 48.9449 70.8986 47.759 74.0662 46.9712C75.6242 46.6007 77.2607 46.3023 78.9105 46.2578C79.7259 46.2135 80.5791 46.2576 81.3998 46.3927C82.2313 46.4975 83.068 46.7817 83.8206 47.2037C83.4008 47.1141 83.0217 47.008 82.61 46.9929C82.4096 46.9701 82.1983 46.9777 82.0276 46.9689C81.8199 46.9664 81.6222 46.9686 81.4344 46.9753C80.6361 47.0041 79.8558 47.112 79.0935 47.2992C77.5572 47.609 76.0777 48.0515 74.5953 48.5989C71.6524 49.6331 68.7931 50.9188 65.9527 52.2487C63.0826 53.5647 60.2611 54.9388 57.4288 56.3432C54.5965 57.7477 51.7641 59.1522 48.8642 60.4543Z" fill="#27323D"/>
<path d="M48.8642 60.4543C51.2828 58.3611 53.9151 56.5447 56.6042 54.8609C59.323 53.1911 62.1095 51.6236 65.0203 50.2912C67.9013 48.9449 70.8986 47.759 74.0662 46.9712C75.6242 46.6007 77.2607 46.3023 78.9105 46.2578C79.7259 46.2135 80.5791 46.2576 81.3998 46.3927C82.2313 46.4975 83.068 46.7817 83.8206 47.2037C83.4008 47.1141 83.0217 47.008 82.61 46.9929C82.4096 46.9701 82.1983 46.9777 82.0276 46.9689C81.8199 46.9664 81.6222 46.9686 81.4344 46.9753C80.6361 47.0041 79.8558 47.112 79.0935 47.2992C77.5572 47.609 76.0777 48.0515 74.5953 48.5989C71.6524 49.6331 68.7931 50.9188 65.9527 52.2487C63.0826 53.5647 60.2611 54.9388 57.4288 56.3432C54.5965 57.7477 51.7641 59.1522 48.8642 60.4543Z" fill="#27323D"/>
<path d="M46.8684 65.0445C47.964 63.9272 49.157 62.9261 50.3689 61.9692C51.5673 61.0179 52.8081 60.1099 54.0912 59.2453C56.6377 57.5068 59.2869 55.9343 62.0388 54.5277C62.711 54.2041 63.4238 53.864 64.1366 53.524C64.8286 53.2096 65.5306 52.8999 66.2424 52.5948C67.695 52.0335 69.1476 51.4722 70.6569 51.0435C72.1662 50.6149 73.6836 50.2608 75.2766 50.0837C75.4879 50.0761 75.6694 50.0546 75.851 50.0331L76.4551 49.9963C76.6664 49.9887 76.8777 49.9811 77.0592 49.9596L77.6714 49.9974C78.0533 49.9987 78.484 50.058 78.8848 50.1034C78.985 50.1148 79.0853 50.1262 79.1855 50.1375L79.4753 50.2019C79.6811 50.2744 79.8805 50.3321 80.0737 50.375C78.4916 50.5218 77.0527 50.9479 75.6516 51.4625C74.2208 51.9631 72.8684 52.5358 71.4943 53.1691C70.1176 53.7776 68.7534 54.4156 67.4018 55.0831C66.7188 55.437 66.0466 55.7606 65.3745 56.0843C64.7023 56.4079 64.0193 56.7618 63.3363 57.1158C60.6557 58.4848 57.9453 59.84 55.2349 61.1951C52.4948 62.5364 49.7249 63.8638 46.8684 65.0445Z" fill="#27323D"/>
<path d="M46.8684 65.0445C47.964 63.9272 49.157 62.9261 50.3689 61.9692C51.5673 61.0179 52.8081 60.1099 54.0912 59.2453C56.6377 57.5068 59.2869 55.9343 62.0388 54.5277C62.711 54.2041 63.4238 53.864 64.1366 53.524C64.8286 53.2096 65.5306 52.8999 66.2424 52.5948C67.695 52.0335 69.1476 51.4722 70.6569 51.0435C72.1662 50.6149 73.6836 50.2608 75.2766 50.0837C75.4879 50.0761 75.6694 50.0546 75.851 50.0331L76.4551 49.9963C76.6664 49.9887 76.8777 49.9811 77.0592 49.9596L77.6714 49.9974C78.0533 49.9987 78.484 50.058 78.8848 50.1034C78.985 50.1148 79.0853 50.1262 79.1855 50.1375L79.4753 50.2019C79.6811 50.2744 79.8805 50.3321 80.0737 50.375C78.4916 50.5218 77.0527 50.9479 75.6516 51.4625C74.2208 51.9631 72.8684 52.5358 71.4943 53.1691C70.1176 53.7776 68.7534 54.4156 67.4018 55.0831C66.7188 55.437 66.0466 55.7606 65.3745 56.0843C64.7023 56.4079 64.0193 56.7618 63.3363 57.1158C60.6557 58.4848 57.9453 59.84 55.2349 61.1951C52.4948 62.5364 49.7249 63.8638 46.8684 65.0445Z" fill="#27323D"/>
<path d="M44.7234 68.895C47.2177 66.9788 49.885 65.3557 52.6308 63.8046C55.3359 62.27 58.1276 60.882 61.0167 59.6102C61.7286 59.3051 62.4504 59.0047 63.1821 58.7089C63.9138 58.413 64.6455 58.1172 65.3664 57.8517C66.8379 57.3346 68.3391 56.8314 69.8782 56.4167C71.4173 56.002 72.9645 55.6618 74.5575 55.4847C75.3838 55.41 76.1803 55.3214 76.9929 55.382C77.7975 55.368 78.6181 55.5031 79.425 55.7734C79.0133 55.7583 78.6125 55.7129 78.2385 55.7862C78.0272 55.7938 77.8457 55.8153 77.6533 55.8672L77.0681 55.9481C76.3203 56.0948 75.5716 56.2765 74.8219 56.4931C73.3423 56.9357 71.9006 57.4667 70.448 58.028C69.0361 58.5729 67.6025 59.1784 66.1797 59.7536C65.4678 60.0587 64.7559 60.3638 64.0441 60.6689C63.3123 60.9647 62.6104 61.2745 61.9084 61.5842L53.3741 65.3198C50.5257 66.5752 47.6583 67.7863 44.7234 68.895Z" fill="#27323D"/>
<path d="M44.7234 68.895C47.2177 66.9788 49.885 65.3557 52.6308 63.8046C55.3359 62.27 58.1276 60.882 61.0167 59.6102C61.7286 59.3051 62.4504 59.0047 63.1821 58.7089C63.9138 58.413 64.6455 58.1172 65.3664 57.8517C66.8379 57.3346 68.3391 56.8314 69.8782 56.4167C71.4173 56.002 72.9645 55.6618 74.5575 55.4847C75.3838 55.41 76.1803 55.3214 76.9929 55.382C77.7975 55.368 78.6181 55.5031 79.425 55.7734C79.0133 55.7583 78.6125 55.7129 78.2385 55.7862C78.0272 55.7938 77.8457 55.8153 77.6533 55.8672L77.0681 55.9481C76.3203 56.0948 75.5716 56.2765 74.8219 56.4931C73.3423 56.9357 71.9006 57.4667 70.448 58.028C69.0361 58.5729 67.6025 59.1784 66.1797 59.7536C65.4678 60.0587 64.7559 60.3638 64.0441 60.6689C63.3123 60.9647 62.6104 61.2745 61.9084 61.5842L53.3741 65.3198C50.5257 66.5752 47.6583 67.7863 44.7234 68.895Z" fill="#27323D"/>
<path d="M43.1109 72.2484C44.6693 71.4887 46.2576 70.7428 47.7862 69.9692C49.3555 69.1791 50.8842 68.4054 52.3642 67.5737C53.1394 67.1565 53.855 66.7116 54.6302 66.2944C55.3458 65.8494 56.0912 65.4184 56.788 64.9292C57.5036 64.4843 58.1705 63.9812 58.8673 63.492L59.8433 62.7083C59.9979 62.568 60.1524 62.4277 60.307 62.2874L60.7409 61.8526L61.2046 61.4317C61.4107 61.2446 61.5652 61.1043 61.7604 60.9476C62.1237 60.6451 62.4934 60.3573 62.8693 60.0843C63.6662 59.6064 64.4523 59.159 65.306 58.8138C66.9646 58.0654 68.7259 57.6128 70.5222 57.3534C74.1119 56.9397 77.8119 57.2855 81.3025 58.3125C77.7486 58.1411 74.2458 58.3122 70.8996 59.0166C69.2603 59.4199 67.6588 59.9118 66.1708 60.669C65.8049 60.8169 65.4471 61.0394 65.1002 61.2315C64.8969 61.3137 64.7423 61.454 64.5689 61.55C64.3954 61.6461 64.2111 61.7725 64.0674 61.8825C63.7258 62.1243 63.404 62.3755 63.1022 62.6358C62.9585 62.7458 62.8039 62.8861 62.69 63.01L62.1748 63.4777C61.524 64.1299 60.8055 64.6797 60.0871 65.2296C59.3497 65.7352 58.6123 66.2408 57.856 66.7022C57.0997 67.1636 56.2948 67.5668 55.5304 67.9536C54.7254 68.3569 53.9611 68.7437 53.1372 69.1028C51.5238 69.7896 49.8788 70.4028 48.2023 70.9422C46.5304 71.4366 44.8585 71.931 43.1109 72.2484Z" fill="#27323D"/>
<path d="M43.1109 72.2484C44.6693 71.4887 46.2576 70.7428 47.7862 69.9692C49.3555 69.1791 50.8842 68.4054 52.3642 67.5737C53.1394 67.1565 53.855 66.7116 54.6302 66.2944C55.3458 65.8494 56.0912 65.4184 56.788 64.9292C57.5036 64.4843 58.1705 63.9812 58.8673 63.492L59.8433 62.7083C59.9979 62.568 60.1524 62.4277 60.307 62.2874L60.7409 61.8526L61.2046 61.4317C61.4107 61.2446 61.5652 61.1043 61.7604 60.9476C62.1237 60.6451 62.4934 60.3573 62.8693 60.0843C63.6662 59.6064 64.4523 59.159 65.306 58.8138C66.9646 58.0654 68.7259 57.6128 70.5222 57.3534C74.1119 56.9397 77.8119 57.2855 81.3025 58.3125C77.7486 58.1411 74.2458 58.3122 70.8996 59.0166C69.2603 59.4199 67.6588 59.9118 66.1708 60.669C65.8049 60.8169 65.4471 61.0394 65.1002 61.2315C64.8969 61.3137 64.7423 61.454 64.5689 61.55C64.3954 61.6461 64.2111 61.7725 64.0674 61.8825C63.7258 62.1243 63.404 62.3755 63.1022 62.6358C62.9585 62.7458 62.8039 62.8861 62.69 63.01L62.1748 63.4777C61.524 64.1299 60.8055 64.6797 60.0871 65.2296C59.3497 65.7352 58.6123 66.2408 57.856 66.7022C57.0997 67.1636 56.2948 67.5668 55.5304 67.9536C54.7254 68.3569 53.9611 68.7437 53.1372 69.1028C51.5238 69.7896 49.8788 70.4028 48.2023 70.9422C46.5304 71.4366 44.8585 71.931 43.1109 72.2484Z" fill="#27323D"/>
<path d="M41.5303 76.3598C42.9563 75.2905 44.4689 74.3677 45.9814 73.4449C47.4795 72.5626 49.0137 71.7089 50.5839 70.8838C53.7226 69.3037 56.9288 67.8259 60.1998 66.5553C63.5006 65.2987 66.8582 64.1747 70.3372 63.3907C72.0876 62.9683 73.8352 62.6509 75.6395 62.4661C76.5362 62.3889 77.4519 62.356 78.3567 62.3533C78.809 62.352 79.2803 62.3949 79.7219 62.4239C79.9629 62.4302 80.1932 62.4668 80.4234 62.5034C80.6437 62.5354 80.8739 62.572 81.114 62.6133C79.3177 62.8726 77.6567 63.3366 75.9739 63.8613C74.3317 64.3696 72.6977 64.9524 71.0636 65.5353C67.7954 66.7009 64.5541 67.9854 61.3238 69.2395C58.0636 70.4797 54.7926 71.7502 51.5433 72.9601C48.2345 74.1422 44.9445 75.3685 41.5303 76.3598Z" fill="#27323D"/>
<path d="M41.5303 76.3598C42.9563 75.2905 44.4689 74.3677 45.9814 73.4449C47.4795 72.5626 49.0137 71.7089 50.5839 70.8838C53.7226 69.3037 56.9288 67.8259 60.1998 66.5553C63.5006 65.2987 66.8582 64.1747 70.3372 63.3907C72.0876 62.9683 73.8352 62.6509 75.6395 62.4661C76.5362 62.3889 77.4519 62.356 78.3567 62.3533C78.809 62.352 79.2803 62.3949 79.7219 62.4239C79.9629 62.4302 80.1932 62.4668 80.4234 62.5034C80.6437 62.5354 80.8739 62.572 81.114 62.6133C79.3177 62.8726 77.6567 63.3366 75.9739 63.8613C74.3317 64.3696 72.6977 64.9524 71.0636 65.5353C67.7954 66.7009 64.5541 67.9854 61.3238 69.2395C58.0636 70.4797 54.7926 71.7502 51.5433 72.9601C48.2345 74.1422 44.9445 75.3685 41.5303 76.3598Z" fill="#27323D"/>
<path d="M40.4889 78.782C43.3993 77.8388 46.3177 76.9702 49.2361 76.1016C52.141 75.2385 55.0296 74.356 57.902 73.4541C60.7717 72.5273 63.6226 71.5563 66.4545 70.5411C69.2972 69.4956 72.0913 68.3919 74.918 67.1973C72.5537 69.1388 69.8972 70.7315 67.1462 72.1031C64.4169 73.414 61.5416 74.5506 58.6312 75.4937C55.692 76.3881 52.7132 77.1341 49.6948 77.7318C48.1803 77.981 46.6658 78.2302 45.1323 78.4351C43.6097 78.6097 42.0574 78.7704 40.4889 78.782Z" fill="#27323D"/>
<path d="M40.4889 78.782C43.3993 77.8388 46.3177 76.9702 49.2361 76.1016C52.141 75.2385 55.0296 74.356 57.902 73.4541C60.7717 72.5273 63.6226 71.5563 66.4545 70.5411C69.2972 69.4956 72.0913 68.3919 74.918 67.1973C72.5537 69.1388 69.8972 70.7315 67.1462 72.1031C64.4169 73.414 61.5416 74.5506 58.6312 75.4937C55.692 76.3881 52.7132 77.1341 49.6948 77.7318C48.1803 77.981 46.6658 78.2302 45.1323 78.4351C43.6097 78.6097 42.0574 78.7704 40.4889 78.782Z" fill="#27323D"/>
<path d="M39.1249 82.1085C40.6484 81.1554 42.2962 80.4374 43.9926 79.7774C45.708 79.1617 47.4315 78.6206 49.2306 78.2564C49.6858 78.1502 50.1301 78.0743 50.5745 77.9984C51.0261 77.9023 51.4803 77.831 51.9373 77.7846L53.3001 77.5709L54.6898 77.4759C54.912 77.438 55.1233 77.4303 55.3753 77.4063L56.0796 77.3809L57.4476 77.3466L58.8644 77.3704L59.5767 77.4196C59.8178 77.4259 60.0182 77.4487 60.2295 77.441C61.1126 77.4991 61.9876 77.4825 62.8734 77.4356C63.7583 77.4237 64.6442 77.3768 65.531 77.295C66.3979 77.2039 67.2757 77.0825 68.1536 76.961C69.0224 76.8 69.8849 76.6242 70.7411 76.4337C74.1904 75.6357 77.4723 74.3349 80.5083 72.459C78.0051 75.0792 74.7389 76.9184 71.2703 78.0614C69.536 78.6328 67.726 79.0274 65.8891 79.3031C64.063 79.5486 62.1911 79.6309 60.3031 79.5642C60.062 79.5579 59.8209 79.5516 59.5907 79.515L58.9379 79.4936L57.6025 79.4369L56.2751 79.4548L55.5816 79.4498L54.9179 79.4588L53.5797 79.507L52.2495 79.6297C51.8269 79.645 51.3825 79.7208 50.9193 79.7525C50.4858 79.7981 50.0523 79.8436 49.6189 79.8892C47.8335 80.1181 46.0859 80.4356 44.3274 80.7834C42.5753 81.1459 40.8411 81.5876 39.1249 82.1085Z" fill="#27323D"/>
<path d="M39.1249 82.1085C40.6484 81.1554 42.2962 80.4374 43.9926 79.7774C45.708 79.1617 47.4315 78.6206 49.2306 78.2564C49.6858 78.1502 50.1301 78.0743 50.5745 77.9984C51.0261 77.9023 51.4803 77.831 51.9373 77.7846L53.3001 77.5709L54.6898 77.4759C54.912 77.438 55.1233 77.4303 55.3753 77.4063L56.0796 77.3809L57.4476 77.3466L58.8644 77.3704L59.5767 77.4196C59.8178 77.4259 60.0182 77.4487 60.2295 77.441C61.1126 77.4991 61.9876 77.4825 62.8734 77.4356C63.7583 77.4237 64.6442 77.3768 65.531 77.295C66.3979 77.2039 67.2757 77.0825 68.1536 76.961C69.0224 76.8 69.8849 76.6242 70.7411 76.4337C74.1904 75.6357 77.4723 74.3349 80.5083 72.459C78.0051 75.0792 74.7389 76.9184 71.2703 78.0614C69.536 78.6328 67.726 79.0274 65.8891 79.3031C64.063 79.5486 62.1911 79.6309 60.3031 79.5642C60.062 79.5579 59.8209 79.5516 59.5907 79.515L58.9379 79.4936L57.6025 79.4369L56.2751 79.4548L55.5816 79.4498L54.9179 79.4588L53.5797 79.507L52.2495 79.6297C51.8269 79.645 51.3825 79.7208 50.9193 79.7525C50.4858 79.7981 50.0523 79.8436 49.6189 79.8892C47.8335 80.1181 46.0859 80.4356 44.3274 80.7834C42.5753 81.1459 40.8411 81.5876 39.1249 82.1085Z" fill="#27323D"/>
<path d="M37.5567 87.2525C38.1882 86.9453 38.8954 86.815 39.5917 86.7151C40.2988 86.5848 41.0032 86.5594 41.7075 86.5341C43.1162 86.4833 44.5518 86.5514 45.9548 86.7104C46.2961 86.7281 46.6672 86.7596 47.0274 86.8215L48.0892 86.9629C48.7689 87.1031 49.5002 87.1965 50.18 87.3367C50.8787 87.5211 51.5693 87.631 52.268 87.8154C52.9667 87.9998 53.6654 88.1843 54.3641 88.3687L54.3939 88.3826L54.4643 88.3801L54.643 88.4634L54.8326 88.5165C54.9589 88.5519 55.0952 88.5919 55.2415 88.6365C55.5204 88.7312 55.7804 88.7818 56.0702 88.8462C56.6389 89.0053 57.2184 89.1342 57.7791 89.2188C58.949 89.4461 60.1001 89.6292 61.254 89.7074L61.6955 89.7364L62.1371 89.7654C62.4486 89.7692 62.7086 89.8197 63.0201 89.8234C63.3217 89.8226 63.6097 89.8272 63.8842 89.8372C64.1957 89.841 64.4775 89.8308 64.789 89.8346C65.9755 89.8218 67.1648 89.7041 68.4028 89.6445C67.3511 90.2513 66.2616 90.7696 65.0855 91.1413C63.9095 91.513 62.6875 91.7217 61.4278 91.8419C60.1978 91.9761 58.9219 91.9472 57.6489 91.8134C57.0205 91.7562 56.3795 91.6695 55.7259 91.5533C55.4063 91.475 55.1057 91.4409 54.7861 91.3626C54.62 91.3087 54.4539 91.2548 54.2878 91.2009L54.0576 91.1643C53.9683 91.1226 53.8789 91.0809 53.7787 91.0695L53.8789 91.0809C53.2001 90.9057 52.5213 90.7306 51.8424 90.5554L49.8059 90.0299L45.7736 88.9626C44.4159 88.6122 43.051 88.2821 41.6788 87.9723C40.3301 87.6616 38.9517 87.3369 37.5567 87.2525Z" fill="#27323D"/>
<path d="M37.5567 87.2525C38.1882 86.9453 38.8954 86.815 39.5917 86.7151C40.2988 86.5848 41.0032 86.5594 41.7075 86.5341C43.1162 86.4833 44.5518 86.5514 45.9548 86.7104C46.2961 86.7281 46.6672 86.7596 47.0274 86.8215L48.0892 86.9629C48.7689 87.1031 49.5002 87.1965 50.18 87.3367C50.8787 87.5211 51.5693 87.631 52.268 87.8154C52.9667 87.9998 53.6654 88.1843 54.3641 88.3687L54.3939 88.3826L54.4643 88.3801L54.643 88.4634L54.8326 88.5165C54.9589 88.5519 55.0952 88.5919 55.2415 88.6365C55.5204 88.7312 55.7804 88.7818 56.0702 88.8462C56.6389 89.0053 57.2184 89.1342 57.7791 89.2188C58.949 89.4461 60.1001 89.6292 61.254 89.7074L61.6955 89.7364L62.1371 89.7654C62.4486 89.7692 62.7086 89.8197 63.0201 89.8234C63.3217 89.8226 63.6097 89.8272 63.8842 89.8372C64.1957 89.841 64.4775 89.8308 64.789 89.8346C65.9755 89.8218 67.1648 89.7041 68.4028 89.6445C67.3511 90.2513 66.2616 90.7696 65.0855 91.1413C63.9095 91.513 62.6875 91.7217 61.4278 91.8419C60.1978 91.9761 58.9219 91.9472 57.6489 91.8134C57.0205 91.7562 56.3795 91.6695 55.7259 91.5533C55.4063 91.475 55.1057 91.4409 54.7861 91.3626C54.62 91.3087 54.4539 91.2548 54.2878 91.2009L54.0576 91.1643C53.9683 91.1226 53.8789 91.0809 53.7787 91.0695L53.8789 91.0809C53.2001 90.9057 52.5213 90.7306 51.8424 90.5554L49.8059 90.0299L45.7736 88.9626C44.4159 88.6122 43.051 88.2821 41.6788 87.9723C40.3301 87.6616 38.9517 87.3369 37.5567 87.2525Z" fill="#27323D"/>
<path d="M54.9097 50.2796C52.3042 54.8346 49.8962 59.5173 47.6372 64.2695C45.3782 69.0217 43.2979 73.8573 41.5045 78.8622C40.5835 81.3355 39.7816 83.8645 39.0799 86.4048C38.7372 87.6847 38.4279 88.9683 38.152 90.2558C37.8688 91.5634 37.6362 92.8592 37.4542 94.1433C37.2984 95.4513 37.1723 96.7733 37.1574 98.0763C37.1424 99.3793 37.2276 100.694 37.4457 101.928C37.6935 103.177 38.0742 104.346 38.6094 105.375C39.1853 106.387 39.9564 107.242 40.8442 107.869L39.1943 110.533C37.8843 109.533 36.7752 108.165 36.0508 106.694C35.3264 105.223 34.9462 103.665 34.7555 102.16C34.5242 100.671 34.5339 99.1888 34.6222 97.7784C34.6915 96.3237 34.8799 94.9247 35.128 93.5534C35.3787 92.207 35.6826 90.8737 36.0398 89.5534C36.3772 88.2238 36.7642 86.9174 37.2008 85.6342C38.0136 83.0749 38.9861 80.5547 40.0372 78.1066C42.0796 73.1826 44.4389 68.4417 46.9253 63.8311C49.4225 59.1901 52.0579 54.6489 54.8799 50.2657L54.9097 50.2796Z" fill="#27323D"/>
<path d="M54.9097 50.2796C52.3042 54.8346 49.8962 59.5173 47.6372 64.2695C45.3782 69.0217 43.2979 73.8573 41.5045 78.8622C40.5835 81.3355 39.7816 83.8645 39.0799 86.4048C38.7372 87.6847 38.4279 88.9683 38.152 90.2558C37.8688 91.5634 37.6362 92.8592 37.4542 94.1433C37.2984 95.4513 37.1723 96.7733 37.1574 98.0763C37.1424 99.3793 37.2276 100.694 37.4457 101.928C37.6935 103.177 38.0742 104.346 38.6094 105.375C39.1853 106.387 39.9564 107.242 40.8442 107.869L39.1943 110.533C37.8843 109.533 36.7752 108.165 36.0508 106.694C35.3264 105.223 34.9462 103.665 34.7555 102.16C34.5242 100.671 34.5339 99.1888 34.6222 97.7784C34.6915 96.3237 34.8799 94.9247 35.128 93.5534C35.3787 92.207 35.6826 90.8737 36.0398 89.5534C36.3772 88.2238 36.7642 86.9174 37.2008 85.6342C38.0136 83.0749 38.9861 80.5547 40.0372 78.1066C42.0796 73.1826 44.4389 68.4417 46.9253 63.8311C49.4225 59.1901 52.0579 54.6489 54.8799 50.2657L54.9097 50.2796Z" fill="#27323D"/>
</svg>
