<svg width="131" height="148" viewBox="0 0 131 148" fill="none" xmlns="http://www.w3.org/2000/svg">
<g id="undraw_happy_news_re_tsbd 1" clip-path="url(#clip0_70_2818)">
<path id="Vector" d="M84.2205 109.576C84.5145 109.732 84.8497 109.795 85.1807 109.755C85.5117 109.715 85.8224 109.576 86.0708 109.354C86.3192 109.133 86.4933 108.841 86.5695 108.518C86.6457 108.195 86.6202 107.856 86.4966 107.548C86.5297 107.384 86.5535 107.266 86.5866 107.102C87.2227 106.512 88.0215 106.123 88.8807 105.987C89.7399 105.851 90.6204 105.973 91.4092 106.339C92.1981 106.704 92.8594 107.295 93.3084 108.037C93.7573 108.779 93.9735 109.637 93.9292 110.502C93.7279 115.38 93.97 120.644 90.713 124.577C105.578 112.485 112.356 91.8852 107.816 73.3579C105.589 70.2681 104.55 66.1634 105.549 62.4437C106.802 63.6574 109.246 63.3313 108.872 61.2304C108.672 60.4 108.465 59.5722 108.265 58.7419C116.826 55.4161 119.062 68.0889 108.92 73.2486C109.743 76.771 110.193 80.3694 110.264 83.985C111.409 80.7248 113.315 77.7817 115.826 75.3979C118.256 73.2194 121.47 71.9384 124.46 70.4768C128.098 68.6936 132.136 72.2288 130.704 76.0028C128.282 75.6944 126.568 78.5761 128.766 80.1248C124.906 86.5784 117.504 90.6804 109.984 90.7455C109.223 98.1094 106.894 105.227 103.153 111.625C107.957 104.353 117.255 106.447 124.602 106.137C125.09 106.076 125.585 106.157 126.026 106.371C126.468 106.585 126.838 106.922 127.09 107.342C127.343 107.762 127.467 108.245 127.448 108.734C127.429 109.223 127.268 109.696 126.984 110.095C126.017 110.038 125.047 110.077 124.089 110.212C123.638 110.278 123.218 110.482 122.888 110.795C122.558 111.108 122.334 111.515 122.245 111.96C122.156 112.405 122.208 112.867 122.393 113.282C122.579 113.696 122.888 114.044 123.28 114.276C116.834 120.158 106.847 121.423 99.0082 117.669C96.6906 120.575 94.076 123.234 91.2064 125.602L79.5528 120.072C79.5727 119.923 79.5988 119.772 79.6229 119.625C80.6693 120.205 81.783 120.654 82.9391 120.964C81.6959 116.247 80.3106 113.483 84.2201 109.576H84.2205Z" fill="white"/>
<path id="Vector_2" d="M63.6284 98.4136C63.4154 98.6688 63.1287 98.8527 62.8072 98.9403C62.4856 99.0279 62.1449 99.015 61.8309 98.9034C61.517 98.7917 61.2452 98.5867 61.0522 98.3161C60.8593 98.0455 60.7545 97.7224 60.7522 97.3906C60.6594 97.2512 60.5928 97.1511 60.5 97.0116C59.687 96.7032 58.8 96.6434 57.9527 96.84C57.1054 97.0365 56.3364 97.4805 55.7442 98.115C55.152 98.7495 54.7637 99.5456 54.629 100.401C54.4943 101.257 54.6193 102.133 54.9881 102.917C57.0229 107.36 58.7933 112.325 63.2998 114.744C44.9508 109.127 30.868 92.5946 28.0518 73.7314C28.944 70.0334 28.3509 65.8417 26.0163 62.7719C25.3153 64.3666 22.9287 64.9822 22.4784 62.8962C22.3493 62.052 22.2276 61.2075 22.0985 60.3633C12.9089 60.498 15.6407 73.0741 26.9885 74.0445C27.5613 77.6156 28.5075 81.1173 29.8117 84.4926C27.516 81.9031 24.6355 79.8932 21.4072 78.6281C18.3307 77.5232 14.8687 77.5436 11.5458 77.3127C7.50058 77.0274 5.10053 81.8176 7.85727 84.775C9.98343 83.5798 12.6626 85.6052 11.2139 87.8647C17.2344 92.3922 25.6438 93.4118 32.6333 90.6483C36.128 97.1827 40.9817 102.901 46.8708 107.421C39.666 102.49 31.8488 107.92 24.9267 110.392C24.452 110.518 24.0246 110.779 23.6965 111.144C23.3683 111.508 23.1538 111.959 23.0789 112.442C23.0041 112.926 23.0721 113.42 23.2749 113.866C23.4776 114.312 23.8062 114.689 24.2206 114.952C25.0944 114.536 26.0075 114.208 26.9463 113.973C27.3892 113.865 27.8547 113.896 28.279 114.062C28.7033 114.228 29.0657 114.521 29.3164 114.9C29.5672 115.279 29.694 115.726 29.6796 116.179C29.6652 116.633 29.5102 117.071 29.2359 117.434C37.434 120.461 47.1627 117.882 53 111.462C56.2475 113.283 59.6763 114.763 63.2312 115.879L71.9286 106.382C71.8538 106.252 71.7724 106.122 71.6944 105.995C70.9449 106.924 70.0839 107.759 69.1306 108.48C68.4943 103.644 68.7302 100.564 63.6288 98.4134L63.6284 98.4136Z" fill="white"/>
<path id="Vector_3" d="M65.8668 58.2837C66.1984 58.2503 66.5118 58.1163 66.7644 57.8997C67.0169 57.6832 67.1965 57.3945 67.2788 57.073C67.3611 56.7514 67.3421 56.4124 67.2244 56.102C67.1067 55.7915 66.8959 55.5246 66.6207 55.3373C66.5564 55.1828 66.5102 55.0719 66.4458 54.9174C66.6428 54.0738 67.0884 53.308 67.7254 52.7181C68.3625 52.1283 69.162 51.7412 70.0214 51.6066C70.8809 51.472 71.7611 51.596 72.5493 51.9626C73.3376 52.3293 73.9978 52.9219 74.4455 53.6645C77.0105 57.8257 80.1596 62.061 79.6584 67.1332C85.226 48.8446 79.315 27.9823 65.1695 15.1216C61.5898 13.7929 58.4281 10.9621 57.174 7.31988C58.8944 7.63163 60.7403 6.00474 59.2536 4.46789C58.6222 3.88979 57.9865 3.31764 57.3552 2.73951C62.5999 -4.77336 71.5536 4.50621 66.0243 14.4185C68.6801 16.8859 71.0696 19.623 73.1537 22.585C72.2781 19.2431 72.2121 15.7421 72.9609 12.3698C73.7585 9.21232 75.7091 6.36509 77.3725 3.49228C79.3941 -0.00736835 84.7262 0.686243 85.6507 4.61428C83.4674 5.70243 83.6588 9.04592 86.3507 9.11164C86.7608 16.6116 82.9137 24.125 76.7072 28.353C80.2003 34.8882 82.254 42.0895 82.7315 49.477C82.6467 40.7737 91.5374 37.3516 97.4634 33.0164C97.8338 32.695 98.2902 32.4879 98.7768 32.4203C99.2634 32.3528 99.7593 32.4276 100.204 32.6358C100.649 32.844 101.023 33.1765 101.281 33.5927C101.539 34.009 101.67 34.491 101.657 34.98C100.823 35.4696 100.04 36.0404 99.3194 36.6841C98.9822 36.9897 98.7483 37.3915 98.6496 37.8345C98.5509 38.2776 98.5923 38.7402 98.7681 39.1589C98.9438 39.5777 99.2454 39.932 99.6314 40.1735C100.017 40.4149 100.469 40.5315 100.924 40.5075C98.8681 48.9677 91.2853 55.5605 82.676 56.7953C82.3797 60.4939 81.6981 64.1519 80.6421 67.7103L67.8707 69.5878C67.804 69.4532 67.7412 69.3134 67.679 69.1782C68.8721 69.0784 70.0485 68.8336 71.1818 68.4491C67.5073 65.2227 64.8096 63.6976 65.8664 58.2839L65.8668 58.2837Z" fill="white"/>
<path id="Vector_4" d="M78.7117 54.2069C72.8974 54.2069 69.7436 53.4996 68.6423 51.9899C67.6704 50.6578 68.3219 48.9001 69.0764 46.865C69.6186 45.4023 70.2331 43.7444 70.2331 42.1035C70.2331 34.1228 74.2982 30.0762 82.3153 30.0762C86.3042 30.0762 90.5871 32.1855 93.7722 35.7187C96.6677 38.9308 98.1101 42.7751 97.7297 46.2658C97.4176 49.1285 96.0791 51.0112 93.5171 52.1909L93.3672 52.2599L93.3246 52.1011C93.1034 51.2794 92.7289 50.5065 92.2208 49.8226C92.1713 50.8962 91.8995 51.948 91.4222 52.9119L91.395 52.9669L91.3359 52.9838C88.4361 53.8059 84.9948 54.0287 82.3206 54.1308C81.019 54.1813 79.8161 54.2066 78.7117 54.2069Z" fill="#1B242D"/>
<path id="Vector_5" d="M80.2964 65.327C80.0736 64.675 79.6977 64.0852 79.2 63.6066C78.7023 63.1281 78.0972 62.7746 77.4348 62.5755C76.7724 62.3764 76.0718 62.3374 75.3912 62.4618C74.7107 62.5862 74.0697 62.8703 73.5215 63.2906L54.3965 74.673L48.412 60.1371C48.9175 59.3988 49.1752 58.5201 49.1481 57.627C49.1209 56.7339 48.8104 55.8723 48.2609 55.1658C47.7115 54.4592 46.9513 53.9441 46.0896 53.6942C45.2278 53.4443 44.3087 53.4725 43.464 53.7747C42.6194 54.077 41.8926 54.6377 41.3879 55.3766C40.8831 56.1155 40.6265 56.9944 40.6546 57.8875C40.6828 58.7806 40.9943 59.6418 41.5446 60.3477C42.0948 61.0536 42.8555 61.5679 43.7176 61.8169C44.0864 66.0085 46.1363 84.7438 53.2676 84.0628C59.2617 83.4903 74.1477 73.6216 78.7713 70.1998C79.5109 69.6529 80.0572 68.8865 80.3312 68.0108C80.6053 67.1351 80.5931 66.1954 80.2964 65.327Z" fill="#FFB6B6"/>
<path id="Vector_6" d="M94.7086 147.999H78.0629L75.2715 134.261L74.366 147.999H58.9036C58.9095 137.21 59.4741 126.428 60.5951 115.697L60.7867 115.047L61.0895 114.008L61.2811 113.355L64.4808 102.417L64.7336 101.549H84.0012C85.11 102.586 86.1327 103.71 87.0593 104.911C87.3731 105.309 87.7009 105.74 88.037 106.205C88.2703 106.534 88.5119 106.88 88.7536 107.242C90.9005 110.423 92.5052 113.936 93.5031 117.638V117.641C93.6726 118.274 93.8225 118.922 93.9531 119.584V119.587C94.0697 120.176 94.1725 120.773 94.253 121.384C94.3142 121.829 94.3669 122.28 94.4058 122.736C94.6374 125.264 94.5562 127.81 94.1641 130.318L94.7086 147.999Z" fill="#1B242D"/>
<path id="Vector_7" d="M6.45322 22.3746C7.53423 21.9581 8.17458 21.0135 7.88348 20.2649C7.59238 19.5163 6.48006 19.2472 5.39905 19.6637C4.31804 20.0803 3.6777 21.0248 3.9688 21.7734C4.2599 22.522 5.37221 22.7912 6.45322 22.3746Z" fill="white"/>
<path id="Vector_8" d="M20.064 20.6363C21.145 20.2198 21.7854 19.2752 21.4943 18.5266C21.2032 17.7781 20.0909 17.5089 19.0099 17.9254C17.9288 18.342 17.2885 19.2865 17.5796 20.0351C17.8707 20.7837 18.983 21.0529 20.064 20.6363Z" fill="#1B242D"/>
<path id="Vector_9" d="M5.27281 33.9332C6.35382 33.5167 6.99417 32.5721 6.70307 31.8235C6.41197 31.0749 5.29965 30.8058 4.21864 31.2223C3.13763 31.6389 2.49728 32.5834 2.78838 33.332C3.07948 34.0806 4.1918 34.3498 5.27281 33.9332Z" fill="#ED6759"/>
<path id="Vector_10" d="M1.33528 39.0322C1.83121 38.9153 2.09646 38.2453 1.92773 37.5356C1.75899 36.826 1.22016 36.3454 0.724226 36.4623C0.228295 36.5791 -0.0369469 37.2491 0.131791 37.9588C0.300529 38.6685 0.83935 39.149 1.33528 39.0322Z" fill="white"/>
<path id="Vector_11" d="M1.25429 47.665C1.75022 47.5482 2.01546 46.8781 1.84672 46.1685C1.67799 45.4588 1.13916 44.9782 0.643233 45.0951C0.147301 45.2119 -0.117941 45.8819 0.0507974 46.5916C0.219535 47.3013 0.758356 47.7819 1.25429 47.665Z" fill="#1B242D"/>
<path id="Vector_12" d="M13.2001 29.7841C13.696 29.6673 13.9613 28.9973 13.7926 28.2876C13.6238 27.5779 13.085 27.0974 12.5891 27.2142C12.0931 27.3311 11.8279 28.0011 11.9966 28.7107C12.1654 29.4204 12.7042 29.901 13.2001 29.7841Z" fill="white"/>
<path id="Vector_13" d="M6.03166 28.0517C6.52759 27.9349 6.79284 27.2648 6.6241 26.5552C6.45536 25.8455 5.91654 25.3649 5.42061 25.4818C4.92468 25.5986 4.65943 26.2687 4.82817 26.9783C4.99691 27.688 5.53573 28.1686 6.03166 28.0517Z" fill="#ED6759"/>
<path id="Vector_14" d="M13.6297 20.1025C14.1256 19.9856 14.3909 19.3156 14.2221 18.606C14.0534 17.8963 13.5146 17.4157 13.0187 17.5326C12.5227 17.6494 12.2575 18.3194 12.4262 19.0291C12.595 19.7388 13.1338 20.2193 13.6297 20.1025Z" fill="#1B242D"/>
<path id="Vector_15" d="M17.1634 79.8518C17.6861 79.2405 17.3942 78.1386 16.5115 77.3907C15.6288 76.6428 14.4896 76.5319 13.9669 77.1432C13.4442 77.7545 13.736 78.8563 14.6187 79.6043C15.5014 80.3522 16.6407 80.463 17.1634 79.8518Z" fill="white"/>
<path id="Vector_16" d="M9.14729 68.7639C9.66997 68.1526 9.37813 67.0508 8.49543 66.3028C7.61274 65.5549 6.47345 65.4441 5.95077 66.0553C5.42808 66.6666 5.71993 67.7684 6.60263 68.5164C7.48533 69.2643 8.62461 69.3751 9.14729 68.7639Z" fill="#1B242D"/>
<path id="Vector_17" d="M27.9369 75.3811C28.4596 74.7698 28.1677 73.6679 27.285 72.92C26.4023 72.172 25.2631 72.0612 24.7404 72.6725C24.2177 73.2838 24.5095 74.3856 25.3922 75.1336C26.2749 75.8815 27.4142 75.9923 27.9369 75.3811Z" fill="#ED6759"/>
<path id="Vector_18" d="M33.289 75.5031C33.8356 75.0174 34.0035 74.317 33.6642 73.9385C33.3248 73.56 32.6067 73.6468 32.0601 74.1324C31.5135 74.618 31.3456 75.3185 31.6849 75.697C32.0243 76.0755 32.7425 75.9887 33.289 75.5031Z" fill="white"/>
<path id="Vector_19" d="M40.9536 71.464C41.5001 70.9784 41.6681 70.2779 41.3287 69.8994C40.9894 69.5209 40.2712 69.6078 39.7246 70.0934C39.1781 70.579 39.0101 71.2795 39.3495 71.658C39.6888 72.0365 40.407 71.9496 40.9536 71.464Z" fill="#1B242D"/>
<path id="Vector_20" d="M19.4705 69.5206C20.017 69.035 20.185 68.3345 19.8456 67.956C19.5063 67.5776 18.7881 67.6644 18.2415 68.15C17.695 68.6356 17.527 69.3361 17.8664 69.7146C18.2057 70.0931 18.9239 70.0063 19.4705 69.5206Z" fill="white"/>
<path id="Vector_21" d="M21.3529 76.6202C21.8995 76.1346 22.0674 75.4341 21.7281 75.0557C21.3887 74.6772 20.6705 74.764 20.124 75.2496C19.5774 75.7352 19.4094 76.4357 19.7488 76.8142C20.0882 77.1927 20.8063 77.1059 21.3529 76.6202Z" fill="#ED6759"/>
<path id="Vector_22" d="M10.7129 73.755C11.2594 73.2694 11.4274 72.5689 11.088 72.1904C10.7487 71.8119 10.0305 71.8988 9.48396 72.3844C8.9374 72.87 8.76943 73.5705 9.10879 73.949C9.44814 74.3275 10.1663 74.2406 10.7129 73.755Z" fill="#1B242D"/>
<path id="Vector_23" d="M71.0157 8.74309C71.7393 8.38883 71.9112 7.26224 71.3996 6.22677C70.8881 5.1913 69.8867 4.63907 69.1631 4.99333C68.4395 5.34759 68.2676 6.47418 68.7792 7.50964C69.2908 8.54511 70.2921 9.09735 71.0157 8.74309Z" fill="white"/>
<path id="Vector_24" d="M73.9475 22.0888C74.6711 21.7345 74.843 20.6079 74.3315 19.5725C73.8199 18.537 72.8186 17.9848 72.095 18.339C71.3714 18.6933 71.1995 19.8199 71.7111 20.8553C72.2226 21.8908 73.2239 22.4431 73.9475 22.0888Z" fill="#1B242D"/>
<path id="Vector_25" d="M59.3446 8.58488C60.0683 8.23063 60.2401 7.10404 59.7286 6.06857C59.217 5.0331 58.2157 4.48086 57.4921 4.83512C56.7685 5.18938 56.5966 6.31598 57.1082 7.35145C57.6197 8.38691 58.621 8.93914 59.3446 8.58488Z" fill="#ED6759"/>
<path id="Vector_26" d="M53.2101 4.35171C53.9055 4.1222 54.3392 3.54579 54.1788 3.06424C54.0184 2.5827 53.3247 2.37837 52.6293 2.60788C51.9339 2.83739 51.5002 3.41381 51.6606 3.89535C51.821 4.3769 52.5147 4.58121 53.2101 4.35171Z" fill="white"/>
<path id="Vector_27" d="M44.5642 5.02749C45.2596 4.79798 45.6933 4.22156 45.5329 3.74002C45.3726 3.25847 44.6788 3.05416 43.9834 3.28367C43.2881 3.51317 42.8544 4.08959 43.0148 4.57113C43.1752 5.05268 43.8689 5.257 44.5642 5.02749Z" fill="#1B242D"/>
<path id="Vector_28" d="M63.5038 15.3068C64.1992 15.0773 64.6329 14.5009 64.4725 14.0193C64.3121 13.5378 63.6184 13.3335 62.923 13.563C62.2277 13.7925 61.794 14.3689 61.9543 14.8504C62.1147 15.332 62.8085 15.5363 63.5038 15.3068Z" fill="white"/>
<path id="Vector_29" d="M64.6098 8.04506C65.3052 7.81556 65.7389 7.23914 65.5785 6.75759C65.4181 6.27605 64.7244 6.07173 64.029 6.30124C63.3336 6.53074 62.8999 7.10716 63.0603 7.58871C63.2207 8.07025 63.9144 8.27457 64.6098 8.04506Z" fill="#ED6759"/>
<path id="Vector_30" d="M73.2304 14.883C73.9258 14.6534 74.3595 14.077 74.1991 13.5955C74.0387 13.1139 73.345 12.9096 72.6496 13.1391C71.9542 13.3686 71.5205 13.9451 71.6809 14.4266C71.8413 14.9081 72.535 15.1125 73.2304 14.883Z" fill="#1B242D"/>
<path id="Vector_31" d="M75.8996 56.4292L85.0699 55.959L89.3292 62.6587C89.3292 62.6587 97.3433 63.9925 96.7878 73.3932C96.2323 82.7939 87.0371 91.043 87.0371 91.043L87.4301 95.9385L86.7475 97.8802L86.835 98.9705L87.7663 100.125L87.8622 101.319L87.0371 103.209L88.1591 105.018L64.5686 102.742L63.7059 99.6143L64.9643 97.9344L64.2614 95.7434L65.3182 93.6359L65.8692 86.9418C65.8692 86.9418 59.8408 77.9261 66.7612 71.1357L69.5387 66.4353L72.6465 62.6609L75.8996 56.4292Z" fill="#227667"/>
<path id="Vector_32" d="M80.4585 54.5371C85.825 54.5371 90.1755 50.2064 90.1755 44.8642C90.1755 39.5221 85.825 35.1914 80.4585 35.1914C75.092 35.1914 70.7416 39.5221 70.7416 44.8642C70.7416 50.2064 75.092 54.5371 80.4585 54.5371Z" fill="#FFB6B6"/>
<path id="Vector_33" d="M79.1575 44.2783C78.3202 44.2783 77.4833 44.2549 76.6469 44.2079L76.4974 44.1995L76.5171 44.0518C76.6403 43.1285 76.571 42.1899 76.3134 41.2945C75.8759 42.314 75.2252 43.229 74.4044 43.9784L74.358 44.0206L74.2956 44.0139C72.024 43.7665 69.7731 43.3578 67.56 42.791L67.4752 42.7694L67.4583 42.6841C67.293 41.8761 67.2074 41.054 67.2028 40.2294C67.2028 37.6536 68.1409 35.4857 69.8444 34.125C71.6985 32.6438 74.3564 32.1883 77.331 32.8416H86.8426C87.8883 32.8428 88.8908 33.2568 89.6302 33.9929C90.3696 34.7289 90.7856 35.7269 90.7867 36.7679V42.7638L90.683 42.7908C86.9208 43.7751 83.0474 44.275 79.1575 44.2783Z" fill="#1B242D"/>
<path id="Vector_34" d="M12.8545 33.5192C12.4287 33.6742 12.082 33.991 11.8906 34.4002C11.6992 34.8093 11.6786 35.2773 11.8334 35.7015L22.0944 63.7291C22.2501 64.153 22.5684 64.498 22.9794 64.6886C23.3904 64.8792 23.8605 64.8997 24.2867 64.7456L64.1116 50.2975C64.5374 50.1425 64.884 49.8257 65.0754 49.4166C65.2668 49.0075 65.2874 48.5395 65.1326 48.1152L54.8716 20.0877C54.7159 19.6638 54.3976 19.3187 53.9866 19.1281C53.5757 18.9376 53.1055 18.9171 52.6794 19.0711L12.8545 33.5192Z" fill="#CCE4E4"/>
<path id="Vector_35" d="M49.2895 54.1289L24.9126 62.9727C24.4539 63.1385 23.948 63.1164 23.5056 62.9113C23.0633 62.7062 22.7208 62.3348 22.5532 61.8786L13.2465 36.4578C13.0799 36.0012 13.102 35.4975 13.3081 35.0572C13.5141 34.6168 13.8872 34.2759 14.3455 34.109L51.9199 20.4774C52.3786 20.3115 52.8846 20.3336 53.327 20.5387C53.7693 20.7438 54.1119 21.1152 54.2794 21.5714L58.7764 33.8545C60.2142 37.7956 60.0228 42.1436 58.2443 45.9445C56.4658 49.7453 53.2454 52.6887 49.2895 54.1289Z" fill="white"/>
<path id="Vector_36" d="M31.749 35.7657L25.9562 37.8673C25.8836 37.8936 25.8065 37.9055 25.7292 37.9021C25.652 37.8988 25.5761 37.8804 25.506 37.8479C25.4359 37.8154 25.373 37.7695 25.3207 37.7127C25.2685 37.656 25.2279 37.5896 25.2015 37.5173C25.175 37.445 25.1631 37.3682 25.1664 37.2913C25.1698 37.2144 25.1883 37.1389 25.2209 37.0691C25.2536 36.9993 25.2997 36.9367 25.3567 36.8846C25.4137 36.8326 25.4804 36.7923 25.553 36.7659L31.3458 34.6643C31.4925 34.6111 31.6545 34.6181 31.796 34.6837C31.9376 34.7494 32.0472 34.8683 32.1006 35.0143C32.1541 35.1604 32.1471 35.3216 32.0811 35.4625C32.0152 35.6034 31.8957 35.7125 31.749 35.7657Z" fill="#227667"/>
<path id="Vector_37" d="M45.5591 33.3067L26.7808 40.1193C26.7081 40.1458 26.6309 40.1577 26.5536 40.1544C26.4763 40.1512 26.4004 40.1328 26.3302 40.1003C26.2601 40.0678 26.197 40.0219 26.1447 39.9651C26.0924 39.9084 26.0518 39.8419 26.0253 39.7696C25.9988 39.6972 25.9869 39.6203 25.9903 39.5434C25.9937 39.4664 26.0122 39.3909 26.045 39.3211C26.0777 39.2513 26.1239 39.1886 26.181 39.1365C26.238 39.0845 26.3049 39.0442 26.3776 39.0179L45.1559 32.2054C45.2286 32.179 45.3057 32.1671 45.383 32.1705C45.4602 32.1738 45.536 32.1922 45.6061 32.2247C45.6762 32.2572 45.7392 32.3032 45.7914 32.3599C45.8437 32.4166 45.8842 32.483 45.9107 32.5553C45.9372 32.6277 45.9491 32.7045 45.9457 32.7814C45.9424 32.8582 45.9239 32.9337 45.8912 33.0035C45.8586 33.0733 45.8125 33.136 45.7555 33.188C45.6985 33.24 45.6318 33.2804 45.5591 33.3067Z" fill="#227667"/>
<path id="Vector_38" d="M46.5056 35.8904L27.7273 42.703C27.6547 42.7294 27.5775 42.7412 27.5003 42.7379C27.423 42.7346 27.3472 42.7162 27.2771 42.6837C27.207 42.6512 27.144 42.6052 27.0918 42.5485C27.0395 42.4918 26.999 42.4254 26.9725 42.3531C26.946 42.2807 26.9341 42.2039 26.9375 42.127C26.9408 42.0501 26.9593 41.9747 26.992 41.9049C27.0246 41.8351 27.0708 41.7724 27.1277 41.7204C27.1847 41.6684 27.2514 41.628 27.3241 41.6017L46.1024 34.7891C46.2491 34.7361 46.4109 34.7432 46.5523 34.8089C46.6937 34.8745 46.8031 34.9934 46.8565 35.1393C46.91 35.2853 46.903 35.4463 46.8372 35.5872C46.7714 35.728 46.6522 35.8371 46.5056 35.8904Z" fill="#227667"/>
<path id="Vector_39" d="M47.4521 38.4766L28.6738 45.2892C28.6011 45.3157 28.5239 45.3276 28.4466 45.3244C28.3693 45.3211 28.2934 45.3027 28.2233 45.2702C28.1531 45.2378 28.09 45.1918 28.0377 45.1351C27.9854 45.0783 27.9448 45.0118 27.9183 44.9395C27.8918 44.8671 27.8799 44.7902 27.8833 44.7133C27.8867 44.6363 27.9052 44.5608 27.938 44.491C27.9707 44.4212 28.0169 44.3585 28.074 44.3065C28.1311 44.2545 28.1979 44.2142 28.2706 44.1879L47.0489 37.3753C47.1216 37.3489 47.1987 37.3371 47.276 37.3404C47.3532 37.3437 47.429 37.3622 47.4991 37.3947C47.5692 37.4272 47.6322 37.4731 47.6845 37.5298C47.7367 37.5865 47.7772 37.653 47.8037 37.7253C47.8302 37.7976 47.8421 37.8744 47.8388 37.9513C47.8354 38.0282 47.8169 38.1037 47.7843 38.1734C47.7516 38.2432 47.7055 38.3059 47.6485 38.3579C47.5915 38.4099 47.5248 38.4503 47.4521 38.4766Z" fill="#227667"/>
<path id="Vector_40" d="M48.3986 41.0626L29.6203 47.8752C29.4736 47.9284 29.3116 47.9214 29.1701 47.8558C29.0285 47.7901 28.919 47.6712 28.8655 47.5252C28.812 47.3791 28.8191 47.2179 28.885 47.077C28.9509 46.9361 29.0704 46.827 29.2171 46.7738L47.9954 39.9612C48.0681 39.9349 48.1452 39.923 48.2225 39.9263C48.2997 39.9297 48.3755 39.9481 48.4456 39.9806C48.5157 40.0131 48.5787 40.059 48.631 40.1157C48.6832 40.1725 48.7237 40.2389 48.7502 40.3112C48.7767 40.3835 48.7886 40.4603 48.7853 40.5372C48.7819 40.6141 48.7634 40.6896 48.7307 40.7594C48.6981 40.8291 48.652 40.8918 48.595 40.9438C48.538 40.9959 48.4713 41.0362 48.3986 41.0626Z" fill="#227667"/>
<path id="Vector_41" d="M107.982 48.2426L97.701 72.7342C97.2623 73.7705 96.4319 74.5936 95.389 75.0259C94.3461 75.4581 93.1742 75.4648 92.1263 75.0446C91.5843 74.8272 91.0923 74.5021 90.6805 74.0893C90.2688 73.6764 89.9457 73.1845 89.7312 72.6433C89.5167 72.1021 89.4151 71.5231 89.4327 70.9416C89.4503 70.3601 89.5866 69.7883 89.8334 69.2609L101.297 44.1461L107.616 28.5931C107.07 28.0509 106.705 27.3546 106.57 26.5986C106.435 25.8427 106.538 25.0638 106.863 24.3678C107.189 23.6718 107.722 23.0925 108.389 22.7084C109.057 22.3244 109.828 22.1543 110.596 22.2213C111.364 22.2883 112.093 22.5891 112.684 23.0828C113.274 23.5766 113.698 24.2393 113.897 24.981C114.096 25.7228 114.061 26.5075 113.796 27.2286C113.532 27.9498 113.05 28.5723 112.418 29.0117L107.982 48.2426Z" fill="#FFB6B6"/>
</g>
<defs>
<clipPath id="clip0_70_2818">
<rect width="131" height="148" fill="white"/>
</clipPath>
</defs>
</svg>
