<?xml version="1.0" standalone="no"?>
<!DOCTYPE svg PUBLIC "-//W3C//DTD SVG 20010904//EN"
 "http://www.w3.org/TR/2001/REC-SVG-20010904/DTD/svg10.dtd">
<svg version="1.0" xmlns="http://www.w3.org/2000/svg"
 width="72.000000pt" height="72.000000pt" viewBox="0 0 72.000000 72.000000"
 preserveAspectRatio="xMidYMid meet">
<metadata>
Created by potrace 1.14, written by Peter Selinger 2001-2017
</metadata>
<g transform="translate(0.000000,72.000000) scale(0.100000,-0.100000)"
fill="#000000" stroke="none">
<path d="M26 541 c-15 -16 -17 -43 -18 -167 -1 -82 2 -159 6 -171 4 -12 19
-25 34 -30 15 -5 161 -8 325 -8 282 1 299 2 317 21 25 24 29 89 8 128 -11 21
-66 59 -199 137 -101 59 -187 105 -191 103 -4 -3 -8 -14 -8 -24 0 -11 -12 -33
-28 -50 -49 -54 -124 -42 -156 24 -26 54 -61 69 -90 37z"/>
</g>
</svg>
