<?xml version="1.0" standalone="no"?>
<!DOCTYPE svg PUBLIC "-//W3C//DTD SVG 20010904//EN"
 "http://www.w3.org/TR/2001/REC-SVG-20010904/DTD/svg10.dtd">
<svg version="1.0" xmlns="http://www.w3.org/2000/svg"
 width="512.000000pt" height="512.000000pt" viewBox="0 0 512.000000 512.000000"
 preserveAspectRatio="xMidYMid meet">
<metadata>
Created by potrace 1.14, written by Peter Selinger 2001-2017
</metadata>
<g transform="translate(0.000000,512.000000) scale(0.100000,-0.100000)"
fill="#000000" stroke="none">
<path d="M440 5087 c-25 -8 -90 -66 -226 -201 -165 -166 -192 -197 -203 -237
-20 -72 -3 -144 45 -192 74 -74 194 -78 267 -9 l28 26 175 -175 176 -176 -35
-54 c-160 -251 -278 -558 -323 -839 -3 -19 -7 -46 -9 -59 -24 -146 -24 -432 0
-608 31 -229 111 -486 215 -694 46 -92 110 -205 133 -234 4 -5 34 -47 67 -92
58 -81 77 -104 152 -187 28 -30 38 -50 38 -76 1 -19 2 -192 4 -385 3 -374 5
-389 61 -510 83 -178 266 -326 457 -368 88 -19 244 -16 323 8 81 23 166 67
237 121 l59 46 37 -32 c20 -17 43 -35 49 -40 25 -21 150 -79 203 -95 66 -20
238 -28 300 -14 25 6 52 12 60 14 66 14 235 108 270 150 17 21 21 19 61 -16
183 -164 489 -204 719 -92 124 60 246 180 304 298 66 136 69 160 72 565 1 201
3 370 3 375 1 6 16 26 34 45 65 69 172 207 230 295 124 189 262 513 302 705 2
8 8 35 13 60 6 25 13 63 16 85 4 23 8 51 11 63 8 46 19 219 19 317 -1 185 -22
355 -66 533 -11 45 -19 84 -17 86 2 1 49 20 104 41 152 58 193 82 222 133 46
78 29 190 -38 246 -33 27 -106 49 -147 43 -20 -2 -90 -25 -155 -51 -65 -25
-123 -46 -127 -46 -5 0 -26 33 -48 73 -21 39 -51 93 -66 118 l-27 47 88 68
c49 37 105 85 125 105 58 59 73 140 39 214 -49 108 -184 146 -284 79 -47 -31
-189 -144 -199 -158 -4 -6 -39 21 -80 61 -40 39 -86 82 -103 96 -28 23 -29 26
-14 44 42 48 148 214 157 245 22 80 -14 176 -82 217 -67 41 -166 35 -223 -13
-15 -13 -55 -63 -88 -111 -33 -48 -69 -98 -80 -111 l-20 -23 -105 52 c-138 69
-164 79 -308 127 -123 40 -310 82 -432 97 -80 10 -422 10 -510 1 -460 -50
-932 -267 -1269 -584 l-82 -77 -162 161 -161 161 20 23 c55 62 71 132 45 200
-37 96 -148 147 -251 115z"/>
</g>
</svg>
