<?xml version="1.0" standalone="no"?>
<!DOCTYPE svg PUBLIC "-//W3C//DTD SVG 20010904//EN"
 "http://www.w3.org/TR/2001/REC-SVG-20010904/DTD/svg10.dtd">
<svg version="1.0" xmlns="http://www.w3.org/2000/svg"
 width="512.000000pt" height="512.000000pt" viewBox="0 0 512.000000 512.000000"
 preserveAspectRatio="xMidYMid meet">
<metadata>
Created by potrace 1.14, written by Peter Selinger 2001-2017
</metadata>
<g transform="translate(0.000000,512.000000) scale(0.100000,-0.100000)"
fill="#000000" stroke="none">
<path d="M300 3931 c-71 -23 -93 -35 -142 -79 -52 -47 -82 -95 -107 -170 -20
-59 -21 -84 -21 -1095 0 -1002 0 -1036 20 -1098 47 -153 153 -258 309 -305 68
-20 4280 -21 4356 0 116 31 199 89 260 180 65 99 72 135 73 381 0 196 -2 229
-22 305 -49 190 -153 338 -310 443 -34 23 -151 94 -260 157 -108 63 -209 123
-224 132 -15 10 -33 21 -41 25 -8 3 -98 56 -200 116 -199 118 -335 197 -391
229 -19 11 -47 29 -62 39 -14 11 -28 19 -31 19 -3 0 -110 62 -239 138 -128 76
-260 153 -293 172 -33 18 -67 39 -75 45 -8 7 -40 26 -70 42 -30 17 -113 65
-185 108 -71 43 -144 86 -162 96 -18 10 -79 46 -138 80 -91 53 -110 60 -139
55 -30 -6 -84 -52 -87 -74 0 -4 -2 -27 -4 -52 -14 -196 -76 -338 -205 -468
-85 -86 -167 -135 -288 -175 -56 -18 -90 -22 -202 -21 -120 0 -143 3 -210 26
-116 41 -188 86 -271 168 -90 89 -140 171 -181 295 -36 110 -66 163 -118 208
-37 31 -98 66 -145 82 -45 15 -141 13 -195 -4z"/>
</g>
</svg>
