<svg xmlns="http://www.w3.org/2000/svg" viewBox="0 0 64 80" x="0px" y="0px"><path d="M58,19H42.47l-6.58-7.9A5,5,0,0,0,37,8,5,5,0,0,0,27,8a5,5,0,0,0,1.11,3.1L21.53,19H6a3,3,0,0,0-3,3V58a3,3,0,0,0,3,3H58a3,3,0,0,0,3-3V22A3,3,0,0,0,58,19ZM32,5a3,3,0,1,1-3,3A3,3,0,0,1,32,5Zm-2.35,7.38a4.76,4.76,0,0,0,4.7,0L39.86,19H24.14ZM59,58a1,1,0,0,1-1,1H6a1,1,0,0,1-1-1V22a1,1,0,0,1,1-1H58a1,1,0,0,1,1,1Z"/><path d="M54,25H10a1,1,0,0,0-1,1V54a1,1,0,0,0,1,1H54a1,1,0,0,0,1-1V26A1,1,0,0,0,54,25Zm-1,2V52.3L37.81,31.41a1,1,0,0,0-1.62,0L26.05,45.35l-4.24-5.93a1,1,0,0,0-1.62,0L11,52.28V27ZM29.06,53H12.94L21,41.72Zm-1.78-5.93L37,33.7,51,53H31.51Z"/></svg>