<svg width="25" height="24" viewBox="0 0 25 24" fill="none" xmlns="http://www.w3.org/2000/svg">
<path opacity="0.4" d="M16.74 3.65002H8.26004C5.79004 3.65002 3.79004 5.66002 3.79004 8.12002V17.53C3.79004 19.99 5.80004 22 8.26004 22H16.73C19.2 22 21.2 19.99 21.2 17.53V8.12002C21.21 5.65002 19.2 3.65002 16.74 3.65002Z" fill="#FF7F00"/>
<path d="M14.8498 2H10.1498C9.10977 2 8.25977 2.84 8.25977 3.88V4.82C8.25977 5.86 9.09977 6.7 10.1398 6.7H14.8498C15.8898 6.7 16.7298 5.86 16.7298 4.82V3.88C16.7398 2.84 15.8898 2 14.8498 2Z" fill="#FF7F00"/>
<path d="M11.31 16.95C11.12 16.95 10.93 16.88 10.78 16.73L9.28 15.23C8.99 14.94 8.99 14.46 9.28 14.17C9.57 13.88 10.05 13.88 10.34 14.17L11.31 15.14L14.78 11.67C15.07 11.38 15.55 11.38 15.84 11.67C16.13 11.96 16.13 12.44 15.84 12.73L11.84 16.73C11.7 16.88 11.5 16.95 11.31 16.95Z" fill="#FF7F00"/>
</svg>
