<svg width="32" height="32" viewBox="0 0 32 32" fill="none" xmlns="http://www.w3.org/2000/svg">
<mask id="mask0_30_1726" style="mask-type:alpha" maskUnits="userSpaceOnUse" x="4" y="4" width="24" height="24">
<rect x="4" y="4" width="24" height="24" fill="#D9D9D9"/>
</mask>
<g mask="url(#mask0_30_1726)">
<path d="M9 26C8.45 26 7.97917 25.8042 7.5875 25.4125C7.19583 25.0208 7 24.55 7 24V10C7 9.45 7.19583 8.97917 7.5875 8.5875C7.97917 8.19583 8.45 8 9 8H10V7C10 6.71667 10.0958 6.47917 10.2875 6.2875C10.4792 6.09583 10.7167 6 11 6C11.2833 6 11.5208 6.09583 11.7125 6.2875C11.9042 6.47917 12 6.71667 12 7V8H20V7C20 6.71667 20.0958 6.47917 20.2875 6.2875C20.4792 6.09583 20.7167 6 21 6C21.2833 6 21.5208 6.09583 21.7125 6.2875C21.9042 6.47917 22 6.71667 22 7V8H23C23.55 8 24.0208 8.19583 24.4125 8.5875C24.8042 8.97917 25 9.45 25 10V24C25 24.55 24.8042 25.0208 24.4125 25.4125C24.0208 25.8042 23.55 26 23 26H9ZM9 24H23V14H9V24ZM9 12H23V10H9V12Z" fill="#1F57C3"/>
</g>
</svg>
