<svg width="32" height="32" viewBox="0 0 32 32" fill="none" xmlns="http://www.w3.org/2000/svg">
<mask id="mask0_30_1720" style="mask-type:alpha" maskUnits="userSpaceOnUse" x="4" y="4" width="24" height="24">
<rect x="4" y="4" width="24" height="24" fill="#D9D9D9"/>
</mask>
<g mask="url(#mask0_30_1720)">
<path d="M16 16C16.55 16 17.0208 15.8042 17.4125 15.4125C17.8042 15.0208 18 14.55 18 14C18 13.45 17.8042 12.9792 17.4125 12.5875C17.0208 12.1958 16.55 12 16 12C15.45 12 14.9792 12.1958 14.5875 12.5875C14.1958 12.9792 14 13.45 14 14C14 14.55 14.1958 15.0208 14.5875 15.4125C14.9792 15.8042 15.45 16 16 16ZM16 23.35C18.0333 21.4833 19.5417 19.7875 20.525 18.2625C21.5083 16.7375 22 15.3833 22 14.2C22 12.3833 21.4208 10.8958 20.2625 9.7375C19.1042 8.57917 17.6833 8 16 8C14.3167 8 12.8958 8.57917 11.7375 9.7375C10.5792 10.8958 10 12.3833 10 14.2C10 15.3833 10.4917 16.7375 11.475 18.2625C12.4583 19.7875 13.9667 21.4833 16 23.35ZM16 26C13.3167 23.7167 11.3125 21.5958 9.9875 19.6375C8.6625 17.6792 8 15.8667 8 14.2C8 11.7 8.80417 9.70833 10.4125 8.225C12.0208 6.74167 13.8833 6 16 6C18.1167 6 19.9792 6.74167 21.5875 8.225C23.1958 9.70833 24 11.7 24 14.2C24 15.8667 23.3375 17.6792 22.0125 19.6375C20.6875 21.5958 18.6833 23.7167 16 26Z" fill="#1F57C3"/>
</g>
</svg>
