<svg width="518" height="394" viewBox="0 0 518 394" fill="none" xmlns="http://www.w3.org/2000/svg">
<g clip-path="url(#clip0_65_975)">
<path d="M207.278 81.7065H205.388V29.9534C205.388 26.0198 204.613 22.1248 203.107 18.4907C201.602 14.8566 199.395 11.5546 196.612 8.77315C193.83 5.99172 190.527 3.78537 186.892 2.28007C183.257 0.774774 179.361 3.33279e-06 175.426 0H65.7498C57.8035 -1.51442e-05 50.1826 3.15575 44.5637 8.77308C38.9448 14.3904 35.7881 22.0091 35.7881 29.9533V313.875C35.7881 317.809 36.5631 321.704 38.0688 325.338C39.5745 328.972 41.7814 332.274 44.5636 335.056C47.3458 337.837 50.6488 340.043 54.2839 341.549C57.919 343.054 61.8151 343.829 65.7497 343.829H175.426C183.373 343.829 190.993 340.673 196.612 335.056C202.231 329.438 205.388 321.82 205.388 313.875V118.545H207.278V81.7065Z" fill="#3F3D56"/>
<path d="M176.635 7.79297H162.319C162.977 9.40664 163.229 11.1574 163.051 12.8911C162.873 14.6247 162.271 16.288 161.299 17.7345C160.327 19.1809 159.013 20.3661 157.475 21.1857C155.936 22.0052 154.22 22.4339 152.477 22.434H89.6445C87.9013 22.4339 86.1848 22.0052 84.6464 21.1857C83.1079 20.3661 81.7947 19.181 80.8223 17.7345C79.8499 16.288 79.2483 14.6247 79.0704 12.8911C78.8926 11.1574 79.1439 9.40664 79.8023 7.79297H66.4307C63.4924 7.79297 60.5828 8.37155 57.8681 9.49569C55.1535 10.6198 52.6869 12.2675 50.6092 14.3446C48.5315 16.4218 46.8833 18.8877 45.7589 21.6016C44.6344 24.3155 44.0557 27.2243 44.0557 30.1618V313.667C44.0557 316.605 44.6344 319.513 45.7589 322.227C46.8833 324.941 48.5314 327.407 50.6091 329.484C52.6869 331.561 55.1535 333.209 57.8681 334.333C60.5828 335.457 63.4923 336.036 66.4307 336.036H176.635C179.574 336.036 182.483 335.457 185.198 334.333C187.913 333.209 190.379 331.561 192.457 329.484C194.535 327.407 196.183 324.941 197.307 322.227C198.432 319.513 199.01 316.605 199.01 313.667V30.1618C199.01 27.2243 198.432 24.3155 197.307 21.6016C196.183 18.8877 194.535 16.4218 192.457 14.3446C190.379 12.2675 187.913 10.6198 185.198 9.49569C182.483 8.37155 179.574 7.79296 176.635 7.79297Z" fill="#EAF6F6"/>
<path d="M242.431 343.877H0.634636C0.46632 343.877 0.304898 343.81 0.18588 343.691C0.0668628 343.572 0 343.411 0 343.243C0 343.075 0.0668628 342.913 0.18588 342.794C0.304898 342.675 0.46632 342.608 0.634636 342.608H242.431C242.599 342.608 242.761 342.675 242.88 342.794C242.999 342.913 243.066 343.075 243.066 343.243C243.066 343.411 242.999 343.572 242.88 343.691C242.761 343.81 242.599 343.877 242.431 343.877Z" fill="#EAF6F6"/>
<path d="M121.533 219.321C151.131 219.321 175.126 195.333 175.126 165.743C175.126 136.153 151.131 112.165 121.533 112.165C91.9347 112.165 67.9404 136.153 67.9404 165.743C67.9404 195.333 91.9347 219.321 121.533 219.321Z" fill="#227667"/>
<path d="M116.222 186.181C115.016 186.183 113.842 185.793 112.878 185.07L112.818 185.025L100.223 175.393C99.6396 174.946 99.1501 174.388 98.7823 173.752C98.4145 173.116 98.1757 172.414 98.0795 171.685C97.9832 170.957 98.0314 170.216 98.2213 169.506C98.4113 168.797 98.7392 168.131 99.1864 167.548C99.6336 166.965 100.191 166.475 100.828 166.108C101.464 165.74 102.167 165.501 102.895 165.405C103.624 165.309 104.365 165.357 105.075 165.547C105.785 165.737 106.45 166.065 107.034 166.512L115.192 172.766L134.47 147.623C134.917 147.04 135.474 146.551 136.11 146.183C136.746 145.816 137.449 145.577 138.177 145.481C138.905 145.385 139.646 145.433 140.355 145.623C141.065 145.812 141.731 146.14 142.314 146.587L142.315 146.588L142.196 146.754L142.319 146.588C143.495 147.492 144.265 148.826 144.459 150.296C144.653 151.766 144.255 153.254 143.353 154.432L120.679 183.992C120.154 184.673 119.479 185.225 118.707 185.603C117.935 185.981 117.086 186.177 116.227 186.174L116.222 186.181Z" fill="#EAF6F6"/>
<path d="M440.593 349.144C441.245 348.09 442.013 347.112 442.882 346.228C443.24 345.857 443.618 345.507 444.008 345.166C446.377 343.058 449.266 341.618 452.376 340.996C455.487 340.373 458.707 340.59 461.706 341.625C464.705 342.659 467.374 344.473 469.439 346.88C471.504 349.288 472.891 352.202 473.456 355.322C476.073 345.645 469.26 336.114 462.41 328.792C455.556 321.473 447.722 313.444 447.762 303.414C447.781 297.834 450.511 292.855 454.634 289.164C454.761 289.053 454.888 288.941 455.018 288.833C460.001 284.563 466.412 282.329 472.971 282.578C485.155 283.231 495.794 291.418 503.182 301.129C515.075 316.754 520.286 338.686 511.961 356.473C504.637 372.117 489.019 381.406 473.079 388.874C470.854 389.917 468.632 390.929 466.415 391.909C466.401 391.913 466.385 391.924 466.37 391.927C466.263 391.974 466.157 392.021 466.057 392.069C465.599 392.271 465.141 392.473 464.688 392.672L464.898 392.81L465.553 393.234C465.326 393.096 465.101 392.963 464.874 392.825C464.806 392.784 464.735 392.745 464.668 392.703C456.839 388.007 448.901 383.039 443.493 375.707C437.883 368.095 435.628 357.191 440.593 349.144Z" fill="#EAF6F6"/>
<path d="M492.826 331.466C494.559 335.408 495.709 339.583 496.237 343.857C496.653 347.668 496.497 351.52 495.773 355.285C494.219 363.022 490.828 370.272 485.887 376.427C482.16 381.099 477.856 385.281 473.079 388.875C470.854 389.918 468.632 390.929 466.415 391.91C466.401 391.913 466.385 391.924 466.37 391.928C466.263 391.975 466.156 392.022 466.056 392.07C465.599 392.272 465.141 392.474 464.688 392.673L464.898 392.81L465.553 393.234C465.326 393.097 465.101 392.963 464.874 392.826C464.806 392.784 464.735 392.745 464.668 392.703C466.39 386.678 466.644 380.328 465.406 374.186C464.169 368.043 461.476 362.286 457.555 357.398C453.613 352.571 448.585 348.744 442.882 346.229C443.24 345.857 443.618 345.507 444.007 345.167C446.204 346.175 448.307 347.376 450.293 348.755C457.393 353.66 462.724 360.721 465.498 368.892C467.974 376.305 468.283 384.27 466.389 391.852C466.782 391.595 467.177 391.332 467.56 391.07C474.853 386.153 481.575 380.248 486.638 373.006C491.005 366.886 493.799 359.786 494.775 352.332C495.745 344.19 493.707 336.183 490.071 328.917C486.056 321.145 480.996 313.957 475.033 307.555C469.043 300.976 462.271 295.155 454.866 290.22C454.699 290.108 454.582 289.935 454.539 289.739C454.496 289.543 454.53 289.337 454.634 289.165C454.713 289.008 454.851 288.889 455.018 288.833C455.103 288.812 455.191 288.81 455.277 288.827C455.363 288.844 455.443 288.881 455.513 288.934C456.427 289.543 457.333 290.158 458.228 290.792C465.685 296.07 472.456 302.254 478.388 309.201C484.119 315.898 489.335 323.338 492.826 331.466Z" fill="#EAF6F6"/>
<path d="M333.211 24.8775C339.497 24.8775 344.592 19.7832 344.592 13.4991C344.592 7.21491 339.497 2.12061 333.211 2.12061C326.925 2.12061 321.829 7.21491 321.829 13.4991C321.829 19.7832 326.925 24.8775 333.211 24.8775Z" fill="#EAF6F6"/>
<path d="M474.734 177.148C478.566 177.148 481.673 174.042 481.673 170.211C481.673 166.379 478.566 163.273 474.734 163.273C470.902 163.273 467.795 166.379 467.795 170.211C467.795 174.042 470.902 177.148 474.734 177.148Z" fill="#EAF6F6"/>
<path d="M271.651 196.182C275.483 196.182 278.59 193.076 278.59 189.245C278.59 185.414 275.483 182.308 271.651 182.308C267.819 182.308 264.712 185.414 264.712 189.245C264.712 193.076 267.819 196.182 271.651 196.182Z" fill="#EAF6F6"/>
<path d="M275.569 394H517.366C517.534 394 517.695 393.934 517.814 393.815C517.933 393.696 518 393.534 518 393.366C518 393.198 517.933 393.036 517.814 392.917C517.695 392.798 517.534 392.731 517.366 392.731H275.569C275.401 392.731 275.239 392.798 275.12 392.917C275.001 393.036 274.935 393.198 274.935 393.366C274.935 393.534 275.001 393.696 275.12 393.815C275.239 393.934 275.401 394 275.569 394Z" fill="#EAF6F6"/>
<path d="M490.682 61.3115C490.999 59.0579 490.479 56.7663 489.219 54.8707C487.959 52.9751 486.048 51.6073 483.847 51.0266C481.646 50.4458 479.308 50.6924 477.277 51.7195C475.245 52.7467 473.662 54.4832 472.825 56.5998L453.204 79.0879L458.961 95.1631L478.694 68.8867C479.982 69.299 481.344 69.4241 482.685 69.2531C484.027 69.0822 485.314 68.6192 486.457 67.897C487.6 67.1748 488.57 66.2108 489.3 65.073C490.03 63.9352 490.502 62.6512 490.682 61.3115Z" fill="#FFB7B7"/>
<path d="M409.348 148.812L474.481 79.3206L465.695 65.3574L384.003 134.427L409.348 148.812Z" fill="#3F3D56"/>
<path d="M394.812 106.589C407.43 106.589 417.659 96.3633 417.659 83.7488C417.659 71.1343 407.43 60.9082 394.812 60.9082C382.194 60.9082 371.965 71.1343 371.965 83.7488C371.965 96.3633 382.194 106.589 394.812 106.589Z" fill="#1B242D"/>
<path d="M396.648 70.8454C401.565 65.8614 407.514 62.0153 414.078 59.5779C418.291 58.0175 422.876 57.0535 427.281 57.9396C431.686 58.8257 435.851 61.872 437.08 66.1925C438.085 69.7254 437.047 73.5293 435.488 76.855C433.929 80.1807 431.847 83.2646 430.586 86.7144C429.299 90.2344 428.912 94.0199 429.46 97.7274C430.008 101.435 431.473 104.947 433.723 107.944C435.973 110.942 438.936 113.33 442.344 114.893C445.751 116.455 449.495 117.142 453.235 116.891C448.908 117.471 444.918 119.504 440.688 120.586C436.458 121.669 431.465 121.595 428.321 118.566C424.995 115.36 424.929 110.148 425.089 105.532C425.329 98.6705 425.568 91.8088 425.807 84.9471C425.929 81.4478 426.033 77.8363 424.77 74.5702C423.508 71.304 420.508 68.444 417.006 68.4737C414.351 68.4962 412.002 70.1038 409.873 71.6892C407.745 73.2746 405.492 74.966 402.847 75.2018C400.204 75.4376 397.185 73.4815 397.383 70.8352L396.648 70.8454Z" fill="#1B242D"/>
<path d="M308.038 237.112C305.844 237.722 303.504 237.505 301.459 236.504C299.415 235.503 297.809 233.788 296.945 231.682C296.081 229.576 296.021 227.227 296.774 225.079C297.527 222.932 299.042 221.135 301.032 220.03L320.769 197.644L337.463 201.249L313.984 224.241C314.561 225.463 314.863 226.797 314.869 228.149C314.874 229.501 314.583 230.837 314.017 232.064C313.45 233.292 312.621 234.38 311.588 235.252C310.555 236.124 309.343 236.759 308.038 237.112Z" fill="#FFB7B7"/>
<path d="M372.974 156.969L323.78 218.702L308.785 211.819L366.607 121.824L372.974 156.969Z" fill="#3F3D56"/>
<path d="M333.722 343.377L321.998 343.193L323.408 383.143H333.72L333.722 343.377Z" fill="#FFB7B7"/>
<path d="M336.351 379.776L316.042 379.775H316.041C312.609 379.776 309.317 381.139 306.89 383.565C304.463 385.992 303.099 389.283 303.099 392.714V393.135L336.35 393.136L336.351 379.776Z" fill="#1B242D"/>
<path d="M411.35 332.781L398.542 341.001L424.161 371.814L432.839 366.244L411.35 332.781Z" fill="#FFB7B7"/>
<path d="M433.233 361.991L416.143 372.96L416.142 372.961C413.254 374.815 411.22 377.74 410.489 381.093C409.758 384.446 410.389 387.951 412.244 390.839L412.471 391.193L440.452 373.233L433.233 361.991Z" fill="#1B242D"/>
<path d="M415.911 210.793C415.911 210.793 387.455 116.305 378.309 115.028C369.164 113.751 354.429 139.272 354.429 139.272C335.325 163.641 315.625 242.576 315.625 242.576C315.625 242.576 348.465 244.63 372.472 257.399C396.478 270.168 424.809 256.753 424.809 256.753L415.911 210.793Z" fill="#3F3D56"/>
<path opacity="0.1" d="M415.911 210.793C415.911 210.793 387.455 116.304 378.309 115.027C369.164 113.75 358.172 139.531 358.172 139.531C348.652 178.868 315.625 242.575 315.625 242.575C315.625 242.575 348.465 244.63 372.472 257.399C396.478 270.167 424.809 256.752 424.809 256.752L415.911 210.793Z" fill="#1B242D"/>
<path d="M392.565 182.523V230.002L398.155 298.78L426.079 350.806L412.751 360.323L374.673 310.835L359.613 261.697L335.96 370.475L318.19 369.206L330.532 218.387L353.95 175.936L392.565 182.523Z" fill="#1B242D"/>
<path d="M363.874 136.599C354.989 145.481 363.239 154.998 363.239 154.998L353.085 177.839L393.067 188.625L407.039 126.208L397.52 116.056C378.481 115.422 378.47 115.027 378.47 115.027C375.135 118.291 363.874 136.599 363.874 136.599Z" fill="#227667"/>
<path d="M408.65 119.741C406.834 118.401 404.77 117.434 402.578 116.897C400.385 116.36 398.108 116.263 395.879 116.612C393.649 116.961 391.51 117.749 389.587 118.93C387.664 120.111 385.994 121.662 384.675 123.493C374.623 137.484 365.329 160.076 378.135 188.253C398.696 233.496 416.59 256.657 423.864 256.655C424.181 256.657 424.497 256.608 424.799 256.508C429.276 254.989 435.75 247.415 436.922 240.74C437.341 238.351 437.242 235.023 434.384 232.738C426.174 226.174 411.437 205.734 406.839 178.832C404.298 163.966 409.226 150.426 413.806 141.684C415.741 138.067 416.307 133.874 415.401 129.874C414.494 125.873 412.176 122.334 408.87 119.904L408.65 119.741Z" fill="#3F3D56"/>
<path d="M395.987 104.345C404.137 99.8914 407.133 89.6757 402.678 81.5279C398.222 73.3801 388.004 70.3856 379.854 74.8396C371.704 79.2936 368.708 89.5094 373.164 97.6572C377.619 105.805 387.837 108.799 395.987 104.345Z" fill="#FFB7B7"/>
<path d="M364.269 88.3217H388.553L388.802 84.8361L390.047 88.3217H393.787L394.28 81.4134L396.748 88.3217H403.984V87.9795C403.978 83.17 402.065 78.559 398.663 75.1581C395.261 71.7573 390.649 69.8443 385.838 69.8389H382.414C377.603 69.8443 372.991 71.7573 369.589 75.1581C366.187 78.559 364.274 83.1699 364.269 87.9795V88.3217Z" fill="#1B242D"/>
<path d="M400.315 100.85L410.678 97.488V72.3281H391.104L391.588 72.8119C398.331 79.5441 405.83 103.429 400.315 100.85Z" fill="#1B242D"/>
</g>
<defs>
<clipPath id="clip0_65_975">
<rect width="518" height="394" fill="white"/>
</clipPath>
</defs>
</svg>
