<?xml version="1.0" encoding="iso-8859-1"?>
<!-- Generator: Adobe Illustrator 19.0.0, SVG Export Plug-In . SVG Version: 6.00 Build 0)  -->
<svg version="1.1" id="Capa_1" xmlns="http://www.w3.org/2000/svg" xmlns:xlink="http://www.w3.org/1999/xlink" x="0px" y="0px"
	 viewBox="0 0 473.125 473.125" style="enable-background:new 0 0 473.125 473.125;" xml:space="preserve">
<g>
	<path d="M465.125,400.344h-0.5V256.177H465c4.418,0,8-3.582,8-8s-3.582-8-8-8h-0.375v-63.229c0-4.418-3.582-8-8-8s-8,3.582-8,8
		v63.229H440.5v-63.229c0-4.418-3.582-8-8-8s-8,3.582-8,8v53.822l-47.333-40.62v-61.64c0-4.418-3.582-8-8-8s-8,3.582-8,8v47.91
		l-48.209-41.371V64.781c0-4.418-3.582-8-8-8s-8,3.582-8,8v71.729h-8.125v-18.305c0-0.025,0-0.051,0-0.076V64.781
		c0-4.418-3.582-8-8-8s-8,3.582-8,8v35.834L242.21,74.335c-2.997-2.571-7.42-2.573-10.417-0.002l-30.835,26.439v-35.99
		c0-4.418-3.582-8-8-8s-8,3.582-8,8v71.729h-8.125V64.781c0-4.418-3.582-8-8-8s-8,3.582-8,8v70.395l-2.643,2.266
		c-1.042,0.553-1.942,1.333-2.646,2.269l-42.711,36.622V128.51c0-4.418-3.582-8-8-8s-8,3.582-8,8v61.542l-47.5,40.728v-53.832
		c0-4.418-3.582-8-8-8s-8,3.582-8,8v63.229h-8.125v-63.229c0-4.418-3.582-8-8-8s-8,3.582-8,8v63.244
		c-4.281,0.155-7.708,3.665-7.708,7.985s3.427,7.83,7.708,7.985v144.181H8c-4.418,0-8,3.582-8,8s3.582,8,8,8h457.125
		c4.418,0,8-3.582,8-8S469.543,400.344,465.125,400.344z M448.625,256.177v144.167H440.5V256.177H448.625z M400.5,360.344
		c-4.418,0-8,3.582-8,8v32h-15.333V256.177H424.5v144.167h-16v-32C408.5,363.925,404.918,360.344,400.5,360.344z M336.833,360.344
		c-4.418,0-8,3.582-8,8v32h-15.875V216.51h48.209v183.833h-16.334v-32C344.833,363.925,341.251,360.344,336.833,360.344z
		 M410.894,240.177h-33.727v-28.943L410.894,240.177z M361.167,200.51h-48.209v-44.378l48.209,41.371V200.51z M296.958,152.51
		v55.043c-0.038,0.314-0.063,0.632-0.063,0.957s0.025,0.643,0.063,0.957v190.877h-8.125V152.51H296.958z M248.833,400.344h-24
		V360.51h24V400.344z M256.833,344.51h-40c-4.418,0-8,3.582-8,8v47.833h-7.875V152.51h71.875v247.833h-8V352.51
		C264.833,348.092,261.251,344.51,256.833,344.51z M200.958,121.847l36.04-30.901l35.835,30.752v14.812h-71.875V121.847z
		 M184.958,152.51v247.833h-8.125V152.51H184.958z M136.833,360.344c-4.418,0-8,3.582-8,8v32h-16V216.51h48v183.833h-16v-32
		C144.833,363.925,141.251,360.344,136.833,360.344z M73.333,360.344c-4.418,0-8,3.582-8,8v32h-16V256.177h47.5v144.167h-15.5v-32
		C81.333,363.925,77.751,360.344,73.333,360.344z M96.833,240.177h-33.88l33.88-29.05V240.177z M160.833,156.252v44.258h-48v-3.102
		L160.833,156.252z M25.208,256.177h8.125v144.167h-8.125V256.177z" fill="#0056b3"/>
	<path d="M264.833,192.51c0-11.605-16.057-24.791-22.96-29.921c-2.832-2.105-6.711-2.105-9.543,0
		c-6.903,5.13-22.96,18.315-22.96,29.921v119.667c0,4.418,3.582,8,8,8h39.463c4.418,0,8-3.582,8-8V192.51z M248.833,304.177H225.37
		V192.65c0.516-2.448,5.605-8.147,11.729-13.395c6.065,5.212,11.223,10.98,11.733,13.395V304.177z" fill="#0056b3"/>
	<path d="M237,256.26c-4.418,0-8,3.582-8,8v24.5c0,4.418,3.582,8,8,8s8-3.582,8-8v-24.5C245,259.842,241.418,256.26,237,256.26z" fill="#0056b3"/>
	<path d="M229,200.677v31.583c0,4.418,3.582,8,8,8s8-3.582,8-8v-31.583c0-4.418-3.582-8-8-8S229,196.259,229,200.677z" fill="#0056b3"/>
	<path d="M89,328.51c0-4.306-3.405-7.807-7.667-7.983V304.01c0-4.418-3.582-8-8-8s-8,3.582-8,8v16.517
		c-4.262,0.176-7.666,3.677-7.666,7.983c0,4.418,3.582,8,8,8H81C85.418,336.51,89,332.929,89,328.51z" fill="#0056b3"/>
	<path d="M152.5,328.51c0-4.306-3.405-7.807-7.667-7.983V304.01c0-4.418-3.582-8-8-8s-8,3.582-8,8v16.517
		c-4.262,0.176-7.666,3.677-7.666,7.983c0,4.418,3.582,8,8,8H144.5C148.918,336.51,152.5,332.929,152.5,328.51z" fill="#0056b3"/>
	<path d="M352.563,328.51c0-4.306-3.405-7.807-7.667-7.983V304.01c0-4.418-3.582-8-8-8s-8,3.582-8,8v16.517
		c-4.262,0.176-7.666,3.677-7.666,7.983c0,4.418,3.582,8,8,8h15.333C348.98,336.51,352.563,332.929,352.563,328.51z" fill="#0056b3"/>
	<path d="M129.167,272.26H144.5c4.418,0,8-3.582,8-8c0-4.306-3.405-7.807-7.667-7.983v-15.683c0-4.418-3.582-8-8-8s-8,3.582-8,8
		v15.683c-4.262,0.176-7.666,3.677-7.666,7.983C121.167,268.679,124.749,272.26,129.167,272.26z" fill="#0056b3"/>
	<path d="M329.229,272.26h15.333c4.418,0,8-3.582,8-8c0-4.306-3.405-7.807-7.667-7.983v-15.683c0-4.418-3.582-8-8-8s-8,3.582-8,8
		v15.683c-4.262,0.176-7.666,3.677-7.666,7.983C321.229,268.679,324.812,272.26,329.229,272.26z" fill="#0056b3"/>
	<path d="M416.063,328.51c0-4.306-3.405-7.807-7.667-7.983V304.01c0-4.418-3.582-8-8-8s-8,3.582-8,8v16.517
		c-4.262,0.176-7.666,3.677-7.666,7.983c0,4.418,3.582,8,8,8h15.333C412.48,336.51,416.063,332.929,416.063,328.51z" fill="#0056b3"/>
</g>
</svg>
