<?xml version="1.0" encoding="iso-8859-1"?>
<!-- Generator: Adobe Illustrator 19.0.0, SVG Export Plug-In . SVG Version: 6.00 Build 0)  -->
<svg version="1.1" id="Capa_1" xmlns="http://www.w3.org/2000/svg" xmlns:xlink="http://www.w3.org/1999/xlink" x="0px" y="0px"
	 viewBox="0 0 466 466" style="enable-background:new 0 0 466 466;" xml:space="preserve">
<path d="M313,450v-80c4.418,0,8-3.582,8-8s-3.582-8-8-8h-3.915L297,328.218V306c4.418,0,8-3.582,8-8s-3.582-8-8-8h-8v-8
	c4.418,0,8-3.582,8-8s-3.582-8-8-8h-0.205c-2.268-49.306-24.845-81.92-31.795-90.839V162c4.418,0,8-3.582,8-8s-3.582-8-8-8v-16
	c0-4.418-3.582-8-8-8h-8v-8c4.418,0,8-3.582,8-8s-3.582-8-8-8V8c0-4.418-3.582-8-8-8s-8,3.582-8,8v90c-4.418,0-8,3.582-8,8
	s3.582,8,8,8v8h-8c-4.418,0-8,3.582-8,8v16c-4.418,0-8,3.582-8,8s3.582,8,8,8v14.364c-8.129,10.483-29.552,42.398-31.789,89.636H177
	c-4.418,0-8,3.582-8,8s3.582,8,8,8v8h-8c-4.418,0-8,3.582-8,8s3.582,8,8,8v22.111L156.056,354H153c-4.418,0-8,3.582-8,8s3.582,8,8,8
	v80c-4.418,0-8,3.582-8,8s3.582,8,8,8h160c4.418,0,8-3.582,8-8S317.418,450,313,450z M281,378c-4.418,0-8,3.582-8,8v8h-8v-24h32v24
	h-8v-8C289,381.582,285.418,378,281,378z M233,378c-4.418,0-8,3.582-8,8v8h-8v-24h32v24h-8v-8C241,381.582,237.418,378,233,378z
	 M221.804,186h23.314c6.468,8.696,25.46,37.662,27.655,80h-79.539C195.506,223.573,215.203,194.582,221.804,186z M225,138h16v8h-16
	V138z M241,162v8h-16v-8H241z M193,282h80v8h-80V282z M281,306v16h-96v-16H281z M181.944,338h101.97l7.5,16h-117.47L181.944,338z
	 M201,370v24h-8v-8c0-4.418-3.582-8-8-8s-8,3.582-8,8v8h-8v-24H201z M185,418c-4.418,0-8,3.582-8,8v24h-8v-40h32v40h-8v-24
	C193,421.582,189.418,418,185,418z M233,418c-4.418,0-8,3.582-8,8v24h-8v-40h32v40h-8v-24C241,421.582,237.418,418,233,418z
	 M281,418c-4.418,0-8,3.582-8,8v24h-8v-40h32v40h-8v-24C289,421.582,285.418,418,281,418z" fill="#0056b3"/>
<g>
</g>
<g>
</g>
<g>
</g>
<g>
</g>
<g>
</g>
<g>
</g>
<g>
</g>
<g>
</g>
<g>
</g>
<g>
</g>
<g>
</g>
<g>
</g>
<g>
</g>
<g>
</g>
<g>
</g>
</svg>

